<?xml version="1.0" encoding="UTF-8" standalone="no"?>
<svg width="1600px" height="900px" viewBox="0 0 1600 900" version="1.1" xmlns="http://www.w3.org/2000/svg" xmlns:xlink="http://www.w3.org/1999/xlink" xmlns:sketch="http://www.bohemiancoding.com/sketch/ns">
    <title>youtube-play-overlay</title>
    <description>Created with Sketch (http://www.bohemiancoding.com/sketch)</description>
    <defs></defs>
    <g id="Page-1" stroke="none" stroke-width="1" fill="none" fill-rule="evenodd" sketch:type="MSPage">
        <g id="Oval-1-+-Oval-2" sketch:type="MSLayerGroup" transform="translate(647.000000, 297.000000)">
            <path d="M153.5,307 C238.275713,307 307,238.275713 307,153.5 C307,68.7242867 238.275713,0 153.5,0 C68.7242867,0 0,68.7242867 0,153.5 C0,238.275713 68.7242867,307 153.5,307 Z" id="Oval-1" fill="#E12926" sketch:type="MSShapeGroup"></path>
            <path d="M113.837321,83 C109.508888,83 106,86.4921787 106,90.8 C106,91.759169 106.173958,92.6779014 106.492187,93.526652 L106.492188,213.473348 C106.173958,214.322099 106,215.240831 106,216.2 C106,220.507821 109.508888,224 113.837321,224 C115.692131,224 117.39645,223.35874 118.73866,222.286831 L226.237403,160.910937 C229.573545,159.800522 232,156.782276 232,153.2 C232,150.449727 230.569771,148.031912 228.409155,146.643064 L118.133364,84.190625 C116.849042,83.4530425 115.396341,83 113.837321,83 Z" id="Oval-2" fill="#FFFFFF" sketch:type="MSShapeGroup"></path>
        </g>
    </g>
</svg>