<?xml version="1.0" encoding="UTF-8" standalone="no"?>
<svg width="53px" height="53px" viewBox="0 0 53 53" version="1.1" xmlns="http://www.w3.org/2000/svg" xmlns:xlink="http://www.w3.org/1999/xlink" xmlns:sketch="http://www.bohemiancoding.com/sketch/ns">
    <!-- Generator: Sketch 3.3.3 (12081) - http://www.bohemiancoding.com/sketch -->
    <title>circle-icon-video</title>
    <desc>Created with Sketch.</desc>
    <defs></defs>
    <g id="Homepage" stroke="none" stroke-width="1" fill="none" fill-rule="evenodd" sketch:type="MSPage">
        <g id="JS---Home---Light" sketch:type="MSArtboardGroup" transform="translate(-286.000000, -925.000000)">
            <g id="Signup" sketch:type="MSLayerGroup" transform="translate(0.000000, 754.000000)">
                <g id="screencasts" transform="translate(249.000000, 151.000000)" sketch:type="MSShapeGroup">
                    <g id="Oval-4-+-thin-0273_video_multimedia_movie-copy-+-thin-0273_video_multimedia_movie-+-Screencasts" transform="translate(25.000000, 20.000000)">
                        <g id="circle-icon-video" transform="translate(12.000000, 0.000000)">
                            <circle id="Oval-4" fill="#77B6CB" cx="26.5" cy="26.5" r="26.5"></circle>
                            <g id="thin-0273_video_multimedia_movie-copy" transform="translate(12.000000, 12.000000)">
                                <g id="Group" transform="translate(0.000000, 2.454545)" stroke="#FFFFFF" stroke-width="1.5">
                                    <rect id="Rectangle-path" x="0.604166667" y="0.614986364" width="27.7916667" height="23.3180591"></rect>
                                    <path d="M13.724975,12.8937273 C13.6026917,12.8940955 13.4851208,12.8016818 13.4851208,12.6795682 L13.4841542,8.36263636 C13.482825,8.01838636 13.6948875,7.94622273 13.90405,8.10490909 L16.5474,10.2002318 C16.5532,10.2048955 16.5587583,10.2099273 16.564075,10.2153273 C16.7188625,10.3707 16.7006167,10.5824045 16.5695125,10.7025545 C16.4507333,10.79595 13.8744458,12.8928682 13.724975,12.8937273 L13.724975,12.8937273 Z" id="Shape"></path>
                                    <rect id="Rectangle-path" x="5.4375" y="20.2512273" width="2.41666667" height="3.68181818"></rect>
                                    <ellipse id="Oval" cx="14.5" cy="10.4693727" rx="6.0381625" ry="6.13280455"></ellipse>
                                    <path d="M0.604166667,20 L28.3958333,20" id="Shape"></path>
                                </g>
                                <rect id="Rectangle-path" x="0" y="0.00135" width="29" height="29.4545455"></rect>
                            </g>
                        </g>
                    </g>
                </g>
            </g>
        </g>
    </g>
</svg>