<?xml version="1.0" encoding="UTF-8" standalone="no"?>
<svg width="53px" height="53px" viewBox="0 0 53 53" version="1.1" xmlns="http://www.w3.org/2000/svg" xmlns:xlink="http://www.w3.org/1999/xlink" xmlns:sketch="http://www.bohemiancoding.com/sketch/ns">
    <!-- Generator: Sketch 3.3.3 (12081) - http://www.bohemiancoding.com/sketch -->
    <title>circle-icon-timer</title>
    <desc>Created with Sketch.</desc>
    <defs></defs>
    <g id="Homepage" stroke="none" stroke-width="1" fill="none" fill-rule="evenodd" sketch:type="MSPage">
        <g id="JS---Home---Light" sketch:type="MSArtboardGroup" transform="translate(-285.000000, -1075.000000)">
            <g id="Signup" sketch:type="MSLayerGroup" transform="translate(0.000000, 754.000000)">
                <g id="courses" transform="translate(248.000000, 301.000000)" sketch:type="MSShapeGroup">
                    <g id="Oval-4-Copy-+-thin-0027_stopwatch_timer_running_time-copy-+-thin-0027_stopwatch_timer_running_time-+-Type-something" transform="translate(19.000000, 20.000000)">
                        <g id="circle-icon-timer" transform="translate(18.000000, 0.000000)">
                            <circle id="Oval-4-Copy" fill="#77B6CB" cx="26.5" cy="26.5" r="26.5"></circle>
                            <g id="thin-0027_stopwatch_timer_running_time-copy" transform="translate(13.000000, 13.000000)">
                                <g id="Group" transform="translate(2.955556, 0.000000)" stroke="#FFFFFF" stroke-width="1.5">
                                    <path d="M21.1067111,8.24168333 L22.5824278,6.74613333 C22.6315444,6.69631667 22.6658444,6.63401667 22.6750611,6.57498333 C22.6853278,6.51373333 22.6720278,6.45983333 22.6371444,6.4246 L20.9132778,4.67845 C20.8789778,4.64263333 20.8251944,4.62968333 20.7663944,4.63901667 C20.7074778,4.64881667 20.6450611,4.68253333 20.5964111,4.73293333 L19.1206944,6.22801667 C19.0715778,6.27771667 21.0575944,8.29196667 21.1067111,8.24168333 L21.1067111,8.24168333 Z" id="Shape"></path>
                                    <path d="M16.2632944,11.1253333 L10.5626111,16.9895833" id="Shape"></path>
                                    <ellipse id="Oval" cx="11.0937944" cy="16.53435" rx="10.5858667" ry="10.7280833"></ellipse>
                                    <path d="M12.7944444,5.94381667 L12.7944444,4.08333333 L13.9611111,4.08333333 L13.9611111,1.16666667 C13.9611111,0.84455 13.6998944,0.583333333 13.3777778,0.583333333 L8.71111111,0.583333333 C8.38899444,0.583333333 8.12777778,0.84455 8.12777778,1.16666667 L8.12777778,4.08333333 L9.29444444,4.08333333 L9.29444444,5.94381667" id="Shape"></path>
                                </g>
                                <rect id="Rectangle-path" x="0" y="0" width="28" height="28"></rect>
                            </g>
                        </g>
                    </g>
                </g>
            </g>
        </g>
    </g>
</svg>