<?xml version="1.0" encoding="UTF-8" standalone="no"?>
<svg width="119px" height="20px" viewBox="0 0 119 20" version="1.1" xmlns="http://www.w3.org/2000/svg" xmlns:xlink="http://www.w3.org/1999/xlink" xmlns:sketch="http://www.bohemiancoding.com/sketch/ns">
    <!-- Generator: Sketch 3.3.3 (12081) - http://www.bohemiancoding.com/sketch -->
    <title>featured-logo-tedxpsu</title>
    <desc>Created with Sketch.</desc>
    <defs></defs>
    <g id="Homepage" stroke="none" stroke-width="1" fill="none" fill-rule="evenodd" sketch:type="MSPage">
        <g id="JS---Home---Light" sketch:type="MSArtboardGroup" transform="translate(-460.000000, -694.000000)">
            <g id="Featured" sketch:type="MSLayerGroup" transform="translate(0.000000, 650.000000)">
                <g id="Group" transform="translate(250.000000, 20.000000)" sketch:type="MSShapeGroup">
                    <g id="featured-logo-tedxpsu" transform="translate(210.000000, 24.000000)">
                        <path d="M99.6411648,6.15105263 L97.294029,6.15105263 C96.4981336,2.96 93.6198708,1.53815789 90.5550245,2.83605263 C89.361314,3.34157895 88.7090668,4.31157895 88.7045612,5.59973684 C88.7000557,6.87368421 89.5251047,7.57078947 90.6750846,7.87947368 C92.3805746,8.33710526 94.0993163,8.74736842 95.8180579,9.15315789 C98.5661893,9.80157895 100.098612,11.345 100.217082,13.6178947 C100.373717,16.6242105 99.1876927,18.3673684 96.318441,19.3468421 C91.6893675,20.9273684 87.1313229,19.2792105 85.9468886,15.5921053 C85.7144543,14.8681579 85.5397973,14.1334211 85.6900713,13.3276316 L87.9916214,13.3276316 C88.345971,17.3757895 91.6967884,18.3881579 95.4830557,17.2765789 C96.8318107,16.8805263 97.6507639,15.9671053 97.6921091,14.5326316 C97.7342494,13.0728947 96.9569065,12.1681579 95.5556748,11.7973684 C93.795588,11.3315789 92.0227795,10.9115789 90.2666682,10.4313158 C87.2951136,9.61815789 86.0817906,8.17131579 86.243461,5.69921053 C86.4342851,2.78815789 88.3425256,0.693157895 91.1627461,0.332894737 C93.1605679,0.0778947368 95.1120089,0.190263158 96.9343786,1.16868421 C98.8611715,2.20289474 99.7789822,3.86236842 99.6411648,6.15105263" id="Fill-4" fill="#161715"></path>
                        <path d="M104.158394,0.712368421 L106.626915,0.712368421 C106.626915,4.02815789 106.624,7.33710526 106.628771,10.6457895 C106.630096,11.5273684 106.564102,12.4215789 106.686283,13.2881579 C107.118817,16.3589474 108.792768,17.7863158 111.638697,17.6042105 C114.666704,17.4102632 116.155396,15.7415789 116.189586,12.3718421 C116.228811,8.52078947 116.198597,4.66894737 116.198597,0.754210526 L118.818452,0.754210526 C118.818452,2.59315789 118.839125,4.46 118.813416,6.32631579 C118.774987,9.11289474 119.046646,11.9192105 118.498027,14.6781579 C117.819276,18.0921053 115.214793,19.9615789 111.355376,19.9121053 C107.170764,19.8581579 104.540837,17.9534211 104.235254,13.9886842 C103.898396,9.61526316 104.158394,5.19631579 104.158394,0.712368421" id="Fill-5" fill="#161715"></path>
                        <path d="M71.8182227,11.5507895 L71.8182227,19.3460526 L69.241833,19.3460526 L69.241833,0.699736842 C72.2793808,0.699736842 75.2750535,0.566315789 78.2534989,0.735263158 C81.5788731,0.923684211 83.3227929,3.14236842 83.165363,6.58710526 C83.0267506,9.61289474 80.8778597,11.4913158 77.4464722,11.5455263 C75.5899131,11.5747368 73.732294,11.5507895 71.8182227,11.5507895 L71.8182227,11.5507895 Z M71.8195479,9.16342105 C73.9639332,9.16342105 76.0383497,9.29894737 78.0852027,9.12105263 C79.7678998,8.975 80.5099933,7.79105263 80.5060178,6.10026316 C80.5020423,4.42342105 79.7843318,3.20921053 78.1050802,3.05815789 C76.0349042,2.87157895 73.9347795,3.01342105 71.8195479,3.01342105 L71.8195479,9.16342105 L71.8195479,9.16342105 Z" id="Fill-6" fill="#161715"></path>
                        <g id="Group" transform="translate(0.000000, 0.526316)" fill="#FD3500">
                            <path d="M34.2669644,0.183684211 C37.9443029,0.183684211 41.5975234,-0.0439473684 45.2088686,0.243421053 C49.3391492,0.572105263 51.908118,3.74894737 52.2139666,8.24789474 C52.6883764,15.2271053 49.2826971,18.8555263 42.2272428,18.8781579 C39.5959911,18.8865789 36.9647394,18.8794737 34.2669644,18.8794737 L34.2669644,0.183684211 L34.2669644,0.183684211 Z M40.1276481,4.99052632 L40.1276481,13.9839474 C42.1058575,13.9763158 44.2139332,14.4828947 45.5197528,12.5257895 C46.735196,10.7036842 46.8279577,8.65947368 45.6732071,6.77052632 C44.4015768,4.69 42.2508307,4.92368421 40.1276481,4.99052632 L40.1276481,4.99052632 Z" id="Fill-1"></path>
                            <path d="M33.1951693,0.179210526 L33.1951693,4.93210526 L23.2784143,4.93210526 L23.2784143,7.23263158 L33.1869532,7.23263158 L33.1869532,11.6889474 L23.2556214,11.6889474 L23.2556214,14.0118421 L33.1787372,14.0118421 L33.1787372,18.8171053 L17.4315122,18.8171053 L17.4315122,0.179210526 L33.1951693,0.179210526" id="Fill-2"></path>
                            <path d="M0.172801782,0.161842105 L16.4328664,0.161842105 L16.4328664,4.94131579 L11.2875078,4.94131579 L11.2875078,18.8192105 L5.39024944,18.8192105 L5.39024944,5.00605263 L0.172801782,5.00605263 L0.172801782,0.161842105" id="Fill-3"></path>
                            <path d="M52.8132071,11.595 C54.1940312,9.56789474 55.4672517,7.69921053 56.7987795,5.74473684 C55.5576281,3.93052632 54.319922,2.12131579 53.0032361,0.196578947 L57.2715991,0.196578947 C57.714735,0.942631579 58.2153831,1.78552632 58.7910356,2.75447368 C59.357147,1.82157895 59.8527595,1.00473684 60.3602984,0.167894737 L64.6530445,0.167894737 C63.339539,2.08131579 62.0997127,3.88736842 60.8317929,5.73421053 C62.1397327,7.65868421 63.4368062,9.56684211 64.8131247,11.5921053 L60.5283296,11.5921053 C59.983686,10.7265789 59.4273808,9.84263158 58.7960713,8.83921053 C58.1806637,9.83973684 57.6338998,10.7281579 57.1006526,11.595 L52.8132071,11.595" id="Fill-7"></path>
                        </g>
                    </g>
                </g>
            </g>
        </g>
    </g>
</svg>