<?xml version="1.0" encoding="UTF-8" standalone="no"?>
<svg width="120px" height="23px" viewBox="0 0 120 23" version="1.1" xmlns="http://www.w3.org/2000/svg" xmlns:xlink="http://www.w3.org/1999/xlink" xmlns:sketch="http://www.bohemiancoding.com/sketch/ns">
    <!-- Generator: Sketch 3.3.3 (12081) - http://www.bohemiancoding.com/sketch -->
    <title>featured-logo-cs</title>
    <desc>Created with Sketch.</desc>
    <defs></defs>
    <g id="Homepage" stroke="none" stroke-width="1" fill="none" fill-rule="evenodd" sketch:type="MSPage">
        <g id="JS---Home---Light" sketch:type="MSArtboardGroup" transform="translate(-866.000000, -695.000000)">
            <g id="Featured" sketch:type="MSLayerGroup" transform="translate(0.000000, 650.000000)">
                <g id="Group" transform="translate(250.000000, 20.000000)" sketch:type="MSShapeGroup">
                    <g id="featured-logo-cs" transform="translate(616.000000, 25.000000)">
                        <path d="M34.1716997,13.54 C32.3459879,13.54 31.2148404,12.44 31.2148404,10.14 C31.2148404,7.84 32.3459879,6.74 34.1716997,6.74 C34.8464193,6.74 35.5211389,6.96 36.1164797,7.32 L37.2476273,5.12 C36.2553926,4.6 35.124245,4.3 33.9534081,4.3 C30.4805867,4.3 28,6.44 28,10.14 C28,13.84 30.4805867,15.98 33.9534081,15.98 C34.9456428,15.98 35.9180328,15.76 36.7911993,15.38 L35.6798965,13.2 C35.2036238,13.42 34.6876618,13.54 34.1716997,13.54 L34.1716997,13.54 Z M83.9620362,9.74 C84.4383089,9.74 84.8748921,9.92 85.1924072,10.24 L85.8472821,8.34 C85.1527179,7.92 84.3192407,7.7 83.4063848,7.7 C81.0250216,7.7 79.119931,9.22 79.119931,11.78 C79.119931,14.34 81.0448663,15.86 83.4063848,15.86 C84.3192407,15.86 85.1527179,15.64 85.8472821,15.22 L85.1924072,13.32 C84.8748921,13.64 84.4383089,13.82 83.9620362,13.82 C82.9698016,13.82 82.1760138,13.22 82.1760138,11.78 C82.1760138,10.34 82.9698016,9.74 83.9620362,9.74 L83.9620362,9.74 Z M41.4943917,7.7 C39.1130285,7.7 37.2079379,9.22 37.2079379,11.78 C37.2079379,14.34 39.1328732,15.86 41.4943917,15.86 C43.8559103,15.86 45.7808456,14.34 45.7808456,11.78 C45.8006903,9.22 43.875755,7.7 41.4943917,7.7 L41.4943917,7.7 Z M41.4943917,14.08 C40.8196721,14.08 40.2640207,13.24 40.2640207,11.78 C40.2640207,10.32 40.8196721,9.48 41.4943917,9.48 C42.1691113,9.48 42.7247627,10.32 42.7247627,11.78 C42.7446074,13.24 42.188956,14.08 41.4943917,14.08 L41.4943917,14.08 Z M100.968939,7.7 C98.5875755,7.7 96.6824849,9.22 96.6824849,11.78 C96.6824849,14.34 98.6074202,15.86 100.968939,15.86 C103.330457,15.86 105.255393,14.34 105.255393,11.78 C105.255393,9.22 103.330457,7.7 100.968939,7.7 L100.968939,7.7 Z M100.968939,14.08 C100.294219,14.08 99.7385677,13.24 99.7385677,11.78 C99.7385677,10.32 100.294219,9.48 100.968939,9.48 C101.643658,9.48 102.19931,10.34 102.19931,11.78 C102.19931,13.24 101.643658,14.08 100.968939,14.08 L100.968939,14.08 Z M110.494392,7.7 C108.113028,7.7 106.207938,9.22 106.207938,11.78 C106.207938,14.34 108.132873,15.86 110.494392,15.86 C112.875755,15.86 114.780846,14.34 114.780846,11.78 C114.780846,9.22 112.85591,7.7 110.494392,7.7 L110.494392,7.7 Z M110.494392,14.08 C109.819672,14.08 109.264021,13.24 109.264021,11.78 C109.264021,10.32 109.819672,9.48 110.494392,9.48 C111.169111,9.48 111.724763,10.34 111.724763,11.78 C111.724763,13.24 111.169111,14.08 110.494392,14.08 L110.494392,14.08 Z M60.2476273,12.7 C62.8075928,12.78 64.3951682,11.72 64.3951682,10.18 C64.3951682,8.7 63.0457291,7.7 61.3986195,7.7 C59.0172563,7.7 57.1121657,9.22 57.1121657,11.78 C57.1121657,14.34 58.8188093,15.86 61.1803279,15.86 C63.442623,15.86 64.7722174,14.14 64.7722174,14.14 L63.9784297,12.84 C63.5173217,13.1904297 62.8472821,13.96 61.6566005,13.96 C60.9223469,13.96 60.4460742,13.54 60.2476273,12.7 Z M61.3986195,9.48 C61.8352028,9.48 62.0534944,9.86 62.0534944,10.24 C62.0534944,10.94 61.5970664,11.34 60.1682485,11.42 C60.267472,10.2 60.783434,9.48 61.3986195,9.48 L61.3986195,9.48 Z M55.2269198,12.82 L55.2269198,4 L52.3097498,4 L52.3097498,8.96 C51.7342537,8.14 50.8809318,7.7 49.9283865,7.7 C48.1820535,7.7 46.7730802,9.22 46.7730802,11.78 C46.7730802,14.34 48.1820535,15.86 49.9283865,15.86 C50.9801553,15.86 51.9128559,15.32 52.488352,14.32 C52.8654012,15.42 53.7782571,15.86 54.7704918,15.86 L56.2786885,15.58 L56.4572908,13.48 C56.4374461,13.48 55.2269198,14.18 55.2269198,12.82 L55.2269198,12.82 Z M51.0595341,13.98 C50.3848145,13.98 49.8291631,13.18 49.8291631,11.78 C49.8291631,10.4 50.3848145,9.58 51.0595341,9.58 C51.7342537,9.58 52.2899051,10.38 52.2899051,11.78 C52.3097498,13.18 51.7540984,13.98 51.0595341,13.98 L51.0595341,13.98 Z M94.7178602,12.82 L94.7178602,9.86 C94.7178602,8.54 94.2614323,7.7 92.8723037,7.7 C91.7610009,7.7 90.7489215,8.28 90.2131148,9.24 L90.2131148,4 L87.3157895,4 L87.3157895,15.62 L90.2329594,15.62 L90.2329594,12.84 C90.2329594,10.3 91.0267472,9.58 91.4633305,9.58 C91.7808456,9.58 91.9197584,9.8 91.9197584,10.34 L91.9197584,13.12 C91.9197584,15.12 93.0310613,15.86 94.3209664,15.86 C95.313201,15.86 95.8291631,15.58 95.8291631,15.58 L96.0077653,13.48 C96.02761,13.48 94.7178602,14.1 94.7178602,12.82 L94.7178602,12.82 Z M118.769629,12.82 L118.769629,4 L115.852459,4 L115.852459,13.12 C115.852459,15.12 117.023296,15.86 118.313201,15.86 C119.305436,15.86 119.821398,15.58 119.821398,15.58 L120,13.48 C119.980155,13.48 118.769629,14.18 118.769629,12.82 L118.769629,12.82 Z M75.1113028,8.8 C77.6712683,9.74 78.0880069,10.74 78.1276963,12.4 C78.1276963,14.54 76.6194996,16 73.7221743,16 C71.1225194,16 69.9516855,14.9381833 69.1777394,14.42 L70.1501294,12.46 C70.1501294,12.46 72.0750647,13.72 73.7221743,13.72 C74.515962,13.72 75.0319241,13.4 75.0319241,12.7 C75.0319241,12.14 74.6945643,11.72 72.9283865,11.14 C70.6462468,10.38 69.9516825,9.08 69.9516825,7.66 C69.9516825,5.74 71.3805004,4.28 74.1190682,4.28 C75.3644519,4.28 77.3304593,5.05498045 77.9887834,5.5 L77.175151,7.42 C77.175151,7.42 75.3692839,6.44 73.9206212,6.44 C73.3054357,6.44 72.9283865,6.76 72.9283865,7.34 C72.9283865,7.96 75.1113028,8.8 75.1113028,8.8 Z" id="Shape" fill="#4D4F50"></path>
                        <path d="M12.1996303,4.9103512 L12.1996303,7.60813309 L15.4121996,10.5 L12.1996303,13.3918669 L12.1996303,16.0896488 L18.3807763,10.5 L12.1996303,4.9103512 Z M9.80036969,13.3918669 L6.58780037,10.5 L9.80036969,7.60813309 L9.80036969,4.9103512 L3.59889094,10.5 L9.80036969,16.0896488 L9.80036969,13.3918669 Z M11,0 C4.92051756,0 0,4.69685767 0,10.5 C0,16.3031423 4.92051756,21 11,21 C17.0794824,21 22,16.3031423 22,10.5 C22,4.69685767 17.0591497,0 11,0 L11,0 Z M11,19.1173752 C6.01848429,19.1173752 1.97227357,15.2550832 1.97227357,10.5 C1.97227357,5.74491682 6.01848429,1.88262477 11,1.88262477 C15.9815157,1.88262477 20.0277264,5.74491682 20.0277264,10.5 C20.0277264,15.2550832 15.9815157,19.1173752 11,19.1173752 L11,19.1173752 Z" id="Shape" fill="#4CADC1"></path>
                        <path d="M69,21.5631068 C69,21.038835 69.3976608,20.7864078 69.994152,20.7864078 C70.2327485,20.7864078 70.4116959,20.8252427 70.5906433,20.8834951 L70.5906433,20.8446602 C70.5906433,20.5728155 70.4116959,20.4174757 70.0736842,20.4174757 C69.8152047,20.4174757 69.6163743,20.4757282 69.3976608,20.5533981 L69.2187135,20.0291262 C69.497076,19.9126214 69.7555556,19.8349515 70.1730994,19.8349515 C70.5508772,19.8349515 70.8292398,19.9320388 71.0081871,20.1067961 C71.1871345,20.2815534 71.2666667,20.5533981 71.2666667,20.8640777 L71.2666667,22.2427184 L70.5906433,22.2427184 L70.5906433,21.9902913 C70.4116959,22.1650485 70.1929825,22.3009709 69.8549708,22.3009709 C69.3777778,22.3009709 69,22.0291262 69,21.5631068 L69,21.5631068 Z M70.5906433,21.407767 L70.5906433,21.2912621 C70.471345,21.2330097 70.3122807,21.1941748 70.1532164,21.1941748 C69.8549708,21.1941748 69.6760234,21.3106796 69.6760234,21.5242718 C69.6760234,21.6990291 69.8350877,21.815534 70.0538012,21.815534 C70.3719298,21.815534 70.5906433,21.6407767 70.5906433,21.407767 L70.5906433,21.407767 Z M73.2947368,19.1359223 L74.6070175,19.1359223 C75.3625731,19.1359223 75.819883,19.5825243 75.819883,20.223301 C75.819883,20.9417476 75.2432749,21.3106796 74.5274854,21.3106796 L73.9906433,21.3106796 L73.9906433,22.2427184 L73.2947368,22.2427184 L73.2947368,19.1359223 L73.2947368,19.1359223 Z M74.5473684,20.7087379 C74.9052632,20.7087379 75.1040936,20.4951456 75.1040936,20.2427184 C75.1040936,19.9320388 74.8853801,19.776699 74.5274854,19.776699 L73.9906433,19.776699 L73.9906433,20.7281553 L74.5473684,20.7281553 L74.5473684,20.7087379 Z M76.297076,19 L76.9929825,19 L76.9929825,22.2427184 L76.297076,22.2427184 L76.297076,19 L76.297076,19 Z M77.6292398,21.407767 L77.6292398,19.8543689 L78.3251462,19.8543689 L78.3251462,21.1941748 C78.3251462,21.5242718 78.4842105,21.6796117 78.7426901,21.6796117 C79.0011696,21.6796117 79.180117,21.5242718 79.180117,21.1941748 L79.180117,19.8543689 L79.8760234,19.8543689 L79.8760234,22.2427184 L79.180117,22.2427184 L79.180117,21.9126214 C79.0210526,22.1067961 78.8222222,22.3009709 78.4643275,22.3009709 C77.9274854,22.3009709 77.6292398,21.9514563 77.6292398,21.407767 L77.6292398,21.407767 Z M80.4923977,19.8543689 L81.1883041,19.8543689 L81.1883041,20.3398058 C81.3274854,20.0097087 81.5660819,19.7961165 81.9637427,19.815534 L81.9637427,20.5145631 L81.9239766,20.5145631 C81.4666667,20.5145631 81.1883041,20.7864078 81.1883041,21.3495146 L81.1883041,22.223301 L80.4923977,22.223301 L80.4923977,19.8543689 L80.4923977,19.8543689 Z M82.1426901,21.5631068 C82.1426901,21.038835 82.5403509,20.7864078 83.1368421,20.7864078 C83.3754386,20.7864078 83.554386,20.8252427 83.7333333,20.8834951 L83.7333333,20.8446602 C83.7333333,20.5728155 83.554386,20.4174757 83.2163743,20.4174757 C82.9578947,20.4174757 82.7590643,20.4757282 82.5403509,20.5533981 L82.3614035,20.0291262 C82.6397661,19.9126214 82.8982456,19.8349515 83.3157895,19.8349515 C83.6935673,19.8349515 83.9719298,19.9320388 84.1508772,20.1067961 C84.3298246,20.2815534 84.4093567,20.5533981 84.4093567,20.8640777 L84.4093567,22.2427184 L83.7333333,22.2427184 L83.7333333,21.9902913 C83.554386,22.1650485 83.3356725,22.3009709 82.9976608,22.3009709 C82.5204678,22.3009709 82.1426901,22.0291262 82.1426901,21.5631068 L82.1426901,21.5631068 Z M83.7333333,21.407767 L83.7333333,21.2912621 C83.6140351,21.2330097 83.4549708,21.1941748 83.2959064,21.1941748 C82.9976608,21.1941748 82.8187135,21.3106796 82.8187135,21.5242718 C82.8187135,21.6990291 82.9777778,21.815534 83.1964912,21.815534 C83.5146199,21.815534 83.7333333,21.6407767 83.7333333,21.407767 L83.7333333,21.407767 Z M85.005848,19 L85.7017544,19 L85.7017544,22.2427184 L85.005848,22.2427184 L85.005848,19 L85.005848,19 Z M86.1590643,21.9320388 L86.4573099,21.4854369 C86.7157895,21.6796117 86.994152,21.776699 87.2327485,21.776699 C87.4315789,21.776699 87.5309942,21.6990291 87.5309942,21.6019417 C87.5309942,21.4466019 87.2923977,21.407767 87.0339181,21.3300971 C86.6959064,21.2330097 86.2982456,21.0776699 86.2982456,20.6116505 C86.2982456,20.1262136 86.6959064,19.8543689 87.1929825,19.8543689 C87.5111111,19.8543689 87.8491228,19.9514563 88.1076023,20.1262136 L87.8491228,20.592233 C87.6105263,20.4563107 87.3719298,20.3786408 87.1929825,20.3786408 C87.0339181,20.3786408 86.9345029,20.4563107 86.9345029,20.5339806 C86.9345029,20.6699029 87.1730994,20.7281553 87.4315789,20.8252427 C87.7695906,20.9417476 88.1672515,21.0970874 88.1672515,21.5436893 C88.1672515,22.0679612 87.7695906,22.3203883 87.2327485,22.3203883 C86.8748538,22.3009709 86.497076,22.184466 86.1590643,21.9320388 L86.1590643,21.9320388 Z M88.6643275,19 L89.4,19 L89.4,19.6019417 L88.6643275,19.6019417 L88.6643275,19 L88.6643275,19 Z M88.6842105,19.8543689 L89.380117,19.8543689 L89.380117,22.2427184 L88.6842105,22.2427184 L88.6842105,19.8543689 L88.6842105,19.8543689 Z M90.0362573,22.7281553 L90.2748538,22.223301 C90.5333333,22.3592233 90.7719298,22.4368932 91.1099415,22.4368932 C91.5871345,22.4368932 91.805848,22.223301 91.805848,21.7961165 L91.805848,21.6796117 C91.6070175,21.9126214 91.3684211,22.0679612 91.0105263,22.0679612 C90.4339181,22.0679612 89.9169591,21.6601942 89.9169591,20.961165 C89.9169591,20.2427184 90.4339181,19.8543689 91.0105263,19.8543689 C91.3883041,19.8543689 91.6070175,20.0097087 91.805848,20.2038835 L91.805848,19.8932039 L92.5017544,19.8932039 L92.5017544,21.7378641 C92.5017544,22.1650485 92.4023392,22.4757282 92.1836257,22.6699029 C91.9649123,22.8834951 91.6070175,23 91.1298246,23 C90.7321637,22.961165 90.354386,22.8834951 90.0362573,22.7281553 L90.0362573,22.7281553 Z M91.805848,20.9417476 C91.805848,20.6116505 91.5473684,20.3786408 91.2093567,20.3786408 C90.871345,20.3786408 90.6128655,20.6116505 90.6128655,20.9223301 C90.6128655,21.2524272 90.871345,21.4660194 91.2093567,21.4660194 C91.5473684,21.4660194 91.805848,21.2524272 91.805848,20.9417476 L91.805848,20.9417476 Z M93.0982456,19 L93.794152,19 L93.794152,20.2038835 C93.9532164,20.0097087 94.1520468,19.815534 94.5099415,19.815534 C95.0269006,19.815534 95.3450292,20.1456311 95.3450292,20.7087379 L95.3450292,22.2621359 L94.6491228,22.2621359 L94.6491228,20.9223301 C94.6491228,20.592233 94.4900585,20.4368932 94.2315789,20.4368932 C93.9730994,20.4368932 93.794152,20.592233 93.794152,20.9223301 L93.794152,22.2621359 L93.0982456,22.2621359 L93.0982456,19 L93.0982456,19 Z M96.0608187,21.5631068 L96.0608187,20.4368932 L95.7625731,20.4368932 L95.7625731,19.8543689 L96.0608187,19.8543689 L96.0608187,19.2524272 L96.7567251,19.2524272 L96.7567251,19.8543689 L97.3333333,19.8543689 L97.3333333,20.4368932 L96.7567251,20.4368932 L96.7567251,21.4660194 C96.7567251,21.6213592 96.8163743,21.6990291 96.9754386,21.6990291 C97.0947368,21.6990291 97.2140351,21.6601942 97.3134503,21.6213592 L97.3134503,22.1650485 C97.174269,22.2427184 96.9953216,22.3009709 96.7567251,22.3009709 C96.3391813,22.2815534 96.0608187,22.1262136 96.0608187,21.5631068 L96.0608187,21.5631068 Z M99.0830409,21.0582524 C99.0830409,20.3592233 99.619883,19.815534 100.355556,19.815534 C100.812865,19.815534 101.111111,19.9708738 101.329825,20.223301 L100.912281,20.6699029 C100.753216,20.5145631 100.594152,20.3980583 100.355556,20.3980583 C100.017544,20.3980583 99.7590643,20.6893204 99.7590643,21.038835 C99.7590643,21.407767 99.9976608,21.6990291 100.375439,21.6990291 C100.614035,21.6990291 100.773099,21.6019417 100.932164,21.4466019 L101.329825,21.8543689 C101.091228,22.1067961 100.812865,22.2815534 100.335673,22.2815534 C99.619883,22.3009709 99.0830409,21.7572816 99.0830409,21.0582524 L99.0830409,21.0582524 Z M101.62807,21.0582524 C101.62807,20.3592233 102.184795,19.815534 102.960234,19.815534 C103.715789,19.815534 104.272515,20.3592233 104.272515,21.0582524 C104.272515,21.7378641 103.715789,22.3009709 102.940351,22.3009709 C102.184795,22.3009709 101.62807,21.7572816 101.62807,21.0582524 L101.62807,21.0582524 Z M103.596491,21.0582524 C103.596491,20.6893204 103.338012,20.3980583 102.960234,20.3980583 C102.562573,20.3980583 102.323977,20.6893204 102.323977,21.038835 C102.323977,21.3883495 102.582456,21.6990291 102.960234,21.6990291 C103.357895,21.7184466 103.596491,21.4271845 103.596491,21.0582524 L103.596491,21.0582524 Z M104.769591,19.8543689 L105.465497,19.8543689 L105.465497,20.184466 C105.624561,19.9902913 105.843275,19.7961165 106.181287,19.7961165 C106.499415,19.7961165 106.738012,19.9320388 106.877193,20.184466 C107.095906,19.9320388 107.354386,19.7961165 107.672515,19.7961165 C108.189474,19.7961165 108.507602,20.1067961 108.507602,20.6699029 L108.507602,22.223301 L107.811696,22.223301 L107.811696,20.8834951 C107.811696,20.5533981 107.672515,20.3980583 107.414035,20.3980583 C107.155556,20.3980583 106.996491,20.5533981 106.996491,20.8834951 L106.996491,22.223301 L106.300585,22.223301 L106.300585,20.8834951 C106.300585,20.5533981 106.161404,20.3980583 105.902924,20.3980583 C105.644444,20.3980583 105.48538,20.5533981 105.48538,20.8834951 L105.48538,22.223301 L104.789474,22.223301 L104.789474,19.8543689 L104.769591,19.8543689 Z M109.104094,19.8543689 L109.8,19.8543689 L109.8,20.2038835 C109.959064,19.9902913 110.197661,19.815534 110.555556,19.815534 C111.132164,19.815534 111.669006,20.2427184 111.669006,21.0582524 C111.669006,21.8543689 111.132164,22.3009709 110.555556,22.3009709 C110.177778,22.3009709 109.959064,22.1262136 109.8,21.9514563 L109.8,22.9805825 L109.104094,22.9805825 L109.104094,19.8543689 L109.104094,19.8543689 Z M110.973099,21.0582524 C110.973099,20.6504854 110.694737,20.3980583 110.376608,20.3980583 C110.05848,20.3980583 109.780117,20.6699029 109.780117,21.0582524 C109.780117,21.4466019 110.05848,21.7184466 110.376608,21.7184466 C110.71462,21.7184466 110.973099,21.4660194 110.973099,21.0582524 L110.973099,21.0582524 Z M112.046784,21.5631068 C112.046784,21.038835 112.444444,20.7864078 113.040936,20.7864078 C113.279532,20.7864078 113.45848,20.8252427 113.637427,20.8834951 L113.637427,20.8446602 C113.637427,20.5728155 113.45848,20.4174757 113.120468,20.4174757 C112.861988,20.4174757 112.663158,20.4757282 112.444444,20.5533981 L112.265497,20.0291262 C112.54386,19.9126214 112.802339,19.8349515 113.219883,19.8349515 C113.597661,19.8349515 113.876023,19.9320388 114.054971,20.1067961 C114.233918,20.2815534 114.31345,20.5533981 114.31345,20.8640777 L114.31345,22.2427184 L113.637427,22.2427184 L113.637427,21.9902913 C113.45848,22.1650485 113.239766,22.3009709 112.901754,22.3009709 C112.424561,22.3009709 112.046784,22.0291262 112.046784,21.5631068 L112.046784,21.5631068 Z M113.637427,21.407767 L113.637427,21.2912621 C113.518129,21.2330097 113.359064,21.1941748 113.2,21.1941748 C112.901754,21.1941748 112.722807,21.3106796 112.722807,21.5242718 C112.722807,21.6990291 112.881871,21.815534 113.100585,21.815534 C113.418713,21.815534 113.637427,21.6407767 113.637427,21.407767 L113.637427,21.407767 Z M114.890058,19.8543689 L115.585965,19.8543689 L115.585965,20.184466 C115.745029,19.9902913 115.94386,19.7961165 116.301754,19.7961165 C116.818713,19.7961165 117.136842,20.1262136 117.136842,20.6893204 L117.136842,22.2427184 L116.440936,22.2427184 L116.440936,20.9029126 C116.440936,20.5728155 116.281871,20.4174757 116.023392,20.4174757 C115.764912,20.4174757 115.585965,20.5728155 115.585965,20.9029126 L115.585965,22.2427184 L114.890058,22.2427184 L114.890058,19.8543689 L114.890058,19.8543689 Z M117.633918,22.8058252 L117.872515,22.3203883 C117.97193,22.3786408 118.071345,22.4174757 118.17076,22.4174757 C118.290058,22.4174757 118.349708,22.3786408 118.409357,22.2621359 L117.454971,19.8737864 L118.190643,19.8737864 L118.747368,21.5048544 L119.284211,19.8737864 L120,19.8737864 L119.065497,22.3203883 C118.88655,22.8058252 118.667836,22.9805825 118.270175,22.9805825 C117.991813,22.9805825 117.812865,22.9029126 117.633918,22.8058252 L117.633918,22.8058252 Z" id="Shape" fill="#4D4F50"></path>
                    </g>
                </g>
            </g>
        </g>
    </g>
</svg>