<?xml version="1.0" encoding="UTF-8" standalone="no"?>
<svg width="120px" height="53px" viewBox="0 0 120 53" version="1.1" xmlns="http://www.w3.org/2000/svg" xmlns:xlink="http://www.w3.org/1999/xlink" xmlns:sketch="http://www.bohemiancoding.com/sketch/ns">
    <!-- Generator: Sketch 3.3.3 (12081) - http://www.bohemiancoding.com/sketch -->
    <title>featured-logo-html5</title>
    <desc>Created with Sketch.</desc>
    <defs></defs>
    <g id="Homepage" stroke="none" stroke-width="1" fill="none" fill-rule="evenodd" sketch:type="MSPage">
        <g id="JS---Home---Light" sketch:type="MSArtboardGroup" transform="translate(-663.000000, -675.000000)">
            <g id="Featured" sketch:type="MSLayerGroup" transform="translate(0.000000, 650.000000)">
                <g id="Group" transform="translate(250.000000, 20.000000)" sketch:type="MSShapeGroup">
                    <g id="featured-logo-html5" transform="translate(413.000000, 5.000000)">
                        <g id="Page-1">
                            <g id="Artboard-1">
                                <g id="logo">
                                    <g id="JS-Sword" transform="translate(0.000000, 16.921616)">
                                        <g id="Blade" transform="translate(34.892660, 6.655946)">
                                            <path d="M4.42841407,0.413196761 L4.42841407,2.11520196 C4.22782511,1.91390854 3.93554681,1.78541083 3.60766101,1.78541083 C3.00322356,1.78541083 2.51421378,2.21717492 2.51421378,2.75091196 C2.51421378,2.21717492 2.02431381,1.78541083 1.41987636,1.78541083 C0.815438912,1.78541083 0.321681466,2.21717492 0.321681466,2.75091196 L0.321681466,7.68982162 C0.321681466,8.22326395 0.815438912,8.65561746 1.41987636,8.65561746 C2.02431381,8.65561746 2.51421378,8.22326395 2.51421378,7.68982162 C2.51421378,8.22326395 3.00322356,8.65561746 3.60766101,8.65561746 C4.21209846,8.65561746 4.70170169,8.22326395 4.70170169,7.68982162 C4.70170169,8.22326395 5.19100821,8.65561746 5.79603909,8.65561746 C6.39988311,8.65561746 6.88978307,8.22326395 6.88978307,7.68982162 L6.88978307,5.9362405 L84.2607441,5.96158636 L84.5723097,5.26339582 C83.1907384,1.5207527 79.0454312,0.413196761 79.0454312,0.413196761 L4.42841407,0.413196761" id="Sword-Top" fill="#70A39E"></path>
                                            <path d="M84.5723097,5.26221697 C83.1907384,9.00486009 79.0454312,10.0738078 79.0454312,10.0738078 L4.42841407,10.0738078 L4.42841407,5.26221697 L84.5723097,5.26221697" id="Sword-Bottom" fill="#B8C6C2"></path>
                                        </g>
                                        <g id="Hilt">
                                            <path d="M5.112348,9.2524245 C6.72418118,9.2524245 8.03127345,10.4112616 8.03127345,11.8341674 C8.03127345,13.2570733 6.72418118,14.4111949 5.112348,14.4111949 C3.50051478,14.4111949 2.18837811,13.2570733 2.18837811,11.8341674 C2.18837811,10.4112616 3.50051478,9.2524245 5.112348,9.2524245 M5.112348,7.51829484 C2.29163988,7.51829484 0.000296729234,9.48790538 0.000296729234,11.9193414 C0.000296729234,14.3501879 2.29163988,16.3206826 5.112348,16.3206826 C6.95503652,16.3206826 8.56538609,15.4783743 9.46328877,14.2184483 L9.46328877,14.3439988 C9.46328877,14.8774412 9.95526581,15.3121525 10.5597033,15.3121525 C11.0220074,15.3121525 11.4148769,15.0598725 11.574814,14.7023778 C11.7350478,15.060462 12.1276205,15.3121525 12.5902214,15.3121525 C13.0540092,15.3121525 13.4513297,15.0578095 13.6103765,14.697957 C13.7697201,15.0578095 14.1667438,15.3121525 14.6311251,15.3121525 C15.0949129,15.3121525 15.4868922,15.0578095 15.6459391,14.697957 C15.8055794,15.0578095 16.2028999,15.3121525 16.6666877,15.3121525 C17.2708284,15.3121525 17.7580578,14.8774412 17.7580578,14.3439988 L17.7580578,9.40508921 C17.7580578,8.87135217 17.2708284,8.44135636 16.6666877,8.44135636 C16.2028999,8.44135636 15.8055794,8.69599403 15.6459391,9.0549624 C15.4868922,8.69599403 15.0949129,8.44135636 14.6311251,8.44135636 C14.1667438,8.44135636 13.7697201,8.69599403 13.6103765,9.0549624 C13.4513297,8.69599403 13.0540092,8.44135636 12.5902214,8.44135636 C12.1276205,8.44135636 11.7350478,8.69304685 11.574814,9.05113105 C11.4148769,8.69304685 11.0220074,8.44135636 10.5597033,8.44135636 C9.95526581,8.44135636 9.46328877,8.87135217 9.46328877,9.40508921 L9.46328877,9.62023445 C8.56538609,8.35971909 6.95503652,7.51829484 5.112348,7.51829484" id="Grip" fill="#70A39E"></path>
                                            <path d="M41.7515837,13.8677321 C41.403817,14.0174496 41.1053074,14.2679612 40.8560548,14.6207405 C40.607099,14.9735197 40.4308419,15.4150096 40.3275801,15.9457994 C40.2522109,16.3442602 40.2151197,17.032725 40.2151197,18.0111938 C40.2151197,19.620657 40.1323323,20.7441278 39.968241,21.3830798 C39.8044464,22.0214422 39.5011892,22.5339595 39.0596561,22.9200421 C38.618123,23.3058299 37.9694729,23.6102752 37.1140025,23.834262 C36.5413151,23.9833901 35.6395549,24.0576594 34.408722,24.0576594 L33.6615578,24.0576594 L33.6615578,21.071856 C34.6671732,21.071856 35.3250219,21.0164487 35.6345105,20.9041606 C35.945186,20.7921671 36.1721839,20.6303661 36.3184714,20.4190522 C36.4638687,20.2071489 36.5392379,19.8478858 36.5436889,19.3427366 C36.5484365,18.8367031 36.588495,17.8706126 36.6638642,16.443286 C36.7107475,15.5809367 36.8371541,14.8901141 37.0439744,14.3719972 C37.2502012,13.8535856 37.5255659,13.4141588 37.8685849,13.0534221 C38.2116039,12.6923907 38.6510599,12.3752725 39.1866562,12.1011833 C38.4911229,11.7030173 37.9834191,11.3131034 37.6641385,10.9314416 C37.2223086,10.3841474 36.9217219,9.68772523 36.7623783,8.84099602 C36.6591166,8.2606933 36.5837473,6.98337895 36.5368641,5.00964234 C36.5276655,4.38719473 36.4638687,3.97252436 36.3466607,3.76504182 C36.2291559,3.557854 36.0175879,3.3978213 35.7122536,3.28582788 C35.4072159,3.17383447 34.7235518,3.11813248 33.6615578,3.11813248 L33.6615578,0.144412563 L34.408722,0.144412563 C35.6772395,0.144412563 36.649918,0.23164954 37.3261639,0.405828773 C38.0024098,0.579713286 38.570943,0.876495842 39.0311701,1.29499755 C39.4919906,1.7140887 39.8044464,2.22837426 39.968241,2.83844366 C40.1329257,3.44792362 40.2151197,4.4081198 40.2151197,5.71873748 C40.2151197,7.23595358 40.2854445,8.22797945 40.4266877,8.69186796 C40.6332112,9.35557632 40.9477442,9.83036947 41.3708801,10.1165421 C41.7934225,10.4033042 42.4373247,10.5665788 43.3019937,10.6081342 L43.3019937,13.5939377 C42.6156594,13.6278304 42.0993504,13.7188988 41.7515837,13.8677321 L41.7515837,13.8677321 Z" id="Cross-guard" fill="#D3492B"></path>
                                            <path d="M25.674497,17.1046365 C26.332049,17.4712676 27.5780151,17.8989056 28.7198292,17.8989056 C29.8966573,17.8989056 30.5542093,17.4403221 30.5542093,16.5549846 C30.5542093,15.7910717 30.0696504,15.3024267 28.5815533,14.5385137 C25.8474901,13.1633525 25.1555176,11.6057598 25.1555176,10.2305986 C25.1555176,7.54216713 27.3355873,5.4953401 30.7274992,5.4953401 C32.1461616,5.4953401 33.2529617,5.80096422 34.1532382,6.19824613 L33.3568169,9.13100004 C32.6995616,8.79472506 31.9040306,8.51975175 31.0037541,8.51975175 C29.8275194,8.51975175 29.3082432,9.13100004 29.3082432,9.80325526 C29.3082432,10.4445649 29.6889468,10.8418468 31.2808992,11.6667668 C33.7722378,12.9193247 34.7066382,14.4775068 34.7066382,16.1880588 C34.7066382,19.2431214 32.2150028,20.8926665 28.7198292,20.8926665 C27.3011667,20.8926665 25.6400764,20.5566863 24.8786692,20.0373905 L25.674497,17.1046365" id="S" fill="#D7692C"></path>
                                            <path d="M22.444896,21.830464 C21.5318602,23.0063949 20.0580061,23.9371191 18.4440957,24.4634881 L16.8637159,22.8216057 C18.0918781,22.2657647 19.1455637,21.3665755 19.6348702,20.529572 C20.0583028,19.7854053 20.2336698,18.8257985 20.2336698,16.5314071 L20.2336698,0.769807376 L23.6347803,0.769807376 L23.6347803,16.3153777 C23.6341868,19.3828184 23.3564482,20.6215245 22.444896,21.830464" id="J" fill="#D7692C"></path>
                                        </g>
                                    </g>
                                    <g id="HTML5" transform="translate(50.619310, 0.000000)">
                                        <path d="M14.8266966,37.9404222 L3.03675396,34.9183683 L0.410403507,7.70927308 L29.2783006,7.70927308 L26.6480926,34.9145369 L14.8266966,37.9404222" id="Fill-11" fill="#D3492B"></path>
                                        <path d="M24.3962145,33.1824703 L26.6442351,9.933816 L14.8445004,9.933816 L14.8445004,35.626874 L24.3962145,33.1824703" id="Fill-12" fill="#E15E30"></path>
                                        <path d="M14.8445004,23.3627107 L14.8445004,20.0258964 L10.0615219,20.0258964 L9.73126223,16.6083289 L14.8445004,16.6083289 L14.8445004,13.2709251 L5.7814994,13.2709251 L5.86844103,14.1665777 L6.75625493,23.3627107 L14.8445004,23.3627107" id="Fill-13" fill="#ECECE9"></path>
                                        <path d="M10.8033449,27.6927299 L10.5460807,25.0308232 L6.91797236,25.0308232 L7.42448914,30.2703468 L14.8278835,32.1686352 L14.8445004,32.1639197 L14.8445004,28.691829 L14.8278835,28.6965446 L10.8033449,27.6927299" id="Fill-14" fill="#ECECE9"></path>
                                        <path d="M3.09580308,0.315055163 L4.93196358,0.315055163 L4.93196358,1.99083033 L6.61204453,1.99083033 L6.61204453,0.315055163 L8.44850174,0.315055163 L8.44850174,5.38865164 L6.61204453,5.38865164 L6.61204453,3.68959362 L4.93196358,3.68959362 L4.93196358,5.38865164 L3.09520962,5.38865164 L3.09580308,0.315055163" id="Fill-15" fill="#0A0B09"></path>
                                        <path d="M10.8641745,1.99760888 L9.24789031,1.99760888 L9.24789031,0.315055163 L14.3189929,0.315055163 L14.3189929,1.99760888 L12.7009284,1.99760888 L12.7009284,5.38865164 L10.8641745,5.38865164 L10.8641745,1.99760888" id="Fill-16" fill="#0A0B09"></path>
                                        <path d="M15.1234259,0.315055163 L17.0388131,0.315055163 L18.2168281,2.09781352 L19.3927661,0.315055163 L21.3087468,0.315055163 L21.3087468,5.38865164 L19.4797077,5.38865164 L19.4797077,2.87410472 L18.2162347,4.67808289 L18.1850781,4.67808289 L16.9210116,2.87410472 L16.9210116,5.38865164 L15.1234259,5.38865164 L15.1234259,0.315055163" id="Fill-17" fill="#0A0B09"></path>
                                        <path d="M22.2220794,0.315055163 L24.0600202,0.315055163 L24.0600202,3.71169759 L26.6424548,3.71169759 L26.6424548,5.38865164 L22.2232663,5.38865164 L22.2232663,0.315055163 L22.2220794,0.315055163" id="Fill-18" fill="#0A0B09"></path>
                                        <path d="M22.294778,29.706843 L23.1437203,20.9218437 L23.2318489,20.0258964 L14.8311476,20.0258964 L14.8311476,23.3627107 L19.2814926,23.3627107 L18.8619175,27.6903721 L14.8311476,28.6947762 L14.8311476,32.1674563 L22.2401798,30.2703468 L22.294778,29.706843" id="Fill-19" fill="#FFFFFF"></path>
                                        <path d="M23.8843565,13.2709251 L14.8311476,13.2709251 L14.8311476,16.6083289 L23.5609217,16.6083289 L23.6333236,15.8582677 L23.7980083,14.1665777 L23.8843565,13.2709251" id="Fill-20" fill="#FFFFFF"></path>
                                    </g>
                                    <g id="CSS3" transform="translate(75.369226, 17.706749)">
                                        <path d="M18.2585345,16.4168707 L10.1858853,19.5623026 L2.44991115,16.3760676 L1.25435539,2.57911216 L19.1379296,2.50393702 L18.2585345,16.4168707" id="Fill-23" fill="#4072A8"></path>
                                        <path d="M9.76911288,18.1615007 L16.8591486,15.4041139 L17.6378824,4.16644981 L9.6855389,4.19844331 L9.76911288,18.1615007" id="Fill-24" fill="#5D8AB6"></path>
                                        <path d="M15.8905591,14.7045684 L10.3149794,17.0772276 L4.87311277,14.8575127 L4.68248903,12.7155247 L6.64525532,12.7272484 L6.72801247,13.3547475 L10.3013934,14.7279928 L13.9399808,13.2709138 L14.1676593,11.2674926 L4.55753052,11.3077629 L4.38447197,9.35366327 L14.2099766,9.26511992 L14.3311221,7.20863501 L4.19919097,7.2728401 L4.01979094,5.24975747 L16.4750006,5.19737864 L15.8905591,14.7045684" id="Fill-25" fill="#FFFFFF"></path>
                                        <path d="M9.1841436,0.93979146 L8.44896556,1.07224256 C8.42419409,0.925662611 8.36801678,0.815287803 8.28043196,0.741114821 C8.19284714,0.666941834 8.07916553,0.629855898 7.93938368,0.629855898 C7.75359767,0.629855898 7.60541348,0.693873287 7.49482658,0.821909986 C7.38423968,0.949946685 7.32894707,1.16407381 7.32894707,1.4642978 C7.32894707,1.79807623 7.38512433,2.03383682 7.49748063,2.17158665 C7.60983692,2.30933649 7.76067521,2.37821037 7.94999996,2.37821037 C8.09155121,2.37821037 8.20744453,2.3380339 8.29768344,2.25767985 C8.38792236,2.1773258 8.45161944,2.03913653 8.48877663,1.84310793 L9.22130061,1.96761196 C9.14521681,2.3031564 8.99924429,2.55657698 8.78337868,2.72788125 C8.56751306,2.89918551 8.27822208,2.98483639 7.91549703,2.98483639 C7.50322909,2.98483639 7.17456974,2.85503559 6.92950917,2.59543016 C6.6844486,2.33582472 6.56192015,1.97644433 6.56192015,1.51727824 C6.56192015,1.05281407 6.68489093,0.6912262 6.9308362,0.432503767 C7.17678146,0.173781337 7.50942188,0.0444220585 7.9287674,0.0444220585 C8.27202911,0.0444220585 8.54495348,0.118152433 8.74754868,0.265615388 C8.95014389,0.413078344 9.09567408,0.637801453 9.1841436,0.93979146 L9.1841436,0.93979146 L9.1841436,0.93979146 Z M9.48689022,2.11860623 L10.2353386,2.00469827 C10.2671877,2.14951219 10.3317694,2.2594455 10.4290859,2.33450147 C10.5264024,2.40955749 10.6626434,2.44708491 10.837813,2.44708491 C11.0306766,2.44708491 11.1757644,2.411765 11.2730809,2.34112405 C11.3385483,2.29167539 11.3712816,2.22545051 11.3712816,2.14244742 C11.3712816,2.08593465 11.3535879,2.03913573 11.3182001,2.00204924 C11.2810429,1.96672877 11.1978828,1.93405783 11.0687173,1.90403543 C10.4671246,1.77158368 10.0858267,1.65061289 9.92481215,1.54111943 C9.70186896,1.38924142 9.59039904,1.17820478 9.59039904,0.908003199 C9.59039904,0.664291968 9.68682937,0.459436322 9.87969295,0.293430118 C10.0725565,0.127423915 10.371579,0.0444220585 10.7767694,0.0444220585 C11.1624965,0.0444220585 11.4491334,0.107114949 11.6366888,0.232502616 C11.8242442,0.357890279 11.9534077,0.543319956 12.0241833,0.788797214 L11.3208542,0.918599289 C11.2907745,0.809105833 11.2337126,0.72522098 11.1496665,0.666942205 C11.0656205,0.608663435 10.9457461,0.579524485 10.7900397,0.579524485 C10.5936374,0.579524485 10.452973,0.606897437 10.3680422,0.661644163 C10.3114218,0.700496677 10.2831119,0.750827592 10.2831119,0.812638408 C10.2831119,0.865619111 10.307883,0.910652034 10.357426,0.947738526 C10.4246628,0.997187184 10.6568918,1.06694406 11.0541199,1.15701126 C11.4513481,1.24707845 11.7286958,1.35745326 11.8861716,1.488139 C12.041878,1.62059075 12.1197299,1.80513743 12.1197299,2.04178457 C12.1197299,2.29962401 12.0117988,2.52125661 11.7959331,2.70668905 C11.5800675,2.89212153 11.2606974,2.98483639 10.837813,2.98483639 C10.4538553,2.98483639 10.1499671,2.9071325 9.92613922,2.75172244 C9.70231133,2.59631238 9.55589645,2.38527573 9.48689022,2.11860623 L9.48689022,2.11860623 L9.48689022,2.11860623 Z M12.510061,2.11860623 L13.2585094,2.00469827 C13.2903584,2.14951219 13.3549402,2.2594455 13.4522566,2.33450147 C13.5495731,2.40955749 13.6858141,2.44708491 13.8609838,2.44708491 C14.0538473,2.44708491 14.1989352,2.411765 14.2962516,2.34112405 C14.3617191,2.29167539 14.3944523,2.22545051 14.3944523,2.14244742 C14.3944523,2.08593465 14.3767587,2.03913573 14.3413709,2.00204924 C14.3042137,1.96672877 14.2210536,1.93405783 14.0918881,1.90403543 C13.4902953,1.77158368 13.1089974,1.65061289 12.9479829,1.54111943 C12.7250397,1.38924142 12.6135698,1.17820478 12.6135698,0.908003199 C12.6135698,0.664291968 12.7100002,0.459436322 12.9028637,0.293430118 C13.0957272,0.127423915 13.3947497,0.0444220585 13.7999401,0.0444220585 C14.1856672,0.0444220585 14.4723042,0.107114949 14.6598595,0.232502616 C14.8474149,0.357890279 14.9765785,0.543319956 15.0473541,0.788797214 L14.3440249,0.918599289 C14.3139453,0.809105833 14.2568833,0.72522098 14.1728373,0.666942205 C14.0887912,0.608663435 13.9689169,0.579524485 13.8132105,0.579524485 C13.6168082,0.579524485 13.4761437,0.606897437 13.391213,0.661644163 C13.3345925,0.700496677 13.3062827,0.750827592 13.3062827,0.812638408 C13.3062827,0.865619111 13.3310538,0.910652034 13.3805967,0.947738526 C13.4478335,0.997187184 13.6800626,1.06694406 14.0772907,1.15701126 C14.4745188,1.24707845 14.7518666,1.35745326 14.9093423,1.488139 C15.0650487,1.62059075 15.1429007,1.80513743 15.1429007,2.04178457 C15.1429007,2.29962401 15.0349695,2.52125661 14.8191039,2.70668905 C14.6032383,2.89212153 14.2838681,2.98483639 13.8609838,2.98483639 C13.4770261,2.98483639 13.1731379,2.9071325 12.94931,2.75172244 C12.7254821,2.59631238 12.5790672,2.38527573 12.510061,2.11860623 L12.510061,2.11860623 L12.510061,2.11860623 Z" id="css" fill="#0B0B0A"></path>
                                    </g>
                                    <g id="Text" transform="translate(42.014162, 35.366342)" fill="#0A0B09">
                                        <g id="Conference" transform="translate(34.123862, 12.083500)">
                                            <path d="M3.79014949,3.37306486 L4.80437001,3.65687975 C4.64918061,4.15642933 4.390136,4.52718648 4.02901652,4.76944592 C3.66671013,5.01200009 3.20767,5.13283508 2.65189614,5.13283508 C1.96407778,5.13283508 1.39851186,4.92564727 0.955791838,4.51038747 C0.512181634,4.09483295 0.290821625,3.52779261 0.290821625,2.80838227 C0.290821625,2.04682704 0.513368551,1.45561969 0.959055863,1.03417078 C1.40414971,0.613016593 1.99018995,0.402292139 2.71509947,0.402292139 C3.34920985,0.402292139 3.8643318,0.567924507 4.2601686,0.898894523 C4.49606834,1.09429356 4.67291895,1.37516126 4.79042375,1.7412029 L3.75483871,1.95929534 C3.69341576,1.72263557 3.56582219,1.53519396 3.37116781,1.39755995 C3.17710689,1.26051537 2.94061369,1.191551 2.66287513,1.191551 C2.2789075,1.191551 1.96704507,1.31356488 1.72758458,1.5570032 C1.48871755,1.79985209 1.36883893,2.19477624 1.36883893,2.7394179 C1.36883893,3.31795231 1.4872339,3.72938076 1.72283691,3.97458739 C1.9581432,4.22097291 2.26436776,4.34298679 2.64151062,4.34298679 C2.91984264,4.34298679 3.15841295,4.26518083 3.35900191,4.10927421 C3.55899741,3.95336759 3.70261436,3.70816095 3.79014949,3.37306486" id="Fill-36"></path>
                                            <path d="M6.48326404,3.3978213 C6.48326404,3.72643356 6.57198606,3.97812403 6.74883667,4.15318742 C6.92568732,4.32736665 7.14348656,4.41489835 7.40193771,4.41489835 C7.66098234,4.41489835 7.87848489,4.32736665 8.05385185,4.15318742 C8.22951558,3.97812403 8.31764417,3.7240758 8.31764417,3.39163219 C8.31764417,3.06685128 8.22951558,2.81751857 8.05385185,2.64304462 C7.87848489,2.46768651 7.66098234,2.38074425 7.40193771,2.38074425 C7.14348656,2.38074425 6.92568732,2.46768651 6.74883667,2.64304462 C6.57198606,2.81751857 6.48326404,3.06920904 6.48326404,3.3978213 L6.48326404,3.3978213 L6.48326404,3.3978213 Z M5.46577948,3.35125562 C5.46577948,3.06007274 5.54678655,2.77773144 5.70909746,2.50570533 C5.87200181,2.23338449 6.1025604,2.02501779 6.40047659,1.88148939 C6.69839272,1.73766627 7.03161964,1.66634414 7.39778354,1.66634414 C7.96602,1.66634414 8.43129144,1.8287346 8.79448804,2.15439966 C9.15679443,2.48035944 9.33868946,2.89178789 9.33868946,3.388685 C9.33868946,3.89000289 9.15560751,4.30555741 8.78944365,4.63475911 C8.42268631,4.96455023 7.96127235,5.12929848 7.40549849,5.12929848 C7.0624795,5.12929848 6.7337035,5.06092351 6.42184106,4.92328952 C6.10968192,4.78624496 5.87200181,4.58465679 5.70909746,4.31999867 C5.54678655,4.0547511 5.46577948,3.73173851 5.46577948,3.35125562 L5.46577948,3.35125562 L5.46577948,3.35125562 Z" id="Fill-37"></path>
                                            <path d="M13.5299899,5.05443969 L12.5368371,5.05443969 L12.5368371,3.36392855 C12.5368371,3.00584435 12.5160661,2.77448952 12.4736338,2.66897994 C12.4312015,2.56435451 12.3623604,2.4827172 12.2668135,2.42436274 C12.1715635,2.36571355 12.057026,2.3362416 11.9226076,2.3362416 C11.7502079,2.3362416 11.595612,2.37838649 11.4594133,2.46120268 C11.3220276,2.5446083 11.2288547,2.65512812 11.1784107,2.7921727 C11.1273733,2.92980671 11.102448,3.18297077 11.102448,3.55372792 L11.102448,5.05443969 L10.1089985,5.05443969 L10.1089985,1.7412029 L11.0318265,1.7412029 L11.0318265,2.2274901 C11.3591188,1.85349104 11.7712757,1.66634414 12.2685939,1.66634414 C12.4875801,1.66634414 12.6881691,1.70082633 12.8694706,1.77067485 C13.0507722,1.84022866 13.1881578,1.92952867 13.2816275,2.03710129 C13.3742071,2.14585279 13.4391907,2.26845611 13.4756884,2.40609013 C13.5121861,2.5431347 13.5299899,2.7394179 13.5299899,2.99552916 L13.5299899,5.05443969" id="Fill-39"></path>
                                            <path d="M14.1026773,1.7412029 L14.6545937,1.7412029 L14.6545937,1.49128075 C14.6545937,1.21277081 14.6881241,1.00440411 14.7551849,0.867359535 C14.8225424,0.729725522 14.9453883,0.618026825 15.1260964,0.531674007 C15.3065078,0.445321189 15.5340991,0.402292139 15.8100573,0.402292139 C16.0928403,0.402292139 16.3699854,0.439721518 16.6406025,0.515169714 L16.5061841,1.12641799 C16.3486209,1.09311468 16.196102,1.07690511 16.0507047,1.07690511 C15.906791,1.07690511 15.803826,1.10637706 15.7412161,1.16561569 C15.6786063,1.22485431 15.6477464,1.33832132 15.6477464,1.50749033 L15.6477464,1.7412029 L16.3895695,1.7412029 L16.3895695,2.43084657 L15.6477464,2.43084657 L15.6477464,5.05502916 L14.6540002,5.05502916 L14.6540002,2.43084657 L14.1026773,2.43084657 L14.1026773,1.7412029" id="Fill-40"></path>
                                            <path d="M19.1785276,3.11400641 C19.1708126,2.8602529 19.0966303,2.66721162 18.9559807,2.53488256 C18.8144408,2.40314293 18.6423379,2.33683104 18.4399685,2.33683104 C18.2227627,2.33683104 18.0441317,2.40667957 17.9022952,2.54578718 C17.7613488,2.68577895 17.6919141,2.87469416 17.694288,3.11400641 L19.1785276,3.11400641 L19.1785276,3.11400641 Z M19.1215556,3.99993327 L20.1114443,4.14670359 C19.9844442,4.46735842 19.7835585,4.71079675 19.5087872,4.87819741 C19.2340159,5.04589284 18.8909969,5.1298879 18.4782466,5.1298879 C17.825739,5.1298879 17.3423671,4.94156213 17.0293177,4.56461586 C16.7818455,4.2631178 16.6584062,3.88263491 16.6584062,3.42257774 C16.6584062,2.87410472 16.8207171,2.44351951 17.1459323,2.13259042 C17.4711476,1.82166133 17.8824143,1.66634414 18.379139,1.66634414 C18.9378802,1.66634414 19.3782264,1.8287346 19.7010678,2.15439966 C20.0239092,2.48035944 20.1782084,2.97873015 20.1642621,3.65039592 L17.6761875,3.65039592 C17.683309,3.91063326 17.7631292,4.11281085 17.9162414,4.25722341 C18.0696504,4.40222541 18.2604473,4.47413697 18.4886321,4.47413697 C18.6447117,4.47413697 18.7749758,4.43729703 18.8812049,4.36184884 C18.9871372,4.2872848 19.0678476,4.16615508 19.1215556,3.99993327 L19.1215556,3.99993327 L19.1215556,3.99993327 Z" id="Fill-42"></path>
                                            <path d="M21.9244599,5.05443969 L20.9310105,5.05443969 L20.9310105,1.7412029 L21.8535416,1.7412029 L21.8535416,2.21216469 C22.0114016,1.98994617 22.1532382,1.84317585 22.2796448,1.77214845 C22.4060515,1.70141577 22.549075,1.66634414 22.709012,1.66634414 C22.9357131,1.66634414 23.152919,1.72175141 23.3627066,1.83168179 L23.0555918,2.5958895 C22.8882365,2.50040037 22.7321569,2.45265581 22.5891334,2.45265581 C22.4499674,2.45265581 22.3318692,2.48654856 22.2354322,2.55403933 C22.1386984,2.62123538 22.0627358,2.7438387 22.0072474,2.9206704 C21.9520557,3.09720739 21.9244599,3.46737511 21.9244599,4.03146826 L21.9244599,5.05443969" id="Fill-43"></path>
                                            <path d="M26.0205103,3.11400641 C26.0136855,2.8602529 25.9395032,2.66721162 25.7979633,2.53488256 C25.6567203,2.40314293 25.4846173,2.33683104 25.282248,2.33683104 C25.0653389,2.33683104 24.8864111,2.40667957 24.7448713,2.54578718 C24.6036282,2.68577895 24.5338968,2.87469416 24.5362706,3.11400641 L26.0205103,3.11400641 L26.0205103,3.11400641 Z M25.963835,3.99993327 L26.9537237,4.14670359 C26.8267236,4.46735842 26.6255412,4.71079675 26.3513634,4.87819741 C26.0768888,5.04589284 25.7329797,5.1298879 25.3211195,5.1298879 C24.6686119,5.1298879 24.18524,4.94156213 23.8721906,4.56461586 C23.6247184,4.2631178 23.5006856,3.88263491 23.5006856,3.42257774 C23.5006856,2.87410472 23.66359,2.44351951 23.9882118,2.13259042 C24.3137237,1.82166133 24.7246937,1.66634414 25.2220119,1.66634414 C25.780753,1.66634414 26.2210992,1.8287346 26.5439407,2.15439966 C26.8667821,2.48035944 27.0207845,2.97873015 27.0068382,3.65039592 L24.5184669,3.65039592 C24.5258851,3.91063326 24.6054086,4.11281085 24.7588176,4.25722341 C24.9119299,4.40222541 25.10243,4.47413697 25.331505,4.47413697 C25.4866944,4.47413697 25.6178487,4.43729703 25.7237811,4.36184884 C25.8300101,4.2872848 25.9098303,4.16615508 25.963835,3.99993327 L25.963835,3.99993327 L25.963835,3.99993327 Z" id="Fill-44"></path>
                                            <path d="M31.2301854,5.05443969 L30.2373294,5.05443969 L30.2373294,3.36392855 C30.2373294,3.00584435 30.2165584,2.77448952 30.1735327,2.66897994 C30.1313971,2.56435451 30.0622592,2.4827172 29.9667124,2.42436274 C29.871759,2.36571355 29.7569248,2.3362416 29.621913,2.3362416 C29.4504035,2.3362416 29.2961043,2.37838649 29.1587187,2.46120268 C29.0225199,2.5446083 28.929347,2.65512812 28.8783095,2.7921727 C28.8278656,2.92980671 28.8023469,3.18297077 28.8023469,3.55372792 L28.8023469,5.05443969 L27.8091941,5.05443969 L27.8091941,1.7412029 L28.7317253,1.7412029 L28.7317253,2.2274901 C29.0590177,1.85349104 29.4711746,1.66634414 29.9690862,1.66634414 C30.1880724,1.66634414 30.3880679,1.70082633 30.5693694,1.77067485 C30.7509677,1.84022866 30.8883534,1.92952867 30.9815264,2.03710129 C31.0741059,2.14585279 31.1390896,2.26845611 31.1755873,2.40609013 C31.2126784,2.5431347 31.2301854,2.7394179 31.2301854,2.99552916 L31.2301854,5.05443969" id="Fill-45"></path>
                                            <path d="M35.5108014,2.72085057 L34.5318917,2.87616776 C34.4983612,2.70405156 34.4241789,2.57408025 34.3069709,2.48654856 C34.1903563,2.39901686 34.0393211,2.35539837 33.8532719,2.35539837 C33.6057997,2.35539837 33.4087715,2.43143601 33.2610003,2.58144824 C33.1138226,2.73234463 33.039937,2.98462454 33.039937,3.33858268 C33.039937,3.73173851 33.1147128,4.00965902 33.2642644,4.17146003 C33.4144093,4.33385048 33.6149983,4.41489835 33.8678116,4.41489835 C34.055938,4.41489835 34.2102372,4.36774322 34.3307092,4.27284354 C34.4505878,4.17823858 34.5354524,4.0155534 34.5847095,3.78478802 L35.5606519,3.93155834 C35.4591705,4.32618777 35.2645161,4.62503336 34.9769855,4.82662153 C34.6894549,5.02850437 34.3045971,5.12929848 33.8212251,5.12929848 C33.2725728,5.12929848 32.8348971,4.97663373 32.5081983,4.67042018 C32.1817961,4.36420659 32.0188917,3.94187353 32.0188917,3.4007685 C32.0188917,2.85317964 32.1823896,2.42789937 32.5096819,2.12286468 C32.837271,1.81841941 33.2805845,1.6657547 33.8393256,1.6657547 C34.2959919,1.6657547 34.6594852,1.75269696 34.9295088,1.92658147 C35.198939,2.10046599 35.3924064,2.36512412 35.5108014,2.72085057" id="Fill-46"></path>
                                            <path d="M38.4935237,3.11400641 C38.4861054,2.8602529 38.4119231,2.66721162 38.2703833,2.53488256 C38.1291401,2.40314293 37.9576307,2.33683104 37.7546678,2.33683104 C37.5380555,2.33683104 37.3588311,2.40667957 37.2181814,2.54578718 C37.0766415,2.68577895 37.0066135,2.87469416 37.009284,3.11400641 L38.4935237,3.11400641 L38.4935237,3.11400641 Z M38.4368484,3.99993327 L39.4267371,4.14670359 C39.2991435,4.46735842 39.0979611,4.71079675 38.8234866,4.87819741 C38.5493088,5.04589284 38.2056963,5.1298879 37.7935394,5.1298879 C37.1410318,5.1298879 36.6582534,4.94156213 36.3446105,4.56461586 C36.0971384,4.2631178 35.9731055,3.88263491 35.9731055,3.42257774 C35.9731055,2.87410472 36.1360099,2.44351951 36.4612251,2.13259042 C36.7861436,1.82166133 37.1971136,1.66634414 37.6944318,1.66634414 C38.253173,1.66634414 38.6941126,1.8287346 39.0163606,2.15439966 C39.339202,2.48035944 39.4935012,2.97873015 39.4795549,3.65039592 L36.9914803,3.65039592 C36.998305,3.91063326 37.0784219,4.11281085 37.2312375,4.25722341 C37.3843498,4.40222541 37.5757402,4.47413697 37.8039249,4.47413697 C37.9600045,4.47413697 38.0902686,4.43729703 38.1962009,4.36184884 C38.30243,4.2872848 38.3828436,4.16615508 38.4368484,3.99993327 L38.4368484,3.99993327 L38.4368484,3.99993327 Z" id="Fill-47"></path>
                                        </g>
                                        <g id="Developer">
                                            <path d="M2.65337979,1.99318809 L2.65337979,8.64412339 L4.3251523,8.64412339 C4.95036079,8.64412339 5.40198268,8.61229368 5.67883108,8.54804482 C6.04232438,8.46611283 6.3438013,8.32700519 6.58296506,8.13013256 C6.823019,7.93384936 7.01826682,7.61083677 7.16959873,7.16080008 C7.32152413,6.71164753 7.39689332,6.09863096 7.39689332,5.32204504 C7.39689332,4.54575382 7.32152413,3.94983096 7.16959873,3.53427643 C7.01826682,3.11931136 6.80669887,2.79453045 6.53430146,2.56140731 C6.26131054,2.32887361 5.91651119,2.17119868 5.49752952,2.08897193 C5.1850736,2.02501779 4.57203102,1.99318809 3.6592919,1.99318809 L2.65337979,1.99318809 L2.65337979,1.99318809 Z M0.41307407,0.294130077 L4.50645386,0.294130077 C5.42987523,0.294130077 6.13342026,0.358673651 6.61738562,0.486287201 C7.26811284,0.660171716 7.82566708,0.968153608 8.28915813,1.41082232 C8.7535394,1.85408048 9.10635044,2.39636439 9.34877824,3.03737933 C9.59090931,3.67927844 9.71197484,4.47030562 9.71197484,5.41134503 C9.71197484,6.23744384 9.59832753,6.95007563 9.37132967,7.54806152 C9.09359109,8.2786712 8.69775429,8.87017327 8.18381925,9.322273 C7.79480722,9.66473709 7.27108014,9.93234239 6.60967066,10.1239101 C6.11531979,10.2650807 5.45480049,10.3358134 4.6278161,10.3358134 L0.41307407,10.3358134 L0.41307407,0.294130077 L0.41307407,0.294130077 Z" id="Fill-26"></path>
                                            <path d="M16.3699854,6.07564281 C16.3548522,5.5183282 16.196102,5.09481626 15.8928448,4.80451756 C15.5904777,4.51510299 15.2225334,4.37010098 14.7884186,4.37010098 C14.3246308,4.37010098 13.9409599,4.52306041 13.6385928,4.82868456 C13.335929,5.1346034 13.1869709,5.55015791 13.192312,6.07564281 L16.3699854,6.07564281 L16.3699854,6.07564281 Z M16.2489199,8.02079164 L18.3669731,8.34233062 C18.0951692,9.04582612 17.6652085,9.58103673 17.0776846,9.948552 C16.4892705,10.3163619 15.7545689,10.5005617 14.8717995,10.5005617 C13.4745015,10.5005617 12.4406969,10.0870702 11.7700888,9.26067665 C11.2404271,8.5984419 10.9754479,7.76291204 10.9754479,6.75379242 C10.9754479,5.54780016 11.323808,4.60381358 12.0193414,3.92094844 C12.7157649,3.23837804 13.595567,2.89768228 14.6602315,2.89768228 C15.8551602,2.89768228 16.7987591,3.25458761 17.4895448,3.96898772 C18.1803304,4.68368253 18.5114803,5.77856554 18.4806204,7.253342 L13.1546274,7.253342 C13.1697606,7.82450844 13.3406766,8.2680613 13.6685625,8.58547421 C13.996745,8.90318184 14.4053411,9.06203569 14.8943509,9.06203569 C15.2275778,9.06203569 15.5076902,8.97951423 15.7346881,8.81506074 C15.9613892,8.65090196 16.1323053,8.38624383 16.2489199,8.02079164 L16.2489199,8.02079164 L16.2489199,8.02079164 Z" id="Fill-27"></path>
                                            <path d="M22.4220748,10.3358134 L19.1841654,3.06154633 L21.4161628,3.06154633 L22.9291851,6.77383335 L23.3680476,8.01371835 C23.483772,7.6989579 23.5573609,7.49118067 23.5876273,7.38979714 C23.6582489,7.18496708 23.7336181,6.97925288 23.8149219,6.77383335 L25.3430774,3.06095689 L27.5290817,3.06095689 L24.3362752,10.3358134 L22.4220748,10.3358134" id="Fill-28"></path>
                                            <path d="M33.6046128,6.07564281 C33.5894796,5.5183282 33.4307295,5.09481626 33.1274722,4.80451756 C32.8251051,4.51510299 32.4571609,4.37010098 32.0236394,4.37010098 C31.5592582,4.37010098 31.1755873,4.52306041 30.8732202,4.82868456 C30.5705563,5.1346034 30.4215983,5.55015791 30.4269394,6.07564281 L33.6046128,6.07564281 L33.6046128,6.07564281 Z M33.4835473,8.02079164 L35.6016005,8.34233062 C35.3292031,9.04582612 34.8992424,9.58103673 34.3117185,9.948552 C33.7244914,10.3163619 32.9891964,10.5005617 32.1064269,10.5005617 C30.7091289,10.5005617 29.6753243,10.0870702 29.0047162,9.26067665 C28.4750545,8.5984419 28.2100753,7.76291204 28.2100753,6.75379242 C28.2100753,5.54780016 28.557842,4.60381358 29.2545622,3.92094844 C29.9497988,3.23837804 30.8301945,2.89768228 31.894859,2.89768228 C33.0897876,2.89768228 34.0333865,3.25458761 34.7241722,3.96898772 C35.4149579,4.68368253 35.7455142,5.77856554 35.7152478,7.253342 L30.3892548,7.253342 C30.404388,7.82450844 30.5758975,8.2680613 30.9037833,8.58547421 C31.2313724,8.90318184 31.6399685,9.06203569 32.1295718,9.06203569 C32.4622052,9.06203569 32.7423176,8.97951423 32.9693155,8.81506074 C33.1960167,8.65090196 33.3675261,8.38624383 33.4835473,8.02079164 L33.4835473,8.02079164 L33.4835473,8.02079164 Z" id="Fill-29"></path>
                                            <path d="M37.4481466,0.294130077 L39.5739148,0.294130077 L39.5739148,10.3358134 L37.4481466,10.3358134 L37.4481466,0.294130077 L37.4481466,0.294130077 Z" id="Fill-30"></path>
                                            <path d="M43.4394067,6.69838518 C43.4394067,7.42015324 43.628423,7.97216289 44.0073462,8.35618244 C44.3853792,8.73961253 44.8518376,8.93176966 45.4064245,8.93176966 C45.9616052,8.93176966 46.4271734,8.73961253 46.8025359,8.35618244 C47.1781948,7.97216289 47.3666178,7.41514303 47.3666178,6.68453336 C47.3666178,5.972491 47.1781948,5.42460742 46.8025359,5.04058787 C46.4271734,4.65715778 45.9616052,4.46559011 45.4064245,4.46559011 C44.8518376,4.46559011 44.3853792,4.65715778 44.0073462,5.04058787 C43.628423,5.42460742 43.4394067,5.9772065 43.4394067,6.69838518 L43.4394067,6.69838518 L43.4394067,6.69838518 Z M41.2617107,6.5961175 C41.2617107,5.95657614 41.4347038,5.33825461 41.783064,4.73967924 C42.1308306,4.14139864 42.6234013,3.68517283 43.2622591,3.36952823 C43.9002272,3.05476778 44.612377,2.89768228 45.3996,2.89768228 C46.6150026,2.89768228 47.6105293,3.25458761 48.3876631,3.96898772 C49.1647969,4.68368253 49.5532156,5.58699788 49.5532156,6.67834425 C49.5532156,7.7788269 49.1609398,8.69068911 48.3766842,9.41481492 C47.5918353,10.1383513 46.6049139,10.5005617 45.414733,10.5005617 C44.6779543,10.5005617 43.9755964,10.3496652 43.307362,10.0478725 C42.6391279,9.74696383 42.1308306,9.305474 41.783064,8.72281353 C41.4347038,8.14044774 41.2617107,7.43194203 41.2617107,6.5961175 L41.2617107,6.5961175 L41.2617107,6.5961175 Z" id="Fill-31"></path>
                                            <path d="M53.2599575,6.57519239 C53.2599575,7.39274435 53.4391819,7.99662464 53.7973338,8.38742269 C54.1554861,8.77763135 54.5916782,8.97273566 55.10591,8.97273566 C55.6002606,8.97273566 56.0115274,8.79384092 56.3397098,8.43457783 C56.6670025,8.0764936 56.8310935,7.48882292 56.8310935,6.67127096 C56.8310935,5.90883157 56.6619579,5.34238068 56.3239836,4.97221294 C55.9863056,4.60204525 55.5676206,4.4172561 55.0682254,4.4172561 C54.548949,4.4172561 54.1172082,4.59909804 53.7738924,4.96248719 C53.4314668,5.32558164 53.2599575,5.86315004 53.2599575,6.57519239 L53.2599575,6.57519239 L53.2599575,6.57519239 Z M51.1567405,3.06154633 L53.1388917,3.06154633 L53.1388917,4.12990458 C53.3961558,3.76504182 53.7445162,3.46796455 54.183082,3.23955692 C54.6219445,3.01114929 55.1088774,2.89768228 55.6435831,2.89768228 C56.5767968,2.89768228 57.3684702,3.2286523 58.0186039,3.89059233 C58.6696282,4.55253237 58.9951401,5.47529917 58.9951401,6.65771385 C58.9951401,7.87284243 58.6672541,8.81682902 58.0117794,9.49026313 C57.3557109,10.1636972 56.5610701,10.5005617 55.6284502,10.5005617 C55.184543,10.5005617 54.7824748,10.4203979 54.4213555,10.2609547 C54.0608295,10.100922 53.6813126,9.82683283 53.283102,9.43839249 L53.283102,13.1035244 L51.1567405,13.1035244 L51.1567405,3.06154633 L51.1567405,3.06154633 Z" id="Fill-32"></path>
                                            <path d="M65.4561224,6.07564281 C65.4403957,5.5183282 65.282239,5.09481626 64.9795752,4.80451756 C64.6766145,4.51510299 64.3083738,4.37010098 63.8748523,4.37010098 C63.4107675,4.37010098 63.0276903,4.52306041 62.7247296,4.82868456 C62.4214725,5.1346034 62.2731077,5.55015791 62.2784488,6.07564281 L65.4561224,6.07564281 L65.4561224,6.07564281 Z M65.3347601,8.02079164 L67.4531101,8.34233062 C67.1813059,9.04582612 66.7507518,9.58103673 66.1635249,9.948552 C65.5754074,10.3163619 64.8404091,10.5005617 63.9579366,10.5005617 C62.5606386,10.5005617 61.5265371,10.0870702 60.8562255,9.26067665 C60.3265639,8.5984419 60.0615847,7.76291204 60.0615847,6.75379242 C60.0615847,5.54780016 60.4099451,4.60381358 61.1057749,3.92094844 C61.8019016,3.23837804 62.681704,2.89768228 63.7457749,2.89768228 C64.9412969,2.89768228 65.8843024,3.25458761 66.5756818,3.96898772 C67.2664675,4.68368253 67.5967271,5.77856554 67.5673509,7.253342 L62.2407642,7.253342 C62.2556007,7.82450844 62.4274068,8.2680613 62.7552928,8.58547421 C63.082882,8.90318184 63.4914782,9.06203569 63.9804878,9.06203569 C64.3137148,9.06203569 64.5935306,8.97951423 64.8202315,8.81506074 C65.0475261,8.65090196 65.2184421,8.38624383 65.3347601,8.02079164 L65.3347601,8.02079164 L65.3347601,8.02079164 Z" id="Fill-33"></path>
                                            <path d="M71.334922,10.3358134 L69.2091537,10.3358134 L69.2091537,3.06154633 L71.1829965,3.06154633 L71.1829965,4.09601183 C71.5215646,3.60736688 71.8251186,3.28553317 72.0948456,3.12962654 C72.364869,2.97460408 72.6713904,2.89709284 73.0144093,2.89709284 C73.4983748,2.89709284 73.9654265,3.01792784 74.414081,3.26018728 L73.7562326,4.9383202 C73.397487,4.72818521 73.0648532,4.62326503 72.7571452,4.62326503 C72.4598224,4.62326503 72.2073056,4.69753435 72.0007823,4.84607299 C71.7939621,4.99461162 71.6310577,5.26280639 71.5129593,5.65095202 C71.3939711,6.03880289 71.334922,6.85163931 71.334922,8.08916657 L71.334922,10.3358134" id="Fill-34"></path>
                                        </g>
                                    </g>
                                </g>
                            </g>
                        </g>
                    </g>
                </g>
            </g>
        </g>
    </g>
</svg>