<?xml version="1.0" encoding="UTF-8" standalone="no"?>
<svg width="121px" height="21px" viewBox="0 0 121 21" version="1.1" xmlns="http://www.w3.org/2000/svg" xmlns:xlink="http://www.w3.org/1999/xlink" xmlns:sketch="http://www.bohemiancoding.com/sketch/ns">
    <!-- Generator: Sketch 3.3.3 (12081) - http://www.bohemiancoding.com/sketch -->
    <title>featured-logo-zurb</title>
    <desc>Created with Sketch.</desc>
    <defs></defs>
    <g id="Homepage" stroke="none" stroke-width="1" fill="none" fill-rule="evenodd" sketch:type="MSPage">
        <g id="JS---Home---Light" sketch:type="MSArtboardGroup" transform="translate(-1071.000000, -695.000000)">
            <g id="Featured" sketch:type="MSLayerGroup" transform="translate(0.000000, 650.000000)">
                <g id="Group" transform="translate(250.000000, 20.000000)" sketch:type="MSShapeGroup">
                    <g id="featured-logo-zurb" transform="translate(821.000000, 25.000000)">
                        <path d="M93.6049547,20.7443333 C93.865024,20.7786667 93.9931227,20.8103333 94.1212213,20.8103333 C101.298941,20.814 108.476661,20.8176667 115.654381,20.8133333 C116.591728,20.8126667 117.468413,20.5453333 118.287019,20.07 C121.243291,18.353 121.047109,15.4253333 120.832859,12.6063333 C120.635709,10.0103333 119.313099,8.24433333 116.573336,7.961 L116.573336,6.14466667 C116.573013,2.80966667 114.989043,0.6 111.802064,0.458333333 C106.249293,0.211666667 100.680067,0.338 95.1179387,0.356333333 C94.2970747,0.359 93.622056,0.873 93.618184,1.80933333 C93.5926933,8.098 93.6049547,14.3866667 93.6049547,20.7443333 L93.6049547,20.7443333 Z M20.8058693,5.52566667 C20.814904,5.59566667 20.8239387,5.66533333 20.833296,5.73533333 C20.5354747,5.829 20.2386213,5.92733333 19.9395093,6.016 C14.672944,7.57666667 9.40153867,9.11866667 4.14174933,10.703 C1.39424267,11.5306667 -0.0419466667,13.698 0.277816,16.3953333 C0.561762667,18.7926667 2.70814133,20.7703333 5.33981067,20.7933333 C12.1897013,20.854 19.0408827,20.816 25.8914187,20.8136667 C26.7764933,20.8136667 27.38472,20.3676667 27.438928,19.4483333 C27.5121733,18.202 27.4569973,16.9476667 27.4569973,15.6146667 L6.20262133,15.6146667 C6.85311733,15.3723333 7.050912,15.285 7.256128,15.224 C12.5546373,13.652 17.8521787,12.0753333 23.1539147,10.5153333 C26.04404,9.665 27.6589867,7.668 27.4695813,5.13 C27.2775947,2.56033333 25.3419173,0.479333333 22.391776,0.406333333 C15.4799333,0.234666667 8.56163733,0.32 1.64592267,0.336666667 C0.883461333,0.338666667 0.310082667,0.863 0.263296,1.67533333 C0.191986667,2.91466667 0.244581333,4.162 0.244581333,5.52566667 L20.8058693,5.52566667 L20.8058693,5.52566667 Z M87.8656827,11.8253333 C90.0349707,10.241 89.6877813,7.93833333 89.6845547,5.739 C89.6800373,2.95466667 87.9821653,0.691333333 85.2940293,0.512 C78.1905227,0.038 71.07056,0.380333333 63.9573733,0.347 C63.0687493,0.342666667 62.43116,0.992 62.4256747,1.915 C62.3898587,8.171 62.40696,14.4273333 62.40696,20.8176667 C63.6966587,20.8176667 64.908272,20.801 66.1189173,20.822 C67.404744,20.844 67.9755413,20.2253333 67.9474693,18.8906667 C67.9077813,17 67.937144,15.1076667 67.937144,13.161 C72.9594507,13.161 77.833008,13.141 82.70592,13.1773333 C83.7190933,13.1846667 84.2292293,13.8476667 84.222776,14.9196667 C84.2114827,16.8483333 84.2195493,18.7773333 84.2195493,20.784 C85.7254347,20.784 87.101608,20.819 88.4748773,20.768 C89.086976,20.7453333 89.6355093,20.2933333 89.620344,19.688 C89.5529067,16.9763333 90.5063867,14.0156667 87.8656827,11.8253333 L87.8656827,11.8253333 Z M36.773352,0.316 C35.3829813,0.316 34.1642693,0.267333333 32.95072,0.330666667 C31.8943093,0.385666667 31.2844693,0.911666667 31.2947947,2.14566667 C31.3315787,6.50166667 31.3083467,10.858 31.3093147,15.2143333 C31.30996,18.4976667 33.3856747,20.777 36.54684,20.8036667 C42.113808,20.8503333 47.6820667,20.8493333 53.2490347,20.804 C56.4408533,20.7783333 58.5917493,18.4503333 58.5952987,15.158 C58.6004613,10.5976667 58.5975573,6.03733333 58.5946533,1.477 C58.5943307,1.11666667 58.5652907,0.756333333 58.5462533,0.314 C57.2642987,0.314 56.0836613,0.291666667 54.903992,0.320333333 C53.6923787,0.349333333 53.0341387,0.922 53.0457547,2.27766667 C53.078344,6.055 53.042528,9.833 53.0641467,13.6103333 C53.0722133,15.0193333 52.468504,15.652 51.092976,15.6416667 C47.2058107,15.6126667 43.3183227,15.6316667 39.4308347,15.6316667 C37.048264,15.6316667 36.7739973,15.3483333 36.773352,12.8793333 C36.7727067,8.734 36.773352,4.58866667 36.773352,0.316 L36.773352,0.316 Z" id="Fill-1" fill="#FFFFFF"></path>
                        <path d="M93.6049547,20.7443333 C93.6049547,14.3866667 93.5926933,8.098 93.618184,1.80933333 C93.622056,0.873 94.2970747,0.359 95.1179387,0.356333333 C100.680067,0.338 106.249293,0.211666667 111.802064,0.458333333 C114.989043,0.6 116.573013,2.80966667 116.573336,6.14466667 L116.573336,7.961 C119.313099,8.24433333 120.635709,10.0103333 120.832859,12.6063333 C121.047109,15.4253333 121.243291,18.353 118.287019,20.07 C117.468413,20.5453333 116.591728,20.8126667 115.654381,20.8133333 C108.476661,20.8176667 101.298941,20.814 94.1212213,20.8103333 C93.9931227,20.8103333 93.865024,20.7786667 93.6049547,20.7443333 L93.6049547,20.7443333 Z M99.169664,15.5356667 L115.209101,15.5356667 C115.44852,14.4373333 115.443035,13.252 114.265947,13.2226667 C109.250093,13.0986667 104.230045,13.17 99.169664,13.17 L99.169664,15.5356667 L99.169664,15.5356667 Z M111.038635,7.933 C111.3684,6.418 111.018307,5.569 109.978352,5.55133333 C106.400301,5.49066667 102.82096,5.528 99.1848293,5.528 L99.1848293,7.933 L111.038635,7.933 L111.038635,7.933 Z" id="Fill-2" fill="#000000"></path>
                        <path d="M20.8058693,5.52566667 L0.244581333,5.52566667 C0.244581333,4.162 0.191986667,2.91466667 0.263296,1.67533333 C0.310082667,0.863 0.883461333,0.338666667 1.64592267,0.336666667 C8.56163733,0.32 15.4799333,0.234666667 22.391776,0.406333333 C25.3419173,0.479333333 27.2775947,2.56033333 27.4695813,5.13 C27.6589867,7.668 26.04404,9.665 23.1539147,10.5153333 C17.8521787,12.0753333 12.5546373,13.652 7.256128,15.224 C7.050912,15.285 6.85311733,15.3723333 6.20262133,15.6146667 L27.4569973,15.6146667 C27.4569973,16.9476667 27.5121733,18.202 27.438928,19.4483333 C27.38472,20.3676667 26.7764933,20.8136667 25.8914187,20.8136667 C19.0408827,20.816 12.1897013,20.854 5.33981067,20.7933333 C2.70814133,20.7703333 0.561762667,18.7926667 0.277816,16.3953333 C-0.0419466667,13.698 1.39424267,11.5306667 4.14174933,10.703 C9.40153867,9.11866667 14.672944,7.57666667 19.9395093,6.016 C20.2386213,5.92733333 20.5354747,5.829 20.833296,5.73533333 C20.8239387,5.66533333 20.814904,5.59566667 20.8058693,5.52566667" id="Fill-3" fill="#000000"></path>
                        <path d="M87.8656827,11.8253333 C90.5063867,14.0156667 89.5529067,16.9763333 89.620344,19.688 C89.6355093,20.2933333 89.086976,20.7453333 88.4748773,20.768 C87.101608,20.819 85.7254347,20.784 84.2195493,20.784 C84.2195493,18.7773333 84.2114827,16.8483333 84.222776,14.9196667 C84.2292293,13.8476667 83.7190933,13.1846667 82.70592,13.1773333 C77.833008,13.141 72.9594507,13.161 67.937144,13.161 C67.937144,15.1076667 67.9077813,17 67.9474693,18.8906667 C67.9755413,20.2253333 67.404744,20.844 66.1189173,20.822 C64.908272,20.801 63.6966587,20.8176667 62.40696,20.8176667 C62.40696,14.4273333 62.3898587,8.171 62.4256747,1.915 C62.43116,0.992 63.0687493,0.342666667 63.9573733,0.347 C71.07056,0.380333333 78.1905227,0.038 85.2940293,0.512 C87.9821653,0.691333333 89.6800373,2.95466667 89.6845547,5.739 C89.6877813,7.93833333 90.0349707,10.241 87.8656827,11.8253333 L87.8656827,11.8253333 Z M84.0869333,7.94333333 C84.3899173,6.35666667 83.9965867,5.49 82.4139067,5.497 C79.7848187,5.50866667 77.1557307,5.49966667 74.52632,5.49966667 L68.002968,5.49966667 L68.002968,7.94333333 L84.0869333,7.94333333 L84.0869333,7.94333333 Z" id="Fill-4" fill="#000000"></path>
                        <path d="M36.773352,0.316 C36.773352,4.58866667 36.7727067,8.734 36.773352,12.8793333 C36.7739973,15.3483333 37.048264,15.6316667 39.4308347,15.6316667 C43.3183227,15.6316667 47.2058107,15.6126667 51.092976,15.6416667 C52.468504,15.652 53.0722133,15.0193333 53.0641467,13.6103333 C53.042528,9.833 53.078344,6.055 53.0457547,2.27766667 C53.0341387,0.922 53.6923787,0.349333333 54.903992,0.320333333 C56.0836613,0.291666667 57.2642987,0.314 58.5462533,0.314 C58.5652907,0.756333333 58.5943307,1.11666667 58.5946533,1.477 C58.5975573,6.03733333 58.6004613,10.5976667 58.5952987,15.158 C58.5917493,18.4503333 56.4408533,20.7783333 53.2490347,20.804 C47.6820667,20.8493333 42.113808,20.8503333 36.54684,20.8036667 C33.3856747,20.777 31.30996,18.4976667 31.3093147,15.2143333 C31.3083467,10.858 31.3315787,6.50166667 31.2947947,2.14566667 C31.2844693,0.911666667 31.8943093,0.385666667 32.95072,0.330666667 C34.1642693,0.267333333 35.3829813,0.316 36.773352,0.316" id="Fill-5" fill="#000000"></path>
                        <path d="M99.169664,15.5356667 L99.169664,13.17 C104.230045,13.17 109.250093,13.0986667 114.265947,13.2226667 C115.443035,13.252 115.44852,14.4373333 115.209101,15.5356667 L99.169664,15.5356667" id="Fill-6" fill="#FFFFFF"></path>
                        <path d="M111.038635,7.933 L99.1848293,7.933 L99.1848293,5.528 C102.82096,5.528 106.400301,5.49066667 109.978352,5.55133333 C111.018307,5.569 111.3684,6.418 111.038635,7.933" id="Fill-7" fill="#FFFFFF"></path>
                        <path d="M84.0869333,7.94333333 L68.002968,7.94333333 L68.002968,5.49966667 L74.52632,5.49966667 C77.1557307,5.49966667 79.7848187,5.50866667 82.4139067,5.497 C83.9965867,5.49 84.3899173,6.35666667 84.0869333,7.94333333" id="Fill-8" fill="#FFFFFF"></path>
                    </g>
                </g>
            </g>
        </g>
    </g>
</svg>