<?xml version="1.0" encoding="UTF-8" standalone="no"?>
<svg width="233px" height="39px" viewBox="0 0 233 39" version="1.1" xmlns="http://www.w3.org/2000/svg" xmlns:xlink="http://www.w3.org/1999/xlink" xmlns:sketch="http://www.bohemiancoding.com/sketch/ns">
    <!-- Generator: Sketch 3.3.3 (12081) - http://www.bohemiancoding.com/sketch -->
    <title>logo-full</title>
    <desc>Created with Sketch.</desc>
    <defs></defs>
    <g id="Homepage" stroke="none" stroke-width="1" fill="none" fill-rule="evenodd" sketch:type="MSPage">
        <g id="JS---Home---Light" sketch:type="MSArtboardGroup" transform="translate(-50.000000, -16.000000)">
            <g id="Header" sketch:type="MSLayerGroup">
                <g id="logo-full" transform="translate(50.000000, 16.000000)" sketch:type="MSShapeGroup">
                    <g id="logo-square">
                        <rect id="Rectangle-72" fill="#7BB7CB" x="0" y="0" width="58" height="39"></rect>
                        <path d="M16.085,31.33 C18.395,31.33 20.342,30.637 21.695,29.284 C23.048,27.931 23.84,25.885 23.84,23.146 L23.84,7.9 L19.682,7.9 L19.682,23.047 C19.682,26.116 18.197,27.568 16.019,27.568 C14.072,27.568 12.719,26.578 11.366,24.862 L8.693,27.601 C10.211,29.68 12.521,31.33 16.085,31.33 L16.085,31.33 Z M39.6310321,31.33 C44.4820321,31.33 47.8810321,28.756 47.8810321,24.433 L47.8810321,24.367 C47.8810321,20.539 45.3400321,18.79 40.4560321,17.602 C36.0340321,16.546 34.9780321,15.754 34.9780321,13.972 L34.9780321,13.906 C34.9780321,12.388 36.3640321,11.167 38.7400321,11.167 C40.8520321,11.167 42.9310321,11.992 45.0100321,13.543 L47.1880321,10.474 C44.8450321,8.593 42.1720321,7.57 38.8060321,7.57 C34.2190321,7.57 30.9190321,10.309 30.9190321,14.269 L30.9190321,14.335 C30.9190321,18.592 33.6910321,20.044 38.6080321,21.232 C42.8980321,22.222 43.8220321,23.113 43.8220321,24.763 L43.8220321,24.829 C43.8220321,26.578 42.2380321,27.733 39.7300321,27.733 C36.8590321,27.733 34.6480321,26.644 32.4370321,24.73 L29.9950321,27.634 C32.7670321,30.109 36.1000321,31.33 39.6310321,31.33 L39.6310321,31.33 Z" id="JS" fill="#FFFFFF"></path>
                    </g>
                    <path d="M68.8935547,23.5571289 C69.1083995,23.7231454 69.3378894,23.8525386 69.5820312,23.9453125 C69.8261731,24.0380864 70.0947251,24.0844727 70.3876953,24.0844727 C70.7099625,24.0844727 70.9895008,24.0173347 71.2263184,23.8830566 C71.4631359,23.7487786 71.6584465,23.5620129 71.8122559,23.3227539 C71.9660652,23.0834949 72.0808102,22.802736 72.1564941,22.4804688 C72.2321781,22.1582015 72.2700195,21.8066425 72.2700195,21.4257812 L72.2700195,14.3359375 L73.5297852,14.3359375 L73.5297852,21.3452148 C73.5297852,21.9653351 73.4565437,22.5134254 73.3100586,22.989502 C73.1635735,23.4655786 72.9536146,23.8647445 72.6801758,24.1870117 C72.4067369,24.509279 72.074709,24.7534171 71.684082,24.9194336 C71.2934551,25.08545 70.8491236,25.168457 70.3510742,25.168457 C69.9702129,25.168457 69.6296402,25.101319 69.3293457,24.967041 C69.0290512,24.832763 68.7592785,24.6459973 68.5200195,24.4067383 L68.8935547,23.5571289 Z M82.4423828,17.3022461 C82.7500015,17.3022461 83.0307604,17.330322 83.284668,17.3864746 C83.5385755,17.4426272 83.7729481,17.5219721 83.987793,17.6245117 C84.2026378,17.7270513 84.4003897,17.8540031 84.5810547,18.0053711 C84.7617197,18.156739 84.930175,18.3276358 85.0864258,18.5180664 L85.1303711,17.4853516 L86.3242188,17.4853516 L86.2949219,19.3383789 L86.2949219,25 L85.0864258,25 L85.1010742,23.9453125 C84.9838861,24.1015633 84.8361825,24.2541496 84.657959,24.4030762 C84.4797354,24.5520027 84.2783214,24.6826166 84.0537109,24.7949219 C83.8291004,24.9072271 83.5813002,24.9975583 83.3103027,25.065918 C83.0393053,25.1342777 82.7548843,25.168457 82.4570312,25.168457 C82.0371073,25.168457 81.6562517,25.1135259 81.3144531,25.0036621 C80.9726545,24.8937983 80.6674818,24.7424326 80.3989258,24.5495605 C80.1303698,24.3566885 79.8972178,24.1308607 79.6994629,23.8720703 C79.501708,23.61328 79.3393561,23.3349624 79.2124023,23.0371094 C79.0854486,22.7392563 78.9902347,22.4304215 78.9267578,22.1105957 C78.8632809,21.7907699 78.831543,21.4746109 78.831543,21.1621094 C78.831543,20.6787085 78.9060051,20.2050804 79.0549316,19.7412109 C79.2038582,19.2773414 79.4284653,18.8647479 79.7287598,18.503418 C80.0290542,18.142088 80.405027,17.8515636 80.8566895,17.6318359 C81.3083519,17.4121083 81.836911,17.3022461 82.4423828,17.3022461 L82.4423828,17.3022461 Z M82.581543,24.2016602 C82.9233416,24.2016602 83.2443833,24.1320808 83.5446777,23.9929199 C83.8449722,23.8537591 84.1086414,23.648683 84.3356934,23.3776855 C84.5627453,23.1066881 84.7434075,22.7697774 84.8776855,22.3669434 C85.0119636,21.9641093 85.0815429,21.4990261 85.0864258,20.9716797 C85.0864258,20.5761699 85.0266119,20.2148454 84.9069824,19.8876953 C84.7873529,19.5605452 84.6176769,19.2773449 84.3979492,19.0380859 C84.1782216,18.7988269 83.9108902,18.6132819 83.5959473,18.4814453 C83.2810043,18.3496087 82.9282246,18.2836914 82.5375977,18.2836914 C82.2397446,18.2836914 81.9711926,18.3239742 81.7319336,18.404541 C81.4926746,18.4851078 81.2802744,18.5961907 81.0947266,18.737793 C80.9091788,18.8793952 80.7480476,19.0454092 80.6113281,19.2358398 C80.4746087,19.4262705 80.3623051,19.6301259 80.2744141,19.8474121 C80.186523,20.0646984 80.1218264,20.2905262 80.0803223,20.5249023 C80.0388182,20.7592785 80.0180664,20.9912098 80.0180664,21.2207031 C80.0180664,21.4453136 80.0339354,21.6760242 80.0656738,21.9128418 C80.0974123,22.1496594 80.149902,22.3779286 80.2231445,22.5976562 C80.2963871,22.8173839 80.3964837,23.0249014 80.5234375,23.2202148 C80.6503913,23.4155283 80.8078604,23.5852044 80.9958496,23.729248 C81.1838388,23.8732917 81.408446,23.9880367 81.6696777,24.0734863 C81.9309095,24.158936 82.2348615,24.2016602 82.581543,24.2016602 L82.581543,24.2016602 Z M93.2080078,17.4853516 L93.2373047,18.4960938 C93.5302749,18.0859354 93.8781718,17.7844248 94.2810059,17.5915527 C94.6838399,17.3986807 95.1440404,17.3022461 95.6616211,17.3022461 C95.9448256,17.3022461 96.2121569,17.3376461 96.463623,17.4084473 C96.7150891,17.4792484 96.944579,17.5781244 97.1520996,17.7050781 C97.3596202,17.8320319 97.5415031,17.9870596 97.6977539,18.170166 C97.8540047,18.3532724 97.9785152,18.5571278 98.0712891,18.7817383 C98.3544936,18.2690404 98.7182595,17.8942883 99.1625977,17.6574707 C99.6069358,17.4206531 100.151364,17.3022461 100.795898,17.3022461 C101.328128,17.3022461 101.767576,17.3889151 102.114258,17.5622559 C102.460939,17.7355966 102.735595,17.9638658 102.938232,18.2470703 C103.14087,18.5302749 103.28247,18.8537579 103.363037,19.2175293 C103.443604,19.5813006 103.483887,19.9560528 103.483887,20.3417969 L103.483887,25 L102.275391,25 L102.275391,20.9130859 C102.275391,20.6005844 102.25708,20.2880875 102.220459,19.9755859 C102.183838,19.6630844 102.103272,19.3811048 101.97876,19.1296387 C101.854247,18.8781726 101.669923,18.6743172 101.425781,18.5180664 C101.181639,18.3618156 100.852053,18.2836914 100.437012,18.2836914 C100.109862,18.2836914 99.8181165,18.3508294 99.5617676,18.4851074 C99.3054186,18.6193854 99.0881357,18.798827 98.9099121,19.0234375 C98.7316886,19.248048 98.5961919,19.5056138 98.503418,19.7961426 C98.4106441,20.0866714 98.3642578,20.388182 98.3642578,20.7006836 L98.3642578,25 L97.1557617,25 L97.1557617,20.3491211 C97.1557617,20.0659166 97.1215824,19.7985852 97.0532227,19.5471191 C96.9848629,19.295653 96.8762214,19.0771494 96.7272949,18.8916016 C96.5783684,18.7060538 96.3867199,18.5583502 96.1523438,18.4484863 C95.9179676,18.3386225 95.6347673,18.2836914 95.3027344,18.2836914 C94.9707015,18.2836914 94.676515,18.348388 94.420166,18.4777832 C94.1638171,18.6071784 93.9477548,18.7817372 93.7719727,19.0014648 C93.5961905,19.2211925 93.4631352,19.4775376 93.3728027,19.7705078 C93.2824703,20.063478 93.2373047,20.3735335 93.2373047,20.7006836 L93.2373047,25 L92.0288086,25 L92.0288086,19.4262695 C92.0288086,19.1040023 92.0251465,18.7768571 92.0178223,18.4448242 C92.010498,18.1127913 91.9995118,17.7929703 91.9848633,17.4853516 L93.2080078,17.4853516 Z M114.850098,20.5395508 L114.842773,20.4370117 C114.818359,20.1196273 114.756104,19.8291029 114.656006,19.5654297 C114.555908,19.3017565 114.41797,19.074708 114.242188,18.8842773 C114.066405,18.6938467 113.852784,18.5461431 113.601318,18.4411621 C113.349852,18.3361811 113.065431,18.2836914 112.748047,18.2836914 C112.406248,18.2836914 112.098634,18.3435053 111.825195,18.4631348 C111.551756,18.5827643 111.316163,18.7451162 111.118408,18.9501953 C110.920653,19.1552745 110.760743,19.3945299 110.638672,19.6679688 C110.516601,19.9414076 110.433594,20.2319321 110.389648,20.5395508 L114.850098,20.5395508 Z M115.824219,24.1577148 C115.418943,24.5092791 114.969729,24.7656242 114.476562,24.9267578 C113.983396,25.0878914 113.42432,25.168457 112.799316,25.168457 C112.208493,25.168457 111.681155,25.0720224 111.217285,24.8791504 C110.753416,24.6862783 110.361574,24.4177263 110.041748,24.0734863 C109.721922,23.7292463 109.477784,23.3178735 109.309326,22.8393555 C109.140868,22.3608375 109.056641,21.8359404 109.056641,21.2646484 C109.056641,20.7226535 109.139648,20.2124047 109.305664,19.7338867 C109.471681,19.2553687 109.713377,18.835451 110.030762,18.4741211 C110.348146,18.1127912 110.735105,17.8271495 111.19165,17.6171875 C111.648196,17.4072255 112.169431,17.3022461 112.755371,17.3022461 C113.331546,17.3022461 113.832029,17.3962393 114.256836,17.5842285 C114.681643,17.7722177 115.03076,18.0310042 115.304199,18.3605957 C115.577638,18.6901872 115.781493,19.082029 115.915771,19.5361328 C116.050049,19.9902366 116.117188,20.4833958 116.117188,21.015625 C116.117188,21.0693362 116.115967,21.1315914 116.113525,21.2023926 C116.111084,21.2731937 116.107422,21.3378903 116.102539,21.3964844 L110.338379,21.3964844 L110.360352,21.7260742 C110.389649,22.092287 110.464111,22.4267563 110.58374,22.7294922 C110.70337,23.0322281 110.868163,23.2934559 111.078125,23.5131836 C111.288087,23.7329113 111.543211,23.9025873 111.843506,24.0222168 C112.1438,24.1418463 112.486814,24.2016602 112.872559,24.2016602 C113.390139,24.2016602 113.863767,24.111329 114.293457,23.9306641 C114.723147,23.7499991 115.108885,23.4912126 115.450684,23.1542969 L115.824219,24.1577148 Z M126.091797,18.7963867 C125.828124,18.6157218 125.510744,18.4851078 125.139648,18.404541 C124.768553,18.3239742 124.382815,18.2836914 123.982422,18.2836914 C123.757811,18.2836914 123.550294,18.3081052 123.359863,18.3569336 C123.169433,18.405762 123.004639,18.4753413 122.865479,18.5656738 C122.726318,18.6560063 122.616455,18.7658685 122.535889,18.8952637 C122.455322,19.0246589 122.415039,19.1699211 122.415039,19.3310547 C122.415039,19.501954 122.456543,19.6484369 122.539551,19.7705078 C122.622559,19.8925787 122.734863,19.9987788 122.876465,20.0891113 C123.018067,20.1794438 123.184081,20.2600094 123.374512,20.3308105 C123.564942,20.4016117 123.767577,20.4687497 123.982422,20.5322266 C124.177735,20.5908206 124.386473,20.6518552 124.608643,20.715332 C124.830812,20.7788089 125.051757,20.8532711 125.271484,20.9387207 C125.491212,21.0241703 125.701171,21.124267 125.901367,21.2390137 C126.101564,21.3537603 126.278564,21.489257 126.432373,21.6455078 C126.586182,21.8017586 126.708252,21.9848622 126.798584,22.1948242 C126.888916,22.4047862 126.934082,22.646483 126.934082,22.9199219 C126.934082,23.3007832 126.846192,23.6315904 126.67041,23.9123535 C126.494628,24.1931166 126.262697,24.4262686 125.974609,24.6118164 C125.686522,24.7973642 125.356935,24.936523 124.98584,25.0292969 C124.614744,25.1220708 124.233889,25.168457 123.843262,25.168457 C123.584471,25.168457 123.328126,25.1538087 123.074219,25.1245117 C122.820311,25.0952147 122.577394,25.0463871 122.345459,24.9780273 C122.113524,24.9096676 121.898683,24.8217779 121.700928,24.7143555 C121.503173,24.6069331 121.333497,24.4726571 121.191895,24.3115234 L121.51416,23.3227539 C121.645997,23.4790047 121.799804,23.6132807 121.975586,23.7255859 C122.151368,23.8378912 122.340575,23.929443 122.543213,24.0002441 C122.745851,24.0710453 122.954589,24.1223143 123.169434,24.1540527 C123.384278,24.1857912 123.594237,24.2016602 123.799316,24.2016602 C124.072755,24.2016602 124.324218,24.1760256 124.553711,24.1247559 C124.783204,24.0734861 124.982177,23.9978032 125.150635,23.8977051 C125.319093,23.7976069 125.450927,23.6730964 125.546143,23.5241699 C125.641358,23.3752434 125.688965,23.203126 125.688965,23.0078125 C125.688965,22.783202 125.635254,22.6013191 125.527832,22.4621582 C125.42041,22.3229974 125.271485,22.2033696 125.081055,22.1032715 C124.890624,22.0031733 124.663576,21.9152836 124.399902,21.8395996 C124.136229,21.7639156 123.850587,21.6772466 123.542969,21.5795898 C123.176756,21.4624018 122.845949,21.339112 122.550537,21.2097168 C122.255125,21.0803216 122.004884,20.9301766 121.799805,20.7592773 C121.594726,20.5883781 121.437256,20.3894054 121.327393,20.1623535 C121.217529,19.9353016 121.162598,19.6655289 121.162598,19.3530273 C121.162598,19.0063459 121.241943,18.7036146 121.400635,18.4448242 C121.559327,18.1860339 121.768065,17.972413 122.026855,17.8039551 C122.285646,17.6354972 122.579832,17.509766 122.909424,17.4267578 C123.239015,17.3437496 123.574705,17.3022461 123.916504,17.3022461 C124.419436,17.3022461 124.884519,17.349853 125.311768,17.4450684 C125.739016,17.5402837 126.101561,17.705077 126.399414,17.9394531 L126.091797,18.7963867 Z M132.755859,23.0151367 C132.916993,23.2104502 133.1062,23.3752435 133.323486,23.5095215 C133.540773,23.6437995 133.770262,23.7536617 134.011963,23.8391113 C134.253663,23.924561 134.502684,23.9868162 134.759033,24.0258789 C135.015382,24.0649416 135.265624,24.0844727 135.509766,24.0844727 C135.89551,24.0844727 136.24951,24.0466312 136.571777,23.9709473 C136.894045,23.8952633 137.171141,23.7829597 137.403076,23.6340332 C137.635011,23.4851067 137.815673,23.302003 137.945068,23.0847168 C138.074464,22.8674306 138.13916,22.6147475 138.13916,22.3266602 C138.13916,22.0043929 138.053712,21.7297375 137.882812,21.5026855 C137.711913,21.2756336 137.488527,21.0742196 137.212646,20.8984375 C136.936766,20.7226554 136.620607,20.5651862 136.26416,20.4260254 C135.907713,20.2868645 135.545168,20.1440437 135.176514,19.9975586 C134.807859,19.8510735 134.445314,19.6936044 134.088867,19.5251465 C133.73242,19.3566886 133.416261,19.1564953 133.140381,18.9245605 C132.864501,18.6926258 132.641114,18.419191 132.470215,18.104248 C132.299316,17.7893051 132.213867,17.414553 132.213867,16.9799805 C132.213867,16.5112281 132.323729,16.0998553 132.543457,15.7458496 C132.763185,15.3918439 133.053709,15.0964367 133.415039,14.8596191 C133.776369,14.6228016 134.186521,14.44336 134.645508,14.3212891 C135.104494,14.1992181 135.575681,14.1381836 136.059082,14.1381836 C136.337404,14.1381836 136.623045,14.1552733 136.916016,14.1894531 C137.208986,14.223633 137.490965,14.2846675 137.761963,14.3725586 C138.03296,14.4604497 138.284423,14.5764153 138.516357,14.720459 C138.748292,14.8645027 138.942382,15.0463856 139.098633,15.2661133 L138.490723,16.0864258 C138.344238,15.9252922 138.177003,15.7897955 137.989014,15.6799316 C137.801024,15.5700678 137.600831,15.4821781 137.388428,15.4162598 C137.176024,15.3503415 136.957521,15.3027345 136.73291,15.2734375 C136.5083,15.2441405 136.286134,15.2294922 136.066406,15.2294922 C135.768553,15.2294922 135.470705,15.2600095 135.172852,15.3210449 C134.874999,15.3820804 134.606447,15.4797357 134.367188,15.6140137 C134.127928,15.7482917 133.932618,15.9216298 133.78125,16.1340332 C133.629882,16.3464366 133.554199,16.6040024 133.554199,16.9067383 C133.554199,17.2192398 133.639648,17.4890125 133.810547,17.7160645 C133.981446,17.9431164 134.206053,18.1445304 134.484375,18.3203125 C134.762697,18.4960946 135.078856,18.6572258 135.432861,18.8037109 C135.786867,18.950196 136.149412,19.0991203 136.520508,19.2504883 C136.891603,19.4018562 137.254149,19.5654288 137.608154,19.7412109 C137.96216,19.9169931 138.278319,20.1245105 138.556641,20.3637695 C138.834962,20.6030285 139.059569,20.8825668 139.230469,21.2023926 C139.401368,21.5222184 139.486816,21.8994119 139.486816,22.3339844 C139.486816,22.6806658 139.430665,22.991942 139.318359,23.2678223 C139.206054,23.5437026 139.052247,23.78662 138.856934,23.996582 C138.66162,24.206544 138.43213,24.3859856 138.168457,24.5349121 C137.904784,24.6838386 137.620363,24.804687 137.315186,24.8974609 C137.010008,24.9902348 136.691408,25.0585935 136.359375,25.1025391 C136.027342,25.1464846 135.697756,25.168457 135.370605,25.168457 C135.014158,25.168457 134.674806,25.1367191 134.352539,25.0732422 C134.030272,25.0097653 133.732423,24.9194342 133.458984,24.8022461 C133.185546,24.685058 132.940187,24.5434579 132.7229,24.3774414 C132.505614,24.211425 132.326173,24.0258799 132.18457,23.8208008 L132.755859,23.0151367 Z M145.088867,18.269043 L143.602051,18.269043 L143.602051,17.4853516 L145.088867,17.4853516 L145.125488,15.4931641 L146.297363,15.1489258 L146.297363,17.4853516 L148.172363,17.4853516 L148.172363,18.269043 L146.297363,18.269043 L146.297363,22.7587891 C146.297363,22.9248055 146.302246,23.0944816 146.312012,23.2678223 C146.321777,23.441163 146.354736,23.5998528 146.410889,23.7438965 C146.467041,23.8879402 146.55371,24.0051265 146.670898,24.095459 C146.788087,24.1857915 146.9541,24.230957 147.168945,24.230957 C147.325196,24.230957 147.488769,24.2102053 147.659668,24.1687012 C147.830567,24.1271971 148.018554,24.0698246 148.223633,23.996582 L148.216309,24.8974609 C148.045409,24.9951177 147.859864,25.0646971 147.659668,25.1062012 C147.459472,25.1477053 147.232423,25.168457 146.978516,25.168457 C146.568357,25.168457 146.239991,25.0988776 145.993408,24.9597168 C145.746825,24.8205559 145.556397,24.6337902 145.422119,24.3994141 C145.287841,24.1650379 145.198731,23.8916031 145.154785,23.5791016 C145.11084,23.2666 145.088867,22.9370135 145.088867,22.590332 L145.088867,18.269043 Z M156.572266,17.3022461 C157.202152,17.3022461 157.755125,17.4047841 158.231201,17.6098633 C158.707278,17.8149424 159.104002,18.0957013 159.421387,18.4521484 C159.738771,18.8085955 159.978027,19.2260718 160.13916,19.7045898 C160.300294,20.1831079 160.380859,20.695798 160.380859,21.2426758 C160.380859,21.7700222 160.296632,22.2717261 160.128174,22.7478027 C159.959716,23.2238793 159.713136,23.6413556 159.388428,24.0002441 C159.063719,24.3591327 158.662112,24.6435536 158.183594,24.8535156 C157.705076,25.0634776 157.158206,25.168457 156.542969,25.168457 C155.917966,25.168457 155.366213,25.065919 154.887695,24.8608398 C154.409177,24.6557607 154.00757,24.3774432 153.682861,24.0258789 C153.358153,23.6743146 153.111573,23.2605004 152.943115,22.7844238 C152.774657,22.3083472 152.69043,21.7993191 152.69043,21.2573242 C152.69043,20.7153293 152.775878,20.2038598 152.946777,19.7229004 C153.117677,19.241941 153.367918,18.8220233 153.69751,18.4631348 C154.027101,18.1042463 154.432371,17.821046 154.91333,17.6135254 C155.39429,17.4060048 155.947262,17.3022461 156.572266,17.3022461 L156.572266,17.3022461 Z M159.106445,21.2573242 C159.106445,20.8569316 159.055176,20.476076 158.952637,20.1147461 C158.850097,19.7534162 158.693849,19.4372572 158.483887,19.1662598 C158.273925,18.8952623 158.007814,18.6804207 157.685547,18.5217285 C157.36328,18.3630363 156.982424,18.2836914 156.542969,18.2836914 C156.118162,18.2836914 155.744631,18.3654777 155.422363,18.5290527 C155.100096,18.6926278 154.830323,18.9123521 154.613037,19.1882324 C154.395751,19.4641127 154.232178,19.782713 154.122314,20.144043 C154.012451,20.5053729 153.95752,20.8813457 153.95752,21.2719727 C153.95752,21.6625996 154.012451,22.0336896 154.122314,22.3852539 C154.232178,22.7368182 154.395751,23.0480943 154.613037,23.3190918 C154.830323,23.5900892 155.102537,23.8049308 155.429688,23.963623 C155.756838,24.1223152 156.137693,24.2016602 156.572266,24.2016602 C157.001955,24.2016602 157.375487,24.1210946 157.692871,23.9599609 C158.010255,23.7988273 158.273925,23.582765 158.483887,23.3117676 C158.693849,23.0407701 158.850097,22.7282733 158.952637,22.3742676 C159.055176,22.0202619 159.106445,21.6479512 159.106445,21.2573242 L159.106445,21.2573242 Z M167.037598,25 L165.829102,25 L165.829102,19.2944336 C165.829102,19.0698231 165.82666,18.848878 165.821777,18.6315918 C165.816895,18.4143056 165.812012,18.2202157 165.807129,18.0493164 C165.797363,17.8540029 165.790039,17.6660165 165.785156,17.4853516 L167.008301,17.4853516 L167.037598,18.5253906 C167.330568,18.1103495 167.683348,17.8027354 168.095947,17.6025391 C168.508547,17.4023427 168.995603,17.3022461 169.557129,17.3022461 C170.104007,17.3022461 170.555662,17.3925772 170.912109,17.5732422 C171.268556,17.7539072 171.550536,18.0065902 171.758057,18.3312988 C171.965577,18.6560075 172.109619,19.0429665 172.190186,19.4921875 C172.270752,19.9414085 172.311035,20.4345676 172.311035,20.9716797 L172.311035,25 L171.102539,25 L171.102539,21.1108398 C171.102539,20.686033 171.084229,20.299074 171.047607,19.9499512 C171.010986,19.6008283 170.932862,19.3029797 170.813232,19.0563965 C170.693603,18.8098132 170.516603,18.6193854 170.282227,18.4851074 C170.04785,18.3508294 169.732912,18.2836914 169.337402,18.2836914 C168.97119,18.2836914 168.646486,18.3544915 168.363281,18.4960938 C168.080077,18.637696 167.840821,18.8085927 167.645508,19.0087891 C167.450194,19.2089854 167.300049,19.4201649 167.195068,19.642334 C167.090087,19.8645031 167.037598,20.0585929 167.037598,20.2246094 L167.037598,25 Z M183.647949,20.5395508 L183.640625,20.4370117 C183.616211,20.1196273 183.553956,19.8291029 183.453857,19.5654297 C183.353759,19.3017565 183.215821,19.074708 183.040039,18.8842773 C182.864257,18.6938467 182.650636,18.5461431 182.39917,18.4411621 C182.147704,18.3361811 181.863283,18.2836914 181.545898,18.2836914 C181.2041,18.2836914 180.896486,18.3435053 180.623047,18.4631348 C180.349608,18.5827643 180.114015,18.7451162 179.91626,18.9501953 C179.718505,19.1552745 179.558594,19.3945299 179.436523,19.6679688 C179.314453,19.9414076 179.231446,20.2319321 179.1875,20.5395508 L183.647949,20.5395508 Z M184.62207,24.1577148 C184.216795,24.5092791 183.767581,24.7656242 183.274414,24.9267578 C182.781248,25.0878914 182.222171,25.168457 181.597168,25.168457 C181.006345,25.168457 180.479006,25.0720224 180.015137,24.8791504 C179.551267,24.6862783 179.159425,24.4177263 178.8396,24.0734863 C178.519774,23.7292463 178.275636,23.3178735 178.107178,22.8393555 C177.93872,22.3608375 177.854492,21.8359404 177.854492,21.2646484 C177.854492,20.7226535 177.937499,20.2124047 178.103516,19.7338867 C178.269532,19.2553687 178.511229,18.835451 178.828613,18.4741211 C179.145998,18.1127912 179.532957,17.8271495 179.989502,17.6171875 C180.446047,17.4072255 180.967282,17.3022461 181.553223,17.3022461 C182.129397,17.3022461 182.629881,17.3962393 183.054688,17.5842285 C183.479494,17.7722177 183.828612,18.0310042 184.102051,18.3605957 C184.37549,18.6901872 184.579345,19.082029 184.713623,19.5361328 C184.847901,19.9902366 184.915039,20.4833958 184.915039,21.015625 C184.915039,21.0693362 184.913818,21.1315914 184.911377,21.2023926 C184.908936,21.2731937 184.905273,21.3378903 184.900391,21.3964844 L179.13623,21.3964844 L179.158203,21.7260742 C179.1875,22.092287 179.261962,22.4267563 179.381592,22.7294922 C179.501221,23.0322281 179.666015,23.2934559 179.875977,23.5131836 C180.085939,23.7329113 180.341063,23.9025873 180.641357,24.0222168 C180.941652,24.1418463 181.284666,24.2016602 181.67041,24.2016602 C182.187991,24.2016602 182.661619,24.111329 183.091309,23.9306641 C183.520998,23.7499991 183.906737,23.4912126 184.248535,23.1542969 L184.62207,24.1577148 Z M191.857422,25.0805664 L190.268066,25.0805664 L190.268066,23.5424805 L191.857422,23.5424805 L191.857422,25.0805664 Z M203.01123,19.1333008 C202.776854,18.8403306 202.491213,18.625489 202.154297,18.4887695 C201.817381,18.3520501 201.458498,18.2836914 201.077637,18.2836914 C200.672361,18.2836914 200.311037,18.3618156 199.993652,18.5180664 C199.676268,18.6743172 199.406495,18.8879381 199.184326,19.1589355 C198.962157,19.429933 198.792481,19.7473126 198.675293,20.111084 C198.558105,20.4748553 198.499512,20.8642557 198.499512,21.2792969 C198.499512,21.6894552 198.550781,22.0727521 198.65332,22.4291992 C198.75586,22.7856463 198.912108,23.0957018 199.12207,23.359375 C199.332032,23.6230482 199.598143,23.829345 199.92041,23.9782715 C200.242677,24.127198 200.623533,24.2016602 201.062988,24.2016602 C201.888188,24.2016602 202.627926,23.9184599 203.282227,23.3520508 L203.619141,24.362793 C203.262694,24.6459975 202.864748,24.8510736 202.425293,24.9780273 C201.985838,25.1049811 201.500003,25.168457 200.967773,25.168457 C200.347653,25.168457 199.804446,25.0671397 199.338135,24.864502 C198.871824,24.6618642 198.482423,24.3859881 198.169922,24.0368652 C197.85742,23.6877424 197.623048,23.2788109 197.466797,22.8100586 C197.310546,22.3413062 197.232422,21.8432644 197.232422,21.315918 C197.232422,20.7690402 197.315429,20.2514673 197.481445,19.7631836 C197.647462,19.2748999 197.889159,18.8488788 198.206543,18.4851074 C198.523927,18.1213361 198.914548,17.833253 199.378418,17.6208496 C199.842287,17.4084462 200.372067,17.3022461 200.967773,17.3022461 C201.558597,17.3022461 202.07617,17.3950186 202.520508,17.5805664 C202.964846,17.7661142 203.311522,18.0224593 203.560547,18.3496094 L203.01123,19.1333008 Z M212.260742,17.3022461 C212.890628,17.3022461 213.443601,17.4047841 213.919678,17.6098633 C214.395754,17.8149424 214.792479,18.0957013 215.109863,18.4521484 C215.427248,18.8085955 215.666503,19.2260718 215.827637,19.7045898 C215.98877,20.1831079 216.069336,20.695798 216.069336,21.2426758 C216.069336,21.7700222 215.985108,22.2717261 215.81665,22.7478027 C215.648193,23.2238793 215.401613,23.6413556 215.076904,24.0002441 C214.752196,24.3591327 214.350588,24.6435536 213.87207,24.8535156 C213.393552,25.0634776 212.846683,25.168457 212.231445,25.168457 C211.606442,25.168457 211.05469,25.065919 210.576172,24.8608398 C210.097654,24.6557607 209.696047,24.3774432 209.371338,24.0258789 C209.046629,23.6743146 208.80005,23.2605004 208.631592,22.7844238 C208.463134,22.3083472 208.378906,21.7993191 208.378906,21.2573242 C208.378906,20.7153293 208.464355,20.2038598 208.635254,19.7229004 C208.806153,19.241941 209.056395,18.8220233 209.385986,18.4631348 C209.715578,18.1042463 210.120847,17.821046 210.601807,17.6135254 C211.082766,17.4060048 211.635739,17.3022461 212.260742,17.3022461 L212.260742,17.3022461 Z M214.794922,21.2573242 C214.794922,20.8569316 214.743653,20.476076 214.641113,20.1147461 C214.538574,19.7534162 214.382325,19.4372572 214.172363,19.1662598 C213.962401,18.8952623 213.696291,18.6804207 213.374023,18.5217285 C213.051756,18.3630363 212.670901,18.2836914 212.231445,18.2836914 C211.806639,18.2836914 211.433107,18.3654777 211.11084,18.5290527 C210.788573,18.6926278 210.5188,18.9123521 210.301514,19.1882324 C210.084227,19.4641127 209.920655,19.782713 209.810791,20.144043 C209.700927,20.5053729 209.645996,20.8813457 209.645996,21.2719727 C209.645996,21.6625996 209.700927,22.0336896 209.810791,22.3852539 C209.920655,22.7368182 210.084227,23.0480943 210.301514,23.3190918 C210.5188,23.5900892 210.791014,23.8049308 211.118164,23.963623 C211.445314,24.1223152 211.82617,24.2016602 212.260742,24.2016602 C212.690432,24.2016602 213.063963,24.1210946 213.381348,23.9599609 C213.698732,23.7988273 213.962401,23.582765 214.172363,23.3117676 C214.382325,23.0407701 214.538574,22.7282733 214.641113,22.3742676 C214.743653,22.0202619 214.794922,21.6479512 214.794922,21.2573242 L214.794922,21.2573242 Z M222.704102,17.4853516 L222.733398,18.4960938 C223.026369,18.0859354 223.374266,17.7844248 223.7771,17.5915527 C224.179934,17.3986807 224.640134,17.3022461 225.157715,17.3022461 C225.440919,17.3022461 225.708251,17.3376461 225.959717,17.4084473 C226.211183,17.4792484 226.440673,17.5781244 226.648193,17.7050781 C226.855714,17.8320319 227.037597,17.9870596 227.193848,18.170166 C227.350098,18.3532724 227.474609,18.5571278 227.567383,18.7817383 C227.850587,18.2690404 228.214353,17.8942883 228.658691,17.6574707 C229.10303,17.4206531 229.647458,17.3022461 230.291992,17.3022461 C230.824221,17.3022461 231.26367,17.3889151 231.610352,17.5622559 C231.957033,17.7355966 232.231688,17.9638658 232.434326,18.2470703 C232.636964,18.5302749 232.778564,18.8537579 232.859131,19.2175293 C232.939698,19.5813006 232.97998,19.9560528 232.97998,20.3417969 L232.97998,25 L231.771484,25 L231.771484,20.9130859 C231.771484,20.6005844 231.753174,20.2880875 231.716553,19.9755859 C231.679931,19.6630844 231.599366,19.3811048 231.474854,19.1296387 C231.350341,18.8781726 231.166017,18.6743172 230.921875,18.5180664 C230.677733,18.3618156 230.348147,18.2836914 229.933105,18.2836914 C229.605955,18.2836914 229.31421,18.3508294 229.057861,18.4851074 C228.801512,18.6193854 228.584229,18.798827 228.406006,19.0234375 C228.227782,19.248048 228.092286,19.5056138 227.999512,19.7961426 C227.906738,20.0866714 227.860352,20.388182 227.860352,20.7006836 L227.860352,25 L226.651855,25 L226.651855,20.3491211 C226.651855,20.0659166 226.617676,19.7985852 226.549316,19.5471191 C226.480957,19.295653 226.372315,19.0771494 226.223389,18.8916016 C226.074462,18.7060538 225.882814,18.5583502 225.648438,18.4484863 C225.414061,18.3386225 225.130861,18.2836914 224.798828,18.2836914 C224.466795,18.2836914 224.172609,18.348388 223.91626,18.4777832 C223.659911,18.6071784 223.443849,18.7817372 223.268066,19.0014648 C223.092284,19.2211925 222.959229,19.4775376 222.868896,19.7705078 C222.778564,20.063478 222.733398,20.3735335 222.733398,20.7006836 L222.733398,25 L221.524902,25 L221.524902,19.4262695 C221.524902,19.1040023 221.52124,18.7768571 221.513916,18.4448242 C221.506592,18.1127913 221.495606,17.7929703 221.480957,17.4853516 L222.704102,17.4853516 Z" id="JamesStone.com" fill="#66655D"></path>
                </g>
            </g>
        </g>
    </g>
</svg>