<?xml version="1.0" encoding="UTF-8" standalone="no"?>
<svg width="421px" height="266px" viewBox="0 0 421 266" version="1.1" xmlns="http://www.w3.org/2000/svg" xmlns:xlink="http://www.w3.org/1999/xlink" xmlns:sketch="http://www.bohemiancoding.com/sketch/ns">
    <!-- Generator: Sketch 3.3.3 (12081) - http://www.bohemiancoding.com/sketch -->
    <title>yeti+screens</title>
    <desc>Created with Sketch.</desc>
    <defs></defs>
    <g id="Homepage" stroke="none" stroke-width="1" fill="none" fill-rule="evenodd" sketch:type="MSPage">
        <g id="JS---Home---Light" sketch:type="MSArtboardGroup" transform="translate(-509.000000, -914.000000)">
            <g id="Signup" sketch:type="MSLayerGroup" transform="translate(0.000000, 754.000000)">
                <g id="yeti+screens" transform="translate(509.000000, 159.000000)" sketch:type="MSShapeGroup">
                    <g id="svg-screens" transform="translate(0.000000, 63.000000)">
                        <rect id="top-left" fill="#A2A2A1" x="29" y="0" width="149" height="91" rx="3"></rect>
                        <rect id="bottom-left" fill="#A2A2A1" x="0" y="62" width="140" height="120" rx="3"></rect>
                        <g id="imac" transform="translate(183.000000, 17.000000)">
                            <path d="M152.890137,133.686035 C152.890137,144.46875 156.80127,151.583008 162.356934,163.969727 C152.874268,164.116455 144.403564,164.181641 144.403564,164.181641 L144.403564,133.710821" id="Path-168" fill="#A2A2A1"></path>
                            <path d="M152.909873,135 C152.973825,137.109081 153.191937,139.084899 153.545818,141 L144.403564,141 L144.403564,135 L152.909873,135 L152.909873,135 Z" id="Path-168-Copy" fill="#8C8C8B"></path>
                            <rect id="Rectangle-227" stroke="#979797" fill="#A2A2A1" x="143" y="163" width="21" height="2" rx="31"></rect>
                            <rect id="Rectangle-221-Copy-2" fill="#A2A2A1" x="0" y="0" width="238" height="136" rx="4"></rect>
                        </g>
                        <g id="screen-color" transform="translate(9.000000, 5.000000)" fill="#77B6CB">
                            <rect id="Rectangle-224" x="30" y="0" width="94" height="52"></rect>
                            <rect id="Rectangle-224-Copy" x="0" y="66" width="143" height="101"></rect>
                            <rect id="Rectangle-224-Copy-2" x="181" y="22" width="223" height="101"></rect>
                        </g>
                    </g>
                    <g id="yeti" transform="translate(22.768041, 0.932570)">
                        <path d="M211.579834,61.0692342 C217.258797,52.8892872 221.529893,47.8504569 221.529893,47.8504569 C214.61816,40.0526047 200.440247,41.470396 200.440247,41.470396 L208.769771,31.5458568 L194.769082,26.2291393 C196.895769,19.6718545 204.161949,13.8234653 204.161949,13.8234653 C177.578362,4.07615003 158.792627,16.3046001 158.792627,16.3046001 C160.387643,10.1017631 168.539943,0.531671743 168.539943,0.531671743 C142.488027,2.30391089 122.638949,23.0391089 122.638949,23.0391089 C122.284501,19.4946306 125.120084,9.57009138 125.120084,9.57009138 C125.120084,9.57009138 111.296618,19.4946306 103.498766,34.7358872 C100.826229,39.9590304 89.6753007,77.9785224 88.2575094,86.4852702 C88.2575094,86.4852702 85.0674789,85.2447028 81.5230006,85.5991507 C81.5230006,85.5991507 86.4852702,92.5108833 87.016942,95.7009138 C87.5486137,98.8909443 81.8774485,118.917247 79.7507615,122.284501 C77.6240745,125.651755 74.9657158,127.601218 73.7251484,128.13289 C73.7251484,128.13289 75.6746115,131.854592 77.8012984,132.20904 C77.8012984,132.20904 77.2696267,144.083042 75.8518354,146.564177 C74.4340441,149.045312 70.357894,152.944238 68.408431,154.184806 C68.408431,154.184806 72.6618049,159.147075 75.4973876,159.324299 C75.4973876,159.324299 72.6618049,164.81824 71.5984614,166.236032 C70.5351179,167.653823 67.8767592,164.995464 67.8767592,164.995464 C67.8767592,164.995464 68.4197733,169.513256 68.8805555,171.080625 C69.4717745,173.088926 68.5856549,175.628899 68.0539831,177.046691 C67.5223114,178.464482 64.3322809,187.857349 63.9778331,192.287947 C63.6233853,196.718545 64.6867288,200.085799 64.6867288,200.085799 C64.6867288,200.085799 65.9272962,197.604665 67.3450875,197.072993 C67.3450875,197.072993 67.3450875,206.288636 69.4717745,210.364786 C71.5984614,214.440936 74.7884919,218.871534 76.0290593,219.757654 C76.0290593,219.757654 75.3201636,216.567623 76.2062832,215.149832 C76.2062832,215.149832 78.4449757,222.990927 89.143629,224.5427 C112.359962,227.909954 129.01901,232.163328 155.957045,216.567623 C181.031393,202.050858 177.578362,148.51364 185.730662,114.486649 C189.518292,98.6775667 197.513217,83.1775631 204.989231,71.1086145 C209.989781,64.8696239 217.394905,60.8473499 217.394905,60.8473499 C214.864147,60.4978643 212.594263,60.8579833 211.579834,61.0692342 L211.579834,61.0692342 Z" id="Shape" fill="#EAF7FE"></path>
                        <path d="M46.1958944,257.021463 C46.4971751,255.943233 46.7502508,254.818924 46.9388171,253.847028 C46.9629195,250.491116 47.5803677,246.254047 50.3181227,242.184986 C49.3476445,242.45224 48.2715409,242.821574 48.2715409,242.821574 C51.701887,238.597265 55.1690957,236.336597 57.4148771,235.191021 C56.8463428,234.60122 55.1761846,234.337511 55.1761846,234.337511 C57.1724348,233.559852 63.1597675,232.674442 68.1482663,231.958457 L66.0853799,230.744828 L74.9593357,230.912836 C79.0900707,229.792781 83.9977554,228.940688 89.8220421,228.455095 C89.3796912,227.491706 88.8480195,224.00961 88.8480195,224.00961 C94.3795323,223.801195 102.499223,225.706706 105.15262,226.136297 C106.030941,226.153311 106.932657,229.487956 107.841461,229.517729 C107.841461,229.517729 121.674142,221.690103 121.893899,235.512151 C122.059072,245.954184 121.403344,256.528781 121.072289,261.078473 C117.443453,260.520572 113.76712,260.283092 110.095749,260.197316 C105.08173,260.079639 100.046444,259.940695 95.0317163,259.952038 C93.4756903,259.956291 91.9232088,259.991027 90.372854,260.043485 C83.3540781,259.959836 69.0393481,260.576575 59.3508712,261.226632 L59.3352755,259.336007 L58.4059132,259.455811 L52.4136182,259.455811 L52.272548,257.731068 C52.2626235,257.404267 52.2923971,257.10015 52.2619146,256.889608 C50.2380175,256.903786 48.2183737,256.95908 46.1958944,257.021463 L46.1958944,257.021463 Z" id="Shape" fill="#A1D4E9"></path>
                        <path d="M52.2087474,256.82439 C51.3162478,256.83077 50.424457,256.860544 49.5326663,256.89528 C49.7439172,239.501816 66.5440354,235.510733 66.5440354,235.510733 C51.9429115,241.152125 52.1045397,254.82176 52.2087474,256.82439 L52.2087474,256.82439 Z" id="Shape" fill="#85C1CE"></path>
                        <path d="M56.1615496,252.898526 C57.1788149,249.992763 59.6216693,247.329442 60.4702174,246.461753 C66.0307949,238.641216 75.5711127,237.893332 75.5711127,237.893332 C58.2655519,241.949632 59.3352755,259.337425 59.3352755,259.337425 L58.4059132,259.455811 L56.5833425,259.455811 C56.6535232,256.620228 56.9930842,254.745199 57.5297182,252.83827 L56.1615496,252.898526 L56.1615496,252.898526 Z" id="Shape" fill="#85C1CE"></path>
                        <path d="M102.339722,54.0433694 C86.2683482,48.3821286 78.1415684,32.9147343 78.1415684,32.9147343 C78.1415684,32.9147343 73.7017549,43.9054526 79.034068,56.1459539 C82.7961772,64.7781763 91.867915,70.486913 96.8946941,73.1055736 C98.3245366,66.6383185 99.9705923,60.2199772 102.339722,54.0433694 L102.339722,54.0433694 Z" id="Shape" fill="#4F4E51"></path>
                        <path d="M102.339722,54.0433694 C86.2683482,48.3821286 78.1415684,32.9147343 78.1415684,32.9147343 C78.1415684,32.9147343 79.3403109,53.8789056 99.3538531,63.1505519 C100.218706,60.0725269 101.194146,57.0299468 102.339722,54.0433694 L102.339722,54.0433694 Z" id="Shape" fill="#5C5B5D"></path>
                        <g id="Group" transform="translate(46.078218, 120.512262)" fill="#A1D4E9">
                            <path d="M32.0775285,22.861885 C32.0775285,22.861885 29.8296204,20.2141597 26.5332556,16.856121 C23.0426534,12.0632774 22.5074371,6.20283701 22.5074371,6.20283701 C21.4334602,7.58376575 21.1569909,10.8191655 21.101697,11.664878 C16.98514,8.00201419 12.378736,4.57450368 8.53581262,3.42254824 C10.4774778,4.375304 11.8740023,5.13949352 11.8740023,5.13949352 C11.8740023,5.13949352 8.82291536,5.5832622 6.16526554,5.60169349 L8.50674789,48.9138004 L23.5707806,55.8255331 C23.5707806,55.8255331 37.5714699,34.0269916 32.0775285,22.861885 L32.0775285,22.861885 Z" id="Shape"></path>
                            <path d="M8.53581262,3.42254824 C5.992295,2.17489188 2.51161732,0.603270205 0,0 C0,0 2.4811348,2.30391089 2.30391089,4.43059786 C2.22593237,5.36704903 4.07402335,5.6158714 6.16526554,5.60169349 L6.02561309,3.01280655 C6.81177838,3.01280655 7.65394642,3.15813016 8.53581262,3.42254824 L8.53581262,3.42254824 Z" id="Shape"></path>
                            <path d="M8.53581262,3.42254824 C7.65323752,3.15813016 6.81177838,3.01280655 6.02561309,3.01280655 L6.16526554,5.60169349 C8.82220646,5.5832622 11.8740023,5.13949352 11.8740023,5.13949352 C11.8740023,5.13949352 10.4774778,4.375304 8.53581262,3.42254824 L8.53581262,3.42254824 Z" id="Shape"></path>
                        </g>
                        <path d="M116.967784,41.1159482 C126.29047,25.3628688 156.60852,11.651409 162.165553,9.23761932 C165.0302,4.65177331 168.539943,0.531671743 168.539943,0.531671743 C142.488027,2.30391089 122.638949,23.0391089 122.638949,23.0391089 C122.284501,19.4946306 125.120084,9.57009138 125.120084,9.57009138 C125.120084,9.57009138 111.296618,19.4946306 103.498766,34.7358872 C100.826229,39.9590304 89.6753007,77.9785224 88.2575094,86.4852702 C88.2575094,86.4852702 85.0674789,85.2447028 81.5230006,85.5991507 C81.5230006,85.5991507 86.4852702,92.5108833 87.016942,95.7009138 C87.5486137,98.8909443 81.8774485,118.917247 79.7507615,122.284501 C77.6240745,125.651755 74.9657158,127.601218 73.7251484,128.13289 C73.7251484,128.13289 75.6746115,131.854592 77.8012984,132.20904 C77.8012984,132.20904 77.2696267,144.083042 75.8518354,146.564177 C74.4340441,149.045312 70.357894,152.944238 68.408431,154.184806 C68.408431,154.184806 72.484581,159.678747 75.3201636,159.855971 C75.3201636,159.855971 72.6618049,164.81824 71.5984614,166.236032 C70.5351179,167.653823 67.8767592,164.995464 67.8767592,164.995464 C67.8767592,164.995464 68.4197733,169.513256 68.8805555,171.080625 C69.4717745,173.088926 68.5856549,175.628899 68.0539831,177.046691 C67.5223114,178.464482 64.3322809,187.857349 63.9778331,192.287947 C63.6233853,196.718545 64.6867288,200.085799 64.6867288,200.085799 C64.6867288,200.085799 65.9272962,197.604665 67.3450875,197.072993 C67.3450875,197.072993 67.3450875,206.288636 69.4717745,210.364786 C71.5984614,214.440936 74.7884919,218.871534 76.0290593,219.757654 C76.0290593,219.757654 75.3201636,218.162639 76.2062832,216.744847 C76.2062832,216.744847 79.3793002,223.197925 89.6753007,226.492163 C98.5364964,229.327745 105.74313,230.391089 115.313221,227.555506 C122.136342,225.340207 126.184136,218.576634 126.184136,218.576634 C81.9951252,232.517776 69.7078367,202.508096 74.6701063,183.367913 C77.0576669,174.15865 87.7258377,158.615403 87.7258377,158.615403 C82.763568,160.033195 79.8691471,155.48492 79.8691471,155.48492 C79.8691471,155.48492 82.2326052,155.012087 86.249208,151.231546 C90.2658108,147.451006 89.3208529,126.892323 89.3208529,126.892323 C87.4919021,127.501973 85.6672047,127.58704 85.1908268,127.599092 C85.1085949,127.617523 85.0674789,127.601218 85.0674789,127.601218 C85.0674789,127.601218 85.1128483,127.60051 85.1908268,127.599092 C85.5608703,127.518987 86.7794619,126.754088 89.0394213,120.811416 C88.4652158,120.501628 87.9108594,120.152852 87.3529585,119.783517 C87.2118883,119.689943 87.1204408,119.516972 87.1750257,119.34542 C88.579348,114.932544 88.0434229,110.21697 89.0769928,105.735332 C89.3492087,104.556438 89.7270501,102.731032 90.8790055,102.040568 C92.0465567,101.340179 93.3913317,101.637915 94.7162577,101.824354 C95.5711859,98.4663158 96.4892058,94.6723062 97.4731529,90.3834875 C106.334349,51.7486741 115.195544,30.1273566 115.195544,30.1273566 C113.777753,34.0269916 116.967784,41.1159482 116.967784,41.1159482 L116.967784,41.1159482 Z" id="Shape" fill="#CDEAF5"></path>
                        <g id="Group" transform="translate(0.000000, 108.461036)">
                            <g id="Shape" fill="#464745">
                                <g>
                                    <path d="M72.0798016,53.5939295 C73.1693742,55.0336966 72.8829804,57.102963 71.4439222,58.1925357 L44.9021599,78.286892 C43.4623928,79.3771735 41.3931264,79.0900707 40.3035537,77.6510126 L0.909513129,25.6173624 C-0.180059497,24.1775953 0.106334349,22.1083289 1.54539253,21.0187563 L28.0871549,0.924399938 C29.5269219,-0.165172688 31.5961884,0.121221157 32.685761,1.56027934 L72.0798016,53.5939295 L72.0798016,53.5939295 Z"></path>
                                </g>
                            </g>
                            <rect id="Rectangle-219" fill="#A2A2A1" transform="translate(37.000000, 40.000000) rotate(-37.000000) translate(-37.000000, -40.000000) " x="21" y="14" width="32" height="52"></rect>
                        </g>
                        <path d="M57.5977722,142.665251 C43.7743069,153.121462 28.5330502,144.260266 28.5330502,144.260266 C30.4825133,140.006892 42.8881873,123.525068 52.1038308,123.525068 C52.1038308,123.525068 65.7500723,129.01901 57.5977722,142.665251 L57.5977722,142.665251 Z" id="Shape" fill="#A1D4E9"></path>
                        <path d="M49.0910243,154.716477 C31.1914089,149.39976 15.5957045,153.830358 15.5957045,153.830358 C8.2437476,155.60047 10.6199658,163.956932 13.8830126,170.307928 C13.8631635,170.310055 13.8418966,170.307928 13.8234653,170.312182 C13.8234653,170.312182 16.8362719,178.110034 16.8362719,180.236721 L18.8778914,177.903745 C23.0291843,182.600179 29.5779624,186.256663 39.1664851,180.413945 C50.5088156,173.502212 49.0910243,154.716477 49.0910243,154.716477 L49.0910243,154.716477 Z" id="Shape" fill="#A1D4E9"></path>
                        <ellipse id="Oval" fill="#CDEAF5" cx="139.061226" cy="119.06257" rx="7.68017556" ry="9.72037726"></ellipse>
                        <ellipse id="Oval" fill="#CDEAF5" cx="100.899955" cy="113.302793" rx="7.68017556" ry="9.72037726"></ellipse>
                        <ellipse id="Oval" fill="#FFFFFF" cx="138.353039" cy="116.377273" rx="7.56178998" ry="9.57009138"></ellipse>
                        <ellipse id="Oval" fill="#FFFFFF" cx="100.781569" cy="110.706108" rx="7.56178998" ry="9.57009138"></ellipse>
                        <path d="M104.915848,106.48109 C104.976105,106.715735 105.017221,106.961012 105.017221,107.220468 C105.017221,108.568079 104.138899,109.660487 103.055706,109.660487 C102.093026,109.660487 101.296227,108.797052 101.129637,107.659275 C100.512189,108.469542 100.131512,109.560533 100.131512,110.764947 C100.131512,113.260968 101.757718,115.284156 103.764602,115.284156 C105.771486,115.284156 107.397692,113.260968 107.397692,110.764947 C107.397692,108.770114 106.357742,107.080107 104.915848,106.48109 L104.915848,106.48109 Z" id="Shape" fill="#4F4E51"></path>
                        <path d="M168.244333,112.359962 C165.349912,110.587723 161.805434,109.583217 161.805434,109.583217 C158.492764,108.579421 152.66706,107.128312 145.517138,106.42367 C136.212883,105.509194 128.109497,105.600642 123.268448,105.655227 C121.82301,105.670822 120.687359,105.685 119.825342,105.669405 L118.88322,105.656644 C116.951479,105.630415 116.228405,105.6212 115.187038,105.305741 C114.654657,105.144113 114.032247,104.904506 113.06744,104.516031 C112.767577,104.395519 112.447156,104.265082 112.104759,104.124721 C110.384978,103.420788 108.248367,102.544592 105.525499,101.720147 C102.567277,100.824103 99.6317402,100.204528 96.5537153,99.8266865 C89.5455728,98.9632516 84.4925646,99.0880173 82.105004,99.2397209 C81.5286718,99.2765835 81.0728519,99.483581 80.7127329,99.8756003 C80.1321474,100.5051 79.9279854,101.431626 79.7507615,102.436131 L79.2722569,105.590717 C79.1333134,106.932657 80.0520422,107.684795 80.7446332,108.301534 C81.2408602,108.746721 81.418793,109.254999 81.4081595,110.179399 C81.4067418,110.365838 81.4173752,114.760282 81.8228635,117.449124 C82.1737669,119.738857 83.4880594,121.581985 88.6431486,123.142974 C89.6136268,123.437165 90.732973,123.718597 91.9473113,123.981597 C100.634828,125.861588 103.892203,125.444049 106.853969,124.014915 C109.639929,122.670849 111.649648,116.830967 112.613746,114.025158 C112.750563,113.630303 112.95189,113.047591 113.001512,112.947636 C113.131949,112.699523 113.232612,112.462043 113.331149,112.221018 C113.589187,111.594354 113.589896,111.594354 114.2676,111.630508 C115.16648,111.682258 115.915782,111.797099 116.496368,111.972196 C117.333574,112.226689 117.513633,112.518754 117.549787,112.600986 C117.746151,113.068857 117.865245,114.355503 117.980087,115.601742 C118.060192,116.46943 118.143133,117.364765 118.264354,118.223238 L118.364308,118.964743 C118.695362,121.478487 119.195134,125.278167 120.935473,127.019924 C122.132088,128.217958 125.495798,129.796668 129.305404,130.951459 C131.873733,131.728409 134.44915,132.259372 136.75377,132.485509 C142.954481,133.093742 149.188509,133.110755 151.914213,132.525917 C154.687413,131.933989 155.587001,130.386469 156.665231,127.685577 C156.811264,127.319078 156.944536,126.983061 157.086315,126.637829 L157.138065,126.419489 C157.138065,126.419489 159.362579,119.475147 160.788878,114.024449 C163.915107,114.930417 167.063313,116.199341 167.063313,116.199341 L168.244333,112.359962 L168.244333,112.359962 Z M109.703021,110.009973 C109.473339,112.246538 108.736796,114.750358 107.385641,117.892183 C105.915391,121.303389 105.50565,121.415395 104.146697,121.783312 C102.522617,122.224245 97.5908296,121.923673 92.4534628,120.671763 C87.5776785,119.478692 85.2425762,117.636272 84.7385513,116.528268 C84.3054161,115.57055 84.550694,105.37734 84.9462578,103.414407 C85.0270719,103.007501 85.1461664,102.903294 85.1972068,102.857924 C85.8465553,102.28301 88.1844931,102.39218 90.3856142,102.574366 C94.6701795,102.927396 100.660348,104.633708 102.915345,105.27455 L103.3102,105.385846 C103.496639,105.439013 103.678117,105.492181 103.856049,105.546057 C107.795383,106.741255 109.873156,108.324928 109.703021,110.009973 L109.703021,110.009973 Z M156.913345,115.255801 C156.533377,117.16273 153.949452,125.934605 153.01371,127.777025 C152.321119,129.139522 150.64529,129.277048 145.899942,129.47483 L145.578103,129.48759 C140.929875,129.675447 132.871149,128.347686 128.545467,127.036229 C128.358319,126.979517 128.178968,126.924223 128.008125,126.86822 C124.01208,125.558181 123.625023,124.957746 122.626189,122.633987 C121.596163,120.229412 121.730145,113.645898 121.768425,112.350037 L121.769843,112.283401 C121.808832,110.913815 121.82939,110.227604 123.675354,109.713654 C126.157198,109.021063 136.697767,109.116764 140.955395,109.563368 C144.316978,109.918525 151.32512,111.449031 154.491757,112.408876 C154.987275,112.559161 155.352357,112.685345 155.575659,112.781046 C155.932233,112.934167 157.203283,113.807527 156.913345,115.255801 L156.913345,115.255801 Z" id="Shape" fill="#5C5B5D"></path>
                        <path d="M140.360631,111.44336 C140.420887,111.678004 140.462003,111.923282 140.462003,112.182738 C140.462003,113.530348 139.583682,114.622757 138.500489,114.622757 C137.537809,114.622757 136.74101,113.759322 136.57442,112.621544 C135.956972,113.431812 135.576295,114.522802 135.576295,115.727216 C135.576295,118.223238 137.202501,120.246426 139.209385,120.246426 C141.216268,120.246426 142.842475,118.223238 142.842475,115.727216 C142.842475,113.732384 141.802525,112.042377 140.360631,111.44336 L140.360631,111.44336 Z" id="Shape" fill="#4F4E51"></path>
                        <path d="M134.099665,81.405324 C134.099665,81.405324 147.538909,75.6746115 153.47591,81.8774485 C153.47591,81.8774485 153.47591,75.7341587 145.192464,76.037566 C139.416382,76.0886065 136.935248,78.3329702 134.099665,81.405324 L134.099665,81.405324 Z" id="Shape" fill="#A1D4E9"></path>
                        <path d="M136.905474,74.4340441 C136.905474,74.4340441 141.24746,70.1806701 148.9567,71.2440136 C148.9567,71.2440136 145.926171,68.6657601 142.133579,69.6489984 C139.741057,70.2692821 138.146041,71.7756854 136.905474,74.4340441 L136.905474,74.4340441 Z" id="Shape" fill="#A1D4E9"></path>
                        <path d="M96.3211975,85.5105387 C96.3211975,85.5105387 103.23293,87.9916735 106.245737,92.6881073 C106.245737,92.6881073 106.998584,88.6438575 103.144318,86.4852702 C100.19035,84.8307078 98.8909443,85.1851556 96.3211975,85.5105387 L96.3211975,85.5105387 Z" id="Shape" fill="#A1D4E9"></path>
                        <path d="M108.726872,85.3333148 C108.726872,85.3333148 106.777408,82.2318963 103.587378,82.0546724 C103.587378,82.0546724 106.215963,80.9459596 107.486304,82.0546724 C108.059092,82.5544438 108.992707,83.5610757 108.726872,85.3333148 L108.726872,85.3333148 Z" id="Shape" fill="#A1D4E9"></path>
                        <path d="M111.887128,136.344029 C111.555365,136.218554 120.512262,138.323265 129.46207,139.386609 C129.46207,139.386609 130.200739,137.76182 131.027311,136.935248 C131.027311,136.935248 130.436801,139.77083 131.145697,140.479726 C131.145697,140.479726 126.419489,141.543069 121.930053,140.834174 C121.930053,140.834174 126.951161,140.774626 128.7234,140.184116 C128.7234,140.184116 119.714754,139.297997 111.887128,136.344029 L111.887128,136.344029 Z" id="Shape" fill="#5C5B5D"></path>
                        <path d="M185.540678,68.2354604 C186.163798,68.4906629 188.189821,69.2130275 188.189821,69.2130275 C206.278003,76.5784534 224.590905,66.6971569 224.590905,66.6971569 C224.590905,66.6971569 222.133872,78.293272 210.873065,85.468005 C199.609422,92.6413201 182.758972,88.973494 182.758972,88.973494 C181.477288,91.093092 180.945617,96.5870334 180.945617,96.5870334 C180.945617,96.5870334 177.909417,89.7511525 179.976556,79.3644134 C181.422703,72.0861816 185.155039,68.0773767 185.540678,68.2354604" id="Shape" fill="#5C5B5D"></path>
                        <path d="M185.540678,68.2354604 C186.14324,68.4722316 188.189821,69.2130275 188.189821,69.2130275 C206.278003,76.5784534 224.590905,66.6971569 224.590905,66.6971569 C224.590905,66.6971569 208.104827,88.3971618 180.496177,77.1980282 C180.496177,77.1980282 181.200819,72.4136914 185.540678,68.2354604" id="Shape" fill="#747F83"></path>
                        <path d="M76.1254691,159.324299 C76.1254691,159.324299 83.0605953,160.564866 87.4578751,158.260956 C87.4578751,158.260956 88.4730137,164.286569 94.0541492,168.717167 C94.0541492,168.717167 99.4665675,160.033195 104.540843,158.792627 C104.540843,158.792627 104.849212,163.164387 104.680495,166.708865 C104.680495,166.708865 114.35125,167.299375 122.638949,160.387643 C122.638949,160.387643 120.748324,169.898187 101.253693,170.489406 C101.253693,170.489406 101.693209,165.852519 101.580494,164.906852 C101.580494,164.906852 97.4277836,170.22357 94.6368614,176.160571 C94.6368614,176.160571 84.666244,169.426062 82.8904604,162.868777 C82.8904604,162.868777 82.0447478,163.932121 74.4333352,162.691553 L76.1254691,159.324299 L76.1254691,159.324299 Z" id="Shape" fill="#CDEAF5"></path>
                        <path d="M41.1159482,153.003785 C41.1159482,153.003785 31.6635335,160.328804 25.1657959,162.455491 C25.1657959,162.455491 40.9975626,158.792627 46.0782178,156.429878 C46.0782178,156.429878 41.7064582,167.181699 28.7102741,171.435073 C28.7102741,171.435073 40.9975626,170.253343 45.9598322,165.645522 C45.9598322,165.645522 40.7615003,181.950122 28.4742119,183.367913 C28.4742119,183.367913 35.6808451,184.548933 42.0609061,178.287258 C48.440967,172.025583 49.7403727,159.501523 49.0910243,154.716477 C49.0910243,154.716477 44.187593,153.240557 41.1159482,153.003785 L41.1159482,153.003785 Z" id="Shape" fill="#85C1CE"></path>
                        <path d="M58.1294439,142.606413 C58.1294439,142.606413 61.3187655,140.716497 62.8549424,139.062643 C62.8549424,139.062643 62.973328,142.607122 59.6656208,144.497038 L58.1294439,142.606413 L58.1294439,142.606413 Z" id="Shape" fill="#85C1CE"></path>
                        <path d="M222.002726,182.186184 C223.755117,180.672692 225.448668,181.455313 224.838309,174.74278 C224.365476,169.544448 220.230487,163.164387 220.230487,163.164387" id="Shape" fill="#EAF7FE"></path>
                        <path d="M185.132354,152.601133 L181.743124,153.996239 L185.730662,155.591255 L185.132354,152.601133 Z" id="Shape" fill="#EAF7FE"></path>
                        <path d="M224.188252,157.197612 C224.188252,157.197612 232.640415,155.506896 235.176134,150.224206" id="Shape" fill="#EAF7FE"></path>
                        <path d="M79.0418658,229.948029 C79.0418658,229.948029 90.5614203,236.416702 107.088614,234.925894 L106.86602,229.210778 C106.86602,229.210778 97.4731529,229.38871 88.7296339,226.197971 L88.6119572,228.264402 L85.7763746,226.492163 L85.9535985,228.707462 L79.0418658,229.948029 L79.0418658,229.948029 Z" id="Shape" fill="#85C1CE"></path>
                        <path d="M144.307762,241.887959 L142.204469,241.842589 C134.441353,241.46971 129.240894,240.415582 121.467853,240.77003 C116.509128,240.99475 111.134281,241.220179 105.846628,241.485306 C108.750265,239.333808 109.970274,237.632458 112.666205,234.595549 L113.777753,236.504605 C114.68514,235.234264 116.532522,231.492713 117.428566,229.784274 C122.113657,224.019535 125.474531,218.811987 125.474531,218.811987 L113.423305,223.065361 C112.86824,224.639109 111.82829,226.219947 110.521795,227.747617 C110.427512,227.973046 110.341027,228.211944 110.257377,228.456513 C109.203958,227.047937 107.831536,225.819421 107.516078,227.791568 C107.466455,228.099938 107.423921,228.424612 107.384932,228.75354 C104.884657,232.536916 94.8658347,238.775198 94.8658347,238.775198 C94.2008906,239.159419 93.8102891,239.369961 93.8102891,239.369961 L95.9369761,239.96118 L95.5265255,242.082905 C95.4655604,242.087158 95.4024687,242.090703 95.3422126,242.094956 C95.2046868,243.10655 95.0161206,244.113182 94.7786406,245.113434 C94.7871473,245.630928 94.7772228,245.95702 94.7772228,245.95702 L94.5567562,253.328117 C93.9520682,254.228414 92.7639591,255.775933 91.548203,256.106279 C91.548203,256.106279 92.7136275,257.165369 93.8613296,256.460727 L93.688359,257.239094 C93.688359,257.239094 92.8965226,263.227136 97.8382342,263.403651 L111.611368,263.895624 C112.413838,263.92398 112.897305,263.942411 112.897305,263.942411 L127.721022,264.471956 L127.841534,262.416868 L136.321344,263.01872 L137.743389,260.098779 L150.566602,260.524117 C152.44872,247.283363 148.948193,242.568498 144.307762,241.887959 L144.307762,241.887959 Z" id="Shape" fill="#CDEAF5"></path>
                        <path d="M152.421782,255.777351 C152.389173,254.514099 152.293472,253.103397 152.08293,251.673554 L153.120044,252.158439 C152.703214,249.433444 150.907581,246.838886 150.666556,246.50216 C149.428116,243.748101 147.366647,241.65615 143.95615,241.534929 L144.906779,240.261752 C141.635226,239.525918 139.979245,238.937535 134.549105,239.881075 C137.561202,238.939662 140.471219,236.868268 143.127451,234.334675 L144.260266,235.353358 L145.855282,231.80888 L145.258391,232.154112 C147.102229,230.135177 148.785856,227.965248 150.241219,225.900944 L151.880895,228.087178 C153.298686,225.606043 155.957045,216.567623 155.957045,216.567623 L135.975403,223.131997 C135.486974,223.820335 134.835499,224.554042 134.057131,225.319649 L126.06575,217.631676 C126.06575,217.631676 121.497627,224.504419 115.905858,231.012081 C115.30755,231.707508 114.487358,234.821687 113.778462,236.062254 C113.335402,235.176134 113.141165,234.100031 112.666914,234.596258 C109.793051,237.597722 106.83412,240.184482 104.208371,241.497357 L109.596686,241.704355 C107.83579,242.684757 106.742673,243.265343 106.742673,243.265343 C106.742673,243.265343 107.449442,243.200124 115.685391,242.443024 C123.921341,241.685923 128.863053,245.112725 128.863053,245.112725 L128.892826,244.889423 C129.512401,245.233946 131.649013,246.580139 133.270257,249.929671 C133.470874,250.717254 134.646223,255.57248 133.656605,257.238385 L135.07865,256.77973 C135.254456,258.588831 135.272178,260.641793 135.057383,262.991073 L141.055349,263.185311 C141.055349,263.185311 141.642315,255.97726 140.200421,250.236623 L141.828754,250.313892 C141.041171,247.50383 138.664244,245.49482 137.135865,244.451325 C136.726123,244.108929 136.280228,243.823244 135.78471,243.627589 C135.78471,243.627589 147.798365,242.665617 147.146889,260.42558 L149.231043,260.500014 L154.517278,260.86226 C154.379752,260.575866 154.259949,260.285928 154.167792,259.987482 C153.261823,258.728484 152.615311,256.547921 152.421782,255.777351 L152.421782,255.777351 Z M133.322715,250.016156 C133.721824,250.858324 134.088323,251.818878 134.388894,252.919793 L133.322715,250.016156 L133.322715,250.016156 Z" id="Shape" fill="#EAF7FE"></path>
                        <path d="M124.996027,249.844603 L126.041648,248.957775 C124.195684,247.517299 121.207688,247.330859 119.639611,247.342911 C119.192298,247.279819 118.730098,247.233032 118.235998,247.214601 C118.235998,247.214601 123.091224,251.876298 122.310021,264.279137 L127.721731,264.471956 C127.721731,264.472665 129.850544,254.679272 124.996027,249.844603 L124.996027,249.844603 Z" id="Shape" fill="#EAF7FE"></path>
                        <g id="Group" transform="translate(147.450297, 149.576984)">
                            <g>
                                <g>
                                    <g id="Shape">
                                        <path d="M159.870149,109.551317 C159.870149,113.360922 156.753135,116.478646 152.94282,116.478646 L7.59439918,116.478646 C3.78479392,116.478646 0.667070814,113.361631 0.667070814,109.551317 L0.667070814,7.04571394 C0.667070814,3.23610868 3.78408502,0.118385575 7.59439918,0.118385575 L152.94282,0.118385575 C156.752426,0.118385575 159.870149,3.23539978 159.870149,7.04571394 L159.870149,109.551317 L159.870149,109.551317 Z" fill="#464745"></path>
                                        <path d="M159.870149,109.551317 C159.870149,113.360922 156.753135,116.478646 152.94282,116.478646 L7.59439918,116.478646 C3.78479392,116.478646 0.667070814,113.361631 0.667070814,109.551317 L0.667070814,7.04571394 C0.667070814,3.23610868 3.78408502,0.118385575 7.59439918,0.118385575 L152.94282,0.118385575 C156.752426,0.118385575 159.870149,3.23539978 159.870149,7.04571394 L159.870149,109.551317 L159.870149,109.551317 Z"></path>
                                    </g>
                                    <rect id="Rectangle-path" fill="#A2A2A1" x="14.5571723" y="10.1272834" width="131.106707" height="96.3424644"></rect>
                                </g>
                            </g>
                        </g>
                        <g id="Group" transform="translate(173.679436, 104.916557)">
                            <path d="M84.0041354,23.3935567 C85.7763746,23.2163328 89.6753007,25.1657959 89.6753007,25.1657959 C88.7891811,23.0391089 82.763568,17.8996154 82.763568,17.8996154 C82.763568,17.8996154 82.7614414,17.9237178 82.7593147,17.9513647 C79.5196615,15.94519 75.8589243,14.3452125 71.9585804,13.0642381 L73.4890862,11.3423305 L66.6602943,11.542948 C59.69185,9.8281294 52.2257609,8.97532792 45.0921439,8.62158899 L46.5510512,6.61612317 C38.827633,6.41267012 23.1050362,7.19387314 18.8282687,8.07361265 L19.4946306,5.13949352 L15.7729284,7.44340441 C15.7729284,5.13949352 18.7857349,0.708895658 18.7857349,0.708895658 C14.532361,1.77223914 11.3423305,7.44340441 11.3423305,7.44340441 L10.456211,10.8106588 L10.7603272,10.7447315 L5.67116526,43.9515308 L18.4312871,43.9515308 L84.9498023,44.0699164 C85.834504,37.5473674 84.8739504,28.7279965 83.9559305,23.3885944 C83.9722351,23.3878855 83.987122,23.3949745 84.0041354,23.3935567 L84.0041354,23.3935567 Z M17.8457393,9.20430122 C17.8507016,9.21706134 17.8570816,9.22840367 17.8620439,9.24116379 C17.7635074,9.24967054 17.6585908,9.25746839 17.562181,9.26597514 L17.8457393,9.20430122 L17.8457393,9.20430122 Z" id="Shape" fill="#EAF7FE"></path>
                            <path d="M47.673233,75.1429397 L44.4832025,78.5101941 L38.9892612,73.7251484 L30.6597372,79.7507615 C30.6597372,79.7507615 26.938035,75.3201636 25.6974676,72.8390288 C24.4569002,70.357894 23.7480045,63.0917135 23.7480045,63.0917135 L21.7985415,64.6867288 C24.1166303,55.9524254 24.037234,56.1076735 25.5202437,53.6988461 C25.5202437,53.6988461 46.9643373,49.4454721 47.673233,75.1429397 L47.673233,75.1429397 Z" id="Shape" opacity="0.3" fill="#4F4E51"></path>
                            <path d="M49.9438258,65.0411766 C50.0905672,62.3438286 48.7231075,59.644354 49.0378571,56.9597661 C49.1902697,55.6532714 49.4149896,54.0901565 50.3400985,53.0636756 C51.294272,52.0052944 52.6177802,51.5041051 53.868981,50.8838214 C54.4183752,50.6108966 54.969896,50.3415162 55.519999,50.0728448 C56.4947306,49.2044476 57.5942277,48.4551449 58.8383396,47.8504569 C65.8415198,44.4484666 85.0455032,42.6443272 85.0455032,42.6443272 C57.3765967,31.9442561 17.9584537,42.1792916 17.9584537,42.1792916 C10.0429248,47.6143946 6.0249042,64.0699896 6.0249042,64.0699896 C12.0505173,58.930496 30.3052894,48.0276808 30.8369611,48.2049047 C29.7317928,55.778037 19.1167892,55.662487 48.3232903,77.2696267 C48.5118565,73.3232046 49.4575234,69.2428012 50.0763893,65.337495 C49.9927396,65.2758211 49.9360279,65.1794113 49.9438258,65.0411766 L49.9438258,65.0411766 Z" id="Shape" fill="#EAF7FE"></path>
                            <path d="M18.7524168,30.8064786 C13.3804055,33.7611557 9.20997239,38.8779646 5.70731894,43.9515308 L16.5413713,43.9515308 C16.5413713,43.9515308 20.2758336,40.7983629 25.7719016,36.5591669 C25.7719016,36.5591669 18.7857349,36.9809598 14.8868088,36.3897408 C14.8868088,36.3897408 29.4709192,32.5737555 35.3526265,29.4602857 C42.6599229,24.2825119 47.469071,20.8472035 54.0532939,18.194516 C54.0532939,18.194516 54.3481945,17.8400681 53.284851,17.4856203 C53.284851,17.4856203 54.5254184,17.1900108 55.7071475,17.3672347 C55.7071475,17.3672347 60.9657355,15.2405477 63.3284847,15.1221622 C63.3284847,15.1228711 48.9138004,13.7050798 18.7524168,30.8064786 L18.7524168,30.8064786 Z" id="Shape" fill="#CDEAF5"></path>
                            <path d="M15.4255695,52.9934949 C11.0027695,52.9055918 6.57713391,52.9828615 2.1550428,52.8538425 C1.40715788,54.3595368 0.938577851,55.8928781 0.886119572,57.4205483 C0.886119572,60.2561309 1.0619257,63.2760264 0.353738933,64.0699896 L15.4255695,52.9934949 L15.4255695,52.9934949 Z" id="Shape" opacity="0.3" fill="#4F4E51"></path>
                            <path d="M25.7719016,36.5591669 C25.7719016,36.5591669 6.91173266,47.1415612 6.55728483,57.4205483 C6.55728483,60.2561309 6.73309096,63.2760264 6.0249042,64.0699896 L25.6974676,49.0910243 L25.7719016,36.5591669 L25.7719016,36.5591669 Z" id="Shape" fill="#EAF7FE"></path>
                            <path d="M29.9508415,49.4454721 C26.5204955,60.9997625 26.5786249,60.7055708 26.938035,66.8134157 C27.1152589,69.4717745 27.2924828,70.7123419 28.5330502,71.9529093 C29.7736176,73.1934767 35.7992307,79.9279854 35.7992307,79.9279854 C35.7992307,79.9279854 42.9654569,75.0415676 42.3565156,70.0034462 C40.4070525,53.87607 29.9508415,49.4454721 29.9508415,49.4454721 L29.9508415,49.4454721 Z" id="Shape" fill="#EAF7FE"></path>
                            <path d="M21.0896458,53.6988461 C21.3079857,53.5478513 24.1201748,50.3053626 31.1914089,49.79992 C36.1536785,49.4454721 31.1914089,46.2554417 31.1914089,46.2554417 L21.6213176,46.7871134" id="Shape" fill="#EAF7FE"></path>
                            <path d="M27.2924828,69.1173266 C27.2924828,69.1173266 26.2291393,64.3322809 26.4063633,60.7878027 L24.811348,62.205594 C27.2357712,51.7770299 26.4673283,51.9216447 28.0013785,48.7365765 C30.3052894,43.9515308 30.6597372,63.6233853 30.6597372,63.6233853" id="Shape" fill="#EAF7FE"></path>
                            <path d="M38.4575894,60.9650266 C38.8652044,57.5687075 39.0849621,51.5778303 40.1348366,48.0042873 C39.6180516,48.6699403 39.1360026,49.3575691 38.6943606,50.0657558 C37.2389978,53.2189237 36.3436626,57.6615728 36.1536785,62.205594 C35.7992307,68.2312071 41.2045601,74.7005888 41.2045601,74.7005888 C41.2045601,74.7005888 41.9432294,73.6074717 42.2976772,72.6625138 L39.5209329,67.1678636 C39.5209329,67.1678636 37.9259177,65.3956244 38.4575894,60.9650266 L38.4575894,60.9650266 Z" id="Shape" fill="#CDEAF5"></path>
                        </g>
                    </g>
                </g>
            </g>
        </g>
    </g>
</svg>