<?xml version="1.0" encoding="UTF-8" standalone="no"?>
<svg width="640px" height="320px" viewBox="0 0 640 320" version="1.1" xmlns="http://www.w3.org/2000/svg" xmlns:xlink="http://www.w3.org/1999/xlink" xmlns:sketch="http://www.bohemiancoding.com/sketch/ns">
    <title>certification</title>
    <description>Created with Sketch (http://www.bohemiancoding.com/sketch)</description>
    <defs>
        <path id="path-1" d="M65,73.6801242 L65,73.6801242 L34.6134454,1 L1,15.3198758 L31.3865546,88 L43.487395,69.6273292 L65,73.6801242 Z"></path>
        <linearGradient x1="78.8841485%" y1="21.8065613%" x2="4.20134907%" y2="106.980796%" id="linearGradient-3">
            <stop stop-color="#FFCA2F" offset="0%"></stop>
            <stop stop-color="#FDB51A" offset="100%"></stop>
        </linearGradient>
    </defs>
    <g id="Page-1" stroke="none" stroke-width="1" fill="none" fill-rule="evenodd" sketch:type="MSPage">
        <g id="hero-image" sketch:type="MSLayerGroup" transform="translate(0.000000, -180.500000) scale(-1, 1) translate(-0.000000, 180.500000) translate(-249.000000, -438.000000)">
            <g id="Group" sketch:type="MSShapeGroup">
                <g id="Shape">
                    <path d="M186.943147,360.181469 C186.943147,360.181469 138.41658,352.830503 118.013863,374.800642 C118.013863,374.800642 94.3529553,391.071105 101.265394,432.998874 C101.265394,432.998874 139.593041,448.485559 178.337229,445.65422 C178.337229,445.65422 179.978031,426.524182 174.274245,414.309895 C174.274245,414.309895 202.412728,415.951448 215.464028,412.702418 C228.515328,409.453389 186.943147,360.181469 186.943147,360.181469 L186.943147,360.181469 Z" fill="#DCDCDB"></path>
                    <path d="M79.2960894,511 C79.2960894,511 54.826723,498.668962 65.8563792,466.237987 C76.8860354,433.805048 105.03976,417.396075 140.93005,430.553111 L178.862544,438.783625 C178.862544,438.783625 196.803299,455.217152 195.971977,485.60032 L79.2960894,511 L79.2960894,511 Z" fill="#425356"></path>
                    <path d="M81.2981135,512.268957 C81.2981135,512.268957 65.3879181,503.204564 75.191722,482.624798 C84.9955258,462.046016 94.3864455,449.288905 135.188776,457.541884 C175.991107,465.794864 196.800276,469.511216 195.97646,485.976802 C195.152643,502.442387 180.045766,518.490449 129.454273,501.999261 C129.454273,502.00123 104.144373,522.160519 81.2981135,512.268957 L81.2981135,512.268957 Z" fill="#122B2A"></path>
                    <path d="M65.6382719,495 C65.6382719,495 53.9717578,473.385937 72.4211972,450.57023 C90.8696565,427.754523 101.201343,421.001827 131.124226,427.164378 C160.007277,433.112419 164,435.39729 164,435.39729 C164,435.39729 119.461632,428.441732 106.231939,431.41284 C92.7092102,434.449952 81.0270154,445.399666 72.1085613,460.004786 C63.1901072,474.607964 62.8764912,485.868282 65.6382719,495 L65.6382719,495 Z" fill="#627377"></path>
                </g>
            </g>
        </g>
        <rect id="Rectangle-1" fill="#1E83A7" sketch:type="MSShapeGroup" x="0" y="0" width="640" height="320"></rect>
        <g id="certified-01" sketch:type="MSLayerGroup" transform="translate(109.000000, 36.000000)">
            <g id="Group">
                <path d="M364.084252,-1 L56.915748,-1 C47.5181102,-1 40,6.53145336 40,15.6767896 L40,230.32321 C40,239.468547 47.5181102,247 56.915748,247 L364.084252,247 C373.48189,247 381,239.468547 381,230.32321 L381,15.4078091 C381,6.26247289 373.48189,-1 364.084252,-1 L364.084252,-1 Z" id="Shape" fill="#EDEDED" sketch:type="MSShapeGroup"></path>
                <rect id="Rectangle" fill="#FFFFFF" sketch:type="MSShapeGroup" x="59" y="19" width="300" height="206"></rect>
                <g transform="translate(118.000000, 64.000000)" fill="#CCCCCC" sketch:type="MSShapeGroup">
                    <rect id="Rectangle" x="0" y="46" width="182" height="15"></rect>
                    <path d="M90.3217244,0.158062029 C99.5793957,-1.20336021 107.20336,6.42060434 105.841938,15.6782756 C105.025085,21.396249 100.396249,26.0250846 94.6782756,26.841938 C85.4206043,28.2033602 77.7966398,20.5793957 79.158062,11.3217244 C79.9749154,5.603751 84.603751,0.974915374 90.3217244,0.158062029 L90.3217244,0.158062029 Z" id="Shape"></path>
                </g>
                <path d="M130,78 L185,78" id="Shape" stroke="#CCCCCC" stroke-width="1.75" sketch:type="MSShapeGroup"></path>
                <g transform="translate(0.000000, 40.000000)">
                    <g transform="translate(32.000000, 48.000000)">
                        <path d="M65,73.6801242 L65,73.6801242 L34.6134454,1 L1,15.3198758 L31.3865546,88 L43.487395,69.6273292 L65,73.6801242 Z" id="Shape" fill="#989899" sketch:type="MSShapeGroup"></path>
                        <g id="Clipped">
                            <mask id="mask-2" sketch:name="SVGID_10_" fill="white">
                                <use xlink:href="#path-1"></use>
                            </mask>
                            <g id="SVGID_10_"></g>
                            <path d="M10.3390558,90.6503067 L11.1502146,92 L39,18.3067485 L3.57939914,4 L-24,77.6932515 L-2.63948498,72.8343558 L10.3390558,90.6503067 Z" id="Shape" fill="#8C8C8C" sketch:type="MSShapeGroup" mask="url(#mask-2)"></path>
                        </g>
                    </g>
                    <path d="M39.5043478,135 L39.5043478,135 L67,61.5919003 L32.7652174,49 L5,122.140187 L26.5652174,117.049844 L39.5043478,135 Z" id="Shape" fill="#989899" sketch:type="MSShapeGroup"></path>
                    <g id="Shape" sketch:type="MSShapeGroup">
                        <path d="M104,50.5 C104,52.9262172 98.3272727,54.813275 98.0571429,57.2394922 C97.787013,59.6657093 102.379221,62.9006656 101.838961,65.3268828 C101.298701,67.4835203 95.3558442,68.0226796 94.2753247,69.9097374 C93.1948052,72.0663749 96.9766234,76.6492296 95.625974,78.5362874 C94.2753247,80.4233452 88.6025974,79.0754468 86.9818182,80.9625046 C85.361039,82.8495624 87.5220779,88.2411561 85.9012987,89.8586343 C84.0103896,91.4761124 79.1480519,88.5107358 76.987013,89.8586343 C75.0961039,91.2065327 75.6363636,96.8677061 73.4753247,97.9460249 C71.3142857,99.0243436 67.2623377,94.7110686 65.1012987,95.250228 C62.9402597,95.7893874 61.5896104,101.72014 59.4285714,101.98972 C57.2675325,102.2593 54.2961039,97.1372858 52.1350649,97.1372858 C49.7038961,97.1372858 47.0025974,102.2593 44.8415584,101.98972 C42.4103896,101.72014 41.3298701,95.7893874 39.1688312,95.250228 C37.0077922,94.7110686 32.6857143,98.7547639 30.7948052,97.9460249 C28.6337662,96.8677061 29.174026,91.2065327 27.2831169,89.8586343 C25.3922078,88.5107358 20.2597403,91.4761124 18.3688312,89.8586343 C16.4779221,88.2411561 18.638961,82.8495624 17.2883117,80.9625046 C15.6675325,79.0754468 9.99480519,80.4233452 8.64415584,78.5362874 C7.29350649,76.6492296 11.0753247,71.7967953 9.99480519,69.9097374 C8.91428571,67.7531 3.24155844,67.4835203 2.43116883,65.3268828 C1.89090909,63.1702453 6.48311688,59.6657093 6.21298701,57.2394922 C5.67272727,54.813275 0,52.9262172 0,50.5 C0,48.0737828 5.67272727,46.186725 5.94285714,43.7605078 C6.21298701,41.3342907 1.62077922,38.0993344 2.16103896,35.6731172 C2.7012987,33.5164797 8.64415584,32.9773204 9.72467532,31.0902626 C10.8051948,28.9336251 7.02337662,24.3507704 8.37402597,22.4637126 C9.72467532,20.5766548 15.3974026,21.9245532 17.0181818,20.0374954 C18.638961,18.1504376 16.4779221,12.7588439 18.0987013,11.1413657 C19.9896104,9.52388761 24.8519481,12.4892642 27.012987,11.1413657 C28.9038961,9.7934673 28.3636364,4.13229388 30.5246753,3.05397513 C32.6857143,1.97565638 36.7376623,6.28893137 38.8987013,5.749772 C41.0597403,5.21061263 42.4103896,-0.720140483 44.5714286,-0.98972017 C46.7324675,-1.25929986 49.7038961,3.86271419 51.8649351,3.86271419 C54.2961039,3.86271419 56.9974026,-1.25929986 59.1584416,-0.98972017 C61.5896104,-0.720140483 62.6701299,5.21061263 64.8311688,5.749772 C66.9922078,6.28893137 71.3142857,2.24523607 73.2051948,3.05397513 C75.3662338,4.13229388 74.825974,9.7934673 76.7168831,11.1413657 C78.6077922,12.4892642 83.7402597,9.52388761 85.6311688,11.1413657 C87.5220779,12.7588439 85.361039,18.1504376 86.7116883,20.0374954 C88.3324675,21.9245532 94.0051948,20.5766548 95.3558442,22.4637126 C96.7064935,24.3507704 92.9246753,29.2032047 94.0051948,31.0902626 C95.0857143,33.2469 100.758442,33.5164797 101.568831,35.6731172 C102.109091,37.8297547 97.5168831,41.3342907 97.787013,43.7605078 C98.5974026,46.186725 104,48.0737828 104,50.5 L104,50.5 Z" fill="#FDB51A"></path>
                        <path d="M46.8236565,15.2197239 C49.7860829,18.1766766 51.6712634,38.8753461 51.4019519,40.2194156 C50.8633289,40.2194156 47.9009024,40.7570434 43.5919185,41.8322989 C39.8215575,42.9075545 32.5501471,46.9397628 30.6649667,52.5848545 C28.5104747,57.9611323 32.2808356,65.4879212 32.2808356,65.4879212 C32.0115241,63.3374101 32.5501471,65.2191073 34.9739506,70.5953851 C37.3977541,76.2404768 43.322607,79.7350573 43.322607,79.7350573 C42.245361,78.122174 43.322607,75.1652212 43.322607,75.1652212 C47.6315909,81.0791268 55.1723129,81.8855685 61.3664773,80.2726851 C67.5606417,78.6598018 67.0220187,75.1652212 67.0220187,75.1652212 L66.7527072,74.3587796 C69.7151337,74.0899657 72.1389371,73.0147101 73.7548061,70.0577573 C75.6399866,66.5631768 71.8696257,62.5309684 71.8696257,62.5309684 C79.6796591,61.186899 80.218282,57.6923184 79.9489706,55.2729934 C79.6796591,52.0472267 76.7172326,48.5526462 76.7172326,48.5526462 C78.0637901,48.82146 72.1389371,44.7892517 65.9447727,45.3268795 C64.3289037,45.5956934 62.7130348,45.3268795 61.6357888,45.0580656 L61.6357888,45.0580656 C61.0971658,43.4451823 63.2516578,40.7570434 64.0595922,37.5312767 C64.8675267,34.5743239 64.8675267,32.4238128 64.8675267,32.1549989 C65.6754612,32.9614406 66.2140842,34.8431378 66.2140842,34.8431378 C66.2140842,34.8431378 66.7527072,31.3485572 65.4061497,27.047535 C64.5982152,23.0153267 62.4437233,21.6712572 62.4437233,21.6712572 C63.5209693,21.6712572 64.5982152,21.4024433 64.5982152,21.4024433 C64.5982152,21.4024433 57.8654278,13.6068405 46.8236565,15.2197239 L46.8236565,15.2197239 Z" fill="#E77825"></path>
                        <path d="M44.4613105,16.8520066 C48.461969,20.0398817 49.2621008,29.337851 49.2621008,29.337851 C48.461969,28.2752259 46.3282845,27.4782571 46.3282845,27.4782571 C47.1284162,28.8065384 47.3951268,31.1974448 47.3951268,34.38532 C47.3951268,36.5105701 46.8617056,38.9014764 46.3282845,39.6984452 C45.7948634,39.6984452 44.7280211,40.2297578 40.460652,41.2923828 C36.726704,42.3550079 29.7922292,46.3398518 27.6585446,51.9186334 C25.5248601,57.2317586 29.258808,64.670134 29.258808,64.670134 C28.9920975,62.5448839 29.5255186,64.4044778 31.9259137,69.717603 C34.3263089,75.2963846 41.5274942,79.0155723 41.5274942,79.0155723 C40.460652,77.4216347 40.1939414,74.2337595 40.1939414,74.2337595 C44.4613105,80.0781973 51.9292065,80.8751661 58.0635496,79.2812285 C64.1978927,77.687291 63.6644715,74.2337595 63.6644715,74.2337595 L63.3977609,73.4367907 C66.3315772,73.1711345 68.7319723,72.1085094 70.3322358,69.1862905 C72.1992097,65.7327591 68.4652618,61.7479151 68.4652618,61.7479151 C76.1998683,60.4196338 76.7332894,56.9661024 76.4665789,54.575196 C76.1998683,51.3873208 73.266052,47.9337894 73.266052,47.9337894 C74.5996049,48.1994457 77,50.0590395 77,50.0590395 C77,50.0590395 76.4665789,47.9337894 74.5996049,45.8085393 C72.7326309,43.6832892 68.9986829,43.9489455 62.8643398,44.480258 C61.2640764,44.7459143 59.663813,44.480258 58.5969707,44.2146017 L58.5969707,44.2146017 C58.0635496,42.6206641 60.1972341,39.9641015 60.9973658,36.7762263 C61.7974975,33.8540074 61.7974975,31.7287573 61.7974975,31.4631011 C62.5976292,32.2600699 63.1310504,34.1196637 63.1310504,34.1196637 C63.1310504,34.1196637 63.6644715,30.6661323 62.3309187,26.4156321 C61.2640764,21.8994756 59.1303918,20.8368505 59.1303918,20.8368505 C60.1972341,20.8368505 60.7306553,21.1025068 60.7306553,21.1025068 C55.1297333,14.9924127 48.461969,15.5237252 44.4613105,16.8520066 L44.4613105,16.8520066 Z" fill="url(#linearGradient-3)"></path>
                        <path d="M63.9472838,74.5535714 C64.2160349,75.625 63.4097817,76.9642857 62.6035284,77.7678571 C61.7972752,78.5714286 60.7222709,79.1071429 59.6472666,79.6428571 C57.497258,80.4464286 55.0784983,80.9821429 52.9284897,81.25 C50.50973,81.5178571 48.0909703,81.25 45.9409617,80.1785714 C43.7909531,79.375 41.6409444,77.7678571 40.028438,75.625 L41.9096955,74.8214286 C42.1784466,75.625 42.4471977,76.6964286 42.7159487,77.5 C42.9846998,78.3035714 43.522202,79.375 43.7909531,79.9107143 L47.2847171,85 L42.1784466,81.5178571 C40.028438,79.9107143 38.1471804,78.5714286 35.9971718,76.6964286 C34.1159143,75.0892857 32.2346567,73.2142857 30.6221503,71.0714286 C30.0846481,70.5357143 29.8158971,70 29.547146,69.4642857 C29.2783949,69.1964286 29.2783949,68.9285714 29.0096438,68.6607143 L28.4721417,67.8571429 C27.9346395,66.7857143 27.3971374,65.4464286 27.1283863,64.375 C26.5908841,61.9642857 25.7846309,59.2857143 26.053382,56.6071429 C26.053382,53.9285714 26.8596352,51.25 28.4721417,49.1071429 C30.0846481,46.9642857 31.9659057,45.3571429 34.1159143,44.0178571 C36.2659229,42.6785714 38.6846826,41.6071429 41.1034423,41.0714286 C43.522202,40.2678571 44.3284552,40.2678571 46.7472149,40 C44.3284552,40.5357143 43.7909531,41.0714286 41.3721934,41.875 C38.9534337,42.6785714 36.8034251,44.0178571 34.9221675,45.3571429 C33.04091,46.6964286 31.1596524,48.5714286 29.8158971,50.4464286 C28.4721417,52.3214286 27.9346395,54.7321429 27.9346395,56.875 C27.9346395,59.0178571 28.7408927,61.4285714 29.547146,63.5714286 C30.0846481,64.6428571 30.3533992,65.7142857 30.8909014,67.0535714 L31.1596524,67.8571429 C31.1596524,68.125 31.4284035,68.3928571 31.4284035,68.6607143 C31.6971546,69.1964286 31.9659057,69.7321429 32.2346567,70 C33.5784121,71.875 35.4596697,73.4821429 37.3409272,75.0892857 C39.2221847,76.6964286 41.1034423,78.3035714 42.9846998,79.6428571 L41.3721934,81.25 C40.5659401,80.1785714 40.5659401,79.1071429 40.028438,78.3035714 C39.7596869,77.2321429 39.4909358,76.4285714 39.2221847,75.3571429 L38.1471804,70 L41.1034423,74.5535714 C42.1784466,76.4285714 44.0597041,77.7678571 45.9409617,78.5714286 C47.8222192,79.375 49.9722278,79.9107143 52.3909875,79.9107143 C54.5409961,79.9107143 56.9597558,79.6428571 59.1097644,79.1071429 C60.1847687,78.8392857 61.2597731,78.3035714 62.0660263,77.7678571 C63.4097817,76.9642857 63.9472838,75.8928571 63.9472838,74.5535714 L63.9472838,74.5535714 Z" fill="#E77825"></path>
                        <path d="M54,42 C55.8617021,43.3333333 57.9893617,43.8666667 60.1170213,44.1333333 C62.2446809,44.1333333 64.3723404,43.8666667 66.7659574,43.6 C67.8297872,43.6 68.893617,43.3333333 70.2234043,43.3333333 C71.287234,43.3333333 72.6170213,43.6 73.6808511,44.1333333 C74.212766,44.4 74.7446809,44.9333333 75.2765957,45.2 C75.8085106,45.7333333 76.0744681,46 76.3404255,46.5333333 C77.1382979,47.3333333 77.6702128,48.4 77.9361702,49.7333333 L79,53.4666667 L76.8723404,50.2666667 C76.3404255,49.7333333 75.8085106,49.4666667 75.2765957,48.9333333 C74.7446809,48.6666667 73.9468085,48.1333333 73.6808511,48.1333333 L74.212766,47.0666667 C75.0106383,48.1333333 75.8085106,49.2 76.3404255,50.5333333 C76.8723404,51.8666667 77.4042553,53.2 77.4042553,54.8 C77.1382979,56.4 76.3404255,57.7333333 75.2765957,58.5333333 C74.212766,59.6 72.8829787,60.1333333 71.5531915,60.6666667 C68.893617,61.7333333 66.2340426,62 63.5744681,62 C60.9148936,62 57.9893617,61.7333333 55.5957447,60.6666667 C58.2553191,61.4666667 60.9148936,61.4666667 63.5744681,61.2 C66.2340426,60.9333333 68.893617,60.4 71.287234,59.3333333 C72.3510638,58.8 73.6808511,58.2666667 74.4787234,57.2 C75.2765957,56.4 76.0744681,55.0666667 76.3404255,54 C76.3404255,52.9333333 76.0744681,51.6 75.5425532,50.5333333 C75.0106383,49.4666667 74.212766,48.4 73.4148936,47.0666667 L72.6170213,46 L74.212766,46.2666667 C74.7446809,46.2666667 75.0106383,46.5333333 75.5425532,46.8 C75.8085106,47.0666667 76.3404255,47.3333333 76.606383,47.3333333 C77.4042553,47.8666667 77.9361702,48.1333333 78.4680851,48.6666667 L77.4042553,49.2 C77.1382979,48.4 76.606383,47.3333333 76.0744681,46.5333333 C75.8085106,46 75.5425532,45.7333333 75.0106383,45.2 C74.7446809,44.9333333 74.212766,44.4 73.9468085,44.4 C72.0851064,43.6 69.9574468,43.6 67.5638298,43.6 L64.3723404,43.8666667 L60.9148936,43.8666667 C57.7234043,44.1333333 55.5957447,43.6 54,42 L54,42 Z" fill="#E77825"></path>
                        <path d="M69.1899131,62 C70.2692407,63.0434783 71.3485682,64.0869565 71.6184001,65.6521739 C71.888232,66.4347826 72.1580639,67.2173913 71.888232,68 C71.888232,68.7826087 71.3485682,69.5652174 71.0787363,70.0869565 C70.2692407,71.3913043 68.9200812,72.4347826 67.5709218,73.2173913 C65.9519305,74 64.6027711,74 62.9837798,74 L61.0949566,74 L62.444116,72.9565217 L63.5234435,71.9130435 L64.0631073,71.3913043 C64.3329392,71.1304348 64.3329392,70.8695652 64.6027711,70.8695652 L65.4122667,71.6521739 C64.3329392,72.4347826 63.2536116,72.6956522 62.1742841,72.6956522 C61.0949566,72.9565217 60.015629,72.9565217 58.9363015,72.6956522 C57.8569739,72.4347826 56.7776464,72.4347826 55.9681507,72.173913 C54.8888232,71.9130435 53.8094957,71.6521739 53,71.3913043 C54.0793275,71.6521739 55.1586551,71.6521739 55.9681507,71.9130435 C57.0474783,71.9130435 58.1268058,72.173913 58.9363015,72.173913 C60.015629,72.173913 61.0949566,72.173913 61.9044522,71.9130435 C62.7139479,71.6521739 63.7932754,71.3913043 64.3329392,70.8695652 L67.031258,68.7826087 L65.1424348,71.6521739 C64.872603,71.9130435 64.6027711,72.173913 64.6027711,72.4347826 L64.0631073,72.9565217 L62.9837798,74 L62.444116,72.9565217 C63.7932754,72.9565217 65.4122667,72.6956522 66.4915943,72.173913 C67.8407537,71.6521739 68.9200812,70.8695652 69.7295769,69.5652174 C70.2692407,69.0434783 70.5390725,68.5217391 70.5390725,67.7391304 C70.8089044,66.9565217 70.5390725,66.4347826 70.5390725,65.6521739 C70.8089044,64.3478261 69.9994088,63.0434783 69.1899131,62 L69.1899131,62 Z" fill="#E77825"></path>
                        <path d="M58.6153846,45 C58.3461538,44.4545455 58.6153846,43.9090909 58.6153846,43.3636364 C58.6153846,42.8181818 58.8846154,42.2727273 59.1538462,41.7272727 C59.4230769,40.6363636 59.9615385,39.5454545 60.2307692,38.4545455 C60.5,37.9090909 60.5,37.3636364 60.7692308,36.8181818 C60.7692308,36.5454545 61.0384615,36.2727273 61.0384615,36 L61.3076923,35.1818182 C61.3076923,34.6363636 61.5769231,34.0909091 61.5769231,33.5454545 L61.5769231,32.7272727 L61.5769231,32.1818182 L61.5769231,31.9090909 L61.5769231,31.9090909 L61.5769231,30.5454545 L62.3846154,31.3636364 C62.9230769,31.9090909 63.1923077,32.1818182 63.1923077,32.7272727 C63.4615385,33.2727273 63.7307692,33.5454545 63.7307692,34.3636364 L62.6538462,34.3636364 L62.6538462,32.4545455 L62.6538462,30.5454545 C62.6538462,29.7272727 62.3846154,29.1818182 62.3846154,28.6363636 C62.3846154,28.0909091 62.1153846,27.2727273 61.8461538,26.7272727 C61.5769231,26.1818182 61.5769231,25.6363636 61.3076923,24.8181818 L60.5,23.1818182 L59.9615385,22.3636364 L59.4230769,21.5454545 C59.4230769,21.5454545 59.1538462,21.2727273 59.1538462,21 L58.8846154,21.2727273 C58.6153846,21 58.6153846,20.7272727 58.3461538,20.4545455 C56.7307692,18.5454545 54.5769231,17.4545455 52.1538462,16.9090909 C51.0769231,16.6363636 49.7307692,16.6363636 48.3846154,16.6363636 C47.0384615,16.6363636 45.9615385,16.9090909 44.8846154,17.4545455 L45.1538462,16.0909091 C46.2307692,16.9090909 46.7692308,18 47.3076923,19.0909091 C47.8461538,20.1818182 48.3846154,21.2727273 48.6538462,22.6363636 C48.9230769,23.7272727 49.1923077,24.8181818 49.4615385,26.1818182 C49.7307692,27.2727273 50,28.3636364 50,29.7272727 L50.2692308,31.9090909 L48.6538462,30 L47.5769231,28.9090909 C47.3076923,28.6363636 47.0384615,28.6363636 46.7692308,28.3636364 C46.5,28.0909091 46.2307692,28.0909091 45.9615385,27.8181818 L46.7692308,27 C47.0384615,27.5454545 47.0384615,27.8181818 47.3076923,28.3636364 C47.3076923,28.9090909 47.5769231,29.1818182 47.5769231,29.4545455 C47.5769231,30.2727273 47.8461538,31.0909091 47.8461538,31.9090909 L47.8461538,34.3636364 L47.8461538,35.4545455 L47.8461538,36.5454545 C47.8461538,37.0909091 47.8461538,37.3636364 47.5769231,37.6363636 C47.5769231,38.1818182 47.3076923,38.4545455 47.3076923,38.7272727 C47.3076923,39.2727273 47.0384615,39.5454545 46.7692308,39.8181818 C46.5,40.0909091 46.5,40.6363636 46.2307692,40.9090909 C45.6923077,41.7272727 45.4230769,42.2727273 44.8846154,42.8181818 L44.0769231,43.6363636 L43.2692308,44.4545455 C43.5384615,44.1818182 43.8076923,43.9090909 44.0769231,43.6363636 C44.3461538,43.3636364 44.6153846,43.0909091 44.8846154,42.8181818 C45.4230769,42.2727273 45.6923077,41.4545455 46.2307692,40.6363636 C46.5,40.3636364 46.5,39.8181818 46.7692308,39.5454545 C47.0384615,39.2727273 47.0384615,38.7272727 47.0384615,38.4545455 C47.0384615,38.1818182 47.3076923,37.6363636 47.3076923,37.3636364 L47.3076923,36.2727273 L47.3076923,35.1818182 L47.3076923,34.0909091 C47.3076923,33.2727273 47.3076923,32.4545455 47.0384615,31.6363636 C46.7692308,30.8181818 46.7692308,30 46.7692308,29.4545455 C46.7692308,28.9090909 46.5,28.6363636 46.5,28.3636364 C46.5,28.0909091 46.2307692,27.5454545 46.2307692,27.5454545 L45.4230769,25.9090909 L47.0384615,26.7272727 C47.3076923,27 47.5769231,27 47.8461538,27.2727273 C48.1153846,27.5454545 48.3846154,27.5454545 48.6538462,27.8181818 C49.1923077,28.0909091 49.7307692,28.6363636 50.2692308,29.1818182 L49.1923077,29.7272727 C49.1923077,29.1818182 48.9230769,28.6363636 48.9230769,28.0909091 C48.9230769,27.5454545 48.6538462,27 48.6538462,26.4545455 L47.8461538,23.1818182 C47.5769231,22.0909091 47.0384615,21 46.5,20.1818182 C45.9615385,19.3636364 45.4230769,18.2727273 44.6153846,17.7272727 L43,16.3636364 L44.3461538,15.8181818 C45.6923077,15.2727273 47.0384615,15 48.3846154,15 C49.7307692,15 51.0769231,15 52.4230769,15.2727273 C53.7692308,15.5454545 55.1153846,16.0909091 56.1923077,16.6363636 C57.5384615,17.4545455 58.6153846,18.2727273 59.4230769,19.3636364 C59.6923077,19.6363636 59.9615385,19.9090909 60.2307692,20.1818182 L60.5,20.7272727 C60.5,21 60.7692308,21 60.7692308,21.2727273 L61.3076923,22.0909091 L61.8461538,22.9090909 C62.1153846,23.4545455 62.3846154,24.2727273 62.6538462,24.8181818 C62.9230769,25.6363636 63.1923077,26.1818182 63.1923077,26.7272727 C63.4615385,27.5454545 63.4615385,28.0909091 63.7307692,28.9090909 C63.7307692,29.7272727 64,30.2727273 64,31.0909091 L64,33.2727273 C64,34.0909091 64,34.6363636 63.7307692,35.4545455 L63.4615385,38.1818182 L62.6538462,35.7272727 C62.3846154,35.1818182 62.3846154,34.9090909 62.1153846,34.3636364 C61.8461538,33.8181818 61.5769231,33.5454545 61.3076923,33.2727273 L62.1153846,32.7272727 L62.1153846,33 L62.1153846,33.2727273 L62.1153846,33.8181818 L62.1153846,34.6363636 C62.1153846,35.1818182 61.8461538,35.7272727 61.8461538,36.2727273 C61.5769231,36.8181818 61.5769231,37.3636364 61.3076923,37.9090909 C61.0384615,38.4545455 61.0384615,39 60.7692308,39.5454545 C60.2307692,40.6363636 59.9615385,41.7272727 59.4230769,42.5454545 C59.1538462,43.0909091 58.8846154,43.6363636 58.8846154,44.1818182 C58.6153846,43.9090909 58.3461538,44.7272727 58.6153846,45 L58.6153846,45 Z" fill="#E77825"></path>
                    </g>
                </g>
                <path d="M235,78 L290,78" id="Shape" stroke="#CCCCCC" stroke-width="1.75" sketch:type="MSShapeGroup"></path>
                <path d="M156,147 L270,147" id="Shape" stroke="#CCCCCC" stroke-width="1.75" sketch:type="MSShapeGroup"></path>
                <path d="M90,196 L151,196" id="Shape" stroke="#CCCCCC" stroke-width="1.75" sketch:type="MSShapeGroup"></path>
                <path d="M277,196 L338,196" id="Shape" stroke="#CCCCCC" stroke-width="1.75" sketch:type="MSShapeGroup"></path>
                <path d="M183,160 L244,160" id="Shape" stroke="#CCCCCC" stroke-width="1.75" sketch:type="MSShapeGroup"></path>
            </g>
        </g>
    </g>
</svg>