<?xml version="1.0" encoding="UTF-8" standalone="no"?>
<svg width="1380px" height="320px" viewBox="0 0 1380 320" version="1.1" xmlns="http://www.w3.org/2000/svg" xmlns:xlink="http://www.w3.org/1999/xlink" xmlns:sketch="http://www.bohemiancoding.com/sketch/ns">
    <title>certification-wide</title>
    <description>Created with Sketch (http://www.bohemiancoding.com/sketch)</description>
    <defs>
        <path id="path-1" d="M65,73.6801242 L65,73.6801242 L34.6134454,1 L1,15.3198758 L31.3865546,88 L43.487395,69.6273292 L65,73.6801242 Z"></path>
        <linearGradient x1="78.8841485%" y1="21.8065613%" x2="4.20134907%" y2="106.980796%" id="linearGradient-3">
            <stop stop-color="#FFCA2F" offset="0%"></stop>
            <stop stop-color="#FDB51A" offset="100%"></stop>
        </linearGradient>
    </defs>
    <g id="Page-1" stroke="none" stroke-width="1" fill="none" fill-rule="evenodd" sketch:type="MSPage">
        <rect id="Rectangle-1" fill="#1E83A7" sketch:type="MSShapeGroup" x="0" y="0" width="1380" height="320"></rect>
        <g id="hero-image" sketch:type="MSLayerGroup" transform="translate(370.000000, 272.500000) scale(-1, 1) translate(-370.000000, -272.500000) translate(121.000000, 15.000000)">
            <g id="Group" sketch:type="MSShapeGroup">
                <path d="M217.362047,5.00000751 C244.520943,5.01374293 263.701447,24.3875569 287.013845,62.4209429 C325.114955,124.578637 338.628692,158.115634 346,177.192174 C346,177.192174 329.07718,198.409478 274.632872,228.53028 C244.317928,245.302212 217.250242,249.008814 199.213291,248.999984 C184.858071,248.993117 176.221597,246.632586 176.221597,246.632586 C176.221597,246.632586 151.031065,196.47867 125.83759,150.322744 C100.644115,104.167799 84.0567111,69.0904719 152.958236,28.5179948 C179.699332,12.7703325 200.134214,4.99117759 217.362047,5.00000751" id="Shape" opacity="0.2" fill="#425457"></path>
                <g>
                    <path d="M102.334027,179.927822 C104.179603,173.586751 110.942147,154.56354 103.785032,142.490158 C96.627916,130.416776 78.2054417,136.340915 85.5691444,145.140508 C85.5691444,145.140508 85.9774231,147.799667 85.5671862,149.641601 C85.5671862,149.641601 85.0032329,148.073706 83.9840048,145.660204 C83.1370958,144.077628 82.0747879,142.652624 81.2053599,141.078856 C80.1459893,139.16254 79.2785195,137.084736 78.0017919,135.299566 C75.3132229,131.539357 71.8883815,128.658031 68.9383967,125.177734 C66.4407493,122.231813 65.5811122,118.348287 62.6536463,115.682277 C60.2911128,113.53107 57.4928862,112.160874 54.6682243,110.77404 C52.2107195,110.130048 49.4496981,109.792393 46.496776,110.137878 C33.043161,111.713603 29.7064373,127.723362 41.371263,128.138336 C41.371263,128.138336 50.6794296,135.661689 51.4411582,147.783029 C44.7373592,142.970705 29.0171611,128.475012 15.6418729,132.224455 C16.8794371,134.0889 17.5178009,136.961418 17.9495776,138.880671 C18.571297,141.647488 19.9860757,144.157882 20.9299142,146.821934 C21.0013874,147.021591 21.0777561,147.232993 21.157062,147.450267 C21.2970712,147.346523 21.4782021,147.291716 21.6887055,147.324992 C26.739808,148.129492 28.0635317,152.926156 28.3171149,157.387122 C28.3386548,157.760011 27.9949957,158.048731 27.6444831,158.058518 C27.5485327,158.061454 27.4574777,158.04971 27.3634855,158.047752 C27.3194267,158.099624 27.289075,158.154432 27.2352253,158.203368 C27.2352253,158.203368 10.6573482,159.831943 4.92186486,168.626643 C-0.812639398,177.421342 4.50673258,180.287009 4.50673258,180.287009 C4.50673258,180.287009 0.0029388927,183.91607 1.63595279e-06,189.030815 C-0.0029356208,194.14556 3.94963288,195.877879 9.81925095,199.316092 C16.1108549,203.00094 26.0867579,204.847768 28.6989583,200.552205 C29.004433,202.854133 29.6692321,204.030544 29.6692321,204.030544 C29.6692321,204.030544 34.5734718,220.19494 50.5364831,219.998219 C66.5004735,219.801498 104.373462,194.451897 104.373462,194.451897 C104.373462,194.451897 100.48943,186.268892 102.334027,179.927822 L102.334027,179.927822 Z" id="Shape" fill="#627377"></path>
                    <path d="M51.0265873,235 L47,225.34071 C47,225.34071 62.3684879,191.93163 109.195988,194.101279 L114,200.694315 L51.0265873,235 L51.0265873,235 Z" id="Shape" fill="#A9B3B5"></path>
                    <path d="M51.009475,233.077656 C51.009475,233.077656 62.799461,194.486828 113.391482,199.438852 C113.391482,199.438852 118.138498,204.163017 111.322752,207.033856 C104.506018,209.905677 50.176648,246.421212 51.009475,233.077656 L51.009475,233.077656 Z" id="Shape" fill="#8D9699"></path>
                    <path d="M54,232.305194 C54,232.305194 65.6450415,198.823598 108.790473,202.245499 L141.081086,246.360524 C141.081086,246.360524 173.988818,258.844401 183.493996,258.848345 C183.493996,258.848345 203.420738,279.383697 190.827037,316.872793 C190.827037,316.872793 147.07329,322.506952 117.744059,308.582741 C117.745037,308.583727 71.0504454,270.437066 54,232.305194 L54,232.305194 Z" id="Shape" fill="#DCDCDB"></path>
                    <path d="M194.474422,290.983755 C194.500792,291.037473 194.58674,290.942735 194.641434,290.919294 C194.641434,290.918318 194.640458,290.917341 194.640458,290.917341 C194.656085,290.911481 194.671712,290.907574 194.686362,290.901714 C195.119032,290.720051 195.561469,290.566712 196,290.400676 C195.710902,288.441453 195.297765,286.768398 194.827981,285.576846 C193.890365,283.196673 193.165667,280.523496 192.392134,277.693072 C190.933947,272.367228 188.746178,264.319372 185.731158,264.19631 C174.893888,263.75485 145.319937,253.159808 141.979682,251.952629 C141.163175,251.657672 140.478521,251.203515 139.852467,250.617506 C128.832557,240.314492 112.7505,216.200224 107.395349,208.040049 C106.600329,208.013679 105.281808,208.000005 105.281808,208.000005 L105.032753,208.000005 C87.2229451,207.993168 75.8445921,214.895377 69,221.635457 C72.890127,227.72995 100.218685,269.629589 127.216147,287.038938 C127.216147,287.038938 166.452419,293.078737 193.896226,290.134042 C193.931386,290.105719 194.048588,290.134042 194.474422,290.983755 L194.474422,290.983755 Z" id="Shape" fill="#F2F2F2"></path>
                    <path d="M187.653809,317 C184.737675,309.167148 173.453545,273.516544 203,257.789785 L199.62719,257 C199.62719,257 168.103375,268.882222 184.958009,316.999015 L187.653809,317 L187.653809,317 Z" id="Shape" fill="#DCDCDB"></path>
                    <path d="M355.077473,193.469734 C355.077473,193.469734 374.358251,221.369142 375.964737,293.554619 C377.032127,341.531438 354.146575,417.816769 269.164839,426.389279 C184.183103,434.960807 176.01418,351.288089 194.100896,302.080038 C194.100896,302.080038 192.468879,282.392109 184.268533,261.060903 C176.418748,240.637178 343.182014,174.186982 355.077473,193.469734 L355.077473,193.469734 Z" id="Shape" fill="#048CB9"></path>
                    <path d="M171.627448,256 C171.627448,256 139.431485,269.394811 157.510359,317.99901 L160.265441,318 C160.265441,318 141.714994,274.676714 175,256.86217 L171.627448,256 L171.627448,256 Z" id="Shape" fill="#DCDCDB"></path>
                    <path d="M344.92763,282.234461 L331.588944,231.026352 L325.797482,216 L323.408785,217.712185 C323.408785,217.712185 334.855521,232.554704 341.242688,277.019681 C347.570089,321.070056 343.480499,346.684379 321.122965,376.039888 C302.827587,400.063276 282.061211,407.307059 270.823168,409.488604 C268.592215,410.151574 266.309335,410.932862 264,411.47947 L266.123177,413 C292.603613,410.296293 313.382726,393.205737 323.682143,377.727626 C333.98156,362.249516 344.588627,345.085622 346.442365,322.398931 C348.298063,299.711261 344.92763,282.234461 344.92763,282.234461 L344.92763,282.234461 Z" id="Shape" fill="#1DACE3"></path>
                    <path d="M329.694059,214 C329.694059,214 311.472838,234.033926 322.599495,256.156577 C333.726152,278.279228 337.789926,279.433316 348.625697,280.974388 C359.461468,282.515459 329.694059,214 329.694059,214 L329.694059,214 Z" id="Shape" fill="#0C6788"></path>
                    <path d="M167,251.141293 L173.547692,261.335624 C173.547692,261.335624 215.722705,275.697067 273.583182,247.557303 C324.233754,222.924107 359,188.90707 359,188.90707 L357.061358,176 L167,251.141293 L167,251.141293 Z" id="Shape" fill="#626D70"></path>
                    <path d="M325.424968,216.078588 C325.424968,216.078588 348.67594,268.878423 346.215833,313.073239 C343.755727,357.267076 329.614245,401.517685 293.693384,420.191096 L291,422 C291,422 381.928688,406.596908 375.693373,276.667087 C369.73313,207.813228 355.112458,192 355.112458,192 C355.112458,192 339.461475,205.701861 325.424968,216.078588 L325.424968,216.078588 Z" id="Shape" fill="#017499"></path>
                    <path d="M169.062456,243.457704 C169.062456,243.457704 159.865875,252.645536 173.346572,254.797606 C186.827269,256.949676 228.187943,262.792125 273.548363,238.605285 C318.908783,214.418445 355.997068,184.406748 355.999999,177.359257 C356.002931,170.311767 346.50439,170 346.50439,170 L169.062456,243.457704 L169.062456,243.457704 Z" id="Shape" fill="#8D9699"></path>
                    <g transform="translate(99.000000, 0.000000)" id="Shape">
                        <path d="M246,177.192709 C238.6592,158.116093 225.201392,124.579944 187.257972,62.421023 C149.314552,0.263082963 122.371588,-12.0546968 53.7552263,28.5169596 C-14.8611355,69.0886161 1.65859498,104.166082 26.7468246,150.322191 C51.8350542,196.477319 76.9223072,246.632414 76.9223072,246.632414 C76.9223072,246.632414 120.708285,258.650956 174.927264,228.531017 C229.146242,198.410096 246,177.192709 246,177.192709 L246,177.192709 Z" stroke="#FFFFFF" stroke-width="3"></path>
                        <path d="M117.894128,5.00000751 C144.940687,5.01374293 164.041855,24.3875569 187.257828,62.4209429 C225.201341,124.578637 238.659182,158.115634 246,177.192174 C246,177.192174 229.147177,198.409478 174.928066,228.53028 C144.738512,245.302212 117.782785,249.008814 99.8204401,248.999984 C85.5245972,248.993117 76.9228694,246.632586 76.9228694,246.632586 C76.9228694,246.632586 51.8365317,196.47867 26.7472639,150.322744 C1.65799607,104.166818 -14.8607982,69.0904719 53.7557318,28.5179948 C80.3871965,12.7703325 100.737554,4.99117759 117.894128,5.00000751 L117.894128,5.00000751 Z M117.569123,7.83045913e-06 C99.8422219,-0.00882766841 79.333216,7.45913232 51.0715543,24.2122199 C17.8539639,43.9036017 1.66433652,63.8453226 0.123163536,86.97175 C-1.24156902,107.442619 8.90131831,127.978282 22.3039668,152.697063 C47.016349,198.275474 72.0552922,248.417912 72.3058181,248.91859 L73.2845263,250.879089 L75.3871893,251.457324 C75.7634655,251.561386 84.77265,253.993112 99.5263838,253.999984 C117.508685,254.00882 145.52177,250.355832 176.857979,232.902776 C231.197731,202.638247 248.537633,181.192528 249.249243,180.295234 L251,178.085378 L249.988148,175.448472 C243.683084,159.021316 230.56313,124.837753 190.967364,59.8055362 C178.048221,38.5865948 167.514435,24.9720728 156.813957,15.6584753 C144.712679,5.12950578 131.875419,0.00687988513 117.569123,7.83045913e-06 L117.569123,7.83045913e-06 L117.569123,7.83045913e-06 Z" fill="#FFFFFF"></path>
                    </g>
                    <path d="M301,210.216083 L259.943376,233.913077 L218.539837,247 L201,220.973111 L291.071735,177 L301,210.216083 Z" id="Shape" fill="#676767"></path>
                    <path d="M154.783973,162.324157 C154.783973,162.324157 139.440857,173.635643 119,161 C119,161 137.181064,195.65647 165,179.886455 C164.999022,179.886455 159.279103,166.666597 154.783973,162.324157 L154.783973,162.324157 Z" id="Shape" fill="#425356"></path>
                    <path d="M232.067944,10.4984809 C232.067944,10.4984809 234.385069,28.193567 233.944222,39.1201748 L168.929435,198.282827 L159.911038,207 L136.962639,162.278052 C136.962639,162.278052 116.724527,125.076418 113.337884,111.942335 C109.951241,98.8082525 102.936608,75.6974036 130.862789,49.546866 C153.407321,28.9561848 180.453753,17.3914482 190.341193,13.6371728 C200.229607,9.88191715 219.568506,4.92882222 232.067944,10.4984809 L232.067944,10.4984809 Z" id="Shape" opacity="0.5" fill="#718587"></path>
                    <path d="M145.316579,181.179554 C151.799557,181.280054 157.095511,178.504868 162,174.877921 C159.946506,170.523595 157.046942,164.975213 154.532044,162.396051 C154.532044,162.396051 139.296948,174.32169 119,161 C119,161 122.858314,168.496684 129.500599,175.687889 C139.384372,185.244321 139.144442,181.084029 145.316579,181.179554 L145.316579,181.179554 Z" id="Shape" fill="#627377"></path>
                    <path d="M146.931018,165.323476 C141.123,166.935906 142.862359,173.746541 145.113474,177.686116 C147.248834,181.422358 150.671706,184.193785 154.656088,185 C158.205884,184.549618 161.992265,183.275737 166,180.918092 C166,180.918092 160.064043,166.676657 155.397321,162 C155.397321,162 152.400912,164.150245 147.145265,165.21571 C147.081295,165.25841 147.017326,165.300093 146.931018,165.323476 L146.931018,165.323476 Z" id="Shape" fill="#717272"></path>
                    <path d="M146.891204,165.304084 C141.142011,166.906616 142.863753,173.675441 145.092068,177.590832 C145.809712,178.85083 146.678122,179.99766 147.661113,181 C153.502776,180.59482 158.421753,177.998032 163,174.67475 C160.875211,170.253138 157.874976,164.619017 155.272763,162 C155.272763,162 152.306702,164.137045 147.104286,165.195969 C147.039959,165.239417 146.976637,165.280845 146.891204,165.304084 L146.891204,165.304084 Z" id="Shape" fill="#909A9D"></path>
                    <g transform="translate(113.000000, 29.000000)" id="Shape">
                        <path d="M192,71 C192.666286,71.9832258 193.332571,72.983871 194,74 C193.332571,72.98 192.666286,71.9851613 192,71 L192,71 Z" fill="#E8F6FD"></path>
                        <path d="M195,76 C195.333076,76.6622074 195.666151,77.3210702 196,78 C195.666151,77.3202341 195.333076,76.6638796 195,76 L195,76 Z" fill="#E8F6FD"></path>
                        <path d="M189,67 C189.666018,67.9791369 190.333009,68.983138 191,70 C190.331065,68.9797085 189.665046,67.9782795 189,67 L189,67 Z" fill="#E8F6FD"></path>
                        <path d="M113.387476,214.82486 C99.568457,206.842477 114.623889,197.954138 106.335417,187.826226 C106.335417,187.826226 159.789204,182.330816 169.016253,158.714349 C169.016253,158.714349 170.761143,159.133084 175.228688,162.365563 C175.567673,161.781486 178.014046,161.570162 178.334416,160.968475 C188.925242,141.065836 183.324155,117.754616 179.799105,96.7542649 C179.71093,96.2288892 183.193851,95.0450819 179.800085,95.7318858 C180.607378,88.5263148 179.787348,82.1229933 183.455438,75.7764163 C185.281645,72.6153572 187.522276,69.7399773 190,67.0729865 C143.189726,-0.40403131 132.745859,2.85479658e-05 132.745859,2.85479658e-05 C135.20007,7.36409283 134.783687,19.6336199 134.783687,19.6336199 C120.867675,-0.414793194 104.892282,1.6221381 104.892282,1.6221381 C106.937947,6.12256266 106.935008,12.666767 106.935008,12.666767 C92.6055525,-0.428490139 63.5234,3.23837753 63.5234,3.23837753 C74.1641916,19.1953177 76.6105645,43.7373068 76.6105645,43.7373068 C57.7782934,26.95855 27.4656065,33.0791274 27.4656065,33.0791274 L29.1007673,39.2143801 C22.1378628,37.9845902 18.2463956,39.61844 18.2463956,39.61844 C32.9853763,51.4868423 36.045057,78.4835195 36.045057,78.4835195 C17.2059279,73.5663165 0,80.9196189 0,80.9196189 C0,80.9196189 14.7360415,98.9232739 30.2862344,126.743724 C55.1477322,167.413866 71.6668729,210.820461 73.1825073,217.79514 C81.6228369,218.517165 98.350659,217.28444 113.387476,214.82486 L113.387476,214.82486 Z" fill="#F3FAFD"></path>
                        <path d="M194,74 C194.333937,74.6577646 194.666968,75.3283877 195,76 C194.666968,75.330366 194.333032,74.6567755 194,74 L194,74 Z" fill="#D2ECF9"></path>
                        <path d="M189,67 L189,67 L189.001,67.002 L189,67 Z" fill="#D2ECF9"></path>
                        <path d="M196,79 C197.000795,80.6325687 198.000398,82.2899359 199,84 C197.999205,82.2899359 196.999602,80.6294689 196,79 L196,79 Z" fill="#D2ECF9"></path>
                        <path d="M191,70 C191.174,70.301 191.348,70.603 191.522,70.907 C191.348,70.604 191.175,70.301 191,70 L191,70 Z" fill="#D2ECF9"></path>
                        <path d="M176.787484,95.9842827 C177.144394,95.7595079 177.668514,95.8198371 177.755541,96.3433387 C181.273794,117.230861 186.568774,140.223093 175.99837,160.017878 C175.678618,160.615331 175.338331,161.196243 175,161.777155 C179.5,165.023254 187.289439,176.053765 181.15352,185 C198.231421,174.189399 219.064211,159.759046 227.605606,151.859815 C228.563885,150.683395 229,150.039235 229,150.039235 C229,150.039235 227.778683,140.275637 198.78292,83.310288 C197.963494,81.7008609 197.144068,80.1391134 196.323664,78.6016921 C195.901239,77.8115744 195.479791,77.0448098 195.058344,76.2741531 C194.697523,75.6144243 194.336701,74.9537223 193.977836,74.3066431 C193.40678,73.2849391 192.836701,72.278804 192.266623,71.2901837 C192.09648,70.9943761 191.926336,70.7005146 191.756193,70.4076261 C191.08442,69.2535871 190.413625,68.1131708 189.744785,67.0029192 C189.744785,67.0029192 189.743807,67.0009731 189.742829,67 C187.269883,69.6525382 185.03455,72.5123363 183.210887,75.6562655 C179.548892,81.9694231 177.59322,88.817759 176.787484,95.9842827 L176.787484,95.9842827 Z" fill="#DDEAF0"></path>
                        <path d="M147,204.031 C147.022,204.021 147.044,204.01 147.066,204" fill="#4E4D50"></path>
                    </g>
                    <path d="M273.43621,66.6039702 C278.556748,74.3490314 281.057911,83.7436592 282.602544,93 C286.968498,91.125223 291.042862,88.6893959 295,86.0540403 C277.730251,60.5716926 254.830668,34.8769755 248,31 C255.139989,36.6213676 268.556035,59.2233941 273.43621,66.6039702 L273.43621,66.6039702 Z" id="Shape" fill="#DDEAF0"></path>
                    <path d="M275.752474,90.6283551 C275.752474,90.6283551 268.86525,114.067486 296.763394,133 L293.939428,118.603616 C293.939428,118.603616 334.799369,96.0036347 305.30301,38 C305.30301,38 303.665129,78.3037756 275.752474,90.6283551 L275.752474,90.6283551 Z" id="Shape" fill="#425356"></path>
                    <path d="M290.856439,127.285398 C289.30358,124.322925 287.327391,120.600794 287.692196,117.125698 C288.074558,113.479728 290.827177,111.61671 293.419828,109.338711 C297.985741,105.328534 301.720602,100.945364 305.24965,96.0095364 C316.948767,79.6397752 314.043008,56.2192508 305.51984,39 C305.21551,43.659499 302.040538,79.2960737 275.756054,90.7202435 C275.756054,90.7202435 269.708486,111.011327 291.821124,129 C291.495336,128.430744 291.161744,127.866371 290.856439,127.285398 L290.856439,127.285398 Z" id="Shape" fill="#627377"></path>
                    <path d="M305,108.30314 C300.050131,108.880775 295.171193,107.767048 291.893966,103.052993 C287.259454,96.3874422 285.212026,88.1660358 288.633992,81 C285.133426,84.8119948 280.891914,88.0928423 275.745545,90.3984365 C275.745545,90.3984365 268.921742,113.964754 296.562985,133 L293.765024,118.525498 C293.765024,118.526487 299.435711,115.342571 305,108.30314 L305,108.30314 Z" id="Shape" fill="#717272"></path>
                    <path d="M294.173358,109.169717 C295.153138,108.336561 296.088245,107.48174 297,106.614116 C295.477025,105.769142 294.080964,104.599179 292.892028,102.990973 C287.974848,96.3434551 285.80613,88.1418958 289.45518,81 C285.742166,84.8053344 281.251419,88.0897005 275.786983,90.3912187 C275.786983,90.3912187 269.492017,110.856709 292.509253,129 C292.169122,128.425851 291.821883,127.856627 291.504089,127.270661 C289.887705,124.282725 287.830672,120.528601 288.210401,117.023636 C288.609421,113.346327 291.47363,111.468281 294.173358,109.169717 L294.173358,109.169717 Z" id="Shape" fill="#909A9D"></path>
                    <path d="M172.410158,201.453386 C174.137991,209.620579 180.828459,215.147207 187.35279,213.796962 C193.878097,212.447684 199.408532,204.202202 197.679722,196.034043 C195.952866,187.865884 187.622519,182.869882 181.098189,184.21916 C174.571904,185.569405 170.682325,193.286194 172.410158,201.453386 L172.410158,201.453386 Z" id="Shape" fill="#DDEAF0"></path>
                    <path d="M218.347281,179.528976 C220.036855,187.695735 227.473106,193.144806 233.85132,191.794767 C240.2305,190.445706 245.364986,182.200684 243.674445,174.032947 C241.985838,165.86521 234.114379,160.870065 227.736165,162.219125 C221.355051,163.567208 216.65674,171.361239 218.347281,179.528976 L218.347281,179.528976 Z" id="Shape" fill="#DDEAF0"></path>
                    <path d="M217.324433,176.41925 C219.00665,184.310639 226.824066,189.091175 233.17639,187.786345 C239.528713,186.481515 244.342591,178.645815 242.662331,170.753466 C240.979136,162.862077 233.438503,157.902955 227.086179,159.207785 C220.734834,160.514535 215.643195,168.526901 217.324433,176.41925 L217.324433,176.41925 Z" id="Shape" fill="#FFFFFF"></path>
                    <path d="M171.321182,198.745101 C172.986619,206.910731 180.726456,212.13854 187.015132,210.787908 C193.304765,209.437276 198.343168,201.329559 196.678687,193.162948 C195.012293,184.997318 187.27437,179.863739 180.985694,181.215353 C174.697974,182.565984 169.656701,190.57849 171.321182,198.745101 L171.321182,198.745101 Z" id="Shape" fill="#FFFFFF"></path>
                    <path d="M218.748312,163.842349 C218.813019,164.357132 218.918167,164.876971 219.096111,165.394787 C220.209273,165.608184 220.250726,164.175087 221.954338,163.38926 C223.466862,162.689399 224.491052,163.073716 225.507153,163.451964 C227.035854,164.625142 228.382567,166.531556 229.208591,168.942639 C230.925347,173.934712 229.755567,179.163444 226.604137,180.619803 C223.451697,182.078184 219.503563,179.213001 217.790851,174.21587 C216.417851,170.225043 216.893043,166.089592 218.748312,163.842349 L218.748312,163.842349 Z" id="Shape" fill="#425356"></path>
                    <path d="M225.693178,167.740981 C226.540182,170.028222 225.573329,172.66876 223.533872,173.640571 C221.493409,174.612382 219.153826,173.545713 218.306822,171.258473 C217.459818,168.971232 218.426671,166.330694 220.466128,165.358883 C222.505584,164.38804 224.846174,165.454709 225.693178,167.740981 L225.693178,167.740981 Z" id="Shape" opacity="0.6" fill="#FFFFFF"></path>
                    <path d="M185,158.334014 C185,158.334014 163.346927,155.107982 156.632139,167 C156.632139,167 152.673109,153.814904 164.570627,148.999441 C176.467172,144.183979 185,158.334014 185,158.334014 L185,158.334014 Z" id="Shape" fill="#BDDAE3"></path>
                    <path d="M203.711545,139 C203.711545,139 207.973569,121.000075 222.557848,115.820122 C237.141157,110.640168 242,114.609552 242,114.609552 C242,114.609552 235.93008,103.92754 220.131817,106.360357 C204.333554,108.793174 198.855609,130.454001 203.711545,139 L203.711545,139 Z" id="Shape" fill="#BDDAE3"></path>
                    <path d="M176.747687,182.377213 C176.812397,182.875919 176.918563,183.379523 177.095506,183.881168 C178.021675,186.499126 179.041877,183.467703 180.745584,182.707397 C182.258192,182.029393 184.02762,184.322066 183.506903,182 C185.035689,183.136539 186.382477,184.983414 187.208547,187.319197 C188.925398,192.155366 187.755553,197.220801 184.603949,198.631677 C181.451333,200.044512 177.50298,197.26881 175.790173,192.427743 C174.418108,188.560572 174.893326,184.554273 176.747687,182.377213 L176.747687,182.377213 Z" id="Shape" fill="#425356"></path>
                    <path d="M184.722371,186.680206 C185.52962,188.952685 184.516502,191.609443 182.460857,192.614404 C180.405212,193.619364 178.084878,192.592272 177.277629,190.319794 C176.47038,188.047315 177.483498,185.390557 179.539143,184.385596 C181.594788,183.380636 183.915122,184.407728 184.722371,186.680206 L184.722371,186.680206 Z" id="Shape" opacity="0.6" fill="#FFFFFF"></path>
                    <path d="M259.890444,152.547759 C215.580727,153.815194 207.574756,164.456004 207.574756,164.456004 L207.58743,164.453084 C202.906881,168.100611 203.441132,171.482385 200.845918,172.387696 C196.769814,173.80991 192.514327,171.927253 181.687937,176.447966 C157.839658,186.406386 156,199.021358 156,199.021358 C156.610294,201.666229 159.053422,205.737207 162.133167,207.157474 C165.212911,208.576768 167.81105,216.730407 171.681448,219.987579 C175.551845,223.245725 182.073027,222.434839 193.079775,218.370675 C204.086523,214.30651 205.7195,209.016769 206.332719,204.947737 C206.945938,200.878705 203.487928,187.447007 203.487928,187.447007 C205.731199,185.616916 208.942556,185.57019 208.942556,185.57019 C208.942556,185.57019 211.779548,189.343293 214.845644,193.644979 C217.912715,197.946666 220.802352,203.326939 225.285969,202.921982 C229.769586,202.517026 238.940576,200.690829 254.430941,193.982767 C269.922281,187.275679 267.480129,178.932217 267.480129,178.932217 L263.006261,159.191573 C267.693634,158.379713 283.793319,158.794404 283.793319,158.794404 L284,153.09776 C279.557329,151.773864 270.459457,151.720324 259.890444,152.547759 L259.890444,152.547759 Z M189.594387,214.816339 C179.475951,218.051113 174.10757,218.048207 171.012973,212.376938 C167.918375,206.705669 164,198.806194 164,198.806194 C164,198.806194 176.190719,180.789695 197.456818,181.001859 C197.456818,181.001859 201.786094,195.381538 201.988581,201.456791 C202.193044,207.532043 199.712822,211.580596 189.594387,214.816339 L189.594387,214.816339 Z M245.125899,192.974409 C227.254745,199.038043 226.610208,199.196848 223.442547,195.674092 C220.275867,192.152304 212.271233,182.028495 210.21972,176.562316 C208.16919,171.096137 220.904684,165.232946 230.35363,162.808268 C239.802576,160.383589 251.509366,159.377502 257.6698,160.392304 L263,181.243186 C263,181.242217 262.997052,186.910776 245.125899,192.974409 L245.125899,192.974409 Z" id="Shape" fill="#717272"></path>
                    <path d="M200.963835,203 C200.744744,208.549081 197.99362,212.387954 188.915776,215.5011 C181.092898,218.183661 176.19411,218.720376 173,215.861942 C173.784114,217.087996 174.678733,218.196801 176.024987,218.852786 C177.322234,219.484512 178.62909,219.831203 179.943633,220 C182.771631,219.966645 185.657284,219.025626 188.216224,217.948154 C191.582339,216.531066 197.533338,214.441822 199.520527,211.023426 C200.694776,209.005946 201.136801,205.973661 200.963835,203 L200.963835,203 Z" id="Shape" fill="#737F82"></path>
                    <path d="M225,197.040182 C225.65035,197.88299 226.368795,198.521831 227.141518,199 C235.422382,198.24282 243.451594,196.211806 251.013027,192.619287 C255.785552,190.351595 261.667325,187.311327 265,182.86638 C264.066417,179.478791 263.017369,176.121028 261.806474,172.815218 C260.875851,170.272362 259.994572,167.574606 258.90605,165 L263.074608,181.131696 C263.074608,181.131696 263.071647,186.761963 245.121386,192.787657 C230.546235,197.679985 227.380341,198.702708 225,197.040182 L225,197.040182 Z" id="Shape" fill="#737F82"></path>
                    <path d="M174,242.522664 C174,242.522664 204.360451,254.375877 258.581252,231.331675 C312.803028,208.286504 342.778367,174 342.778367,174 L344,176.42912 C344,176.42912 314.024661,210.71756 259.802885,233.760794 C205.581109,256.805964 175.221633,244.951784 175.221633,244.951784 L174,242.522664 L174,242.522664 Z" id="Shape" fill="#425356"></path>
                    <path d="M194.279581,301 C194.279581,301 223.829848,260.837294 291,271.982007 C291,271.982007 252.493647,247.373268 193,290.5562 L194.279581,301 L194.279581,301 Z" id="Shape" fill="#017499"></path>
                    <path d="M202.363046,312.126969 C202.363046,312.126969 227.013732,284.614563 262.913029,287.167251 C277.331801,288.215658 285.249823,287.421055 290.014415,287.015944 C290.802772,289.058094 291.426765,291.198837 291.426765,291.198837 L286.271439,302.931437 C286.271439,302.931437 248.631063,286.07882 210.633417,315.75442 C210.633417,315.75442 207.637462,323.719976 208.515383,327.886274 C213.796689,324.810359 257.094341,311.431935 276.269831,324.478461 C296.303558,338.11069 299.479625,364.327716 272.372334,376.990607 C245.265043,389.653498 216.405847,385.292942 203.035266,377.681736 C203.035266,377.681736 201.284344,375.398472 200.925105,374.421325 C200.051121,372.040444 200.048169,369.172453 200.049153,366.091657 C200.049153,366.091657 222.39382,376.60502 241.753359,373.355346 C261.112897,370.104696 278.361291,363.775203 278.016816,350.375303 C277.671356,336.975403 257.618929,319.218851 198.125009,343.455226 C198.125009,343.455226 196.893755,342.005612 196.014849,340.194815 C195.802259,334.988895 197.870097,323.669215 202.363046,312.126969 L202.363046,312.126969 Z" id="Shape" fill="#017499"></path>
                    <path d="M200.466476,309.480533 C200.466476,309.480533 221.428086,285.755651 260.113605,285.00717 C280.207378,284.846641 290,287.43481 290,287.43481 L285.364335,299.739445 C285.364335,299.739445 247.695874,285.460198 208.714857,313.139227 C208.714857,313.139227 205.726512,321.175551 206.602204,325.378863 C211.870094,322.275621 255.057765,308.77834 274.184548,321.940774 C294.167386,335.694115 297.335386,362.144059 270.29695,374.91945 C243.258515,387.694841 214.472625,383.295545 201.136006,375.616719 C201.136006,375.616719 198.155515,368.308195 198.157478,363.923671 C198.157478,363.923671 220.445388,374.530437 239.755751,371.250908 C259.066114,367.971378 276.270695,361.585653 275.927094,348.066705 C275.583494,334.547757 255.58102,316.633452 196.238223,341.085149 C196.238223,341.085149 194.489786,325.006592 200.466476,309.480533 L200.466476,309.480533 Z" id="Shape" fill="#F2F2F2"></path>
                    <path d="M250.238726,257 L237.930744,260.36324 L239.154379,274.146368 C239.154379,274.146368 202.22062,300.774865 214.501127,354.379611 C218.342771,371.148921 223.571922,384.036293 229.480107,394 C234.010598,393.982417 238.531277,393.769467 243.049993,393.486185 C243.316897,392.792633 243.790847,392.214347 244.23634,391.618479 C236.828785,381.386142 230.471182,368.050403 227.117225,350.710622 C217.298708,296.187652 253,272.009055 253,272.009055 L250.238726,257 L250.238726,257 Z" id="Shape" fill="#627377"></path>
                    <path d="M250.238726,257 L237.930744,260.373241 L239.154379,274.197357 C239.154379,274.197357 202.22062,300.905039 214.501127,354.66919 C218.406554,371.768573 223.746587,384.83731 229.775467,394.896289 C230.202316,394.909026 230.627203,394.921763 231.046203,394.93352 C234.262783,395.032473 237.480344,395.026595 240.694962,394.877674 C241.327876,394.848282 241.957847,394.798316 242.589781,394.761086 C242.824303,394.459326 243.049993,394.14385 243.277646,393.829354 C243.285496,393.809759 243.284515,393.790164 243.295309,393.771549 C243.601463,393.198402 244.008687,392.688938 244.297178,392.105993 C236.835654,381.822654 230.490808,368.481549 227.117225,350.989291 C217.298708,296.304185 253,272.053688 253,272.053688 L250.238726,257 L250.238726,257 Z" id="Shape" fill="#8D9699"></path>
                    <path d="M243.588882,391.610624 C236.305116,381.369465 230.05013,367.983107 226.757076,350.559192 C217.181282,296.124327 252,271.984802 252,271.984802 L249.306988,257 L245.905791,257.609535 L248.499275,270.862283 C248.499275,270.862283 213.704482,295.213439 223.856393,349.539074 C227.471001,368.881318 234.284878,383.297545 241.989726,394 C242.51895,393.19834 243.042432,392.39668 243.588882,391.610624 L243.588882,391.610624 Z" id="Shape" fill="#626D70"></path>
                    <path d="M234.619111,300.025185 L229,302 C229,302 232.108715,292.414877 236.002172,288.627294 C236.002172,288.627294 241.824302,287.136665 242.936021,287 C243.852531,287.068333 234.619111,300.025185 234.619111,300.025185 L234.619111,300.025185 Z" id="Shape" fill="#F2F2F2"></path>
                    <path d="M345,275.15218 C345,275.15218 360.255928,284.318566 376,285 C376,285 375.85803,272.758168 374.458752,264.177296 C373.059473,255.595424 345,275.15218 345,275.15218 L345,275.15218 Z" id="Shape" fill="#0C6788"></path>
                    <path d="M467.985028,193.919096 C465.844653,173.136079 445.265706,175.58888 445.265706,175.58888 C427.595122,170.898316 409.304467,173.206777 393.881032,177.548764 C372.906336,187.341309 352.750566,198.734361 334.73909,213.300933 C322.792173,228.59215 323.068414,242.810145 328.971343,257.73413 C332.579124,266.855052 338.11765,272.597237 344.623998,275.545899 C348.618712,276.678037 353.168846,275.503678 357.442739,274.099552 C357.999138,273.915936 358.545742,273.710718 359.095285,273.514337 C360.150289,273.020438 361.160232,272.474498 362.463069,271.789128 C366.895654,269.457102 371.339993,267.069107 375.69813,264.600597 C383.891309,259.96011 391.970857,253.975395 401.533485,252.7107 C402.273065,251.929103 402.688406,251.45877 402.688406,251.45877 C404.987472,261.466353 412.508662,269.936272 412.508662,269.936272 L482.700229,250.575055 C485.482226,213.169357 467.985028,193.919096 467.985028,193.919096 L467.985028,193.919096 Z" id="Shape" fill="#DCDCDB"></path>
                    <path d="M386.930171,186.025875 C386.930171,186.025875 393.355478,188.197662 394.118746,193.774352 C394.881037,199.351043 392.429211,206.320918 386,212.668306 C386,212.668306 410.336716,197.655508 429.155848,202.62058 C429.155848,202.62058 420.421218,228.33027 442.294395,246 C442.294395,246 463.260827,240.123923 476.877637,244.313357 C476.877637,244.313357 479.336295,222.008571 462.211578,195.666514 C462.211578,195.666514 464.207591,182.191159 444.16157,181.871023 C444.160594,181.872011 420.753073,173.185851 386.930171,186.025875 L386.930171,186.025875 Z" id="Shape" fill="#F2F2F2"></path>
                    <path d="M426,204 C426,204 395.85886,212.58552 398.121277,253 C399.279838,252.699561 400.459889,252.462732 401.662409,252.299301 L402.801432,251.11418 C402.800456,251.11418 397.200094,219.941881 426,204 L426,204 Z" id="Shape" fill="#C7C7C7"></path>
                    <path d="M386,185.851901 C386,185.851901 419.449858,172.13715 443.204979,180.959023 C443.204979,180.959023 463.099529,179.541607 461.057814,195.102819 C461.057814,195.102819 477.525826,213.334299 475.885059,242 C475.885059,242 474.472987,217.018406 457.803528,195.920748 C457.803528,195.920748 463.098556,184.661741 441.53599,182.808423 C441.53599,182.806464 423.638389,174.813294 386,185.851901 L386,185.851901 Z" id="Shape" fill="#FFFFFF"></path>
                    <path d="M234,300 C234,300 230.195394,301.428263 229,302.027874 L230.03089,305 L234,300 L234,300 Z" id="Shape" fill="#118EA3"></path>
                    <path d="M496,270.128861 L492.956994,259.574717 C492.956994,259.574717 491.136051,242.729444 457.400489,246.569168 C423.663954,250.408892 409.838206,264.201803 412.271639,275.161764 C414.704099,286.120754 496,270.128861 496,270.128861 L496,270.128861 Z" id="Shape" fill="#626D70"></path>
                    <path d="M414.010746,270.256356 C414.010746,270.256356 436.986051,238.034717 481.477617,252.934149 C501.285021,259.452217 510.404766,309.046476 467.12437,312.744398 C423.843974,316.442319 408.724754,278.932287 414.010746,270.256356 L414.010746,270.256356 Z" id="Shape" fill="#425356"></path>
                    <path d="M413.922622,270.439669 C413.922622,270.439669 404.859833,282.770406 405.160692,291.098104 C405.461552,299.424819 394.163249,305.277911 407.58899,319.162653 C421.014732,333.046412 427.426256,331.816978 431.695737,340.76136 C435.965219,349.705743 443.291979,350.636179 463.750438,342.010466 C484.208896,333.385736 484.823273,326.601224 488.79871,311.800799 C492.775121,297.000374 497.063101,266.163204 474.781959,257.82567 C452.500817,249.48912 433.065671,247.321381 413.922622,270.439669 L413.922622,270.439669 Z" id="Shape" fill="#627377"></path>
                    <path d="M456,292 C456,292 475.041468,306.044902 479.795297,323 C479.795297,323 483.837214,298.757362 456,292 L456,292 Z" id="Shape" fill="#57666A"></path>
                    <path d="M193.489013,301.174813 C193.489013,301.174813 208.270581,281.346659 238,274 L238,274.66521 L236.513283,276.453452 C236.513283,276.453452 214.298131,281.235139 193,304 L193.489013,301.174813 L193.489013,301.174813 Z" id="Shape" fill="#1DACE3"></path>
                    <path d="M251.922579,271.013455 C251.922579,271.013455 274.494412,268.213755 290,271.92104 C290,271.92104 261.97986,270.126854 251,273 L252.228146,272.178102 L251.922579,271.013455 L251.922579,271.013455 Z" id="Shape" fill="#1DACE3"></path>
                    <path d="M41.2870042,114.024975 C41.2870042,114.024975 35.4204689,117.011664 36.0468072,120.723326 C36.6731455,124.434001 38.5581734,125.672866 42.1708929,125.983568 C45.7836124,126.294271 53.3277323,122.123953 55.6857709,119.805027 C58.0438095,117.486102 60.0350643,114.18871 54.0653084,112.794001 C48.0965546,111.399292 44.5870556,111.861894 41.2870042,114.024975 L41.2870042,114.024975 Z" id="Shape" fill="#7B898D"></path>
                    <path d="M15.505768,145.551543 C15.505768,145.551543 20.9754141,146.73505 25.5267771,152.034392 C32.2214521,171.891543 45.3323863,153.498634 50,147.030206 C44.9504196,138.888909 40.2251689,135.986385 38.0359428,134.749038 C35.0075622,133.037712 33.085029,130.045776 29.7782327,128.697866 C27.1093502,127.610501 24.3095635,127.308616 21.4824237,127 C19.1955079,127.201898 16.7444734,127.753753 14.339353,128.935337 C3.38247662,134.317361 5.46033647,148.727111 15.505768,145.551543 L15.505768,145.551543 Z" id="Shape" fill="#627377"></path>
                    <path d="M11.8246237,133.899971 C11.8246237,133.899971 7.70117779,138.142722 9.4184335,141.063246 C11.1356892,143.982801 13.1557509,144.458415 16.3768755,143.645706 C19.5980001,142.832027 24.7934607,137.09947 26.0961364,134.457922 C27.398812,131.816374 28.075553,128.464794 22.4756736,129.072147 C16.8768103,129.679499 13.9910079,131.109248 11.8246237,133.899971 L11.8246237,133.899971 Z" id="Shape" fill="#7B898D"></path>
                    <path d="M51,135.876338 C51,135.876338 53.7878142,143.543268 54.085422,147 C54.085422,147 69.5904994,142.295839 76,142.456151 C76,142.456151 71.8315902,130.673206 66.3177652,128 C66.3168144,128 61.3259423,133.714128 51,135.876338 L51,135.876338 Z" id="Shape" fill="#7B898D"></path>
                    <path d="M41.8060594,141 C41.8060594,141 46.7512458,145.23971 48,149.006005 C48,149.006005 40.1865657,152.296885 30.9659159,157 C30.9659159,157 29.4052222,152.448017 28,151.192919 C28,151.192919 36.3864859,147.27449 41.8060594,141 L41.8060594,141 Z" id="Shape" fill="#7B898D"></path>
                    <path d="M80.0954645,147.000224 C54.2327901,146.936435 32.1389698,160.515736 32.1389698,160.515736 C32.1389698,160.515736 30.5029689,168.565965 38.4574861,175.340404 C43.3342523,179.492607 42.2282924,183.46718 40.6430505,185.922583 C40.6450028,185.935341 40.6518357,185.945155 40.6528118,185.957913 C41.2033515,193.116071 50.7431105,191.246549 56.0425429,188.867693 C61.6845982,162.822952 81.6192099,161.977005 81.6192099,161.977005 C85.4495603,151.053308 80.0954645,147.000224 80.0954645,147.000224 L80.0954645,147.000224 Z" id="Shape" fill="#7B898D"></path>
                    <path d="M32,161 C32,161 54.982434,146.175258 80,147.036089 C80,147.036089 56.818254,150.627446 32,161 L32,161 Z" id="Shape" fill="#95A5A7"></path>
                    <path d="M107.911334,208.239765 C107.911334,208.239765 86.2468543,205.068323 69,221.794101 C69,221.794101 102.273244,273.554722 128,287 C128,287 102.428648,271.111631 75.5546757,222.453317 C75.5546757,222.453317 82.9477402,210.893182 107.911334,208.239765 L107.911334,208.239765 Z" id="Shape" fill="#FFFFFF"></path>
                    <path d="M452.999998,265.196744 C453.004853,255.75199 444.175211,255.74804 433.669558,258.839337 C425.399234,261.27287 418.938923,266.954734 416.555997,269.268763 C413.652595,271.520571 411.740623,274.311627 411.740623,274.311627 C403.514966,285.765231 405.337603,293.817419 405.337603,293.817419 C406.556255,290.721183 412.34655,280.814216 421.482069,278.032049 C414.437194,282.632453 408.847903,294.201609 407.115572,298.087953 C406.0183,300.137296 405.197774,302.04837 405.028813,303.416244 C404.418031,308.371209 413.549666,312.70989 429.385342,304.047343 C436.930302,299.920016 441.887447,296.632179 444.383984,293.151753 C444.561684,292.967065 444.733557,292.796205 444.919026,292.59769 C446.909652,290.469336 449.115849,286.288677 450.598623,281.709014 C452.481464,277.529342 452.997085,271.734888 452.999998,265.196744 L452.999998,265.196744 Z" id="Shape" fill="#7B898D"></path>
                    <path d="M434,278.386753 C434,278.386753 429.501206,279.239237 427.146445,278.111036 C426.970514,277.993149 426.782984,277.880134 426.574187,277.771016 C420.666017,274.713767 413.842427,281.735308 413.842427,281.735308 C413.842427,281.735308 404.135319,298.836613 409.745761,290.897313 C415.35717,282.958013 420.965678,278.530945 424.905748,279.602638 C428.84485,280.673357 424.952147,287.901443 424.952147,287.901443 C424.952147,287.901443 426.342191,286.593977 427.45964,284.860756 C428.005797,284.268402 431.489607,280.493118 434,278.386753 L434,278.386753 Z" id="Shape" fill="#627377"></path>
                    <path d="M27.0941384,160 C27.0941384,160 12.787161,161.428344 8.26664025,167.964746 C3.74515894,174.501147 12.1791096,175.303828 20.1587028,177.221511 C28.1382961,179.139195 36.7211377,182.812806 37.9276345,179.941875 C39.1331707,177.071963 24.9818084,169.248627 17.4517697,169.085853 C17.4517697,169.085853 24.6811447,168.611773 26.7877113,169.249644 C28.8971595,169.889551 29.5023291,164.467135 27.0941384,160 L27.0941384,160 Z" id="Shape" fill="#7B898D"></path>
                    <path d="M6.2943819,182 C6.2943819,182 4.72882846,183.35499 3.74599218,185.349559 C2.77213612,187.135592 2.68233382,187.96475 3.89167146,189.976282 C5.08504426,191.961871 7.56558335,193.521407 9.67693521,194.516197 C14.9942292,197.021632 17.3640121,197.6662 21.986835,196.292252 C23.8766745,194.982162 25.4132916,192.587481 26,190.875285 C26,190.874287 13.2780075,188.781935 6.2943819,182 L6.2943819,182 Z" id="Shape" fill="#7B898D"></path>
                    <path d="M27.7742353,160 C27.7742353,160 16.8751119,160.740159 10.7327885,165.63785 C4.5904651,170.535542 6.9424276,173.946798 11.2399977,175.121265 C15.5375678,176.295732 36.5142925,182.699229 38.5617336,180.569488 C39.4831311,179.717183 38.6655255,178.757831 38.6655255,178.757831 C38.6655255,178.757831 37.6413153,180.249364 31.1954497,178.646705 C24.7495841,177.045067 16.8692368,174.484076 13.3902515,173.310628 C9.91126619,172.136161 7.45551184,170.750657 11.9606657,167.236431 C16.4648403,163.724244 21.4801409,161.489494 27.7742353,160 L27.7742353,160 Z" id="Shape" fill="#95A5A7"></path>
                    <path d="M86.073514,159.983219 C86.0496716,160.10284 86.0248358,160.249993 86,160.384805 C90.7386752,159.803787 95.5389433,160.317399 100.348152,161 C100.671018,159.106946 100.92335,157.236676 101.073358,155.525902 C102.103548,150.508453 102.570462,144.877708 100.883613,142.437813 C98.3106212,138.716261 94.5266351,137.374794 90.5896603,138.265308 C86.651692,139.155822 85.8946961,140.495391 86.8026938,142.282115 C86.8026938,142.282115 89.0726881,145.111254 87.555716,150.765734 C86.4718807,154.809123 86.162923,158.31042 86.073514,159.983219 L86.073514,159.983219 Z" id="Shape" fill="#7B898D"></path>
                    <path d="M86.9040117,152.405063 C86.9040117,152.405063 88.0853759,147.344556 87.3793654,144.890118 C86.6733549,142.435679 83.8442987,139.827655 89.190523,138.450274 C94.5367472,137.071914 101.531666,138.532447 102,147.427708 C101.996991,154.09842 100.420502,161 100.420502,161 C100.420502,161 101.448429,147.964769 99.8007372,144.206319 C98.1510395,140.448846 94.8506411,139.372767 92.020582,139.677982 C89.190523,139.983197 87.4605967,140.212109 88.4032812,142.743829 C89.3459656,145.274572 86.9040117,152.405063 86.9040117,152.405063 L86.9040117,152.405063 Z" id="Shape" fill="#95A5A7"></path>
                    <path d="M36.6280537,123 C36.6280537,123 33.2490719,117.471828 42.1662108,113.637852 C51.0833498,109.804856 56.5391406,113.798458 57,114.566233 C57,114.566233 50.8529201,111.415811 42.7035533,115.249787 C34.555167,119.083763 36.6280537,123 36.6280537,123 L36.6280537,123 Z" id="Shape" fill="#95A5A7"></path>
                    <path d="M10.6091139,143 C10.6091139,143 5.63180897,138.436108 13.1848539,132.038901 C20.7378988,125.641694 26.3576019,128.444746 27,129.7248 C27,129.7248 22.3423573,128.201801 14.7913615,133.719099 C7.23831662,139.237417 10.6091139,143 10.6091139,143 L10.6091139,143 Z" id="Shape" fill="#95A5A7"></path>
                    <path d="M445.483927,257.112632 C449.769383,257.580031 453.135271,259.600144 452.36506,270.622631 C451.857444,277.890086 449.060672,284.36831 448.012248,286.578551 C444.47748,291.473364 438.063939,298.053584 427.251706,302.436436 C414.689172,307.526328 402.098328,310.186143 409.654982,296.528597 C417.211636,282.87105 418.078489,283.130496 422.365896,280.234011 C422.365896,280.234011 413.589987,283.54145 407.258446,296.372137 C400.925929,309.201833 407.861729,314.794773 428.679866,305.076446 C435.763069,301.769997 440.692807,297.815923 444.119219,294.036134 C447.813106,290.643533 451.974586,285.811106 453.742459,271.244509 C455.737782,254.789503 445.483927,257.112632 445.483927,257.112632 L445.483927,257.112632 Z" id="Shape" fill="#95A5A7"></path>
                    <path d="M305.864371,109.965158 C298.659884,111.295817 290.725086,106.222495 287.598969,99.507602 C284.739368,93.3656457 284.32584,83.9610805 288.831015,78.4536561 L288.586313,78 C287.973609,78.3275319 287.367545,78.6687517 286.757686,79.0011721 C285.556939,79.8586213 284.279366,80.6134112 282.96101,81.2811852 C281.866489,83.2688639 278.454886,91.0152377 284.443449,101.92645 C291.425996,114.652286 301.933961,112.920767 301.933961,112.920767 L306,110.214473 L305.864371,109.965158 L305.864371,109.965158 Z" id="Shape" fill="#95A5A7"></path>
                    <path d="M290.589862,79.2018942 L288.529353,81.4276271 C288.529353,81.4276271 284.786953,89.2599279 288.749322,97.576468 C293.018286,105.483418 299.322453,109.489934 303.900931,108.363316 C305.732712,107.74844 306.138585,107.234734 306.138585,107.234734 L307.360096,105.490294 C307.360096,105.490294 308.986507,106.928278 307.053502,109.49288 C305.119523,112.057483 297.79532,111.130258 294.033454,108.357423 C290.270615,105.583606 286.406551,102.091779 284.58061,93.6721043 C282.659284,84.8192667 285.910159,79.0958134 288.454407,77.7619453 C290.591809,76.4290594 292.01577,77.2502035 292.01577,77.2502035 L290.589862,79.2018942 L290.589862,79.2018942 Z" id="Shape" fill="#425356"></path>
                    <path d="M144.910498,165 C144.910498,165 139.859301,168.683492 143.65109,178.152078 C147.442878,187.620663 152,186.148652 152,186.148652 L148.658692,186.999983 C148.658692,186.999983 143.873908,187.075217 140.917204,177.218583 C138.491389,167.828202 141.644755,165.812724 141.644755,165.812724 L144.910498,165 L144.910498,165 Z" id="Shape" fill="#7B898D"></path>
                    <path d="M145.656818,176.155409 C142.688422,168.38493 146.025551,165.915392 147.039078,165.368061 C147.319042,165.232993 147.440978,165.16949 147.62632,165.155379 C147.780446,165.143283 147.778495,165.137235 147.93067,165.120099 L148.088699,165.059621 C147.911161,164.793516 147.812637,164.594945 147.60681,164.195786 C146.859589,163.911538 146.028477,163.950849 145.016901,164.223002 C142.255307,166.164361 140.760866,169.550149 143.311756,176.785393 C147.231249,187.90134 152.99343,185.851119 152.99343,185.851119 L154.453729,185.298749 C154.670287,185.115297 154.845874,184.905639 155,184.678844 C152.822721,184.609294 148.458407,183.488426 145.656818,176.155409 L145.656818,176.155409 Z" id="Shape" fill="#717272"></path>
                    <g transform="translate(184.000000, 219.000000)" id="Oval" fill="#FFFFFF">
                        <circle opacity="0.1" cx="6" cy="6" r="6"></circle>
                        <circle cx="6" cy="6" r="1"></circle>
                    </g>
                    <path d="M326.111106,218.685645 C326.111106,218.685645 313.459014,233.854495 325.050202,260.684998 C333.967302,277.857263 342,280.007341 342,280.007341 L341.107056,282 C341.107056,282 331.141387,278.009793 323.413296,261.605063 C316.546835,247.028731 315.245851,231.556777 325.22006,217 L326.111106,218.685645 L326.111106,218.685645 Z" id="Shape" fill="#1DACE3"></path>
                    <path d="M156,199.336615 C156,199.336615 157.38146,188.755342 171.598699,181.283516 C185.815938,173.811691 192.389815,172.289093 196.668733,172.748599 L202.630361,170.157068 C202.630361,170.157068 207.223203,155.81311 247.114926,152.932441 C266.37347,151.109997 281.454487,152.338589 284,153.408496 C284,153.408496 240.849124,152.319119 219.751883,161.618256 C205.229494,168.021148 203.544835,174.583698 203.544835,174.583698 L199.263967,176.565801 C199.263967,176.565801 191.471442,172.28812 172.818322,183.726097 C154.166178,195.164075 157.67686,203 157.67686,203 C157.67686,203 156.817957,201.648743 156.505983,200.91373 C156.195959,200.178717 156,199.336615 156,199.336615 L156,199.336615 Z" id="Shape" fill="#909A9D"></path>
                    <path d="M145.627448,250 C145.627448,250 113.431485,263.049387 131.510359,310.999023 L134.265441,311 C134.265441,311 115.714053,268.343163 149,250.76853 L145.627448,250 L145.627448,250 Z" id="Shape" fill="#DCDCDB"></path>
                    <path d="M135,242.864309 C134.962166,242.430013 134.957315,241.994745 134.989329,241.557535 C134.900079,241.080489 134.853514,240.591785 134.825381,240.095308 C125.805324,239.389942 101.829126,241.586682 92,282.38815 L94.3379583,284 C94.3389284,284.000972 101.77286,242.893456 135,242.864309 L135,242.864309 Z" id="Shape" fill="#DCDCDB"></path>
                    <path d="M123.614209,226.989889 C123.664273,226.559698 123.747714,226.13434 123.867476,225.713816 C123.87533,225.231421 123.928339,224.74516 124,224.255998 C115.198468,221.772489 90.9819837,219.14107 73,256.963116 L74.9937443,259 C74.9937443,259 90.6629454,220.402643 123.614209,226.989889 L123.614209,226.989889 Z" id="Shape" fill="#DCDCDB"></path>
                    <path d="M432.326665,239 C432.326665,239 454.739479,224.764431 476.999017,232.628331 L477,229.794642 C477,229.794642 458.75219,220.293936 430,236.32741 L432.326665,239 L432.326665,239 Z" id="Shape" fill="#DCDCDB"></path>
                    <path d="M426.854231,225 C426.854231,225 450.595033,206.866619 472.625419,215.60641 L474,213.302968 C474,213.302968 455.345537,201.553162 426,222.37601 L426.854231,225 L426.854231,225 Z" id="Shape" fill="#DCDCDB"></path>
                    <path d="M426.819375,213 C450.359477,192.080949 470.507269,203.38619 467.745926,202.03811 L467.592846,199.603259 C467.592846,199.603259 451.854959,189.227799 426,209.90377 L426.819375,213 L426.819375,213 Z" id="Shape" fill="#DCDCDB"></path>
                    <path d="M429.095441,201.634379 C429.095441,201.634379 436.683409,182.704514 448,180.037188 L444.158017,179 C444.158017,179 433.108996,182.035788 426,202 L429.095441,201.634379 L429.095441,201.634379 Z" id="Shape" fill="#DCDCDB"></path>
                    <path d="M421,178.001911 C421,178.001911 411.919798,184.18072 417.196457,201.636381 L415.047883,203 C415.047883,203 409.004357,187.016895 417.681401,178 L421,178.001911 L421,178.001911 Z" id="Shape" fill="#DCDCDB"></path>
                    <path d="M405,205.732079 C405,205.732079 396.398358,197.699319 399.294851,183.000973 L396.530642,183 C396.530642,183 393.382281,195.569251 402.423106,207 L405,205.732079 L405,205.732079 Z" id="Shape" fill="#DCDCDB"></path>
                </g>
                <path d="M227,1.04533415 C224.41563,0.690048959 221.782314,0.512895737 219.098094,0.503108267 C201.288457,0.497235784 180.695729,7.93962857 152.316608,24.6448837 C118.959638,44.2736564 102.695729,64.1647332 101.148044,87.2200994 C99.7824394,107.620125 109.966227,128.104322 123.421592,152.74428 C148.243289,198.180656 173.388032,248.177993 173.637659,248.676175 L174.626376,250.629754 L176.736944,251.206236 C176.878889,251.24245 178.146601,251.58599 180.407924,252 C176.248459,251.377517 173.893159,250.749161 173.702268,250.693373 L171.591699,250.116891 L170.61375,248.160375 C170.364123,247.662193 145.212528,197.67758 120.397683,152.22848 C106.941339,127.588523 96.7506995,107.117049 98.1241354,86.7042997 C99.6718205,63.6489335 115.927898,43.7705804 149.281931,24.1320202 C177.664968,7.43655257 198.267486,-0.00877645537 216.066354,3.22683357e-05 C219.808795,-0.00388271998 223.453344,0.348466228 227,1.04533415 L227,1.04533415 Z" id="Shape" opacity="0.3" fill="#FFFFFF"></path>
            </g>
        </g>
        <g id="certified-01-copy" sketch:type="MSLayerGroup" transform="translate(860.000000, 36.000000)">
            <g id="Group">
                <path d="M364.084252,-1 L56.915748,-1 C47.5181102,-1 40,6.53145336 40,15.6767896 L40,230.32321 C40,239.468547 47.5181102,247 56.915748,247 L364.084252,247 C373.48189,247 381,239.468547 381,230.32321 L381,15.4078091 C381,6.26247289 373.48189,-1 364.084252,-1 L364.084252,-1 Z" id="Shape" fill="#EDEDED" sketch:type="MSShapeGroup"></path>
                <rect id="Rectangle" fill="#FFFFFF" sketch:type="MSShapeGroup" x="59" y="19" width="300" height="206"></rect>
                <g transform="translate(118.000000, 64.000000)" fill="#CCCCCC" sketch:type="MSShapeGroup">
                    <rect id="Rectangle" x="0" y="46" width="182" height="15"></rect>
                    <path d="M90.3217244,0.158062029 C99.5793957,-1.20336021 107.20336,6.42060434 105.841938,15.6782756 C105.025085,21.396249 100.396249,26.0250846 94.6782756,26.841938 C85.4206043,28.2033602 77.7966398,20.5793957 79.158062,11.3217244 C79.9749154,5.603751 84.603751,0.974915374 90.3217244,0.158062029 L90.3217244,0.158062029 Z" id="Shape"></path>
                </g>
                <path d="M130,78 L185,78" id="Shape" stroke="#CCCCCC" stroke-width="1.75" sketch:type="MSShapeGroup"></path>
                <g transform="translate(0.000000, 40.000000)">
                    <g transform="translate(32.000000, 48.000000)">
                        <path d="M65,73.6801242 L65,73.6801242 L34.6134454,1 L1,15.3198758 L31.3865546,88 L43.487395,69.6273292 L65,73.6801242 Z" id="Shape" fill="#989899" sketch:type="MSShapeGroup"></path>
                        <g id="Clipped">
                            <mask id="mask-2" sketch:name="SVGID_10_" fill="white">
                                <use xlink:href="#path-1"></use>
                            </mask>
                            <g id="SVGID_10_"></g>
                            <path d="M10.3390558,90.6503067 L11.1502146,92 L39,18.3067485 L3.57939914,4 L-24,77.6932515 L-2.63948498,72.8343558 L10.3390558,90.6503067 Z" id="Shape" fill="#8C8C8C" sketch:type="MSShapeGroup" mask="url(#mask-2)"></path>
                        </g>
                    </g>
                    <path d="M39.5043478,135 L39.5043478,135 L67,61.5919003 L32.7652174,49 L5,122.140187 L26.5652174,117.049844 L39.5043478,135 Z" id="Shape" fill="#989899" sketch:type="MSShapeGroup"></path>
                    <g id="Shape" sketch:type="MSShapeGroup">
                        <path d="M104,50.5 C104,52.9262172 98.3272727,54.813275 98.0571429,57.2394922 C97.787013,59.6657093 102.379221,62.9006656 101.838961,65.3268828 C101.298701,67.4835203 95.3558442,68.0226796 94.2753247,69.9097374 C93.1948052,72.0663749 96.9766234,76.6492296 95.625974,78.5362874 C94.2753247,80.4233452 88.6025974,79.0754468 86.9818182,80.9625046 C85.361039,82.8495624 87.5220779,88.2411561 85.9012987,89.8586343 C84.0103896,91.4761124 79.1480519,88.5107358 76.987013,89.8586343 C75.0961039,91.2065327 75.6363636,96.8677061 73.4753247,97.9460249 C71.3142857,99.0243436 67.2623377,94.7110686 65.1012987,95.250228 C62.9402597,95.7893874 61.5896104,101.72014 59.4285714,101.98972 C57.2675325,102.2593 54.2961039,97.1372858 52.1350649,97.1372858 C49.7038961,97.1372858 47.0025974,102.2593 44.8415584,101.98972 C42.4103896,101.72014 41.3298701,95.7893874 39.1688312,95.250228 C37.0077922,94.7110686 32.6857143,98.7547639 30.7948052,97.9460249 C28.6337662,96.8677061 29.174026,91.2065327 27.2831169,89.8586343 C25.3922078,88.5107358 20.2597403,91.4761124 18.3688312,89.8586343 C16.4779221,88.2411561 18.638961,82.8495624 17.2883117,80.9625046 C15.6675325,79.0754468 9.99480519,80.4233452 8.64415584,78.5362874 C7.29350649,76.6492296 11.0753247,71.7967953 9.99480519,69.9097374 C8.91428571,67.7531 3.24155844,67.4835203 2.43116883,65.3268828 C1.89090909,63.1702453 6.48311688,59.6657093 6.21298701,57.2394922 C5.67272727,54.813275 0,52.9262172 0,50.5 C0,48.0737828 5.67272727,46.186725 5.94285714,43.7605078 C6.21298701,41.3342907 1.62077922,38.0993344 2.16103896,35.6731172 C2.7012987,33.5164797 8.64415584,32.9773204 9.72467532,31.0902626 C10.8051948,28.9336251 7.02337662,24.3507704 8.37402597,22.4637126 C9.72467532,20.5766548 15.3974026,21.9245532 17.0181818,20.0374954 C18.638961,18.1504376 16.4779221,12.7588439 18.0987013,11.1413657 C19.9896104,9.52388761 24.8519481,12.4892642 27.012987,11.1413657 C28.9038961,9.7934673 28.3636364,4.13229388 30.5246753,3.05397513 C32.6857143,1.97565638 36.7376623,6.28893137 38.8987013,5.749772 C41.0597403,5.21061263 42.4103896,-0.720140483 44.5714286,-0.98972017 C46.7324675,-1.25929986 49.7038961,3.86271419 51.8649351,3.86271419 C54.2961039,3.86271419 56.9974026,-1.25929986 59.1584416,-0.98972017 C61.5896104,-0.720140483 62.6701299,5.21061263 64.8311688,5.749772 C66.9922078,6.28893137 71.3142857,2.24523607 73.2051948,3.05397513 C75.3662338,4.13229388 74.825974,9.7934673 76.7168831,11.1413657 C78.6077922,12.4892642 83.7402597,9.52388761 85.6311688,11.1413657 C87.5220779,12.7588439 85.361039,18.1504376 86.7116883,20.0374954 C88.3324675,21.9245532 94.0051948,20.5766548 95.3558442,22.4637126 C96.7064935,24.3507704 92.9246753,29.2032047 94.0051948,31.0902626 C95.0857143,33.2469 100.758442,33.5164797 101.568831,35.6731172 C102.109091,37.8297547 97.5168831,41.3342907 97.787013,43.7605078 C98.5974026,46.186725 104,48.0737828 104,50.5 L104,50.5 Z" fill="#FDB51A"></path>
                        <path d="M46.8236565,15.2197239 C49.7860829,18.1766766 51.6712634,38.8753461 51.4019519,40.2194156 C50.8633289,40.2194156 47.9009024,40.7570434 43.5919185,41.8322989 C39.8215575,42.9075545 32.5501471,46.9397628 30.6649667,52.5848545 C28.5104747,57.9611323 32.2808356,65.4879212 32.2808356,65.4879212 C32.0115241,63.3374101 32.5501471,65.2191073 34.9739506,70.5953851 C37.3977541,76.2404768 43.322607,79.7350573 43.322607,79.7350573 C42.245361,78.122174 43.322607,75.1652212 43.322607,75.1652212 C47.6315909,81.0791268 55.1723129,81.8855685 61.3664773,80.2726851 C67.5606417,78.6598018 67.0220187,75.1652212 67.0220187,75.1652212 L66.7527072,74.3587796 C69.7151337,74.0899657 72.1389371,73.0147101 73.7548061,70.0577573 C75.6399866,66.5631768 71.8696257,62.5309684 71.8696257,62.5309684 C79.6796591,61.186899 80.218282,57.6923184 79.9489706,55.2729934 C79.6796591,52.0472267 76.7172326,48.5526462 76.7172326,48.5526462 C78.0637901,48.82146 72.1389371,44.7892517 65.9447727,45.3268795 C64.3289037,45.5956934 62.7130348,45.3268795 61.6357888,45.0580656 L61.6357888,45.0580656 C61.0971658,43.4451823 63.2516578,40.7570434 64.0595922,37.5312767 C64.8675267,34.5743239 64.8675267,32.4238128 64.8675267,32.1549989 C65.6754612,32.9614406 66.2140842,34.8431378 66.2140842,34.8431378 C66.2140842,34.8431378 66.7527072,31.3485572 65.4061497,27.047535 C64.5982152,23.0153267 62.4437233,21.6712572 62.4437233,21.6712572 C63.5209693,21.6712572 64.5982152,21.4024433 64.5982152,21.4024433 C64.5982152,21.4024433 57.8654278,13.6068405 46.8236565,15.2197239 L46.8236565,15.2197239 Z" fill="#E77825"></path>
                        <path d="M44.4613105,16.8520066 C48.461969,20.0398817 49.2621008,29.337851 49.2621008,29.337851 C48.461969,28.2752259 46.3282845,27.4782571 46.3282845,27.4782571 C47.1284162,28.8065384 47.3951268,31.1974448 47.3951268,34.38532 C47.3951268,36.5105701 46.8617056,38.9014764 46.3282845,39.6984452 C45.7948634,39.6984452 44.7280211,40.2297578 40.460652,41.2923828 C36.726704,42.3550079 29.7922292,46.3398518 27.6585446,51.9186334 C25.5248601,57.2317586 29.258808,64.670134 29.258808,64.670134 C28.9920975,62.5448839 29.5255186,64.4044778 31.9259137,69.717603 C34.3263089,75.2963846 41.5274942,79.0155723 41.5274942,79.0155723 C40.460652,77.4216347 40.1939414,74.2337595 40.1939414,74.2337595 C44.4613105,80.0781973 51.9292065,80.8751661 58.0635496,79.2812285 C64.1978927,77.687291 63.6644715,74.2337595 63.6644715,74.2337595 L63.3977609,73.4367907 C66.3315772,73.1711345 68.7319723,72.1085094 70.3322358,69.1862905 C72.1992097,65.7327591 68.4652618,61.7479151 68.4652618,61.7479151 C76.1998683,60.4196338 76.7332894,56.9661024 76.4665789,54.575196 C76.1998683,51.3873208 73.266052,47.9337894 73.266052,47.9337894 C74.5996049,48.1994457 77,50.0590395 77,50.0590395 C77,50.0590395 76.4665789,47.9337894 74.5996049,45.8085393 C72.7326309,43.6832892 68.9986829,43.9489455 62.8643398,44.480258 C61.2640764,44.7459143 59.663813,44.480258 58.5969707,44.2146017 L58.5969707,44.2146017 C58.0635496,42.6206641 60.1972341,39.9641015 60.9973658,36.7762263 C61.7974975,33.8540074 61.7974975,31.7287573 61.7974975,31.4631011 C62.5976292,32.2600699 63.1310504,34.1196637 63.1310504,34.1196637 C63.1310504,34.1196637 63.6644715,30.6661323 62.3309187,26.4156321 C61.2640764,21.8994756 59.1303918,20.8368505 59.1303918,20.8368505 C60.1972341,20.8368505 60.7306553,21.1025068 60.7306553,21.1025068 C55.1297333,14.9924127 48.461969,15.5237252 44.4613105,16.8520066 L44.4613105,16.8520066 Z" fill="url(#linearGradient-3)"></path>
                        <path d="M63.9472838,74.5535714 C64.2160349,75.625 63.4097817,76.9642857 62.6035284,77.7678571 C61.7972752,78.5714286 60.7222709,79.1071429 59.6472666,79.6428571 C57.497258,80.4464286 55.0784983,80.9821429 52.9284897,81.25 C50.50973,81.5178571 48.0909703,81.25 45.9409617,80.1785714 C43.7909531,79.375 41.6409444,77.7678571 40.028438,75.625 L41.9096955,74.8214286 C42.1784466,75.625 42.4471977,76.6964286 42.7159487,77.5 C42.9846998,78.3035714 43.522202,79.375 43.7909531,79.9107143 L47.2847171,85 L42.1784466,81.5178571 C40.028438,79.9107143 38.1471804,78.5714286 35.9971718,76.6964286 C34.1159143,75.0892857 32.2346567,73.2142857 30.6221503,71.0714286 C30.0846481,70.5357143 29.8158971,70 29.547146,69.4642857 C29.2783949,69.1964286 29.2783949,68.9285714 29.0096438,68.6607143 L28.4721417,67.8571429 C27.9346395,66.7857143 27.3971374,65.4464286 27.1283863,64.375 C26.5908841,61.9642857 25.7846309,59.2857143 26.053382,56.6071429 C26.053382,53.9285714 26.8596352,51.25 28.4721417,49.1071429 C30.0846481,46.9642857 31.9659057,45.3571429 34.1159143,44.0178571 C36.2659229,42.6785714 38.6846826,41.6071429 41.1034423,41.0714286 C43.522202,40.2678571 44.3284552,40.2678571 46.7472149,40 C44.3284552,40.5357143 43.7909531,41.0714286 41.3721934,41.875 C38.9534337,42.6785714 36.8034251,44.0178571 34.9221675,45.3571429 C33.04091,46.6964286 31.1596524,48.5714286 29.8158971,50.4464286 C28.4721417,52.3214286 27.9346395,54.7321429 27.9346395,56.875 C27.9346395,59.0178571 28.7408927,61.4285714 29.547146,63.5714286 C30.0846481,64.6428571 30.3533992,65.7142857 30.8909014,67.0535714 L31.1596524,67.8571429 C31.1596524,68.125 31.4284035,68.3928571 31.4284035,68.6607143 C31.6971546,69.1964286 31.9659057,69.7321429 32.2346567,70 C33.5784121,71.875 35.4596697,73.4821429 37.3409272,75.0892857 C39.2221847,76.6964286 41.1034423,78.3035714 42.9846998,79.6428571 L41.3721934,81.25 C40.5659401,80.1785714 40.5659401,79.1071429 40.028438,78.3035714 C39.7596869,77.2321429 39.4909358,76.4285714 39.2221847,75.3571429 L38.1471804,70 L41.1034423,74.5535714 C42.1784466,76.4285714 44.0597041,77.7678571 45.9409617,78.5714286 C47.8222192,79.375 49.9722278,79.9107143 52.3909875,79.9107143 C54.5409961,79.9107143 56.9597558,79.6428571 59.1097644,79.1071429 C60.1847687,78.8392857 61.2597731,78.3035714 62.0660263,77.7678571 C63.4097817,76.9642857 63.9472838,75.8928571 63.9472838,74.5535714 L63.9472838,74.5535714 Z" fill="#E77825"></path>
                        <path d="M54,42 C55.8617021,43.3333333 57.9893617,43.8666667 60.1170213,44.1333333 C62.2446809,44.1333333 64.3723404,43.8666667 66.7659574,43.6 C67.8297872,43.6 68.893617,43.3333333 70.2234043,43.3333333 C71.287234,43.3333333 72.6170213,43.6 73.6808511,44.1333333 C74.212766,44.4 74.7446809,44.9333333 75.2765957,45.2 C75.8085106,45.7333333 76.0744681,46 76.3404255,46.5333333 C77.1382979,47.3333333 77.6702128,48.4 77.9361702,49.7333333 L79,53.4666667 L76.8723404,50.2666667 C76.3404255,49.7333333 75.8085106,49.4666667 75.2765957,48.9333333 C74.7446809,48.6666667 73.9468085,48.1333333 73.6808511,48.1333333 L74.212766,47.0666667 C75.0106383,48.1333333 75.8085106,49.2 76.3404255,50.5333333 C76.8723404,51.8666667 77.4042553,53.2 77.4042553,54.8 C77.1382979,56.4 76.3404255,57.7333333 75.2765957,58.5333333 C74.212766,59.6 72.8829787,60.1333333 71.5531915,60.6666667 C68.893617,61.7333333 66.2340426,62 63.5744681,62 C60.9148936,62 57.9893617,61.7333333 55.5957447,60.6666667 C58.2553191,61.4666667 60.9148936,61.4666667 63.5744681,61.2 C66.2340426,60.9333333 68.893617,60.4 71.287234,59.3333333 C72.3510638,58.8 73.6808511,58.2666667 74.4787234,57.2 C75.2765957,56.4 76.0744681,55.0666667 76.3404255,54 C76.3404255,52.9333333 76.0744681,51.6 75.5425532,50.5333333 C75.0106383,49.4666667 74.212766,48.4 73.4148936,47.0666667 L72.6170213,46 L74.212766,46.2666667 C74.7446809,46.2666667 75.0106383,46.5333333 75.5425532,46.8 C75.8085106,47.0666667 76.3404255,47.3333333 76.606383,47.3333333 C77.4042553,47.8666667 77.9361702,48.1333333 78.4680851,48.6666667 L77.4042553,49.2 C77.1382979,48.4 76.606383,47.3333333 76.0744681,46.5333333 C75.8085106,46 75.5425532,45.7333333 75.0106383,45.2 C74.7446809,44.9333333 74.212766,44.4 73.9468085,44.4 C72.0851064,43.6 69.9574468,43.6 67.5638298,43.6 L64.3723404,43.8666667 L60.9148936,43.8666667 C57.7234043,44.1333333 55.5957447,43.6 54,42 L54,42 Z" fill="#E77825"></path>
                        <path d="M69.1899131,62 C70.2692407,63.0434783 71.3485682,64.0869565 71.6184001,65.6521739 C71.888232,66.4347826 72.1580639,67.2173913 71.888232,68 C71.888232,68.7826087 71.3485682,69.5652174 71.0787363,70.0869565 C70.2692407,71.3913043 68.9200812,72.4347826 67.5709218,73.2173913 C65.9519305,74 64.6027711,74 62.9837798,74 L61.0949566,74 L62.444116,72.9565217 L63.5234435,71.9130435 L64.0631073,71.3913043 C64.3329392,71.1304348 64.3329392,70.8695652 64.6027711,70.8695652 L65.4122667,71.6521739 C64.3329392,72.4347826 63.2536116,72.6956522 62.1742841,72.6956522 C61.0949566,72.9565217 60.015629,72.9565217 58.9363015,72.6956522 C57.8569739,72.4347826 56.7776464,72.4347826 55.9681507,72.173913 C54.8888232,71.9130435 53.8094957,71.6521739 53,71.3913043 C54.0793275,71.6521739 55.1586551,71.6521739 55.9681507,71.9130435 C57.0474783,71.9130435 58.1268058,72.173913 58.9363015,72.173913 C60.015629,72.173913 61.0949566,72.173913 61.9044522,71.9130435 C62.7139479,71.6521739 63.7932754,71.3913043 64.3329392,70.8695652 L67.031258,68.7826087 L65.1424348,71.6521739 C64.872603,71.9130435 64.6027711,72.173913 64.6027711,72.4347826 L64.0631073,72.9565217 L62.9837798,74 L62.444116,72.9565217 C63.7932754,72.9565217 65.4122667,72.6956522 66.4915943,72.173913 C67.8407537,71.6521739 68.9200812,70.8695652 69.7295769,69.5652174 C70.2692407,69.0434783 70.5390725,68.5217391 70.5390725,67.7391304 C70.8089044,66.9565217 70.5390725,66.4347826 70.5390725,65.6521739 C70.8089044,64.3478261 69.9994088,63.0434783 69.1899131,62 L69.1899131,62 Z" fill="#E77825"></path>
                        <path d="M58.6153846,45 C58.3461538,44.4545455 58.6153846,43.9090909 58.6153846,43.3636364 C58.6153846,42.8181818 58.8846154,42.2727273 59.1538462,41.7272727 C59.4230769,40.6363636 59.9615385,39.5454545 60.2307692,38.4545455 C60.5,37.9090909 60.5,37.3636364 60.7692308,36.8181818 C60.7692308,36.5454545 61.0384615,36.2727273 61.0384615,36 L61.3076923,35.1818182 C61.3076923,34.6363636 61.5769231,34.0909091 61.5769231,33.5454545 L61.5769231,32.7272727 L61.5769231,32.1818182 L61.5769231,31.9090909 L61.5769231,31.9090909 L61.5769231,30.5454545 L62.3846154,31.3636364 C62.9230769,31.9090909 63.1923077,32.1818182 63.1923077,32.7272727 C63.4615385,33.2727273 63.7307692,33.5454545 63.7307692,34.3636364 L62.6538462,34.3636364 L62.6538462,32.4545455 L62.6538462,30.5454545 C62.6538462,29.7272727 62.3846154,29.1818182 62.3846154,28.6363636 C62.3846154,28.0909091 62.1153846,27.2727273 61.8461538,26.7272727 C61.5769231,26.1818182 61.5769231,25.6363636 61.3076923,24.8181818 L60.5,23.1818182 L59.9615385,22.3636364 L59.4230769,21.5454545 C59.4230769,21.5454545 59.1538462,21.2727273 59.1538462,21 L58.8846154,21.2727273 C58.6153846,21 58.6153846,20.7272727 58.3461538,20.4545455 C56.7307692,18.5454545 54.5769231,17.4545455 52.1538462,16.9090909 C51.0769231,16.6363636 49.7307692,16.6363636 48.3846154,16.6363636 C47.0384615,16.6363636 45.9615385,16.9090909 44.8846154,17.4545455 L45.1538462,16.0909091 C46.2307692,16.9090909 46.7692308,18 47.3076923,19.0909091 C47.8461538,20.1818182 48.3846154,21.2727273 48.6538462,22.6363636 C48.9230769,23.7272727 49.1923077,24.8181818 49.4615385,26.1818182 C49.7307692,27.2727273 50,28.3636364 50,29.7272727 L50.2692308,31.9090909 L48.6538462,30 L47.5769231,28.9090909 C47.3076923,28.6363636 47.0384615,28.6363636 46.7692308,28.3636364 C46.5,28.0909091 46.2307692,28.0909091 45.9615385,27.8181818 L46.7692308,27 C47.0384615,27.5454545 47.0384615,27.8181818 47.3076923,28.3636364 C47.3076923,28.9090909 47.5769231,29.1818182 47.5769231,29.4545455 C47.5769231,30.2727273 47.8461538,31.0909091 47.8461538,31.9090909 L47.8461538,34.3636364 L47.8461538,35.4545455 L47.8461538,36.5454545 C47.8461538,37.0909091 47.8461538,37.3636364 47.5769231,37.6363636 C47.5769231,38.1818182 47.3076923,38.4545455 47.3076923,38.7272727 C47.3076923,39.2727273 47.0384615,39.5454545 46.7692308,39.8181818 C46.5,40.0909091 46.5,40.6363636 46.2307692,40.9090909 C45.6923077,41.7272727 45.4230769,42.2727273 44.8846154,42.8181818 L44.0769231,43.6363636 L43.2692308,44.4545455 C43.5384615,44.1818182 43.8076923,43.9090909 44.0769231,43.6363636 C44.3461538,43.3636364 44.6153846,43.0909091 44.8846154,42.8181818 C45.4230769,42.2727273 45.6923077,41.4545455 46.2307692,40.6363636 C46.5,40.3636364 46.5,39.8181818 46.7692308,39.5454545 C47.0384615,39.2727273 47.0384615,38.7272727 47.0384615,38.4545455 C47.0384615,38.1818182 47.3076923,37.6363636 47.3076923,37.3636364 L47.3076923,36.2727273 L47.3076923,35.1818182 L47.3076923,34.0909091 C47.3076923,33.2727273 47.3076923,32.4545455 47.0384615,31.6363636 C46.7692308,30.8181818 46.7692308,30 46.7692308,29.4545455 C46.7692308,28.9090909 46.5,28.6363636 46.5,28.3636364 C46.5,28.0909091 46.2307692,27.5454545 46.2307692,27.5454545 L45.4230769,25.9090909 L47.0384615,26.7272727 C47.3076923,27 47.5769231,27 47.8461538,27.2727273 C48.1153846,27.5454545 48.3846154,27.5454545 48.6538462,27.8181818 C49.1923077,28.0909091 49.7307692,28.6363636 50.2692308,29.1818182 L49.1923077,29.7272727 C49.1923077,29.1818182 48.9230769,28.6363636 48.9230769,28.0909091 C48.9230769,27.5454545 48.6538462,27 48.6538462,26.4545455 L47.8461538,23.1818182 C47.5769231,22.0909091 47.0384615,21 46.5,20.1818182 C45.9615385,19.3636364 45.4230769,18.2727273 44.6153846,17.7272727 L43,16.3636364 L44.3461538,15.8181818 C45.6923077,15.2727273 47.0384615,15 48.3846154,15 C49.7307692,15 51.0769231,15 52.4230769,15.2727273 C53.7692308,15.5454545 55.1153846,16.0909091 56.1923077,16.6363636 C57.5384615,17.4545455 58.6153846,18.2727273 59.4230769,19.3636364 C59.6923077,19.6363636 59.9615385,19.9090909 60.2307692,20.1818182 L60.5,20.7272727 C60.5,21 60.7692308,21 60.7692308,21.2727273 L61.3076923,22.0909091 L61.8461538,22.9090909 C62.1153846,23.4545455 62.3846154,24.2727273 62.6538462,24.8181818 C62.9230769,25.6363636 63.1923077,26.1818182 63.1923077,26.7272727 C63.4615385,27.5454545 63.4615385,28.0909091 63.7307692,28.9090909 C63.7307692,29.7272727 64,30.2727273 64,31.0909091 L64,33.2727273 C64,34.0909091 64,34.6363636 63.7307692,35.4545455 L63.4615385,38.1818182 L62.6538462,35.7272727 C62.3846154,35.1818182 62.3846154,34.9090909 62.1153846,34.3636364 C61.8461538,33.8181818 61.5769231,33.5454545 61.3076923,33.2727273 L62.1153846,32.7272727 L62.1153846,33 L62.1153846,33.2727273 L62.1153846,33.8181818 L62.1153846,34.6363636 C62.1153846,35.1818182 61.8461538,35.7272727 61.8461538,36.2727273 C61.5769231,36.8181818 61.5769231,37.3636364 61.3076923,37.9090909 C61.0384615,38.4545455 61.0384615,39 60.7692308,39.5454545 C60.2307692,40.6363636 59.9615385,41.7272727 59.4230769,42.5454545 C59.1538462,43.0909091 58.8846154,43.6363636 58.8846154,44.1818182 C58.6153846,43.9090909 58.3461538,44.7272727 58.6153846,45 L58.6153846,45 Z" fill="#E77825"></path>
                    </g>
                </g>
                <path d="M235,78 L290,78" id="Shape" stroke="#CCCCCC" stroke-width="1.75" sketch:type="MSShapeGroup"></path>
                <path d="M156,147 L270,147" id="Shape" stroke="#CCCCCC" stroke-width="1.75" sketch:type="MSShapeGroup"></path>
                <path d="M90,196 L151,196" id="Shape" stroke="#CCCCCC" stroke-width="1.75" sketch:type="MSShapeGroup"></path>
                <path d="M277,196 L338,196" id="Shape" stroke="#CCCCCC" stroke-width="1.75" sketch:type="MSShapeGroup"></path>
                <path d="M183,160 L244,160" id="Shape" stroke="#CCCCCC" stroke-width="1.75" sketch:type="MSShapeGroup"></path>
            </g>
        </g>
    </g>
</svg>