<?xml version="1.0" encoding="UTF-8" standalone="no"?>
<svg width="640px" height="320px" viewBox="0 0 640 320" version="1.1" xmlns="http://www.w3.org/2000/svg" xmlns:xlink="http://www.w3.org/1999/xlink" xmlns:sketch="http://www.bohemiancoding.com/sketch/ns">
    <title>codetv</title>
    <description>Created with Sketch (http://www.bohemiancoding.com/sketch)</description>
    <defs></defs>
    <g id="Page-1" stroke="none" stroke-width="1" fill="none" fill-rule="evenodd" sketch:type="MSPage">
        <rect id="Rectangle-1" fill="#278998" sketch:type="MSShapeGroup" x="0" y="0" width="640" height="320"></rect>
        <g id="code-tv" sketch:type="MSLayerGroup" transform="translate(89.000000, 72.000000)">
            <path d="M131.9,55.6 L103.1,52 L125.4,26 L119.5,20.9 L93.9,50.8 L72.2,48.1 L57.4,5 L50,7.5 L63.5,46.9 L57.5,46.1 C56.5,46 55.4,45.9 54.4,45.9 C49.6,45.9 45.2,47.3 41.6,49.7 L17,63.7 C7.1,69.4 -0.1,81.8 -0.1,93.3 L1.5,132.8 C1.5,144.6 9.7,157.1 20.6,161.7 L42.7,170.8 C44.3,171.7 45.9,172.4 47.7,172.9 C47.8,173 48,173 48.1,173 C49.9,173.5 51.8,173.7 53.8,173.7 C55.3,173.7 56.8,173.6 58.3,173.3 L132.2,159.2 C144.8,156.8 154.7,144.9 154.7,132.1 L155.5,82.1 C155.2,68.8 145,57.2 131.9,55.6 L131.9,55.6 Z" id="Shape" fill="#1E6B76" sketch:type="MSShapeGroup"></path>
            <g id="Group" transform="translate(174.000000, 79.000000)" fill="#FFFFFF" sketch:type="MSShapeGroup">
                <path d="M21.7,59.8 C14.6,59.8 9.3,57.9 5.6,54.1 C2,50.3 0.1,44.8 0.1,37.7 C0.1,30.5 2.1,25 6,21 C9.9,17.1 15.5,15.1 22.8,15.1 C27.8,15.1 32.5,16.2 37,18.4 L32.6,29.4 C30.8,28.6 29.1,28 27.6,27.5 C26.1,27 24.5,26.8 22.8,26.8 C20.4,26.8 18.5,27.7 17.2,29.6 C15.9,31.5 15.2,34.1 15.2,37.6 C15.2,44.5 17.8,48 22.9,48 C27.3,48 31.5,46.7 35.5,44.2 L35.5,56 C31.7,58.6 27.1,59.8 21.7,59.8 L21.7,59.8 Z M83.8,37.4 C83.8,44.5 81.9,50 78.1,53.9 C74.3,57.9 69,59.8 62.1,59.8 C55.5,59.8 50.3,57.8 46.4,53.7 C42.5,49.7 40.6,44.2 40.6,37.3 C40.6,30.3 42.5,24.8 46.3,20.9 C50.1,17 55.4,15 62.3,15 C66.5,15 70.3,15.9 73.6,17.7 C76.9,19.5 79.4,22.1 81.1,25.5 C83,28.9 83.8,32.9 83.8,37.4 L83.8,37.4 Z M55.8,37.4 C55.8,41.1 56.3,43.9 57.3,45.9 C58.3,47.8 60,48.8 62.3,48.8 C64.6,48.8 66.2,47.8 67.2,45.9 C68.2,44 68.6,41.1 68.6,37.4 C68.6,33.7 68.1,30.9 67.2,29 C66.2,27.1 64.6,26.2 62.2,26.2 C59.9,26.2 58.3,27.1 57.3,29 C56.3,30.9 55.8,33.7 55.8,37.4 L55.8,37.4 Z M104.2,59.8 C101.1,59.8 98.4,58.9 96.1,57.2 C93.8,55.4 92,52.9 90.8,49.5 C89.5,46.1 88.9,42.1 88.9,37.6 C88.9,30.6 90.3,25.1 93.1,21.1 C95.9,17.1 99.8,15.1 104.7,15.1 C107.1,15.1 109.2,15.6 111.1,16.5 C112.9,17.5 114.6,19.1 116.1,21.4 L116.4,21.4 C115.9,18 115.7,14.6 115.7,11.3 L115.7,-0.3 L130.7,-0.3 L130.7,59 L119.4,59 L116.2,53.5 L115.6,53.5 C113.1,57.8 109.3,59.8 104.2,59.8 L104.2,59.8 Z M110.3,48.1 C112.7,48.1 114.4,47.4 115.4,45.8 C116.4,44.3 116.9,42 117,38.9 L117,37.7 C117,33.9 116.5,31.2 115.4,29.6 C114.3,28 112.6,27.2 110.3,27.2 C108.3,27.2 106.8,28.1 105.7,30 C104.6,31.8 104.1,34.5 104.1,37.9 C104.1,41.3 104.6,43.8 105.7,45.6 C106.7,47.2 108.3,48.1 110.3,48.1 L110.3,48.1 Z M160.3,59.8 C153.1,59.8 147.5,57.9 143.5,54.1 C139.5,50.3 137.5,44.8 137.5,37.8 C137.5,30.5 139.3,24.9 143,21 C146.7,17.1 152,15.1 158.8,15.1 C165.3,15.1 170.3,16.8 173.9,20.2 C177.4,23.6 179.2,28.5 179.2,34.9 L179.2,41.5 L152.5,41.5 C152.6,43.9 153.5,45.8 155.2,47.2 C156.9,48.6 159.1,49.3 162,49.3 C164.6,49.3 167,49.1 169.2,48.6 C171.4,48.1 173.8,47.3 176.4,46.1 L176.4,56.8 C174.1,58 171.6,58.8 169.2,59.3 C166.7,59.6 163.8,59.8 160.3,59.8 L160.3,59.8 Z M159.4,25.3 C157.6,25.3 156.2,25.9 155,27 C153.8,28.1 153.1,29.8 152.9,32.2 L165.7,32.2 C165.6,30.1 165.1,28.4 163.9,27.2 C162.9,25.9 161.3,25.3 159.4,25.3 L159.4,25.3 Z M224,59.1 L208.9,59.1 L208.9,15.7 L195.3,15.7 L195.3,3.4 L239.9,3.4 L239.9,15.7 L224,15.7 L224,59.1 L224,59.1 Z M271.4,3.3 L288.3,3.3 L270,59.1 L252.3,59.1 L234,3.3 L251,3.3 L258.6,31.6 C260.2,37.9 261,42.3 261.2,44.7 C261.4,42.9 261.7,40.7 262.3,38 C262.8,35.3 263.3,33.2 263.7,31.7 L271.4,3.3 L271.4,3.3 Z" id="Shape"></path>
            </g>
            <path d="M129.3,73.5 L66.5,65.7 C-39,-82 53.2,64 53.3,80.6 L54.7,142.2 L54.7,142.9 C54.8,145.7 56.2,155.8 70.9,153 L128.7,141.9 C134.6,140.8 139.3,135 139.3,129 L140,85.7 C140,79.7 135.2,74.2 129.3,73.5 L129.3,73.5 Z" id="Shape" fill="#4CADC1" sketch:type="MSShapeGroup"></path>
            <circle id="Oval" fill="#1E6B76" sketch:type="MSShapeGroup" cx="53.9" cy="5.9" r="3.9"></circle>
            <path d="M90,89.1 C86.2,86.9 83.1,88.8 83.3,93.2 L84.2,126.1 C84.3,130.5 87.4,132.1 91.1,129.7 L117.2,112.6 C120.9,110.2 120.8,106.4 116.9,104.3 L90,89.1 L90,89.1 Z" id="Shape" fill="#FFFFFF" sketch:type="MSShapeGroup"></path>
            <circle id="Oval" fill="#1E6B76" sketch:type="MSShapeGroup" cx="122.9" cy="23.9" r="3.9"></circle>
        </g>
    </g>
</svg>