<?xml version="1.0" encoding="UTF-8" standalone="no"?>
<svg width="1380px" height="320px" viewBox="0 0 1380 320" version="1.1" xmlns="http://www.w3.org/2000/svg" xmlns:xlink="http://www.w3.org/1999/xlink" xmlns:sketch="http://www.bohemiancoding.com/sketch/ns">
    <title>codetv-wide</title>
    <description>Created with Sketch (http://www.bohemiancoding.com/sketch)</description>
    <defs></defs>
    <g id="Page-1" stroke="none" stroke-width="1" fill="none" fill-rule="evenodd" sketch:type="MSPage">
        <rect id="Rectangle-1" fill="#278998" sketch:type="MSShapeGroup" x="0" y="0" width="1380" height="320"></rect>
        <g id="code-tv-copy" sketch:type="MSLayerGroup" transform="translate(48.000000, -86.000000)">
            <path d="M366.478149,153.072318 L286.51928,143.106698 L348.431877,71.1327801 L332.051414,57.0148192 L260.976864,139.784825 L200.730077,132.310611 L159.640103,13 L139.095116,19.9205691 L176.575835,128.988737 L159.917738,126.774155 C157.141388,126.497333 154.087404,126.22051 151.311054,126.22051 C137.984576,126.22051 125.768638,130.096028 115.773779,136.739775 L47.4755784,175.494961 C19.9897172,191.273859 0,225.599881 0,257.434499 L4.44215938,366.77949 C4.44215938,399.444576 27.2082262,434.047421 57.470437,446.781269 L118.827763,471.97214 C123.269923,474.463545 127.712082,476.401304 132.709512,477.785418 C132.987147,478.062241 133.542416,478.062241 133.820051,478.062241 C138.817481,479.446354 144.092545,480 149.645244,480 C153.809769,480 157.974293,479.723177 162.138817,478.892709 L367.311054,439.860699 C402.293059,433.216953 429.77892,400.275044 429.77892,364.841731 L432,226.43035 C431.167095,189.612922 402.848329,157.501482 366.478149,153.072318 L366.478149,153.072318 Z" id="Shape" fill="#1E6B76" sketch:type="MSShapeGroup"></path>
            <g id="Group" transform="translate(483.000000, 218.000000)" fill="#FFFFFF" sketch:type="MSShapeGroup">
                <path d="M59.7073171,166 C40.0813008,166 25.4308943,160.729306 15.203252,150.187919 C5.25203252,139.646532 0,124.389262 0,104.693512 C0,84.7203579 5.52845528,69.4630872 16.3089431,58.3668904 C27.0894309,47.5480984 42.5691057,42 62.7479675,42 C76.5691057,42 89.5609756,45.0514541 102,51.1543624 L89.8373984,81.6689038 C84.8617886,79.4496644 80.1626016,77.7852349 76.0162602,76.3982103 C71.8699187,75.0111857 67.4471545,74.4563758 62.7479675,74.4563758 C56.1138211,74.4563758 50.8617886,76.9530201 47.2682927,82.2237136 C43.6747967,87.4944072 41.7398374,94.7069351 41.7398374,104.416107 C41.7398374,123.557047 48.9268293,133.266219 63.0243902,133.266219 C75.1869919,133.266219 86.796748,129.659955 97.8536585,122.724832 L97.8536585,155.458613 C87.3495935,162.671141 74.6341463,166 59.7073171,166 L59.7073171,166 Z M232,103 C232,122.651786 226.722222,137.875 216.166667,148.669643 C205.611111,159.741071 190.888889,165 171.722222,165 C153.388889,165 138.944444,159.464286 128.111111,148.116071 C117.277778,137.044643 112,121.821429 112,102.723214 C112,83.3482143 117.277778,68.125 127.833333,57.3303571 C138.388889,46.5357143 153.111111,41 172.277778,41 C183.944444,41 194.5,43.4910714 203.666667,48.4732143 C212.833333,53.4553571 219.777778,60.6517857 224.5,70.0625 C229.777778,79.4732143 232,90.5446429 232,103 L232,103 Z M155,103.221239 C155,113.535398 156.40625,121.340708 159.21875,126.915929 C162.03125,132.212389 166.8125,135 173.28125,135 C179.75,135 184.25,132.212389 187.0625,126.915929 C189.875,121.619469 191,113.535398 191,103.221239 C191,92.9070796 189.59375,85.1017699 187.0625,79.8053097 C184.25,74.5088496 179.75,72 173,72 C166.53125,72 162.03125,74.5088496 159.21875,79.8053097 C156.40625,85.1017699 155,92.9070796 155,103.221239 L155,103.221239 Z M288.45933,165 C279.856459,165 272.363636,162.514143 265.980861,157.818636 C259.598086,152.846922 254.602871,145.941764 251.272727,136.550749 C247.665072,127.159734 246,116.111481 246,103.682196 C246,84.3477537 249.885167,69.156406 257.655502,58.1081531 C265.425837,47.0599002 276.248804,41.5357737 289.84689,41.5357737 C296.507177,41.5357737 302.334928,42.9168053 307.607656,45.4026622 C312.602871,48.1647255 317.320574,52.5840266 321.483254,58.936772 L322.315789,58.936772 C320.92823,49.5457571 320.373206,40.1547421 320.373206,31.0399334 L320.373206,-1 L362,-1 L362,162.790349 L330.641148,162.790349 L321.760766,147.599002 L320.095694,147.599002 C313.157895,159.475874 302.61244,165 288.45933,165 L288.45933,165 Z M306.302326,133 C313,133 317.744186,131.057416 320.534884,126.617225 C323.325581,122.454545 324.72093,116.07177 325,107.4689 L325,104.138756 C325,93.5933014 323.604651,86.1004785 320.534884,81.6602871 C317.465116,77.2200957 312.72093,75 306.302326,75 C300.72093,75 296.534884,77.4976077 293.465116,82.7703349 C290.395349,87.7655502 289,95.2583732 289,104.69378 C289,114.129187 290.395349,121.066986 293.465116,126.062201 C296.255814,130.502392 300.72093,133 306.302326,133 L306.302326,133 Z M444.42446,166 C424.395683,166 408.817746,160.729306 397.690647,150.187919 C386.563549,139.646532 381,124.389262 381,104.970917 C381,84.7203579 386.007194,69.1856823 396.29976,58.3668904 C406.592326,47.5480984 421.335731,42 440.251799,42 C458.333333,42 472.242206,46.7158837 482.256595,56.147651 C491.992806,65.5794183 497,79.1722595 497,96.9261745 L497,115.234899 L422.726619,115.234899 C423.004796,121.892617 425.508393,127.163311 430.23741,131.04698 C434.966427,134.930649 441.086331,136.872483 449.153477,136.872483 C456.386091,136.872483 463.06235,136.317673 469.182254,134.930649 C475.302158,133.543624 481.978417,131.324385 489.211031,127.995526 L489.211031,157.677852 C482.81295,161.006711 475.858513,163.225951 469.182254,164.612975 C462.227818,165.44519 454.160671,166 444.42446,166 L444.42446,166 Z M442.28125,70 C437.21875,70 433.28125,71.6521739 429.90625,74.6811594 C426.53125,77.7101449 424.5625,82.3913043 424,89 L460,89 C459.71875,83.2173913 458.3125,78.5362319 454.9375,75.2318841 C452.125,71.6521739 447.625,70 442.28125,70 L442.28125,70 Z M621.793722,163 L579.811659,163 L579.811659,43.0071813 L542,43.0071813 L542,9 L666,9 L666,43.0071813 L621.793722,43.0071813 L621.793722,163 L621.793722,163 Z M753.003683,9 L800,9 L749.110497,163 L699.889503,163 L649,9 L696.274401,9 L717.40884,87.1039427 C721.858195,104.491039 724.082873,116.634409 724.639042,123.258065 C725.195212,118.290323 726.029466,112.218638 727.697974,104.767025 C729.088398,97.3154122 730.478821,91.5197133 731.59116,87.3799283 L753.003683,9 L753.003683,9 Z" id="Shape"></path>
            </g>
            <path d="M358.339872,203.197236 L184.259866,181.56758 C-108.183455,-228.009356 147.392604,176.853425 147.669802,222.885768 L151.550566,393.704585 L151.550566,395.645708 C151.827764,403.4102 155.708528,431.417831 196.456555,423.653339 L356.676687,392.872676 C373.031337,389.82234 386.059618,373.73875 386.059618,357.100553 L388,237.028235 C388,220.390039 374.694522,205.138359 358.339872,203.197236 L358.339872,203.197236 Z" id="Shape" fill="#4CADC1" sketch:type="MSShapeGroup"></path>
            <path d="M249.691983,246.543518 C239.105041,240.454451 230.468325,245.71319 231.025533,257.891325 L233.532967,348.950556 C233.81157,361.12869 242.448286,365.557102 252.756624,358.914484 L325.4722,311.585826 C335.780539,304.943207 335.501935,294.425727 324.636389,288.613436 L249.691983,246.543518 L249.691983,246.543518 Z" id="Shape" fill="#FFFFFF" sketch:type="MSShapeGroup"></path>
        </g>
    </g>
</svg>