<?xml version="1.0" encoding="UTF-8" standalone="no"?>
<svg width="1380px" height="320px" viewBox="0 0 1380 320" version="1.1" xmlns="http://www.w3.org/2000/svg" xmlns:xlink="http://www.w3.org/1999/xlink" xmlns:sketch="http://www.bohemiancoding.com/sketch/ns">
    <title>five-ways-wide</title>
    <description>Created with Sketch (http://www.bohemiancoding.com/sketch)</description>
    <defs>
        <path id="path-1" d="M2.07226658e-14,0 L208,0 L208,156 L0,156 L2.07226658e-14,0 Z"></path>
    </defs>
    <g id="Page-1" stroke="none" stroke-width="1" fill="none" fill-rule="evenodd" sketch:type="MSPage">
        <rect id="Rectangle-171-copy-5" fill="#AFEF13" sketch:type="MSShapeGroup" x="0" y="0" width="276" height="320"></rect>
        <rect id="Rectangle-171-copy-6" fill="#50B9F4" sketch:type="MSShapeGroup" x="276" y="0" width="276" height="320"></rect>
        <rect id="Rectangle-171-copy-7" fill="#FF7FCA" sketch:type="MSShapeGroup" x="552" y="0" width="276" height="320"></rect>
        <rect id="Rectangle-171-copy-8" fill="#FF3C22" sketch:type="MSShapeGroup" x="828" y="0" width="276" height="320"></rect>
        <rect id="Rectangle-171-copy-9" fill="#FFAD00" sketch:type="MSShapeGroup" x="1104" y="0" width="276" height="320"></rect>
        <g id="css3" sketch:type="MSLayerGroup" transform="translate(61.000000, 49.000000)">
            <g id="Page-1" sketch:type="MSShapeGroup">
                <g id="Layer_1">
                    <path d="M122.477932,8.23033212 L109.406112,8.23033212 L123,22.979388 L123,30 L95,30 L95,21.7802562 L108.591241,21.7802562 L95,7.03067095 L95,0 L122.477932,0 L122.477932,8.23033212 L122.477932,8.23033212 Z M89.4784615,8.23033212 L76.4066412,8.23033212 L90,22.979388 L90,30 L62,30 L62,21.7802562 L75.5928293,21.7802562 L62,7.03067095 L62,0 L89.4784615,0 L89.4784615,8.23033212 L89.4784615,8.23033212 Z M57,8.56439488 L42.9709483,8.56439488 L42.9709483,21.4361345 L57,21.4361345 L57,30 L33,30 L33,0 L57,0 L57,8.56439488 L57,8.56439488 Z" id="Shape" fill="#FFFFFF"></path>
                    <path d="M14.1975996,203.306873 L0,44 L156,44 L141.789289,203.281164 L77.9045487,221 L14.1975996,203.306873 L14.1975996,203.306873 Z" id="Shape" fill="#89BC0E"></path>
                    <path d="M129.810501,193.628026 L142,57 L78,57 L78,208 L129.810501,193.628026 Z" id="Shape" fill="#7BA80C"></path>
                    <g id="Group" transform="translate(29.000000, 75.000000)">
                        <path d="M49,39.4903425 L74.8578313,39.4903425 L76.6436091,19.5112293 L49,19.5112293 L49,0 L49.0676948,0 L98,0 L97.5313842,5.23474562 L92.7287282,59 L49,59 L49,39.4903425 L49,39.4903425 Z" id="Shape" fill="#FFFFFF"></path>
                        <path d="M49,90.5429102 L48.9141748,90.5671685 L27.077719,84.6613387 L25.6813484,69 L15.0711434,69 L6,69 L8.74640609,99.8327662 L48.909436,111 L49,110.974687 L49,90.5429102 L49,90.5429102 Z" id="Shape" fill="#EBEBEB"></path>
                        <path d="M73.2837233,58 L70.9174113,84.4782313 L49,90.4301256 L49,111 L89.2858822,99.7662639 L89.5814073,96.4266194 L93,58 L73.2837233,58 L73.2837233,58 Z" id="Shape" fill="#FFFFFF"></path>
                        <path d="M49,0 L49,11.8003169 L49,18.95306 L49,19 L1.81384205,19 L1.751332,19 L1.35893698,14.7294772 L0.467512141,5.09758586 L0,0 L49,0 L49,0 Z" id="Shape" fill="#EBEBEB"></path>
                        <path d="M49,40 L49,51.801144 L49,58.9530587 L49,59 L27.7935232,59 L27.7317134,59 L27.3442334,54.7298727 L26.462275,45.0977228 L26,40 L49,40 L49,40 Z" id="Shape" fill="#EBEBEB"></path>
                    </g>
                </g>
            </g>
        </g>
        <g id="css3-copy" sketch:type="MSLayerGroup" transform="translate(888.000000, 49.000000)">
            <g id="Page-1" sketch:type="MSShapeGroup">
                <g id="Layer_1">
                    <path d="M122.477932,8.23033212 L109.406112,8.23033212 L123,22.979388 L123,30 L95,30 L95,21.7802562 L108.591241,21.7802562 L95,7.03067095 L95,0 L122.477932,0 L122.477932,8.23033212 L122.477932,8.23033212 Z M89.4784615,8.23033212 L76.4066412,8.23033212 L90,22.979388 L90,30 L62,30 L62,21.7802562 L75.5928293,21.7802562 L62,7.03067095 L62,0 L89.4784615,0 L89.4784615,8.23033212 L89.4784615,8.23033212 Z M57,8.56439488 L42.9709483,8.56439488 L42.9709483,21.4361345 L57,21.4361345 L57,30 L33,30 L33,0 L57,0 L57,8.56439488 L57,8.56439488 Z" id="Shape" fill="#FFFFFF"></path>
                    <path d="M0,44 L156,44 L141.789289,203.281164 L77.9045487,221 L14.1975996,203.306873 L0,44 Z" id="Shape" fill="#C92F1A"></path>
                    <path d="M129.810501,193.628026 L142,57 L78,57 L78,208 L129.810501,193.628026 Z" id="Shape" fill="#B42A17"></path>
                    <g id="Group" transform="translate(29.000000, 75.000000)">
                        <path d="M49,39.4903425 L74.8578313,39.4903425 L76.6436091,19.5112293 L49,19.5112293 L49,0 L49.0676948,0 L98,0 L97.5313842,5.23474562 L92.7287282,59 L49,59 L49,39.4903425 L49,39.4903425 Z" id="Shape" fill="#FFFFFF"></path>
                        <path d="M49,90.5429102 L48.9141748,90.5671685 L27.077719,84.6613387 L25.6813484,69 L15.0711434,69 L6,69 L8.74640609,99.8327662 L48.909436,111 L49,110.974687 L49,90.5429102 L49,90.5429102 Z" id="Shape" fill="#EBEBEB"></path>
                        <path d="M73.2837233,58 L70.9174113,84.4782313 L49,90.4301256 L49,111 L89.2858822,99.7662639 L89.5814073,96.4266194 L93,58 L73.2837233,58 L73.2837233,58 Z" id="Shape" fill="#FFFFFF"></path>
                        <path d="M49,0 L49,11.8003169 L49,18.95306 L49,19 L1.81384205,19 L1.751332,19 L1.35893698,14.7294772 L0.467512141,5.09758586 L0,0 L49,0 L49,0 Z" id="Shape" fill="#EBEBEB"></path>
                        <path d="M49,40 L49,51.801144 L49,58.9530587 L49,59 L27.7935232,59 L27.7317134,59 L27.3442334,54.7298727 L26.462275,45.0977228 L26,40 L49,40 L49,40 Z" id="Shape" fill="#EBEBEB"></path>
                    </g>
                </g>
            </g>
        </g>
        <g id="Sass-Logo-(Black)" sketch:type="MSLayerGroup" transform="translate(322.000000, 81.000000)">
            <mask id="mask-2" sketch:name="Clip 2" fill="white">
                <use xlink:href="#path-1"></use>
            </mask>
            <g id="Clip-2"></g>
            <path d="M147.364671,118 C146.687844,117.520208 146.800389,115.969514 149.026361,111.139787 C149.900238,109.243503 151.894111,106.050966 155.360412,103 C155.761913,104.254751 156.006863,105.457916 155.999853,106.578078 C155.955069,114.050733 150.601988,116.84144 147.364671,118 L147.364671,118 Z M119.084446,123.414408 C118.223497,123.861234 117.434232,124.142012 117.067313,123.92538 C116.798313,123.76593 117.422408,123.177616 117.422408,123.177616 C117.422408,123.177616 121.812507,118.49309 123.541425,116.359761 C124.54722,115.119352 125.713381,113.646915 126.984111,112 C126.994457,112.164582 127,112.327697 127,112.488979 C126.987067,118.101613 121.521706,121.89102 119.084446,123.414408 L119.084446,123.414408 Z M83.5246775,106.6985 C81.4257812,111.747781 77.0328402,124.665483 74.3591915,123.973228 C72.0640011,123.378951 70.6662644,113.559251 73.9009172,103.895187 C75.5289367,99.0305578 79.0068567,93.2177992 81.0499963,90.9616575 C84.3392601,87.3311799 87.9607727,86.1437568 88.8406594,87.6156942 C89.9622857,89.4912274 84.8406885,103.53342 83.5246775,106.6985 L83.5246775,106.6985 Z M39.818017,136.370908 C33.8856679,142.893415 25.5976724,145.358442 22.043526,143.282152 C18.2059202,141.03953 19.7258497,131.437065 27.0059474,124.515591 C31.4431791,120.297463 37.1713923,116.412374 40.971404,114.019336 C41.8360684,113.494959 43.106749,112.724685 44.6507387,111.792249 C44.9067545,111.645241 45.0511159,111.563781 45.0511159,111.563781 L45.0454768,111.55393 C45.343598,111.374339 45.6488621,111.189821 45.9642766,111 C48.613157,120.851772 46.044728,129.525211 39.818017,136.370908 L39.818017,136.370908 Z M179.006815,89.6617091 C171.737062,89.7000827 165.440532,91.4462702 160.162414,94.0492141 C158.231914,90.1943799 156.27825,86.803068 155.950172,84.2814305 C155.567034,81.3376836 155.12314,79.5816178 155.58564,76.0748053 C156.048519,72.5679928 158.076228,67.6022247 158.04661,67.230267 C158.016992,66.8583093 157.591705,65.0718486 153.398828,65.0414537 C149.205572,65.0114387 145.61873,65.8484385 145.19686,66.9563329 C144.774611,68.0642273 143.967324,70.5573696 143.464954,73.1568941 C142.730574,76.9611968 135.09325,90.5287239 130.756839,97.6266948 C129.338582,94.8565789 128.132589,92.4139681 127.881214,90.4823717 C127.498456,87.5386248 127.054182,85.782559 127.516682,82.2753665 C127.979562,78.768934 130.007271,73.802406 129.977653,73.4304483 C129.948034,73.0584906 129.523127,71.2724098 125.329871,71.2420149 C121.136614,71.2119999 117.549772,72.0489997 117.127903,73.1568941 C116.705653,74.2647885 116.254925,76.8532949 115.395996,79.3574554 C114.537068,81.8619958 104.384854,104.494424 101.726049,110.360642 C100.371206,113.349601 99.1921728,115.750799 98.359825,117.390984 C98.3575466,117.386804 98.3545089,117.381865 98.3545089,117.381865 C98.3545089,117.381865 98.3032466,117.490907 98.2147716,117.675176 C97.5024155,119.071062 97.0782674,119.843473 97.0782674,119.843473 C97.0782674,119.843473 97.0828241,119.854111 97.0907982,119.872348 C96.5257738,120.897416 95.9201192,121.849537 95.6201398,121.849537 C95.4105339,121.849537 94.9909425,119.120834 95.7116525,115.375421 C97.2221816,107.524417 100.851173,95.2805878 100.815099,94.8588585 C100.796113,94.6426747 101.489483,92.5093321 98.4452621,91.393839 C95.4860984,90.3102605 94.4323733,92.1176177 94.1623918,92.1233168 C93.9007643,92.1290158 93.7063472,92.7619898 93.7063472,92.7619898 C93.7063472,92.7619898 97.0030827,78.9930964 87.4181717,78.9930964 C81.4257986,78.9930964 73.1224451,85.5519376 69.0320932,91.4971817 C66.4507516,92.9059856 60.9269539,95.9230602 55.0663439,99.1449205 C52.8153594,100.381993 50.5184286,101.646801 48.3403504,102.8474 C48.1922593,102.683268 48.0445479,102.518755 47.8922799,102.356143 C36.2701671,89.949321 14.7851876,81.1739311 15.6965174,64.4943453 C16.0280136,58.4305612 18.1347043,42.4641159 56.9801365,23.0964805 C88.8007349,7.23109836 114.274681,11.596947 118.677163,21.272786 C124.966098,35.0960103 105.062656,60.7880662 72.0166983,64.4943453 C59.4259178,65.9065687 52.7963733,61.0243866 51.1472461,59.2056313 C49.4115426,57.291512 49.1525731,57.2052664 48.5043897,57.5643063 C47.4487661,58.1497882 48.117834,59.8397451 48.5043897,60.8469563 C49.491284,63.4164659 53.5398665,67.9726626 60.44281,70.2389829 C66.5153041,72.2328889 81.2978327,73.3282454 99.174326,66.4092245 C119.197001,58.6600427 134.831623,37.103214 130.23928,19.0843526 C125.569095,0.758122752 95.2001686,-5.26652797 66.4579663,4.95072039 C49.3519265,11.0312217 30.8340849,20.5748429 17.5195567,33.0356155 C1.68823938,47.8519933 -0.836144133,60.747413 0.203910987,66.1356704 C3.90011272,85.281043 30.2736171,97.7486544 40.8347901,106.988706 C40.3134336,107.276318 39.824733,107.546453 39.38008,107.791892 C34.0852539,110.412693 13.9813188,120.939589 8.95267695,132.062226 C3.24889164,144.678772 9.86096897,153.730756 14.2383897,154.949592 C27.801635,158.725779 41.7195395,151.933657 49.1992787,140.770747 C56.6774991,129.610497 55.7642707,115.078691 52.3319749,108.445382 C52.2894461,108.362936 52.2423608,108.28239 52.1986929,108.200703 C53.5656876,107.391059 54.9600221,106.567737 56.3418259,105.755813 C59.0367041,104.172618 61.6818388,102.695426 63.9776304,101.445435 C62.6934148,104.967065 61.7524668,109.188158 61.2630068,115.284237 C60.6881096,122.446037 63.6214523,131.703186 67.4600493,135.345256 C69.1501864,136.948587 71.183591,136.986201 72.4723632,136.986201 C76.9390183,136.986201 78.9773593,133.268144 81.2211291,128.870761 C83.9737248,123.477564 86.4157089,117.199116 86.4157089,117.199116 C86.4157089,117.199116 83.3506031,134.159475 91.7018014,134.159475 C94.7445037,134.159475 97.8054327,130.211556 99.1686301,128.198653 C99.1724274,128.22069 99.174326,128.232468 99.174326,128.232468 C99.174326,128.232468 99.2536876,128.10139 99.4086137,127.838474 C99.7245413,127.355195 99.9033898,127.047446 99.9033898,127.047446 C99.9033898,127.047446 99.9094653,127.015531 99.9193381,126.960061 C101.142419,124.835077 103.855144,119.990508 107.923472,112.001587 C113.179566,101.679856 118.221119,88.749482 118.221119,88.749482 C118.221119,88.749482 118.690074,91.9109323 120.226044,97.1384766 C121.129779,100.214441 123.049648,103.614492 124.564354,106.875105 C123.34507,108.567722 122.595502,109.539979 122.595502,109.539979 C122.595502,109.539979 122.602716,109.557836 122.616006,109.590511 C121.641643,110.884574 120.549186,112.28122 119.406227,113.642912 C115.257778,118.586643 110.316472,124.232118 109.654619,125.861665 C108.875432,127.781483 109.059596,129.193707 110.565948,130.329716 C111.666379,131.159497 113.625358,131.288296 115.669395,131.150379 C119.397493,130.899621 122.020604,129.974476 123.314693,129.41103 C125.332149,128.69713 127.681481,127.574418 129.88652,125.952849 C133.955987,122.959331 136.410502,118.677068 136.174695,113.004619 C136.044071,109.878502 135.047684,106.780121 133.787391,103.854991 C134.156859,103.32384 134.527087,102.78775 134.898454,102.244821 C141.313836,92.8607732 146.290076,82.5489207 146.290076,82.5489207 C146.290076,82.5489207 146.759031,85.7099912 148.295381,90.9379153 C149.07267,93.584172 150.606362,96.4705485 151.985507,99.3018342 C145.953264,104.206053 142.212255,109.904338 140.91323,113.642912 C138.511497,120.556613 140.392633,123.689569 143.920998,124.402709 C145.519243,124.726035 147.776303,123.993138 149.474414,123.273918 C151.58718,122.572936 154.125993,121.405391 156.497349,119.661483 C160.566817,116.667965 164.479459,112.476127 164.243653,106.804057 C164.135812,104.22163 163.435987,101.658579 162.486305,99.1962119 C167.599624,97.0651489 174.220056,95.8801274 182.652514,96.8653024 C200.742411,98.9788883 204.291281,110.280475 203.613099,115.010683 C202.934538,119.74127 199.139989,122.341175 197.871342,123.126503 C196.603075,123.911451 196.21576,124.183866 196.322461,124.767828 C196.476628,125.616606 197.063296,125.583931 198.144741,125.401562 C199.634006,125.150044 207.644215,121.553946 207.987103,112.822629 C208.422642,101.737606 197.808308,89.5614059 179.006815,89.6617091 L179.006815,89.6617091 Z" id="Fill-1" fill="#FFFFFF" sketch:type="MSShapeGroup" mask="url(#mask-2)"></path>
        </g>
        <g id="html5" sketch:type="MSLayerGroup" transform="translate(613.000000, 48.000000)">
            <g id="Page-1" sketch:type="MSShapeGroup">
                <g id="Group">
                    <path d="M14.1970751,202.307346 L0,43 L156,43 L141.78824,202.281636 L77.9045487,220 L14.1970751,202.307346 L14.1970751,202.307346 Z" id="Shape" fill="#E371B3"></path>
                    <path d="M129.810075,193.628076 L142,57 L78,57 L78,208 L129.810075,193.628076 Z" id="Shape" fill="#D76BA9"></path>
                    <path d="M78,115.490343 L52.1421687,115.490343 L50.3558661,95.5112293 L78,95.5112293 L78,76 L77.9323052,76 L29,76 L29.468091,81.2347456 L34.270747,135 L78,135 L78,115.490343 L78,115.490343 Z" id="Shape" fill="#EBEBEB"></path>
                    <path d="M78,166.54291 L77.9141759,166.567168 L56.0779874,160.661339 L54.681634,145 L44.0715589,145 L35,145 L37.746899,175.832766 L77.9094371,187 L78,186.974687 L78,166.54291 L78,166.54291 Z" id="Shape" fill="#EBEBEB"></path>
                    <path d="M24.9491661,0 L24.9491661,9.90639019 L34.0503082,9.90639019 L34.0503082,0 L44,0 L44,30 L34.0508339,30 L34.0508339,19.9547847 L24.9502175,19.9547847 L24.9502175,30 L15,30 L15,0 L24.9491661,0 Z" id="Shape" fill="#FFFFFF"></path>
                    <path d="M56.6086657,9.94824967 L48,9.94824967 L48,0 L75,0 L75,9.94824967 L66.3877172,9.94824967 L66.3877172,30 L56.6091824,30 L56.6091824,9.94824967 L56.6086657,9.94824967 L56.6086657,9.94824967 Z" id="Shape" fill="#FFFFFF"></path>
                    <path d="M80.0005334,0 L90.5269467,0 L97.0013336,10.5411707 L103.470386,0 L114,0 L114,30 L103.94675,30 L103.94675,15.1303472 L97.0008002,25.7965665 L96.8274315,25.7965665 L89.8777476,15.1303472 L89.8777476,30 L80,30 L80,0 L80.0005334,0 L80.0005334,0 Z" id="Shape" fill="#FFFFFF"></path>
                    <path d="M118.000527,0 L127.975846,0 L127.975846,20.0838971 L142,20.0838971 L142,30 L118,30 L118,0 L118.000527,0 L118.000527,0 Z" id="Shape" fill="#FFFFFF"></path>
                    <path d="M78,116 L78,135.513707 L102.368447,135.513707 L100.071582,160.822412 L78,166.697067 L78,187 L118.569791,175.912047 L118.866864,172.615742 L123.517457,121.240025 L124,116 L118.667575,116 L78,116 L78,116 Z" id="Shape" fill="#FFFFFF"></path>
                    <path d="M78,76 L78,87.8003169 L78,94.95306 L78,95 L125.185633,95 L125.248668,95 L125.641063,90.7294772 L126.531963,81.0975859 L127,76 L78,76 L78,76 Z" id="Shape" fill="#FFFFFF"></path>
                </g>
            </g>
        </g>
        <g id="Group" sketch:type="MSLayerGroup" transform="translate(1147.000000, 75.000000)">
            <path d="M94.1949213,0 L-1,33.6119488 L14.0432589,158.745422 L94.2962304,203 L174.962497,158.145952 L190,33.0170982 L94.1949213,0 Z" id="Shape" fill="#B3B3B3" sketch:type="MSShapeGroup"></path>
            <path d="M180,39.4785427 L94,10 L94,191 L166.072082,150.90633 L180,39.4785427 Z" id="Shape" fill="#A6120D" sketch:type="MSShapeGroup"></path>
            <path d="M10,40.0127522 L22.8462085,151.439565 L94,191 L94,10 L10,40.0127522 Z" id="Shape" fill="#DD1B16" sketch:type="MSShapeGroup"></path>
            <path d="M119,106.917589 L95.0875862,118.061256 L69.8842025,118.061256 L58.0366358,147.593415 L36,148 L95.0875862,17 L119,106.917589 L119,106.917589 Z M117,101 L95.5743093,59 L78,100.277301 L95.4149418,100.277301 L117,101 L117,101 Z" id="Shape" fill="#F2F2F2" sketch:type="MSShapeGroup"></path>
            <path d="M94,17 L94.1588257,58.8767762 L114.177823,100.360818 L94.0452132,100.360818 L94,117.731865 L121.838556,117.758277 L134.849514,147.611859 L156,148 L94,17 Z" id="Shape" fill="#B3B3B3" sketch:type="MSShapeGroup"></path>
        </g>
        <path d="M920.732,280.448293 C920.732,284.288312 917.916028,287.072284 912.284,288.800293 C908.955983,289.824298 905.692016,290.336293 902.492,290.336293 L896.252,290.336293 C891.579977,290.336293 887.100021,289.376303 882.812,287.456293 C877.179972,284.89628 874.364,281.312316 874.364,276.704293 C874.364,273.632278 876.027983,269.792316 879.356,265.184293 C883.132019,259.872266 887.131979,257.216293 891.356,257.216293 C893.724012,257.216293 897.211977,258.336282 901.82,260.576293 C906.876025,263.072305 911.099983,265.920277 914.492,269.120293 C918.652021,273.024312 920.732,276.800275 920.732,280.448293 Z M916.604,279.200293 C916.604,275.936277 913.724029,272.192314 907.964,267.968293 C902.651973,264.128274 898.716013,262.240293 896.156,262.304293 L893.564,262.304293 C893.564,264.736305 893.052005,266.368289 892.028,267.200293 C891.451997,267.200293 890.588006,266.928296 889.436,266.384293 C888.283994,265.84029 887.388003,265.568293 886.748,265.568293 C884.635989,265.568293 882.812008,267.008279 881.276,269.888293 C879.995994,272.192304 879.356,274.176285 879.356,275.840293 C879.356,278.528306 880.539988,280.928282 882.908,283.040293 C885.276012,285.152304 888.123983,286.208293 891.452,286.208293 L899.132,286.208293 C910.780058,286.208293 916.604,283.872316 916.604,279.200293 Z M961.532,280.832293 C961.468,281.344296 961.020004,281.600293 960.188,281.600293 C958.971994,281.600293 958.172002,281.216297 957.788,280.448293 C954.779985,269.82424 953.308,263.200306 953.372,260.576293 L953.372,253.760293 L956.444,253.760293 C957.468005,257.08831 958.427996,261.472266 959.324,266.912293 C960.028004,271.584316 960.763996,276.22427 961.532,280.832293 Z M962.396,289.952293 L959.612,289.952293 C958.907996,290.016293 954.684039,286.688327 946.94,279.968293 C937.275952,271.648251 931.068014,266.432304 928.316,264.320293 C928.252,265.856301 928.347999,270.112258 928.604,277.088293 C928.796001,282.208319 928.732002,286.208279 928.412,289.088293 L925.34,289.088293 C923.675992,276.864232 922.844,269.05631 922.844,265.664293 C922.844,262.97628 923.003998,260.352306 923.324,257.792293 C927.036019,259.008299 931.195977,261.280276 935.804,264.608293 C938.556014,266.592303 942.859971,270.080268 948.716,275.072293 C954.572029,280.064318 959.131984,283.744281 962.396,286.112293 L962.396,289.952293 Z M1010.396,287.456293 C1009.24399,287.648294 1007.86801,287.744293 1006.268,287.744293 C1004.09199,287.744293 1001.35602,287.584295 998.06,287.264293 C994.763984,286.944291 992.988001,286.784293 992.732,286.784293 C992.155997,286.784293 989.82002,287.04029 985.724,287.552293 C981.051977,288.192296 977.596011,288.608292 975.356,288.800293 C973.37199,288.928294 971.484009,289.920284 969.692,291.776293 C967.131987,291.008289 965.852,288.384315 965.852,283.904293 C965.852,282.880288 965.947999,281.248304 966.14,279.008293 C966.332001,276.960283 966.396,275.552297 966.332,274.784293 C966.268,273.504287 965.900003,271.20031 965.228,267.872293 C964.555997,264.544276 964.22,262.560296 964.22,261.920293 C964.22,260.000283 964.891993,258.3683 966.236,257.024293 C968.796013,259.328304 970.235998,263.456263 970.556,269.408293 C970.62,274.144317 970.652,278.880269 970.652,283.616293 L1009.628,283.616293 C1009.628,283.872294 1009.756,284.512288 1010.012,285.536293 C1010.268,286.560298 1010.396,287.200292 1010.396,287.456293 Z M1069.724,255.200293 C1069.212,255.136293 1068.668,255.104293 1068.092,255.104293 C1064.82798,255.104293 1061.18002,256.048284 1057.148,257.936293 C1053.11598,259.824302 1049.59602,262.176279 1046.588,264.992293 L1046.588,271.232293 C1047.1,271.488294 1047.86799,271.616293 1048.892,271.616293 C1050.17201,271.552293 1050.94,271.552293 1051.196,271.616293 C1052.092,271.744294 1052.508,272.192289 1052.444,272.960293 C1052.572,274.112299 1052.07601,274.99229 1050.956,275.600293 C1049.83599,276.208296 1048.73201,276.83229 1047.644,277.472293 C1047.58,278.560298 1047.676,280.288281 1047.932,282.656293 C1048.252,285.280306 1048.412,287.200287 1048.412,288.416293 C1048.412,289.568299 1048.316,290.656288 1048.124,291.680293 C1046.45999,291.936294 1045.212,291.936294 1044.38,291.680293 C1043.996,290.656288 1043.516,287.936315 1042.94,283.520293 C1042.492,279.744274 1041.72401,276.896303 1040.636,274.976293 C1039.16399,272.48028 1035.19603,270.176304 1028.732,268.064293 C1027.64399,267.680291 1024.47603,267.136296 1019.228,266.432293 C1014.93998,265.85629 1012.25201,265.088298 1011.164,264.128293 L1011.164,261.248293 C1011.356,261.248293 1011.612,261.088295 1011.932,260.768293 C1012.252,260.448291 1012.796,260.288293 1013.564,260.288293 C1016.82802,260.288293 1021.08397,261.120285 1026.332,262.784293 C1030.74802,264.1283 1035.13198,265.504286 1039.484,266.912293 C1041.98001,262.944273 1044.15599,260.320299 1046.012,259.040293 C1048.63601,257.184284 1052.31598,255.232303 1057.052,253.184293 C1061.46802,251.328284 1064.25199,250.400293 1065.404,250.400293 L1068.86,250.400293 C1069.756,250.336293 1070.204,251.55228 1070.204,254.048293 C1070.204,254.880297 1070.044,255.264293 1069.724,255.200293 Z" id="Only" fill="#FFFFFF" sketch:type="MSShapeGroup"></path>
    </g>
</svg>