<?xml version="1.0" encoding="UTF-8" standalone="no"?>
<svg width="1380px" height="320px" viewBox="0 0 1380 320" version="1.1" xmlns="http://www.w3.org/2000/svg" xmlns:xlink="http://www.w3.org/1999/xlink" xmlns:sketch="http://www.bohemiancoding.com/sketch/ns">
    <title>foundation-windows-wide</title>
    <description>Created with Sketch (http://www.bohemiancoding.com/sketch)</description>
    <defs></defs>
    <g id="Page-1" stroke="none" stroke-width="1" fill="none" fill-rule="evenodd" sketch:type="MSPage">
        <rect id="Rectangle-1" fill="#0DADEA" sketch:type="MSShapeGroup" x="0" y="0" width="1380" height="320"></rect>
        <text id="+-ZURB-Foundation" sketch:type="MSTextLayer" font-family="Helvetica Neue" font-size="48" font-weight="260" fill="#FFFFFF">
            <tspan x="709" y="270">+ ZURB Foundation</tspan>
        </text>
        <g id="Windows_logo_and_wordmark_-_2012-copy" sketch:type="MSLayerGroup" transform="translate(202.000000, 48.000000)" fill="#FFFFFF">
            <g id="Livello_x0020_1" sketch:type="MSShapeGroup">
                <g id="g3000" transform="translate(1.000000, 0.000000)">
                    <path d="M0,27.2520637 L82,16 L82,95 L0.00555485222,95 L0,27.2520637 L0,27.2520637 Z M82,106 L82,185 L0.00464453534,173.635049 L0,106.003678 L82,106.003678 L82,106 L82,106 Z M91,15.0972151 L201,0 L201,96 L91,96 L91,15.0972151 L91,15.0972151 Z M201,106 L201,201 L91,185.931021 L91,106 L201,106 L201,106 Z" id="path13"></path>
                    <g id="Group" transform="translate(263.000000, 40.000000)">
                        <path d="M156,7 L124.300151,122 L102.602041,122 L80.5815369,41.5635734 C79.6661632,38.1436582 79.1020184,34.4000455 78.8870887,30.3364705 L78.564694,30.3364705 C78.2951165,34.1335621 77.6503272,37.8217828 76.629411,41.4031367 L54.5273468,122 L32.3456451,122 L0,7 L21.0533205,7 L42.0250812,91.2049111 C42.8848002,94.7346083 43.42304,98.422829 43.6379697,102.271577 L44.0419241,102.271577 C44.2559385,99.5459765 45.0100233,95.8558427 46.3006087,91.2049111 L70.014646,7 L89.7764657,7 L111.717333,91.8466577 C112.469587,94.7346083 113.033823,98.1554346 113.410865,102.111141 L113.73326,102.111141 C113.894457,99.4390188 114.512426,95.9093216 115.588906,91.5239623 L136.157627,7 L156,7 L156,7 Z" id="Shape"></path>
                        <path d="M174.376415,22 C171.243274,22 168.564622,21.0195572 166.338586,19.0560511 C164.11255,17.0943523 163,14.6012264 163,11.579565 C163,8.55699994 164.11255,6.03830117 166.338586,4.02256503 C168.564622,2.00782289 171.243274,1 174.376415,1 C177.618452,1 180.366241,2.00782289 182.619689,4.02256503 C184.87323,6.0382108 186,8.55690957 186,11.579565 C186,14.4420964 184.87323,16.8968179 182.619689,18.9371329 C180.366241,20.9793455 177.618452,22 174.376415,22 L174.376415,22 Z M184,122 L165,122 L165,40 L184,40 L184,122 L184,122 Z" id="Shape"></path>
                        <path d="M276.999816,122 L258.176472,122 L258.176472,75.7519997 C258.176472,60.4171307 252.685483,52.7487401 241.703503,52.7487401 C235.970248,52.7487401 231.237823,54.8729907 227.504481,59.1204901 C223.77298,63.3679896 221.905388,68.7260108 221.905388,75.1917308 L221.905388,122 L203,122 L203,39.9242 L221.905388,39.9242 L221.905388,53.5495796 L222.229698,53.5495796 C228.449419,43.1837395 237.429644,38 249.168439,38 C258.202716,38 265.09905,40.9001406 269.859467,46.6968706 C274.619791,52.4953307 277,60.8705907 277,71.8243807 L277,122 L276.999816,122 Z" id="Shape"></path>
                        <path d="M368.999909,122.066914 L350.383731,122.066914 L350.383731,108.056176 L350.063022,108.056176 C344.070798,118.686002 334.843798,124 322.380107,124 C312.270199,124 304.178612,120.30982 298.107167,112.927631 C292.035722,105.547271 289,95.4951844 289,82.7731101 C289,69.1382325 292.356432,58.2158778 299.071208,50.0033019 C305.784163,41.7898112 314.730976,37.6830658 325.911737,37.6830658 C336.983773,37.6830658 345.034839,42.1397846 350.063113,51.0494718 L350.383822,51.0494718 L350.383822,0 L369,0 L369,122.066914 L368.999909,122.066914 Z M351,85.0271985 L351,74.1628228 C351,68.2710481 349.082172,63.2723797 345.250192,59.1630409 C341.416375,55.0555444 336.531515,53 330.591937,53 C323.573472,53 318.054329,55.6233153 314.032579,60.8653405 C310.010829,66.110129 308,73.3816312 308,82.6779128 C308,91.1072477 309.929039,97.772753 313.788864,102.663283 C317.648781,107.555656 322.846096,110 329.377224,110 C335.802301,110 341.010827,107.635792 345.006478,102.905627 C349.002129,98.1755535 351,92.21663 351,85.0271985 L351,85.0271985 Z" id="Shape"></path>
                        <path d="M425.976159,124 C413.22086,124 403.03736,120.162874 395.422086,112.488713 C387.806721,104.814461 384,94.638781 384,81.9615827 C384,68.1645885 387.968036,57.3884095 395.906033,49.6330457 C403.84403,41.8785933 414.539233,38 427.993567,38 C440.90835,38 450.971207,41.7706875 458.182413,49.3120625 C465.393619,56.8534374 469,67.3086332 469,80.6794724 C469,93.7846484 465.11166,104.277666 457.334979,112.16773 C449.558298,120.055879 439.10603,124 425.976159,124 L425.976159,124 Z M426.905245,53 C419.532678,53 413.704867,55.5232669 409.423658,60.5688956 C405.140604,65.6145244 403,72.5697747 403,81.4373614 C403,89.9880353 405.166719,96.7198539 409.504034,101.632636 C413.841348,106.545419 419.641106,109 426.905337,109 C434.332072,109 440.038535,106.583879 444.022789,101.753537 C448.00695,96.9194855 450,90.0430561 450,81.1186387 C450,72.146621 448.00695,65.2151708 444.022789,60.3298988 C440.038351,55.442636 434.33198,53 426.905245,53 L426.905245,53 Z" id="Shape"></path>
                        <path d="M594,40 L569.567664,122 L549.907713,122 L534.860303,66.4255215 C534.265557,64.291313 533.890237,61.8891004 533.72856,59.2190656 L533.403368,59.2190656 C533.295491,61.0346893 532.810458,63.3815908 531.948177,66.2653194 L515.605418,122 L496.350533,122 L472,40 L491.416563,40 L506.463972,99.0962863 C506.949005,100.858509 507.272453,103.21005 507.434039,106.14345 L508.000874,106.14345 C508.162552,103.900621 508.593693,101.499318 509.294296,98.9379037 L526.042213,40 L543.678394,40 L558.564217,99.3374537 C559.04925,101.206478 559.400424,103.5562 559.615994,106.384617 L560.18283,106.384617 C560.290707,104.41243 560.693845,102.05907 561.396377,99.3374537 L576.120523,40 L594,40 L594,40 Z" id="Shape"></path>
                        <path d="M597,119.507884 L597,102.257577 C604.03362,107.553881 611.798029,110.201121 620.291291,110.201121 C631.653555,110.201121 637.333812,106.887947 637.333812,100.254216 C637.333812,98.3818172 636.847264,96.7915773 635.874169,95.4799415 C634.89914,94.1701284 633.58676,93.0079564 631.936937,91.9896889 C630.287114,90.9750668 628.339082,90.0637934 626.094498,89.2631597 C623.848071,88.4607032 621.346353,87.5512526 618.587316,86.5347166 C615.179548,85.1991119 612.107382,83.7823047 609.37625,82.284386 C606.643368,80.7864673 604.370879,79.091147 602.558965,77.1891293 C600.74696,75.2908482 599.380427,73.138023 598.461485,70.7324764 C597.540516,68.325107 597.081966,65.5154614 597.081966,62.3074584 C597.081966,58.3514073 598.027156,54.8610635 599.923062,51.8375207 C601.815283,48.8185346 604.357985,46.277377 607.551351,44.2177843 C610.742875,42.1590119 614.368728,40.6075961 618.425225,39.5643572 C622.483565,38.5220296 626.676181,38 631.004825,38 C638.687175,38 645.558613,39.1511445 651.617295,41.4496969 L651.617295,57.7361451 C645.774856,53.7781802 639.065601,51.7987877 631.491373,51.7987877 C629.110761,51.7987877 626.959471,52.0385677 625.039344,52.5200415 C623.119217,53.0015154 621.480538,53.671186 620.129109,54.5262282 C618.777496,55.3821818 617.722434,56.411568 616.96549,57.6143868 C616.206796,58.8181171 615.828278,60.1426031 615.828278,61.5862045 C615.828278,63.3497859 616.206704,64.8496185 616.96549,66.078229 C617.722434,67.3086622 618.844634,68.3915455 620.332274,69.3287016 C621.819915,70.264035 623.605857,71.1199886 625.688074,71.8947395 C627.770384,72.6695816 630.165915,73.5125938 632.870891,74.4202217 C636.442591,75.8646433 639.647193,77.3385931 642.488288,78.8346891 C645.32745,80.330785 647.749044,82.0316646 649.751137,83.9299457 C651.751481,85.8282269 653.293182,88.0197851 654.376241,90.5065343 C655.459392,92.9932835 656,95.9485651 656,99.3705566 C656,103.543421 655.026905,107.181224 653.07878,110.282324 C651.130748,113.38151 648.533801,115.951284 645.288308,117.982351 C642.04079,120.015241 638.29383,121.524278 634.047152,122.514932 C629.800475,123.505585 625.322726,124 620.617406,124 C611.527724,123.999909 603.655194,122.50199 597,119.507884 L597,119.507884 Z" id="Shape"></path>
                    </g>
                </g>
            </g>
        </g>
    </g>
</svg>