<?xml version="1.0" encoding="UTF-8" standalone="no"?>
<svg width="640px" height="320px" viewBox="0 0 640 320" version="1.1" xmlns="http://www.w3.org/2000/svg" xmlns:xlink="http://www.w3.org/1999/xlink" xmlns:sketch="http://www.bohemiancoding.com/sketch/ns">
    <title>foundation-windows</title>
    <description>Created with Sketch (http://www.bohemiancoding.com/sketch)</description>
    <defs></defs>
    <g id="Page-1" stroke="none" stroke-width="1" fill="none" fill-rule="evenodd" sketch:type="MSPage">
        <rect id="Rectangle-1" fill="#0DADEA" sketch:type="MSShapeGroup" x="0" y="0" width="640" height="320"></rect>
        <text id="+-ZURB-Foundation" sketch:type="MSTextLayer" font-family="Helvetica Neue" font-size="40" font-weight="260" fill="#FFFFFF">
            <tspan x="219" y="222">+ ZURB Foundation</tspan>
        </text>
        <g id="Windows_logo_and_wordmark_-_2012" sketch:type="MSLayerGroup" transform="translate(78.000000, 87.000000)" fill="#FFFFFF">
            <g id="Livello_x0020_1" transform="translate(0.077495, 0.412000)" sketch:type="MSShapeGroup">
                <g id="g3000" transform="translate(0.412303, 0.110303)">
                    <path d="M0.0110964627,14.5533485 L43.4549058,8.58210074 L43.4549058,50.5058395 L0.0140394376,50.5058395 L0.0110964627,14.5533485 L0.0110964627,14.5533485 Z M43.4549058,55.8711721 L43.4549058,97.3208024 L0.0164999576,91.3578528 L0.0140394376,55.873102 L43.4549058,55.873102 L43.4549058,55.8711721 L43.4549058,55.8711721 Z M48.2605908,7.92292261 L106.069254,-0.0234473081 L106.069254,50.5058395 L48.2605908,50.5058395 L48.2605908,7.92292261 L48.2605908,7.92292261 Z M106.069302,55.8711721 L106.069302,105.918535 L48.2605908,97.9799806 L48.2605908,55.8711721 L106.069302,55.8711721 L106.069302,55.8711721 Z" id="path13"></path>
                    <g id="Group" transform="translate(138.705784, 20.890297)">
                        <path d="M82.2001352,3.48052614 L65.4924807,64.3795538 L54.0563216,64.3795538 L42.4502417,21.7839001 C41.9677868,19.9728609 41.6704499,17.9904055 41.5571695,15.8385119 L41.3872489,15.8385119 C41.2451659,17.8492874 40.9053247,19.8024096 40.3672427,21.6989398 L28.7181762,64.3795538 L17.027136,64.3795538 L-0.0208902972,3.48052614 L11.0754277,3.48052614 L22.1287589,48.0718062 C22.5818805,49.9409813 22.865564,51.8941034 22.9788444,53.9322342 L23.1917518,53.9322342 C23.3045497,52.4888738 23.7019961,50.5347385 24.3822092,48.0718062 L36.8808789,3.48052614 L47.2965012,3.48052614 L58.8606074,48.4116475 C59.2570889,49.9409813 59.5544741,51.7525029 59.7531973,53.8472738 L59.9231179,53.8472738 C60.0080782,52.4322336 60.3337835,50.5630586 60.9011504,48.2407619 L71.7420568,3.48052614 L82.2001352,3.48052614 L82.2001352,3.48052614 Z" id="Shape"></path>
                        <path d="M91.9170181,11.7618645 C90.3012766,11.7618645 88.9199117,11.2384009 87.7719586,10.1900747 C86.6240054,9.14271334 86.05027,7.81162027 86.05027,6.19833933 C86.05027,4.58457593 86.6240054,3.23982939 87.7719586,2.16361724 C88.9199117,1.0879358 90.3012766,0.54985385 91.9170181,0.54985385 C93.5889173,0.54985385 95.0059356,1.0879358 96.1680247,2.16361724 C97.3301621,3.23978114 97.9112307,4.58452769 97.9112307,6.19833933 C97.9112307,7.72665996 97.3301621,9.0372487 96.1680247,10.1265836 C95.0059356,11.2169317 93.5889173,11.7618645 91.9170181,11.7618645 L91.9170181,11.7618645 Z M96.8057336,64.379602 L86.9428598,64.379602 L86.9428598,20.8923235 L96.8057336,20.8923235 L96.8057336,64.379602 L96.8057336,64.379602 Z" id="Shape"></path>
                        <path d="M145.847226,64.379602 L135.984835,64.379602 L135.984835,39.8754282 C135.984835,31.750357 133.10786,27.6873148 127.353909,27.6873148 C124.35,27.6873148 121.870472,28.8128338 119.914407,31.0633412 C117.959306,33.3138486 116.980791,36.1527579 116.980791,39.5785737 L116.980791,64.379602 L107.075413,64.379602 L107.075413,20.8923235 L116.980791,20.8923235 L116.980791,28.1116339 L117.150712,28.1116339 C120.409502,22.6193673 125.114643,19.8727998 131.265123,19.8727998 C135.998585,19.8727998 139.611882,21.4094186 142.106078,24.4807748 C144.600225,27.5530476 145.847322,31.9906195 145.847322,37.7944072 L145.847322,64.379602 L145.847226,64.379602 Z" id="Shape"></path>
                        <path d="M194.846745,64.379602 L184.983388,64.379602 L184.983388,56.9898886 L184.813468,56.9898886 C181.638625,62.5964005 176.74991,65.399174 170.146308,65.399174 C164.789804,65.399174 160.502662,63.4528544 157.285846,59.5592504 C154.069029,55.6666113 152.460621,50.3648179 152.460621,43.6547869 C152.460621,36.4633142 154.23895,30.7025132 157.796621,26.3709366 C161.353326,22.0388776 166.093591,19.872848 172.017461,19.872848 C177.883727,19.872848 182.1494,22.2234648 184.813516,26.9227203 L184.983437,26.9227203 L184.983437,-0.0024122745 L194.846793,-0.0024122745 L194.846793,64.379602 L194.846745,64.379602 Z M185.111335,44.50439 L185.111335,38.8138827 C185.111335,35.7279081 184.1045,33.1097219 182.09276,30.9573458 C180.080055,28.8059347 177.515566,27.7292884 174.397363,27.7292884 C170.712758,27.7292884 167.815279,29.1033199 165.703912,31.8489708 C163.592544,34.596069 162.536885,38.4047127 162.536885,43.2738887 C162.536885,47.6889783 163.549606,51.1802149 165.575965,53.741761 C167.602372,56.3042719 170.330895,57.5845625 173.759654,57.5845625 C177.132738,57.5845625 179.867147,56.3462455 181.964813,53.8686948 C184.062479,51.3911924 185.111335,48.270047 185.111335,44.50439 L185.111335,44.50439 Z" id="Shape"></path>
                        <path d="M224.41737,65.3991257 C217.699524,65.3991257 212.336169,63.3678459 208.325425,59.3053344 C204.314633,55.2427746 202.309743,49.8560209 202.309743,43.145025 C202.309743,35.8412368 204.399593,30.1365936 208.580306,26.0310954 C212.761019,21.9260796 218.393873,19.872848 225.479881,19.872848 C232.281723,19.872848 237.581538,21.8689569 241.379472,25.8611747 C245.177405,29.8533925 247.076781,35.3881152 247.076781,42.4663075 C247.076781,49.4038642 245.028905,54.9586087 240.933153,59.1354138 C236.8374,63.3112057 231.332493,65.3991257 224.41737,65.3991257 L224.41737,65.3991257 Z M224.884194,27.7293366 C221.029669,27.7293366 217.982773,29.0745656 215.744472,31.7645411 C213.505205,34.4545167 212.386055,38.1625686 212.386055,42.8901441 C212.386055,47.448764 213.518859,51.0376977 215.786493,53.6568489 C218.054128,56.2760001 221.086357,57.5846107 224.884242,57.5846107 C228.767087,57.5846107 231.75054,56.2965044 233.833587,53.7213049 C235.916586,51.1441273 236.958593,47.4780972 236.958593,42.7202235 C236.958593,37.9369726 235.916586,34.2416093 233.833587,31.6371248 C231.750444,29.0315789 228.767039,27.7293366 224.884194,27.7293366 L224.884194,27.7293366 Z" id="Shape"></path>
                        <path d="M313.039366,20.8923235 L300.200373,64.3795538 L289.869228,64.3795538 L281.961937,34.9066252 C281.649403,33.774786 281.452176,32.5008156 281.367215,31.0848104 L281.19633,31.0848104 C281.139641,32.0476939 280.88476,33.2923311 280.431639,34.8216649 L271.843652,64.3795538 L261.725367,64.3795538 L248.92936,20.8923235 L259.132606,20.8923235 L267.039897,52.2329797 C267.294778,53.1675431 267.464747,54.4146408 267.549659,55.9703166 L267.847526,55.9703166 C267.932487,54.7808723 268.159047,53.5073844 268.527209,52.1489844 L277.328103,20.8923235 L286.595772,20.8923235 L294.418151,52.3608785 C294.673032,53.3520821 294.857571,54.5982149 294.970851,56.0982154 L295.268719,56.0982154 C295.325407,55.0523014 295.537253,53.8042389 295.906428,52.3608785 L303.643847,20.8923235 L313.039366,20.8923235 L313.039366,20.8923235 Z" id="Shape"></path>
                        <path d="M315.017914,63.0211538 L315.017914,53.8892474 C318.702518,56.6929858 322.769951,58.0943726 327.219198,58.0943726 C333.171389,58.0943726 336.147026,56.340456 336.147026,52.8287151 C336.147026,51.8375115 335.892145,50.9956759 335.382383,50.3013268 C334.871608,49.6079426 334.18411,48.9927161 333.31984,48.4536693 C332.455571,47.9165522 331.435082,47.4341456 330.259243,47.010309 C329.082439,46.5855074 327.771899,46.1040657 326.32656,45.5659355 C324.541381,44.8588978 322.932007,44.1088734 321.501287,43.3159106 C320.069651,42.5229477 318.879193,41.6254851 317.930012,40.6186017 C316.980782,39.6136964 316.264915,38.4740414 315.783521,37.2006017 C315.301067,35.9261971 315.060852,34.4388369 315.060852,32.7405957 C315.060852,30.6463554 315.555996,28.7986496 316.549177,27.1980573 C317.540429,25.5998772 318.872439,24.2546482 320.545303,23.1643483 C322.217202,22.0744827 324.116627,21.2531997 326.241648,20.7009336 C328.367634,20.14915 330.563962,19.8727998 332.831548,19.8727998 C336.855994,19.8727998 340.455638,20.4821886 343.629516,21.6989881 L343.629516,30.3206501 C340.568918,28.2253967 337.054234,27.1775529 333.086429,27.1775529 C331.839331,27.1775529 330.712365,27.3044868 329.706494,27.5593677 C328.700624,27.8142487 327.842192,28.1687565 327.134238,28.6213957 C326.426187,29.0745174 325.873487,29.6194502 325.476957,30.2561941 C325.079511,30.8934206 324.881222,31.5945723 324.881222,32.3587808 C324.881222,33.2923793 325.079462,34.0863553 325.476957,34.7367528 C325.873487,35.3881152 326.461358,35.9613681 327.240667,36.4574764 C328.019977,36.9526199 328.955553,37.4057416 330.046336,37.8158765 C331.137166,38.2260596 332.39208,38.6723304 333.809098,39.1528072 C335.680155,39.91745 337.358905,40.6977243 338.84723,41.4897223 C340.334542,42.2817202 341.603109,43.1821258 342.651917,44.1870311 C343.699809,45.1919364 344.507439,46.3520957 345.074806,47.6685222 C345.642221,48.9849486 345.925422,50.5494051 345.925422,52.3609268 C345.925422,54.569943 345.41566,56.49571 344.395123,58.1373593 C343.374635,59.7779954 342.014208,61.1383735 340.314037,62.2135725 C338.612805,63.2897364 336.649937,64.0885852 334.425289,64.6130137 C332.200642,65.1374422 329.854946,65.399174 327.390036,65.399174 C322.62835,65.3991257 318.504278,64.6061629 315.017914,63.0211538 L315.017914,63.0211538 Z" id="Shape"></path>
                    </g>
                </g>
            </g>
        </g>
    </g>
</svg>