<?xml version="1.0" encoding="UTF-8" standalone="no"?>
<svg width="640px" height="320px" viewBox="0 0 640 320" version="1.1" xmlns="http://www.w3.org/2000/svg" xmlns:xlink="http://www.w3.org/1999/xlink" xmlns:sketch="http://www.bohemiancoding.com/sketch/ns">
    <title>performance</title>
    <description>Created with Sketch (http://www.bohemiancoding.com/sketch)</description>
    <defs></defs>
    <g id="Page-1" stroke="none" stroke-width="1" fill="none" fill-rule="evenodd" sketch:type="MSPage">
        <rect id="Rectangle-1" fill="#F6A623" sketch:type="MSShapeGroup" x="0" y="0" width="640" height="320"></rect>
        <g id="icon_4625-+-icon_4625-copy-+-icon_4625-copy-2" sketch:type="MSLayerGroup" transform="translate(168.000000, 31.000000)">
            <g id="icon_4625-copy-2" transform="translate(96.000000, 0.000000)" fill="#F6AF3B" sketch:type="MSShapeGroup">
                <path d="M178.77585,160.899034 C180.381203,160.455365 181.331873,158.826074 180.89291,157.22185 C180.463979,155.617625 178.818492,154.682662 177.233206,155.098758 C175.627853,155.529894 174.672166,157.171718 175.103604,158.770929 C175.527518,160.375154 177.162972,161.322649 178.77585,160.899034 L178.77585,160.899034 Z" id="Shape"></path>
                <rect id="Rectangle" x="73" y="108" width="61" height="11"></rect>
                <rect id="Rectangle" x="50" y="108" width="11" height="11"></rect>
                <rect id="Rectangle" x="50" y="138" width="11" height="11"></rect>
                <rect id="Rectangle" x="50" y="169" width="11" height="11"></rect>
                <path d="M197.782385,155.098789 C196.184122,154.682695 194.53066,155.617653 194.101613,157.214349 C193.677584,158.826086 194.618476,160.455368 196.219249,160.899034 C197.82253,161.322648 199.468465,160.375157 199.892494,158.770941 C200.334087,157.171737 199.373121,155.529922 197.782385,155.098789 L197.782385,155.098789 Z" id="Shape"></path>
                <rect id="Rectangle" x="73" y="108" width="61" height="11"></rect>
                <rect id="Rectangle" x="50" y="108" width="11" height="11"></rect>
                <rect id="Rectangle" x="50" y="138" width="11" height="11"></rect>
                <rect id="Rectangle" x="50" y="169" width="11" height="11"></rect>
                <path d="M211.876165,165.875615 C210.707945,167.058165 210.707945,168.946229 211.876165,170.118736 C213.046896,171.293755 214.948707,171.293755 216.121951,170.118736 C217.292683,168.943718 217.292683,167.055654 216.121951,165.875615 C214.948707,164.708128 213.046896,164.708128 211.876165,165.875615 L211.876165,165.875615 Z" id="Shape"></path>
                <rect id="Rectangle" x="73" y="108" width="61" height="11"></rect>
                <rect id="Rectangle" x="50" y="108" width="11" height="11"></rect>
                <rect id="Rectangle" x="50" y="138" width="11" height="11"></rect>
                <rect id="Rectangle" x="50" y="169" width="11" height="11"></rect>
                <path d="M224.771557,187.900776 C226.381421,187.46223 227.331792,185.813294 226.892966,184.229514 C226.476708,182.633204 224.826724,181.678425 223.229398,182.09943 C221.629565,182.537976 220.681701,184.174382 221.097959,185.77821 C221.536784,187.389556 223.171724,188.316769 224.771557,187.900776 L224.771557,187.900776 Z" id="Shape"></path>
                <rect id="Rectangle" x="73" y="108" width="61" height="11"></rect>
                <rect id="Rectangle" x="50" y="108" width="11" height="11"></rect>
                <rect id="Rectangle" x="50" y="138" width="11" height="11"></rect>
                <rect id="Rectangle" x="50" y="169" width="11" height="11"></rect>
                <path d="M223.228745,206.896396 C224.826323,207.32533 226.476569,206.384685 226.892893,204.771793 C227.331788,203.17395 226.381266,201.535974 224.783688,201.104532 C223.171062,200.673089 221.535864,201.616243 221.096969,203.214085 C220.683153,204.826977 221.631167,206.464953 223.228745,206.896396 L223.228745,206.896396 Z" id="Shape"></path>
                <rect id="Rectangle" x="73" y="108" width="61" height="11"></rect>
                <rect id="Rectangle" x="50" y="108" width="11" height="11"></rect>
                <rect id="Rectangle" x="50" y="138" width="11" height="11"></rect>
                <rect id="Rectangle" x="50" y="169" width="11" height="11"></rect>
                <path d="M211.876165,218.885986 C210.707945,220.052252 210.707945,221.958407 211.876165,223.119657 C213.046896,224.293448 214.948707,224.293448 216.121951,223.119657 C217.292683,221.958407 217.292683,220.052252 216.121951,218.885986 C214.948707,217.704671 213.046896,217.704671 211.876165,218.885986 L211.876165,218.885986 Z" id="Shape"></path>
                <rect id="Rectangle" x="73" y="108" width="61" height="11"></rect>
                <rect id="Rectangle" x="50" y="108" width="11" height="11"></rect>
                <rect id="Rectangle" x="50" y="138" width="11" height="11"></rect>
                <rect id="Rectangle" x="50" y="169" width="11" height="11"></rect>
                <path d="M196.218928,228.100533 C194.618387,228.524358 193.67763,230.169503 194.101598,231.766999 C194.530583,233.379542 196.161229,234.322491 197.781839,233.898665 C199.372346,233.467316 200.335681,231.817156 199.891644,230.21966 C199.467676,228.619656 197.819469,227.679215 196.218928,228.100533 L196.218928,228.100533 Z" id="Shape"></path>
                <rect id="Rectangle" x="73" y="108" width="61" height="11"></rect>
                <rect id="Rectangle" x="50" y="108" width="11" height="11"></rect>
                <rect id="Rectangle" x="50" y="138" width="11" height="11"></rect>
                <rect id="Rectangle" x="50" y="169" width="11" height="11"></rect>
                <path d="M178.776395,228.100541 C177.163284,227.679189 175.527594,228.619707 175.103619,230.219842 C174.672118,231.817469 175.627943,233.467765 177.233528,233.89915 C178.819043,234.32301 180.464768,233.37246 180.89376,231.767308 C181.330278,230.169681 180.38198,228.524402 178.776395,228.100541 L178.776395,228.100541 Z" id="Shape"></path>
                <rect id="Rectangle" x="73" y="108" width="61" height="11"></rect>
                <rect id="Rectangle" x="50" y="108" width="11" height="11"></rect>
                <rect id="Rectangle" x="50" y="138" width="11" height="11"></rect>
                <rect id="Rectangle" x="50" y="169" width="11" height="11"></rect>
                <path d="M158.881817,218.885986 C157.706061,220.052252 157.706061,221.958407 158.881817,223.119657 C160.045012,224.293448 161.946823,224.293448 163.127604,223.119657 C164.290799,221.958407 164.290799,220.052252 163.127604,218.885986 C161.946823,217.704671 160.045012,217.704671 158.881817,218.885986 L158.881817,218.885986 Z" id="Shape"></path>
                <rect id="Rectangle" x="73" y="108" width="61" height="11"></rect>
                <rect id="Rectangle" x="50" y="108" width="11" height="11"></rect>
                <rect id="Rectangle" x="50" y="138" width="11" height="11"></rect>
                <rect id="Rectangle" x="50" y="169" width="11" height="11"></rect>
                <path d="M150.222533,201.103729 C148.624879,201.535419 147.669296,203.174334 148.105704,204.773092 C148.529571,206.386909 150.179896,207.320564 151.777551,206.898913 C153.377713,206.467224 154.325772,204.828308 153.896888,203.214492 C153.473021,201.615734 151.827712,200.67455 150.222533,201.103729 L150.222533,201.103729 Z" id="Shape"></path>
                <rect id="Rectangle" x="73" y="108" width="61" height="11"></rect>
                <rect id="Rectangle" x="50" y="108" width="11" height="11"></rect>
                <rect id="Rectangle" x="50" y="138" width="11" height="11"></rect>
                <rect id="Rectangle" x="50" y="169" width="11" height="11"></rect>
                <path d="M151.777551,182.09943 C150.179896,181.678425 148.529571,182.633204 148.105704,184.229514 C147.669296,185.813294 148.624879,187.46223 150.222533,187.900776 C151.827712,188.316769 153.473021,187.389556 153.896888,185.77821 C154.325772,184.176888 153.377713,182.537976 151.777551,182.09943 L151.777551,182.09943 Z" id="Shape"></path>
                <rect id="Rectangle" x="73" y="108" width="61" height="11"></rect>
                <rect id="Rectangle" x="50" y="108" width="11" height="11"></rect>
                <rect id="Rectangle" x="50" y="138" width="11" height="11"></rect>
                <rect id="Rectangle" x="50" y="169" width="11" height="11"></rect>
                <path d="M193.593256,188.941212 C193.238498,188.571227 192.842904,188.275239 192.442205,187.997113 L192.462623,187.943529 L163.20908,165.889877 C162.006985,164.703374 160.074955,164.703374 158.895829,165.889877 C157.70139,167.09169 157.70139,169.010509 158.895829,170.202115 L180.952112,199.469196 L180.987843,199.42837 C181.281348,199.844284 181.577406,200.221924 181.955134,200.586805 C185.15817,203.804398 190.390221,203.804398 193.598361,200.586805 C196.801397,197.374316 196.801397,192.163908 193.593256,188.941212 L193.593256,188.941212 Z" id="Shape"></path>
                <rect id="Rectangle" x="73" y="108" width="61" height="11"></rect>
                <rect id="Rectangle" x="50" y="108" width="11" height="11"></rect>
                <rect id="Rectangle" x="50" y="138" width="11" height="11"></rect>
                <rect id="Rectangle" x="50" y="169" width="11" height="11"></rect>
                <path d="M92.9822703,36 C99.083813,36 104,31.090031 104,25.0037944 C104,18.935265 99.083813,14 92.9822703,14 C86.9212526,14 82,18.9327354 82,25.0037944 C82,31.090031 86.9237854,36 92.9822703,36 L92.9822703,36 Z" id="Shape"></path>
                <rect id="Rectangle" x="73" y="108" width="61" height="11"></rect>
                <rect id="Rectangle" x="50" y="108" width="11" height="11"></rect>
                <rect id="Rectangle" x="50" y="138" width="11" height="11"></rect>
                <rect id="Rectangle" x="50" y="169" width="11" height="11"></rect>
                <path d="M236.338233,154.269093 L239.432754,151.182943 L240.500184,152.242368 C241.403394,153.148253 242.853149,153.148253 243.748661,152.242368 L247.807974,148.217067 C248.680393,147.311182 248.680393,145.86279 247.807974,144.985054 L247.779749,144.956905 L238.126692,135.329961 C237.23118,134.436871 235.771161,134.436871 234.870517,135.329961 L230.8266,139.362939 C229.92339,140.268824 229.92339,141.701862 230.8266,142.602629 L231.865805,143.646699 L228.802075,146.709818 C221.545604,140.58614 212.885565,136.082306 203.365937,133.740824 C208.744142,129.377736 212.18763,122.726904 212.18763,115.262312 C212.18763,102.096276 201.503067,91.4329384 188.301319,91.4329384 C188.142231,91.4329384 187.978011,91.4738823 187.818923,91.4815593 L187.818923,44.3653191 C187.818923,27.3070497 173.965426,13.4679976 156.866019,13.4679976 L123.714108,13.4679976 C120.3399,6.77878124 114.089276,1.77850244 106.568514,0.125390819 C106.499233,0.09724186 106.45048,0.09724186 106.419689,0.0537389226 C106.260601,0.0409439411 106.098947,0 105.944991,0 C104.944275,0 104.128307,0.811201832 104.128307,1.80153341 C104.128307,2.5666733 104.623533,3.23201235 105.316336,3.47767599 C113.242517,7.76911281 118.669475,16.1191178 118.669475,25.7665339 L139.725557,25.7665339 C153.743273,25.7665339 165.10781,37.1182416 165.10781,51.0852435 L165.10781,59.066753 C165.10781,63.2839789 161.656624,66.7411829 157.417696,66.7411829 L29.1516152,66.7411829 C24.8972909,66.7411829 21.4691985,63.2839789 21.4691985,59.066753 L21.4691985,51.0852435 C21.4691985,37.1182416 32.8260376,25.7665339 46.8437538,25.7665339 L67.9024024,25.7665339 C67.9024024,21.3010853 69.0750358,17.1273623 71.1072582,13.4679976 L30.9477714,13.4679976 C13.8432325,13.4679976 0,27.3070497 0,44.3653191 L0,202.956557 L0,202.964234 C0,220.027621 13.8432325,233.833406 30.9477714,233.833406 L139.607524,233.833406 C151.097792,247.959066 168.633408,257 188.303885,257 C222.93121,257 251,228.999462 251,194.460689 C250.997434,179.147655 245.501196,165.134591 236.338233,154.269093 L236.338233,154.269093 Z M188.001278,99 C196.828688,99 204,106.139163 204,114.935222 C204,121.830049 199.588851,127.696634 193.447488,129.9211 L193.447488,119.743021 L194.957911,119.743021 C196.215318,119.743021 197.247824,118.722414 197.247824,117.462562 L197.247824,111.781773 C197.247824,110.521921 196.217874,109.506404 194.957911,109.506404 L194.922131,109.506404 L181.343663,109.506404 L181.323217,109.506404 C180.070921,109.506404 179.046083,110.521921 179.046083,111.781773 L179.046083,117.462562 C179.046083,118.719869 180.068365,119.743021 181.323217,119.743021 L182.805527,119.743021 L182.805527,130 C176.5236,127.854433 172,121.921675 172,114.935222 C172.002556,106.139163 179.166201,99 188.001278,99 L188.001278,99 Z M130.252605,169.089076 L73.331551,169.089076 L73.331551,179.960742 L126.604705,179.960742 C125.497033,184.640564 124.857499,189.492382 124.857499,194.516196 C124.857499,198.798117 125.287266,202.961953 126.103311,207 L40.6667296,207 C36.4330167,207 33,203.562654 33,199.30897 L33,91.6935969 C33,87.4501816 36.4330167,84 40.6667296,84 L147.317922,84 C151.564425,84 155,87.4476145 155,91.6935969 L155,140.945966 C152.191168,142.65052 149.476987,144.496264 146.982806,146.619255 L143.920719,143.546437 L144.959321,142.499061 C145.849552,141.595442 145.849552,140.157866 144.959321,139.249113 L140.912352,135.203364 C140.019563,134.307447 138.579334,134.307447 137.694219,135.203364 L134.117947,138.794736 L73.331551,138.794736 L73.331551,149.663835 L129.584932,149.663835 L132.071439,152.166757 C132.977019,153.07551 134.432597,153.07551 135.317712,152.166757 L136.397245,151.103978 L139.474681,154.1999 C135.727013,158.664086 132.649577,163.6956 130.252605,169.089076 L130.252605,169.089076 Z M187.997447,242 C162.039214,242 141,220.959644 141,194.984683 C141,169.040356 162.039214,148 187.997447,148 C213.940365,148 235,169.040356 235,194.984683 C235,220.959644 213.940365,242 187.997447,242 L187.997447,242 Z" id="Shape"></path>
                <rect id="Rectangle" x="73" y="108" width="61" height="11"></rect>
                <rect id="Rectangle" x="50" y="108" width="11" height="11"></rect>
                <rect id="Rectangle" x="50" y="138" width="11" height="11"></rect>
                <rect id="Rectangle" x="50" y="169" width="11" height="11"></rect>
            </g>
            <g id="icon_4625-copy" transform="translate(45.000000, 0.000000)" fill="#F8C776" sketch:type="MSShapeGroup">
                <path d="M178.77585,160.899034 C180.381203,160.455365 181.331873,158.826074 180.89291,157.22185 C180.463979,155.617625 178.818492,154.682662 177.233206,155.098758 C175.627853,155.529894 174.672166,157.171718 175.103604,158.770929 C175.527518,160.375154 177.162972,161.322649 178.77585,160.899034 L178.77585,160.899034 Z" id="Shape"></path>
                <rect id="Rectangle" x="73" y="108" width="61" height="11"></rect>
                <rect id="Rectangle" x="50" y="108" width="11" height="11"></rect>
                <rect id="Rectangle" x="50" y="138" width="11" height="11"></rect>
                <rect id="Rectangle" x="50" y="169" width="11" height="11"></rect>
                <path d="M197.782385,155.098789 C196.184122,154.682695 194.53066,155.617653 194.101613,157.214349 C193.677584,158.826086 194.618476,160.455368 196.219249,160.899034 C197.82253,161.322648 199.468465,160.375157 199.892494,158.770941 C200.334087,157.171737 199.373121,155.529922 197.782385,155.098789 L197.782385,155.098789 Z" id="Shape"></path>
                <rect id="Rectangle" x="73" y="108" width="61" height="11"></rect>
                <rect id="Rectangle" x="50" y="108" width="11" height="11"></rect>
                <rect id="Rectangle" x="50" y="138" width="11" height="11"></rect>
                <rect id="Rectangle" x="50" y="169" width="11" height="11"></rect>
                <path d="M211.876165,165.875615 C210.707945,167.058165 210.707945,168.946229 211.876165,170.118736 C213.046896,171.293755 214.948707,171.293755 216.121951,170.118736 C217.292683,168.943718 217.292683,167.055654 216.121951,165.875615 C214.948707,164.708128 213.046896,164.708128 211.876165,165.875615 L211.876165,165.875615 Z" id="Shape"></path>
                <rect id="Rectangle" x="73" y="108" width="61" height="11"></rect>
                <rect id="Rectangle" x="50" y="108" width="11" height="11"></rect>
                <rect id="Rectangle" x="50" y="138" width="11" height="11"></rect>
                <rect id="Rectangle" x="50" y="169" width="11" height="11"></rect>
                <path d="M224.771557,187.900776 C226.381421,187.46223 227.331792,185.813294 226.892966,184.229514 C226.476708,182.633204 224.826724,181.678425 223.229398,182.09943 C221.629565,182.537976 220.681701,184.174382 221.097959,185.77821 C221.536784,187.389556 223.171724,188.316769 224.771557,187.900776 L224.771557,187.900776 Z" id="Shape"></path>
                <rect id="Rectangle" x="73" y="108" width="61" height="11"></rect>
                <rect id="Rectangle" x="50" y="108" width="11" height="11"></rect>
                <rect id="Rectangle" x="50" y="138" width="11" height="11"></rect>
                <rect id="Rectangle" x="50" y="169" width="11" height="11"></rect>
                <path d="M223.228745,206.896396 C224.826323,207.32533 226.476569,206.384685 226.892893,204.771793 C227.331788,203.17395 226.381266,201.535974 224.783688,201.104532 C223.171062,200.673089 221.535864,201.616243 221.096969,203.214085 C220.683153,204.826977 221.631167,206.464953 223.228745,206.896396 L223.228745,206.896396 Z" id="Shape"></path>
                <rect id="Rectangle" x="73" y="108" width="61" height="11"></rect>
                <rect id="Rectangle" x="50" y="108" width="11" height="11"></rect>
                <rect id="Rectangle" x="50" y="138" width="11" height="11"></rect>
                <rect id="Rectangle" x="50" y="169" width="11" height="11"></rect>
                <path d="M211.876165,218.885986 C210.707945,220.052252 210.707945,221.958407 211.876165,223.119657 C213.046896,224.293448 214.948707,224.293448 216.121951,223.119657 C217.292683,221.958407 217.292683,220.052252 216.121951,218.885986 C214.948707,217.704671 213.046896,217.704671 211.876165,218.885986 L211.876165,218.885986 Z" id="Shape"></path>
                <rect id="Rectangle" x="73" y="108" width="61" height="11"></rect>
                <rect id="Rectangle" x="50" y="108" width="11" height="11"></rect>
                <rect id="Rectangle" x="50" y="138" width="11" height="11"></rect>
                <rect id="Rectangle" x="50" y="169" width="11" height="11"></rect>
                <path d="M196.218928,228.100533 C194.618387,228.524358 193.67763,230.169503 194.101598,231.766999 C194.530583,233.379542 196.161229,234.322491 197.781839,233.898665 C199.372346,233.467316 200.335681,231.817156 199.891644,230.21966 C199.467676,228.619656 197.819469,227.679215 196.218928,228.100533 L196.218928,228.100533 Z" id="Shape"></path>
                <rect id="Rectangle" x="73" y="108" width="61" height="11"></rect>
                <rect id="Rectangle" x="50" y="108" width="11" height="11"></rect>
                <rect id="Rectangle" x="50" y="138" width="11" height="11"></rect>
                <rect id="Rectangle" x="50" y="169" width="11" height="11"></rect>
                <path d="M178.776395,228.100541 C177.163284,227.679189 175.527594,228.619707 175.103619,230.219842 C174.672118,231.817469 175.627943,233.467765 177.233528,233.89915 C178.819043,234.32301 180.464768,233.37246 180.89376,231.767308 C181.330278,230.169681 180.38198,228.524402 178.776395,228.100541 L178.776395,228.100541 Z" id="Shape"></path>
                <rect id="Rectangle" x="73" y="108" width="61" height="11"></rect>
                <rect id="Rectangle" x="50" y="108" width="11" height="11"></rect>
                <rect id="Rectangle" x="50" y="138" width="11" height="11"></rect>
                <rect id="Rectangle" x="50" y="169" width="11" height="11"></rect>
                <path d="M158.881817,218.885986 C157.706061,220.052252 157.706061,221.958407 158.881817,223.119657 C160.045012,224.293448 161.946823,224.293448 163.127604,223.119657 C164.290799,221.958407 164.290799,220.052252 163.127604,218.885986 C161.946823,217.704671 160.045012,217.704671 158.881817,218.885986 L158.881817,218.885986 Z" id="Shape"></path>
                <rect id="Rectangle" x="73" y="108" width="61" height="11"></rect>
                <rect id="Rectangle" x="50" y="108" width="11" height="11"></rect>
                <rect id="Rectangle" x="50" y="138" width="11" height="11"></rect>
                <rect id="Rectangle" x="50" y="169" width="11" height="11"></rect>
                <path d="M150.222533,201.103729 C148.624879,201.535419 147.669296,203.174334 148.105704,204.773092 C148.529571,206.386909 150.179896,207.320564 151.777551,206.898913 C153.377713,206.467224 154.325772,204.828308 153.896888,203.214492 C153.473021,201.615734 151.827712,200.67455 150.222533,201.103729 L150.222533,201.103729 Z" id="Shape"></path>
                <rect id="Rectangle" x="73" y="108" width="61" height="11"></rect>
                <rect id="Rectangle" x="50" y="108" width="11" height="11"></rect>
                <rect id="Rectangle" x="50" y="138" width="11" height="11"></rect>
                <rect id="Rectangle" x="50" y="169" width="11" height="11"></rect>
                <path d="M151.777551,182.09943 C150.179896,181.678425 148.529571,182.633204 148.105704,184.229514 C147.669296,185.813294 148.624879,187.46223 150.222533,187.900776 C151.827712,188.316769 153.473021,187.389556 153.896888,185.77821 C154.325772,184.176888 153.377713,182.537976 151.777551,182.09943 L151.777551,182.09943 Z" id="Shape"></path>
                <rect id="Rectangle" x="73" y="108" width="61" height="11"></rect>
                <rect id="Rectangle" x="50" y="108" width="11" height="11"></rect>
                <rect id="Rectangle" x="50" y="138" width="11" height="11"></rect>
                <rect id="Rectangle" x="50" y="169" width="11" height="11"></rect>
                <path d="M193.593256,188.941212 C193.238498,188.571227 192.842904,188.275239 192.442205,187.997113 L192.462623,187.943529 L163.20908,165.889877 C162.006985,164.703374 160.074955,164.703374 158.895829,165.889877 C157.70139,167.09169 157.70139,169.010509 158.895829,170.202115 L180.952112,199.469196 L180.987843,199.42837 C181.281348,199.844284 181.577406,200.221924 181.955134,200.586805 C185.15817,203.804398 190.390221,203.804398 193.598361,200.586805 C196.801397,197.374316 196.801397,192.163908 193.593256,188.941212 L193.593256,188.941212 Z" id="Shape"></path>
                <rect id="Rectangle" x="73" y="108" width="61" height="11"></rect>
                <rect id="Rectangle" x="50" y="108" width="11" height="11"></rect>
                <rect id="Rectangle" x="50" y="138" width="11" height="11"></rect>
                <rect id="Rectangle" x="50" y="169" width="11" height="11"></rect>
                <path d="M92.9822703,36 C99.083813,36 104,31.090031 104,25.0037944 C104,18.935265 99.083813,14 92.9822703,14 C86.9212526,14 82,18.9327354 82,25.0037944 C82,31.090031 86.9237854,36 92.9822703,36 L92.9822703,36 Z" id="Shape"></path>
                <rect id="Rectangle" x="73" y="108" width="61" height="11"></rect>
                <rect id="Rectangle" x="50" y="108" width="11" height="11"></rect>
                <rect id="Rectangle" x="50" y="138" width="11" height="11"></rect>
                <rect id="Rectangle" x="50" y="169" width="11" height="11"></rect>
                <path d="M236.338233,154.269093 L239.432754,151.182943 L240.500184,152.242368 C241.403394,153.148253 242.853149,153.148253 243.748661,152.242368 L247.807974,148.217067 C248.680393,147.311182 248.680393,145.86279 247.807974,144.985054 L247.779749,144.956905 L238.126692,135.329961 C237.23118,134.436871 235.771161,134.436871 234.870517,135.329961 L230.8266,139.362939 C229.92339,140.268824 229.92339,141.701862 230.8266,142.602629 L231.865805,143.646699 L228.802075,146.709818 C221.545604,140.58614 212.885565,136.082306 203.365937,133.740824 C208.744142,129.377736 212.18763,122.726904 212.18763,115.262312 C212.18763,102.096276 201.503067,91.4329384 188.301319,91.4329384 C188.142231,91.4329384 187.978011,91.4738823 187.818923,91.4815593 L187.818923,44.3653191 C187.818923,27.3070497 173.965426,13.4679976 156.866019,13.4679976 L123.714108,13.4679976 C120.3399,6.77878124 114.089276,1.77850244 106.568514,0.125390819 C106.499233,0.09724186 106.45048,0.09724186 106.419689,0.0537389226 C106.260601,0.0409439411 106.098947,0 105.944991,0 C104.944275,0 104.128307,0.811201832 104.128307,1.80153341 C104.128307,2.5666733 104.623533,3.23201235 105.316336,3.47767599 C113.242517,7.76911281 118.669475,16.1191178 118.669475,25.7665339 L139.725557,25.7665339 C153.743273,25.7665339 165.10781,37.1182416 165.10781,51.0852435 L165.10781,59.066753 C165.10781,63.2839789 161.656624,66.7411829 157.417696,66.7411829 L29.1516152,66.7411829 C24.8972909,66.7411829 21.4691985,63.2839789 21.4691985,59.066753 L21.4691985,51.0852435 C21.4691985,37.1182416 32.8260376,25.7665339 46.8437538,25.7665339 L67.9024024,25.7665339 C67.9024024,21.3010853 69.0750358,17.1273623 71.1072582,13.4679976 L30.9477714,13.4679976 C13.8432325,13.4679976 0,27.3070497 0,44.3653191 L0,202.956557 L0,202.964234 C0,220.027621 13.8432325,233.833406 30.9477714,233.833406 L139.607524,233.833406 C151.097792,247.959066 168.633408,257 188.303885,257 C222.93121,257 251,228.999462 251,194.460689 C250.997434,179.147655 245.501196,165.134591 236.338233,154.269093 L236.338233,154.269093 Z M188.001278,99 C196.828688,99 204,106.139163 204,114.935222 C204,121.830049 199.588851,127.696634 193.447488,129.9211 L193.447488,119.743021 L194.957911,119.743021 C196.215318,119.743021 197.247824,118.722414 197.247824,117.462562 L197.247824,111.781773 C197.247824,110.521921 196.217874,109.506404 194.957911,109.506404 L194.922131,109.506404 L181.343663,109.506404 L181.323217,109.506404 C180.070921,109.506404 179.046083,110.521921 179.046083,111.781773 L179.046083,117.462562 C179.046083,118.719869 180.068365,119.743021 181.323217,119.743021 L182.805527,119.743021 L182.805527,130 C176.5236,127.854433 172,121.921675 172,114.935222 C172.002556,106.139163 179.166201,99 188.001278,99 L188.001278,99 Z M130.252605,169.089076 L73.331551,169.089076 L73.331551,179.960742 L126.604705,179.960742 C125.497033,184.640564 124.857499,189.492382 124.857499,194.516196 C124.857499,198.798117 125.287266,202.961953 126.103311,207 L40.6667296,207 C36.4330167,207 33,203.562654 33,199.30897 L33,91.6935969 C33,87.4501816 36.4330167,84 40.6667296,84 L147.317922,84 C151.564425,84 155,87.4476145 155,91.6935969 L155,140.945966 C152.191168,142.65052 149.476987,144.496264 146.982806,146.619255 L143.920719,143.546437 L144.959321,142.499061 C145.849552,141.595442 145.849552,140.157866 144.959321,139.249113 L140.912352,135.203364 C140.019563,134.307447 138.579334,134.307447 137.694219,135.203364 L134.117947,138.794736 L73.331551,138.794736 L73.331551,149.663835 L129.584932,149.663835 L132.071439,152.166757 C132.977019,153.07551 134.432597,153.07551 135.317712,152.166757 L136.397245,151.103978 L139.474681,154.1999 C135.727013,158.664086 132.649577,163.6956 130.252605,169.089076 L130.252605,169.089076 Z M187.997447,242 C162.039214,242 141,220.959644 141,194.984683 C141,169.040356 162.039214,148 187.997447,148 C213.940365,148 235,169.040356 235,194.984683 C235,220.959644 213.940365,242 187.997447,242 L187.997447,242 Z" id="Shape"></path>
                <rect id="Rectangle" x="73" y="108" width="61" height="11"></rect>
                <rect id="Rectangle" x="50" y="108" width="11" height="11"></rect>
                <rect id="Rectangle" x="50" y="138" width="11" height="11"></rect>
                <rect id="Rectangle" x="50" y="169" width="11" height="11"></rect>
            </g>
            <g id="icon_4625" fill="#FFFFFF" sketch:type="MSShapeGroup">
                <path d="M178.77585,160.899034 C180.381203,160.455365 181.331873,158.826074 180.89291,157.22185 C180.463979,155.617625 178.818492,154.682662 177.233206,155.098758 C175.627853,155.529894 174.672166,157.171718 175.103604,158.770929 C175.527518,160.375154 177.162972,161.322649 178.77585,160.899034 L178.77585,160.899034 Z" id="Shape"></path>
                <rect id="Rectangle" x="73" y="108" width="61" height="11"></rect>
                <rect id="Rectangle" x="50" y="108" width="11" height="11"></rect>
                <rect id="Rectangle" x="50" y="138" width="11" height="11"></rect>
                <rect id="Rectangle" x="50" y="169" width="11" height="11"></rect>
                <path d="M197.782385,155.098789 C196.184122,154.682695 194.53066,155.617653 194.101613,157.214349 C193.677584,158.826086 194.618476,160.455368 196.219249,160.899034 C197.82253,161.322648 199.468465,160.375157 199.892494,158.770941 C200.334087,157.171737 199.373121,155.529922 197.782385,155.098789 L197.782385,155.098789 Z" id="Shape"></path>
                <rect id="Rectangle" x="73" y="108" width="61" height="11"></rect>
                <rect id="Rectangle" x="50" y="108" width="11" height="11"></rect>
                <rect id="Rectangle" x="50" y="138" width="11" height="11"></rect>
                <rect id="Rectangle" x="50" y="169" width="11" height="11"></rect>
                <path d="M211.876165,165.875615 C210.707945,167.058165 210.707945,168.946229 211.876165,170.118736 C213.046896,171.293755 214.948707,171.293755 216.121951,170.118736 C217.292683,168.943718 217.292683,167.055654 216.121951,165.875615 C214.948707,164.708128 213.046896,164.708128 211.876165,165.875615 L211.876165,165.875615 Z" id="Shape"></path>
                <rect id="Rectangle" x="73" y="108" width="61" height="11"></rect>
                <rect id="Rectangle" x="50" y="108" width="11" height="11"></rect>
                <rect id="Rectangle" x="50" y="138" width="11" height="11"></rect>
                <rect id="Rectangle" x="50" y="169" width="11" height="11"></rect>
                <path d="M224.771557,187.900776 C226.381421,187.46223 227.331792,185.813294 226.892966,184.229514 C226.476708,182.633204 224.826724,181.678425 223.229398,182.09943 C221.629565,182.537976 220.681701,184.174382 221.097959,185.77821 C221.536784,187.389556 223.171724,188.316769 224.771557,187.900776 L224.771557,187.900776 Z" id="Shape"></path>
                <rect id="Rectangle" x="73" y="108" width="61" height="11"></rect>
                <rect id="Rectangle" x="50" y="108" width="11" height="11"></rect>
                <rect id="Rectangle" x="50" y="138" width="11" height="11"></rect>
                <rect id="Rectangle" x="50" y="169" width="11" height="11"></rect>
                <path d="M223.228745,206.896396 C224.826323,207.32533 226.476569,206.384685 226.892893,204.771793 C227.331788,203.17395 226.381266,201.535974 224.783688,201.104532 C223.171062,200.673089 221.535864,201.616243 221.096969,203.214085 C220.683153,204.826977 221.631167,206.464953 223.228745,206.896396 L223.228745,206.896396 Z" id="Shape"></path>
                <rect id="Rectangle" x="73" y="108" width="61" height="11"></rect>
                <rect id="Rectangle" x="50" y="108" width="11" height="11"></rect>
                <rect id="Rectangle" x="50" y="138" width="11" height="11"></rect>
                <rect id="Rectangle" x="50" y="169" width="11" height="11"></rect>
                <path d="M211.876165,218.885986 C210.707945,220.052252 210.707945,221.958407 211.876165,223.119657 C213.046896,224.293448 214.948707,224.293448 216.121951,223.119657 C217.292683,221.958407 217.292683,220.052252 216.121951,218.885986 C214.948707,217.704671 213.046896,217.704671 211.876165,218.885986 L211.876165,218.885986 Z" id="Shape"></path>
                <rect id="Rectangle" x="73" y="108" width="61" height="11"></rect>
                <rect id="Rectangle" x="50" y="108" width="11" height="11"></rect>
                <rect id="Rectangle" x="50" y="138" width="11" height="11"></rect>
                <rect id="Rectangle" x="50" y="169" width="11" height="11"></rect>
                <path d="M196.218928,228.100533 C194.618387,228.524358 193.67763,230.169503 194.101598,231.766999 C194.530583,233.379542 196.161229,234.322491 197.781839,233.898665 C199.372346,233.467316 200.335681,231.817156 199.891644,230.21966 C199.467676,228.619656 197.819469,227.679215 196.218928,228.100533 L196.218928,228.100533 Z" id="Shape"></path>
                <rect id="Rectangle" x="73" y="108" width="61" height="11"></rect>
                <rect id="Rectangle" x="50" y="108" width="11" height="11"></rect>
                <rect id="Rectangle" x="50" y="138" width="11" height="11"></rect>
                <rect id="Rectangle" x="50" y="169" width="11" height="11"></rect>
                <path d="M178.776395,228.100541 C177.163284,227.679189 175.527594,228.619707 175.103619,230.219842 C174.672118,231.817469 175.627943,233.467765 177.233528,233.89915 C178.819043,234.32301 180.464768,233.37246 180.89376,231.767308 C181.330278,230.169681 180.38198,228.524402 178.776395,228.100541 L178.776395,228.100541 Z" id="Shape"></path>
                <rect id="Rectangle" x="73" y="108" width="61" height="11"></rect>
                <rect id="Rectangle" x="50" y="108" width="11" height="11"></rect>
                <rect id="Rectangle" x="50" y="138" width="11" height="11"></rect>
                <rect id="Rectangle" x="50" y="169" width="11" height="11"></rect>
                <path d="M158.881817,218.885986 C157.706061,220.052252 157.706061,221.958407 158.881817,223.119657 C160.045012,224.293448 161.946823,224.293448 163.127604,223.119657 C164.290799,221.958407 164.290799,220.052252 163.127604,218.885986 C161.946823,217.704671 160.045012,217.704671 158.881817,218.885986 L158.881817,218.885986 Z" id="Shape"></path>
                <rect id="Rectangle" x="73" y="108" width="61" height="11"></rect>
                <rect id="Rectangle" x="50" y="108" width="11" height="11"></rect>
                <rect id="Rectangle" x="50" y="138" width="11" height="11"></rect>
                <rect id="Rectangle" x="50" y="169" width="11" height="11"></rect>
                <path d="M150.222533,201.103729 C148.624879,201.535419 147.669296,203.174334 148.105704,204.773092 C148.529571,206.386909 150.179896,207.320564 151.777551,206.898913 C153.377713,206.467224 154.325772,204.828308 153.896888,203.214492 C153.473021,201.615734 151.827712,200.67455 150.222533,201.103729 L150.222533,201.103729 Z" id="Shape"></path>
                <rect id="Rectangle" x="73" y="108" width="61" height="11"></rect>
                <rect id="Rectangle" x="50" y="108" width="11" height="11"></rect>
                <rect id="Rectangle" x="50" y="138" width="11" height="11"></rect>
                <rect id="Rectangle" x="50" y="169" width="11" height="11"></rect>
                <path d="M151.777551,182.09943 C150.179896,181.678425 148.529571,182.633204 148.105704,184.229514 C147.669296,185.813294 148.624879,187.46223 150.222533,187.900776 C151.827712,188.316769 153.473021,187.389556 153.896888,185.77821 C154.325772,184.176888 153.377713,182.537976 151.777551,182.09943 L151.777551,182.09943 Z" id="Shape"></path>
                <rect id="Rectangle" x="73" y="108" width="61" height="11"></rect>
                <rect id="Rectangle" x="50" y="108" width="11" height="11"></rect>
                <rect id="Rectangle" x="50" y="138" width="11" height="11"></rect>
                <rect id="Rectangle" x="50" y="169" width="11" height="11"></rect>
                <path d="M193.593256,188.941212 C193.238498,188.571227 192.842904,188.275239 192.442205,187.997113 L192.462623,187.943529 L163.20908,165.889877 C162.006985,164.703374 160.074955,164.703374 158.895829,165.889877 C157.70139,167.09169 157.70139,169.010509 158.895829,170.202115 L180.952112,199.469196 L180.987843,199.42837 C181.281348,199.844284 181.577406,200.221924 181.955134,200.586805 C185.15817,203.804398 190.390221,203.804398 193.598361,200.586805 C196.801397,197.374316 196.801397,192.163908 193.593256,188.941212 L193.593256,188.941212 Z" id="Shape"></path>
                <rect id="Rectangle" x="73" y="108" width="61" height="11"></rect>
                <rect id="Rectangle" x="50" y="108" width="11" height="11"></rect>
                <rect id="Rectangle" x="50" y="138" width="11" height="11"></rect>
                <rect id="Rectangle" x="50" y="169" width="11" height="11"></rect>
                <path d="M92.9822703,36 C99.083813,36 104,31.090031 104,25.0037944 C104,18.935265 99.083813,14 92.9822703,14 C86.9212526,14 82,18.9327354 82,25.0037944 C82,31.090031 86.9237854,36 92.9822703,36 L92.9822703,36 Z" id="Shape"></path>
                <rect id="Rectangle" x="73" y="108" width="61" height="11"></rect>
                <rect id="Rectangle" x="50" y="108" width="11" height="11"></rect>
                <rect id="Rectangle" x="50" y="138" width="11" height="11"></rect>
                <rect id="Rectangle" x="50" y="169" width="11" height="11"></rect>
                <path d="M236.338233,154.269093 L239.432754,151.182943 L240.500184,152.242368 C241.403394,153.148253 242.853149,153.148253 243.748661,152.242368 L247.807974,148.217067 C248.680393,147.311182 248.680393,145.86279 247.807974,144.985054 L247.779749,144.956905 L238.126692,135.329961 C237.23118,134.436871 235.771161,134.436871 234.870517,135.329961 L230.8266,139.362939 C229.92339,140.268824 229.92339,141.701862 230.8266,142.602629 L231.865805,143.646699 L228.802075,146.709818 C221.545604,140.58614 212.885565,136.082306 203.365937,133.740824 C208.744142,129.377736 212.18763,122.726904 212.18763,115.262312 C212.18763,102.096276 201.503067,91.4329384 188.301319,91.4329384 C188.142231,91.4329384 187.978011,91.4738823 187.818923,91.4815593 L187.818923,44.3653191 C187.818923,27.3070497 173.965426,13.4679976 156.866019,13.4679976 L123.714108,13.4679976 C120.3399,6.77878124 114.089276,1.77850244 106.568514,0.125390819 C106.499233,0.09724186 106.45048,0.09724186 106.419689,0.0537389226 C106.260601,0.0409439411 106.098947,0 105.944991,0 C104.944275,0 104.128307,0.811201832 104.128307,1.80153341 C104.128307,2.5666733 104.623533,3.23201235 105.316336,3.47767599 C113.242517,7.76911281 118.669475,16.1191178 118.669475,25.7665339 L139.725557,25.7665339 C153.743273,25.7665339 165.10781,37.1182416 165.10781,51.0852435 L165.10781,59.066753 C165.10781,63.2839789 161.656624,66.7411829 157.417696,66.7411829 L29.1516152,66.7411829 C24.8972909,66.7411829 21.4691985,63.2839789 21.4691985,59.066753 L21.4691985,51.0852435 C21.4691985,37.1182416 32.8260376,25.7665339 46.8437538,25.7665339 L67.9024024,25.7665339 C67.9024024,21.3010853 69.0750358,17.1273623 71.1072582,13.4679976 L30.9477714,13.4679976 C13.8432325,13.4679976 0,27.3070497 0,44.3653191 L0,202.956557 L0,202.964234 C0,220.027621 13.8432325,233.833406 30.9477714,233.833406 L139.607524,233.833406 C151.097792,247.959066 168.633408,257 188.303885,257 C222.93121,257 251,228.999462 251,194.460689 C250.997434,179.147655 245.501196,165.134591 236.338233,154.269093 L236.338233,154.269093 Z M188.001278,99 C196.828688,99 204,106.139163 204,114.935222 C204,121.830049 199.588851,127.696634 193.447488,129.9211 L193.447488,119.743021 L194.957911,119.743021 C196.215318,119.743021 197.247824,118.722414 197.247824,117.462562 L197.247824,111.781773 C197.247824,110.521921 196.217874,109.506404 194.957911,109.506404 L194.922131,109.506404 L181.343663,109.506404 L181.323217,109.506404 C180.070921,109.506404 179.046083,110.521921 179.046083,111.781773 L179.046083,117.462562 C179.046083,118.719869 180.068365,119.743021 181.323217,119.743021 L182.805527,119.743021 L182.805527,130 C176.5236,127.854433 172,121.921675 172,114.935222 C172.002556,106.139163 179.166201,99 188.001278,99 L188.001278,99 Z M130.252605,169.089076 L73.331551,169.089076 L73.331551,179.960742 L126.604705,179.960742 C125.497033,184.640564 124.857499,189.492382 124.857499,194.516196 C124.857499,198.798117 125.287266,202.961953 126.103311,207 L40.6667296,207 C36.4330167,207 33,203.562654 33,199.30897 L33,91.6935969 C33,87.4501816 36.4330167,84 40.6667296,84 L147.317922,84 C151.564425,84 155,87.4476145 155,91.6935969 L155,140.945966 C152.191168,142.65052 149.476987,144.496264 146.982806,146.619255 L143.920719,143.546437 L144.959321,142.499061 C145.849552,141.595442 145.849552,140.157866 144.959321,139.249113 L140.912352,135.203364 C140.019563,134.307447 138.579334,134.307447 137.694219,135.203364 L134.117947,138.794736 L73.331551,138.794736 L73.331551,149.663835 L129.584932,149.663835 L132.071439,152.166757 C132.977019,153.07551 134.432597,153.07551 135.317712,152.166757 L136.397245,151.103978 L139.474681,154.1999 C135.727013,158.664086 132.649577,163.6956 130.252605,169.089076 L130.252605,169.089076 Z M187.997447,242 C162.039214,242 141,220.959644 141,194.984683 C141,169.040356 162.039214,148 187.997447,148 C213.940365,148 235,169.040356 235,194.984683 C235,220.959644 213.940365,242 187.997447,242 L187.997447,242 Z" id="Shape"></path>
                <rect id="Rectangle" x="73" y="108" width="61" height="11"></rect>
                <rect id="Rectangle" x="50" y="108" width="11" height="11"></rect>
                <rect id="Rectangle" x="50" y="138" width="11" height="11"></rect>
                <rect id="Rectangle" x="50" y="169" width="11" height="11"></rect>
            </g>
        </g>
    </g>
</svg>