<?xml version="1.0" encoding="UTF-8" standalone="no"?>
<svg width="1380px" height="320px" viewBox="0 0 1380 320" version="1.1" xmlns="http://www.w3.org/2000/svg" xmlns:xlink="http://www.w3.org/1999/xlink" xmlns:sketch="http://www.bohemiancoding.com/sketch/ns">
    <title>performance-wide</title>
    <description>Created with Sketch (http://www.bohemiancoding.com/sketch)</description>
    <defs></defs>
    <g id="Page-1" stroke="none" stroke-width="1" fill="none" fill-rule="evenodd" sketch:type="MSPage">
        <rect id="Rectangle-1" fill="#F6A623" sketch:type="MSShapeGroup" x="0" y="0" width="1380" height="320"></rect>
        <g id="icon_4625" sketch:type="MSLayerGroup" transform="translate(59.000000, -113.000000)" fill="#FFFFFF">
            <path d="M279.293083,251.831723 C281.968672,251.092276 283.553122,248.376791 282.821516,245.703083 C282.106632,243.029375 279.364154,241.471104 276.72201,242.164597 C274.046421,242.883156 272.45361,245.619529 273.172674,248.284882 C273.879197,250.95859 276.604953,252.537749 279.293083,251.831723 L279.293083,251.831723 Z" id="Shape" sketch:type="MSShapeGroup"></path>
            <rect id="Rectangle" sketch:type="MSShapeGroup" x="114" y="169" width="95" height="18"></rect>
            <rect id="Rectangle" sketch:type="MSShapeGroup" x="78" y="169" width="18" height="18"></rect>
            <rect id="Rectangle" sketch:type="MSShapeGroup" x="78" y="215" width="18" height="18"></rect>
            <rect id="Rectangle" sketch:type="MSShapeGroup" x="78" y="264" width="18" height="18"></rect>
            <path d="M308.303975,242.164648 C305.640203,241.471159 302.884433,243.029421 302.169354,245.690582 C301.462639,248.37681 303.030794,251.09228 305.698748,251.831724 C308.370883,252.537746 311.114109,250.958596 311.820824,248.284901 C312.556811,245.619562 310.955202,242.883203 308.303975,242.164648 L308.303975,242.164648 Z" id="Shape" sketch:type="MSShapeGroup"></path>
            <rect id="Rectangle" sketch:type="MSShapeGroup" x="114" y="169" width="95" height="18"></rect>
            <rect id="Rectangle" sketch:type="MSShapeGroup" x="78" y="169" width="18" height="18"></rect>
            <rect id="Rectangle" sketch:type="MSShapeGroup" x="78" y="215" width="18" height="18"></rect>
            <rect id="Rectangle" sketch:type="MSShapeGroup" x="78" y="264" width="18" height="18"></rect>
            <path d="M330.460274,258.459358 C328.513242,260.430275 328.513242,263.577048 330.460274,265.531227 C332.411494,267.489591 335.581179,267.489591 337.536585,265.531227 C339.487805,263.572863 339.487805,260.426091 337.536585,258.459358 C335.581179,256.513547 332.411494,256.513547 330.460274,258.459358 L330.460274,258.459358 Z" id="Shape" sketch:type="MSShapeGroup"></path>
            <rect id="Rectangle" sketch:type="MSShapeGroup" x="114" y="169" width="95" height="18"></rect>
            <rect id="Rectangle" sketch:type="MSShapeGroup" x="78" y="169" width="18" height="18"></rect>
            <rect id="Rectangle" sketch:type="MSShapeGroup" x="78" y="215" width="18" height="18"></rect>
            <rect id="Rectangle" sketch:type="MSShapeGroup" x="78" y="264" width="18" height="18"></rect>
            <path d="M350.285928,293.834627 C352.969034,293.103716 354.552986,290.35549 353.82161,287.715856 C353.127847,285.05534 350.377873,283.464042 347.715663,284.165716 C345.049274,284.896627 343.469502,287.62397 344.163264,290.297017 C344.894641,292.982594 347.619539,294.527949 350.285928,293.834627 L350.285928,293.834627 Z" id="Shape" sketch:type="MSShapeGroup"></path>
            <rect id="Rectangle" sketch:type="MSShapeGroup" x="114" y="169" width="95" height="18"></rect>
            <rect id="Rectangle" sketch:type="MSShapeGroup" x="78" y="169" width="18" height="18"></rect>
            <rect id="Rectangle" sketch:type="MSShapeGroup" x="78" y="215" width="18" height="18"></rect>
            <rect id="Rectangle" sketch:type="MSShapeGroup" x="78" y="264" width="18" height="18"></rect>
            <path d="M347.714575,323.827326 C350.377206,324.542216 353.127615,322.974475 353.821488,320.286321 C354.552979,317.623251 352.968777,314.89329 350.306146,314.17422 C347.618436,313.455149 344.893106,315.027071 344.161615,317.690141 C343.471922,320.378295 345.051945,323.108255 347.714575,323.827326 L347.714575,323.827326 Z" id="Shape" sketch:type="MSShapeGroup"></path>
            <rect id="Rectangle" sketch:type="MSShapeGroup" x="114" y="169" width="95" height="18"></rect>
            <rect id="Rectangle" sketch:type="MSShapeGroup" x="78" y="169" width="18" height="18"></rect>
            <rect id="Rectangle" sketch:type="MSShapeGroup" x="78" y="215" width="18" height="18"></rect>
            <rect id="Rectangle" sketch:type="MSShapeGroup" x="78" y="264" width="18" height="18"></rect>
            <path d="M330.460274,341.476643 C328.513242,343.42042 328.513242,346.597346 330.460274,348.532762 C332.411494,350.489079 335.581179,350.489079 337.536585,348.532762 C339.487805,346.597346 339.487805,343.42042 337.536585,341.476643 C335.581179,339.507786 332.411494,339.507786 330.460274,341.476643 L330.460274,341.476643 Z" id="Shape" sketch:type="MSShapeGroup"></path>
            <rect id="Rectangle" sketch:type="MSShapeGroup" x="114" y="169" width="95" height="18"></rect>
            <rect id="Rectangle" sketch:type="MSShapeGroup" x="78" y="169" width="18" height="18"></rect>
            <rect id="Rectangle" sketch:type="MSShapeGroup" x="78" y="215" width="18" height="18"></rect>
            <rect id="Rectangle" sketch:type="MSShapeGroup" x="78" y="264" width="18" height="18"></rect>
            <path d="M305.698214,356.167555 C303.030645,356.873931 301.462717,359.615839 302.16933,362.278332 C302.884305,364.965903 305.602048,366.537485 308.303065,365.831109 C310.953909,365.112194 312.559468,362.361927 311.819406,359.699434 C311.112793,357.032761 308.365782,355.465359 305.698214,356.167555 L305.698214,356.167555 Z" id="Shape" sketch:type="MSShapeGroup"></path>
            <rect id="Rectangle" sketch:type="MSShapeGroup" x="114" y="169" width="95" height="18"></rect>
            <rect id="Rectangle" sketch:type="MSShapeGroup" x="78" y="169" width="18" height="18"></rect>
            <rect id="Rectangle" sketch:type="MSShapeGroup" x="78" y="215" width="18" height="18"></rect>
            <rect id="Rectangle" sketch:type="MSShapeGroup" x="78" y="264" width="18" height="18"></rect>
            <path d="M279.293991,356.167569 C276.605473,355.465315 273.879324,357.032846 273.172699,359.699737 C272.453531,362.362449 274.046572,365.112942 276.722547,365.831916 C279.365072,366.53835 282.107946,364.954099 282.822933,362.278847 C283.550464,359.616136 281.969966,356.874003 279.293991,356.167569 L279.293991,356.167569 Z" id="Shape" sketch:type="MSShapeGroup"></path>
            <rect id="Rectangle" sketch:type="MSShapeGroup" x="114" y="169" width="95" height="18"></rect>
            <rect id="Rectangle" sketch:type="MSShapeGroup" x="78" y="169" width="18" height="18"></rect>
            <rect id="Rectangle" sketch:type="MSShapeGroup" x="78" y="215" width="18" height="18"></rect>
            <rect id="Rectangle" sketch:type="MSShapeGroup" x="78" y="264" width="18" height="18"></rect>
            <path d="M247.469695,341.476643 C245.510102,343.42042 245.510102,346.597346 247.469695,348.532762 C249.408353,350.489079 252.578038,350.489079 254.546006,348.532762 C256.484665,346.597346 256.484665,343.42042 254.546006,341.476643 C252.578038,339.507786 249.408353,339.507786 247.469695,341.476643 L247.469695,341.476643 Z" id="Shape" sketch:type="MSShapeGroup"></path>
            <rect id="Rectangle" sketch:type="MSShapeGroup" x="114" y="169" width="95" height="18"></rect>
            <rect id="Rectangle" sketch:type="MSShapeGroup" x="78" y="169" width="18" height="18"></rect>
            <rect id="Rectangle" sketch:type="MSShapeGroup" x="78" y="215" width="18" height="18"></rect>
            <rect id="Rectangle" sketch:type="MSShapeGroup" x="78" y="264" width="18" height="18"></rect>
            <path d="M234.704222,314.172882 C232.041464,314.892365 230.448826,317.623891 231.176173,320.288487 C231.882619,322.978182 234.63316,324.534273 237.295918,323.831522 C239.962856,323.112039 241.542954,320.380514 240.828147,317.690819 C240.121701,315.026223 237.379521,313.457583 234.704222,314.172882 L234.704222,314.172882 Z" id="Shape" sketch:type="MSShapeGroup"></path>
            <rect id="Rectangle" sketch:type="MSShapeGroup" x="114" y="169" width="95" height="18"></rect>
            <rect id="Rectangle" sketch:type="MSShapeGroup" x="78" y="169" width="18" height="18"></rect>
            <rect id="Rectangle" sketch:type="MSShapeGroup" x="78" y="215" width="18" height="18"></rect>
            <rect id="Rectangle" sketch:type="MSShapeGroup" x="78" y="264" width="18" height="18"></rect>
            <path d="M237.295918,284.165716 C234.63316,283.464042 231.882619,285.05534 231.176173,287.715856 C230.448826,290.35549 232.041464,293.103716 234.704222,293.834627 C237.379521,294.527949 240.121701,292.982594 240.828147,290.297017 C241.542954,287.628147 239.962856,284.896627 237.295918,284.165716 L237.295918,284.165716 Z" id="Shape" sketch:type="MSShapeGroup"></path>
            <rect id="Rectangle" sketch:type="MSShapeGroup" x="114" y="169" width="95" height="18"></rect>
            <rect id="Rectangle" sketch:type="MSShapeGroup" x="78" y="169" width="18" height="18"></rect>
            <rect id="Rectangle" sketch:type="MSShapeGroup" x="78" y="215" width="18" height="18"></rect>
            <rect id="Rectangle" sketch:type="MSShapeGroup" x="78" y="264" width="18" height="18"></rect>
            <path d="M301.263214,294.171882 C300.712405,293.597432 300.098193,293.137871 299.476056,292.706043 L299.507757,292.622847 L254.087783,258.381652 C252.221371,256.539449 249.22164,256.539449 247.390893,258.381652 C245.536369,260.247625 245.536369,263.226842 247.390893,265.076968 L281.636174,310.517962 L281.691651,310.454574 C282.147357,311.100336 282.607025,311.686671 283.193498,312.253198 C288.166633,317.248934 296.290079,317.248934 301.271139,312.253198 C306.244274,307.265385 306.244274,299.175541 301.263214,294.171882 L301.263214,294.171882 Z" id="Shape" sketch:type="MSShapeGroup"></path>
            <rect id="Rectangle" sketch:type="MSShapeGroup" x="114" y="169" width="95" height="18"></rect>
            <rect id="Rectangle" sketch:type="MSShapeGroup" x="78" y="169" width="18" height="18"></rect>
            <rect id="Rectangle" sketch:type="MSShapeGroup" x="78" y="215" width="18" height="18"></rect>
            <rect id="Rectangle" sketch:type="MSShapeGroup" x="78" y="264" width="18" height="18"></rect>
            <rect id="Rectangle" sketch:type="MSShapeGroup" x="114" y="169" width="95" height="18"></rect>
            <rect id="Rectangle" sketch:type="MSShapeGroup" x="78" y="169" width="18" height="18"></rect>
            <rect id="Rectangle" sketch:type="MSShapeGroup" x="78" y="215" width="18" height="18"></rect>
            <rect id="Rectangle" sketch:type="MSShapeGroup" x="78" y="264" width="18" height="18"></rect>
            <path d="M368.160356,240.707806 L372.980904,235.892452 L374.643713,237.545484 C376.050705,238.958947 378.309088,238.958947 379.704089,237.545484 L386.027561,231.264762 C387.386588,229.851299 387.386588,227.591357 386.027561,226.221816 L385.983592,226.177895 L370.946361,211.156865 C369.55136,209.763368 367.276988,209.763368 365.873993,211.156865 L359.574504,217.449567 C358.167512,218.863029 358.167512,221.099014 359.574504,222.504491 L361.193345,224.133566 L356.420763,228.912984 C345.116857,219.35814 331.626518,212.330758 316.797138,208.677318 C325.175138,201.869541 330.539297,191.492174 330.539297,179.845086 C330.539297,159.301972 313.895216,142.663845 293.329943,142.663845 C293.08212,142.663845 292.826303,142.727731 292.578481,142.739709 L292.578481,69.2237081 C292.578481,42.6074978 270.997935,21.0142686 244.36101,21.0142686 L192.717992,21.0142686 C187.461756,10.5770089 177.724729,2.77501743 166.009119,0.195648711 C165.901196,0.151727571 165.82525,0.151727571 165.777285,0.0838494474 C165.529462,0.0638852932 165.277643,0 165.037814,0 C163.478931,0 162.207841,1.26572737 162.207841,2.8109529 C162.207841,4.00480932 162.979288,5.04294534 164.058516,5.42625709 C176.405674,12.1222344 184.85962,25.1508414 184.85962,40.2038136 L217.660131,40.2038136 C239.496494,40.2038136 257.199816,57.9160112 257.199816,79.7088818 L257.199816,92.1625212 C257.199816,98.7427064 251.823666,104.137021 245.220395,104.137021 L45.4114803,104.137021 C38.7842261,104.137021 33.4440503,98.7427064 33.4440503,92.1625212 L33.4440503,79.7088818 C33.4440503,57.9160112 51.1353813,40.2038136 72.971744,40.2038136 L105.776252,40.2038136 C105.776252,33.2363238 107.602944,26.7240167 110.768677,21.0142686 L48.2094766,21.0142686 C21.5645574,21.0142686 0,42.6074978 0,69.2237081 L0,316.675406 L0,316.687384 C0,343.31158 21.5645574,364.852903 48.2094766,364.852903 L217.476263,364.852903 C235.375445,386.893329 262.691883,401 293.33394,401 C347.275312,401 391,357.310445 391,303.419207 C390.996003,279.526108 382.434134,257.661366 368.160356,240.707806 L368.160356,240.707806 Z M293.001997,154 C306.794825,154 318,165.054187 318,178.673892 C318,189.349754 311.107579,198.433498 301.5117,201.877833 L301.5117,186.118227 L303.871735,186.118227 C305.836435,186.118227 307.449724,184.537931 307.449724,182.587192 L307.449724,173.791133 C307.449724,171.840394 305.840428,170.26798 303.871735,170.26798 L303.815829,170.26798 L282.599473,170.26798 L282.567527,170.26798 C280.610814,170.26798 279.009504,171.840394 279.009504,173.791133 L279.009504,182.587192 C279.009504,184.53399 280.606821,186.118227 282.567527,186.118227 L284.883635,186.118227 L284.883635,202 C275.068126,198.677833 268,189.491626 268,178.673892 C268.003993,165.054187 279.197189,154 293.001997,154 L293.001997,154 Z M202.458975,263.821973 L113.811432,263.821973 L113.811432,280.792378 L196.77782,280.792378 C195.052756,288.097466 194.056761,295.671036 194.056761,303.513086 C194.056761,310.197061 194.72607,316.696707 195.99696,323 L62.9399887,323 C56.3465014,323 51,317.634387 51,310.99449 L51,143.009517 C51,136.385649 56.3465014,131 62.9399887,131 L229.036107,131 C235.649515,131 241,136.381642 241,143.009517 L241,219.891264 C236.62559,222.552031 232.398587,225.433193 228.514206,228.74713 L223.745382,223.950536 L225.362878,222.315607 C226.749303,220.90508 226.749303,218.661059 225.362878,217.242518 L219.060221,210.927203 C217.669812,209.528697 215.426831,209.528697 214.048374,210.927203 L208.47877,216.533247 L113.811432,216.533247 L113.811432,233.499645 L201.419157,233.499645 L205.291585,237.406645 C206.701914,238.825187 208.968799,238.825187 210.347256,237.406645 L212.028496,235.747673 L216.821224,240.580331 C210.984693,247.548817 206.191965,255.402889 202.458975,263.821973 L202.458975,263.821973 Z M292.996035,378 C252.677927,378 220,345.096464 220,304.476047 C220,263.903536 252.677927,231 292.996035,231 C333.290354,231 366,263.903536 366,304.476047 C366,345.096464 333.290354,378 292.996035,378 L292.996035,378 Z" id="Shape" sketch:type="MSShapeGroup"></path>
            <rect id="Rectangle" sketch:type="MSShapeGroup" x="114" y="169" width="95" height="18"></rect>
            <rect id="Rectangle" sketch:type="MSShapeGroup" x="78" y="169" width="18" height="18"></rect>
            <rect id="Rectangle" sketch:type="MSShapeGroup" x="78" y="215" width="18" height="18"></rect>
            <rect id="Rectangle" sketch:type="MSShapeGroup" x="78" y="264" width="18" height="18"></rect>
        </g>
        <g id="icon_4625-copy" sketch:type="MSLayerGroup" transform="translate(503.000000, -113.000000)" fill="#FFFFFF">
            <path d="M279.293083,251.831723 C281.968672,251.092276 283.553122,248.376791 282.821516,245.703083 C282.106632,243.029375 279.364154,241.471104 276.72201,242.164597 C274.046421,242.883156 272.45361,245.619529 273.172674,248.284882 C273.879197,250.95859 276.604953,252.537749 279.293083,251.831723 L279.293083,251.831723 Z" id="Shape" sketch:type="MSShapeGroup"></path>
            <rect id="Rectangle" sketch:type="MSShapeGroup" x="114" y="169" width="95" height="18"></rect>
            <rect id="Rectangle" sketch:type="MSShapeGroup" x="78" y="169" width="18" height="18"></rect>
            <rect id="Rectangle" sketch:type="MSShapeGroup" x="78" y="215" width="18" height="18"></rect>
            <rect id="Rectangle" sketch:type="MSShapeGroup" x="78" y="264" width="18" height="18"></rect>
            <path d="M308.303975,242.164648 C305.640203,241.471159 302.884433,243.029421 302.169354,245.690582 C301.462639,248.37681 303.030794,251.09228 305.698748,251.831724 C308.370883,252.537746 311.114109,250.958596 311.820824,248.284901 C312.556811,245.619562 310.955202,242.883203 308.303975,242.164648 L308.303975,242.164648 Z" id="Shape" sketch:type="MSShapeGroup"></path>
            <rect id="Rectangle" sketch:type="MSShapeGroup" x="114" y="169" width="95" height="18"></rect>
            <rect id="Rectangle" sketch:type="MSShapeGroup" x="78" y="169" width="18" height="18"></rect>
            <rect id="Rectangle" sketch:type="MSShapeGroup" x="78" y="215" width="18" height="18"></rect>
            <rect id="Rectangle" sketch:type="MSShapeGroup" x="78" y="264" width="18" height="18"></rect>
            <path d="M330.460274,258.459358 C328.513242,260.430275 328.513242,263.577048 330.460274,265.531227 C332.411494,267.489591 335.581179,267.489591 337.536585,265.531227 C339.487805,263.572863 339.487805,260.426091 337.536585,258.459358 C335.581179,256.513547 332.411494,256.513547 330.460274,258.459358 L330.460274,258.459358 Z" id="Shape" sketch:type="MSShapeGroup"></path>
            <rect id="Rectangle" sketch:type="MSShapeGroup" x="114" y="169" width="95" height="18"></rect>
            <rect id="Rectangle" sketch:type="MSShapeGroup" x="78" y="169" width="18" height="18"></rect>
            <rect id="Rectangle" sketch:type="MSShapeGroup" x="78" y="215" width="18" height="18"></rect>
            <rect id="Rectangle" sketch:type="MSShapeGroup" x="78" y="264" width="18" height="18"></rect>
            <path d="M350.285928,293.834627 C352.969034,293.103716 354.552986,290.35549 353.82161,287.715856 C353.127847,285.05534 350.377873,283.464042 347.715663,284.165716 C345.049274,284.896627 343.469502,287.62397 344.163264,290.297017 C344.894641,292.982594 347.619539,294.527949 350.285928,293.834627 L350.285928,293.834627 Z" id="Shape" sketch:type="MSShapeGroup"></path>
            <rect id="Rectangle" sketch:type="MSShapeGroup" x="114" y="169" width="95" height="18"></rect>
            <rect id="Rectangle" sketch:type="MSShapeGroup" x="78" y="169" width="18" height="18"></rect>
            <rect id="Rectangle" sketch:type="MSShapeGroup" x="78" y="215" width="18" height="18"></rect>
            <rect id="Rectangle" sketch:type="MSShapeGroup" x="78" y="264" width="18" height="18"></rect>
            <path d="M347.714575,323.827326 C350.377206,324.542216 353.127615,322.974475 353.821488,320.286321 C354.552979,317.623251 352.968777,314.89329 350.306146,314.17422 C347.618436,313.455149 344.893106,315.027071 344.161615,317.690141 C343.471922,320.378295 345.051945,323.108255 347.714575,323.827326 L347.714575,323.827326 Z" id="Shape" sketch:type="MSShapeGroup"></path>
            <rect id="Rectangle" sketch:type="MSShapeGroup" x="114" y="169" width="95" height="18"></rect>
            <rect id="Rectangle" sketch:type="MSShapeGroup" x="78" y="169" width="18" height="18"></rect>
            <rect id="Rectangle" sketch:type="MSShapeGroup" x="78" y="215" width="18" height="18"></rect>
            <rect id="Rectangle" sketch:type="MSShapeGroup" x="78" y="264" width="18" height="18"></rect>
            <path d="M330.460274,341.476643 C328.513242,343.42042 328.513242,346.597346 330.460274,348.532762 C332.411494,350.489079 335.581179,350.489079 337.536585,348.532762 C339.487805,346.597346 339.487805,343.42042 337.536585,341.476643 C335.581179,339.507786 332.411494,339.507786 330.460274,341.476643 L330.460274,341.476643 Z" id="Shape" sketch:type="MSShapeGroup"></path>
            <rect id="Rectangle" sketch:type="MSShapeGroup" x="114" y="169" width="95" height="18"></rect>
            <rect id="Rectangle" sketch:type="MSShapeGroup" x="78" y="169" width="18" height="18"></rect>
            <rect id="Rectangle" sketch:type="MSShapeGroup" x="78" y="215" width="18" height="18"></rect>
            <rect id="Rectangle" sketch:type="MSShapeGroup" x="78" y="264" width="18" height="18"></rect>
            <path d="M305.698214,356.167555 C303.030645,356.873931 301.462717,359.615839 302.16933,362.278332 C302.884305,364.965903 305.602048,366.537485 308.303065,365.831109 C310.953909,365.112194 312.559468,362.361927 311.819406,359.699434 C311.112793,357.032761 308.365782,355.465359 305.698214,356.167555 L305.698214,356.167555 Z" id="Shape" sketch:type="MSShapeGroup"></path>
            <rect id="Rectangle" sketch:type="MSShapeGroup" x="114" y="169" width="95" height="18"></rect>
            <rect id="Rectangle" sketch:type="MSShapeGroup" x="78" y="169" width="18" height="18"></rect>
            <rect id="Rectangle" sketch:type="MSShapeGroup" x="78" y="215" width="18" height="18"></rect>
            <rect id="Rectangle" sketch:type="MSShapeGroup" x="78" y="264" width="18" height="18"></rect>
            <path d="M279.293991,356.167569 C276.605473,355.465315 273.879324,357.032846 273.172699,359.699737 C272.453531,362.362449 274.046572,365.112942 276.722547,365.831916 C279.365072,366.53835 282.107946,364.954099 282.822933,362.278847 C283.550464,359.616136 281.969966,356.874003 279.293991,356.167569 L279.293991,356.167569 Z" id="Shape" sketch:type="MSShapeGroup"></path>
            <rect id="Rectangle" sketch:type="MSShapeGroup" x="114" y="169" width="95" height="18"></rect>
            <rect id="Rectangle" sketch:type="MSShapeGroup" x="78" y="169" width="18" height="18"></rect>
            <rect id="Rectangle" sketch:type="MSShapeGroup" x="78" y="215" width="18" height="18"></rect>
            <rect id="Rectangle" sketch:type="MSShapeGroup" x="78" y="264" width="18" height="18"></rect>
            <path d="M247.469695,341.476643 C245.510102,343.42042 245.510102,346.597346 247.469695,348.532762 C249.408353,350.489079 252.578038,350.489079 254.546006,348.532762 C256.484665,346.597346 256.484665,343.42042 254.546006,341.476643 C252.578038,339.507786 249.408353,339.507786 247.469695,341.476643 L247.469695,341.476643 Z" id="Shape" sketch:type="MSShapeGroup"></path>
            <rect id="Rectangle" sketch:type="MSShapeGroup" x="114" y="169" width="95" height="18"></rect>
            <rect id="Rectangle" sketch:type="MSShapeGroup" x="78" y="169" width="18" height="18"></rect>
            <rect id="Rectangle" sketch:type="MSShapeGroup" x="78" y="215" width="18" height="18"></rect>
            <rect id="Rectangle" sketch:type="MSShapeGroup" x="78" y="264" width="18" height="18"></rect>
            <path d="M234.704222,314.172882 C232.041464,314.892365 230.448826,317.623891 231.176173,320.288487 C231.882619,322.978182 234.63316,324.534273 237.295918,323.831522 C239.962856,323.112039 241.542954,320.380514 240.828147,317.690819 C240.121701,315.026223 237.379521,313.457583 234.704222,314.172882 L234.704222,314.172882 Z" id="Shape" sketch:type="MSShapeGroup"></path>
            <rect id="Rectangle" sketch:type="MSShapeGroup" x="114" y="169" width="95" height="18"></rect>
            <rect id="Rectangle" sketch:type="MSShapeGroup" x="78" y="169" width="18" height="18"></rect>
            <rect id="Rectangle" sketch:type="MSShapeGroup" x="78" y="215" width="18" height="18"></rect>
            <rect id="Rectangle" sketch:type="MSShapeGroup" x="78" y="264" width="18" height="18"></rect>
            <path d="M237.295918,284.165716 C234.63316,283.464042 231.882619,285.05534 231.176173,287.715856 C230.448826,290.35549 232.041464,293.103716 234.704222,293.834627 C237.379521,294.527949 240.121701,292.982594 240.828147,290.297017 C241.542954,287.628147 239.962856,284.896627 237.295918,284.165716 L237.295918,284.165716 Z" id="Shape" sketch:type="MSShapeGroup"></path>
            <rect id="Rectangle" sketch:type="MSShapeGroup" x="114" y="169" width="95" height="18"></rect>
            <rect id="Rectangle" sketch:type="MSShapeGroup" x="78" y="169" width="18" height="18"></rect>
            <rect id="Rectangle" sketch:type="MSShapeGroup" x="78" y="215" width="18" height="18"></rect>
            <rect id="Rectangle" sketch:type="MSShapeGroup" x="78" y="264" width="18" height="18"></rect>
            <path d="M301.263214,294.171882 C300.712405,293.597432 300.098193,293.137871 299.476056,292.706043 L299.507757,292.622847 L254.087783,258.381652 C252.221371,256.539449 249.22164,256.539449 247.390893,258.381652 C245.536369,260.247625 245.536369,263.226842 247.390893,265.076968 L281.636174,310.517962 L281.691651,310.454574 C282.147357,311.100336 282.607025,311.686671 283.193498,312.253198 C288.166633,317.248934 296.290079,317.248934 301.271139,312.253198 C306.244274,307.265385 306.244274,299.175541 301.263214,294.171882 L301.263214,294.171882 Z" id="Shape" sketch:type="MSShapeGroup"></path>
            <rect id="Rectangle" sketch:type="MSShapeGroup" x="114" y="169" width="95" height="18"></rect>
            <rect id="Rectangle" sketch:type="MSShapeGroup" x="78" y="169" width="18" height="18"></rect>
            <rect id="Rectangle" sketch:type="MSShapeGroup" x="78" y="215" width="18" height="18"></rect>
            <rect id="Rectangle" sketch:type="MSShapeGroup" x="78" y="264" width="18" height="18"></rect>
            <rect id="Rectangle" sketch:type="MSShapeGroup" x="114" y="169" width="95" height="18"></rect>
            <rect id="Rectangle" sketch:type="MSShapeGroup" x="78" y="169" width="18" height="18"></rect>
            <rect id="Rectangle" sketch:type="MSShapeGroup" x="78" y="215" width="18" height="18"></rect>
            <rect id="Rectangle" sketch:type="MSShapeGroup" x="78" y="264" width="18" height="18"></rect>
            <path d="M368.160356,240.707806 L372.980904,235.892452 L374.643713,237.545484 C376.050705,238.958947 378.309088,238.958947 379.704089,237.545484 L386.027561,231.264762 C387.386588,229.851299 387.386588,227.591357 386.027561,226.221816 L385.983592,226.177895 L370.946361,211.156865 C369.55136,209.763368 367.276988,209.763368 365.873993,211.156865 L359.574504,217.449567 C358.167512,218.863029 358.167512,221.099014 359.574504,222.504491 L361.193345,224.133566 L356.420763,228.912984 C345.116857,219.35814 331.626518,212.330758 316.797138,208.677318 C325.175138,201.869541 330.539297,191.492174 330.539297,179.845086 C330.539297,159.301972 313.895216,142.663845 293.329943,142.663845 C293.08212,142.663845 292.826303,142.727731 292.578481,142.739709 L292.578481,69.2237081 C292.578481,42.6074978 270.997935,21.0142686 244.36101,21.0142686 L192.717992,21.0142686 C187.461756,10.5770089 177.724729,2.77501743 166.009119,0.195648711 C165.901196,0.151727571 165.82525,0.151727571 165.777285,0.0838494474 C165.529462,0.0638852932 165.277643,0 165.037814,0 C163.478931,0 162.207841,1.26572737 162.207841,2.8109529 C162.207841,4.00480932 162.979288,5.04294534 164.058516,5.42625709 C176.405674,12.1222344 184.85962,25.1508414 184.85962,40.2038136 L217.660131,40.2038136 C239.496494,40.2038136 257.199816,57.9160112 257.199816,79.7088818 L257.199816,92.1625212 C257.199816,98.7427064 251.823666,104.137021 245.220395,104.137021 L45.4114803,104.137021 C38.7842261,104.137021 33.4440503,98.7427064 33.4440503,92.1625212 L33.4440503,79.7088818 C33.4440503,57.9160112 51.1353813,40.2038136 72.971744,40.2038136 L105.776252,40.2038136 C105.776252,33.2363238 107.602944,26.7240167 110.768677,21.0142686 L48.2094766,21.0142686 C21.5645574,21.0142686 0,42.6074978 0,69.2237081 L0,316.675406 L0,316.687384 C0,343.31158 21.5645574,364.852903 48.2094766,364.852903 L217.476263,364.852903 C235.375445,386.893329 262.691883,401 293.33394,401 C347.275312,401 391,357.310445 391,303.419207 C390.996003,279.526108 382.434134,257.661366 368.160356,240.707806 L368.160356,240.707806 Z M293.001997,154 C306.794825,154 318,165.054187 318,178.673892 C318,189.349754 311.107579,198.433498 301.5117,201.877833 L301.5117,186.118227 L303.871735,186.118227 C305.836435,186.118227 307.449724,184.537931 307.449724,182.587192 L307.449724,173.791133 C307.449724,171.840394 305.840428,170.26798 303.871735,170.26798 L303.815829,170.26798 L282.599473,170.26798 L282.567527,170.26798 C280.610814,170.26798 279.009504,171.840394 279.009504,173.791133 L279.009504,182.587192 C279.009504,184.53399 280.606821,186.118227 282.567527,186.118227 L284.883635,186.118227 L284.883635,202 C275.068126,198.677833 268,189.491626 268,178.673892 C268.003993,165.054187 279.197189,154 293.001997,154 L293.001997,154 Z M202.458975,263.821973 L113.811432,263.821973 L113.811432,280.792378 L196.77782,280.792378 C195.052756,288.097466 194.056761,295.671036 194.056761,303.513086 C194.056761,310.197061 194.72607,316.696707 195.99696,323 L62.9399887,323 C56.3465014,323 51,317.634387 51,310.99449 L51,143.009517 C51,136.385649 56.3465014,131 62.9399887,131 L229.036107,131 C235.649515,131 241,136.381642 241,143.009517 L241,219.891264 C236.62559,222.552031 232.398587,225.433193 228.514206,228.74713 L223.745382,223.950536 L225.362878,222.315607 C226.749303,220.90508 226.749303,218.661059 225.362878,217.242518 L219.060221,210.927203 C217.669812,209.528697 215.426831,209.528697 214.048374,210.927203 L208.47877,216.533247 L113.811432,216.533247 L113.811432,233.499645 L201.419157,233.499645 L205.291585,237.406645 C206.701914,238.825187 208.968799,238.825187 210.347256,237.406645 L212.028496,235.747673 L216.821224,240.580331 C210.984693,247.548817 206.191965,255.402889 202.458975,263.821973 L202.458975,263.821973 Z M292.996035,378 C252.677927,378 220,345.096464 220,304.476047 C220,263.903536 252.677927,231 292.996035,231 C333.290354,231 366,263.903536 366,304.476047 C366,345.096464 333.290354,378 292.996035,378 L292.996035,378 Z" id="Shape" sketch:type="MSShapeGroup"></path>
            <rect id="Rectangle" sketch:type="MSShapeGroup" x="114" y="169" width="95" height="18"></rect>
            <rect id="Rectangle" sketch:type="MSShapeGroup" x="78" y="169" width="18" height="18"></rect>
            <rect id="Rectangle" sketch:type="MSShapeGroup" x="78" y="215" width="18" height="18"></rect>
            <rect id="Rectangle" sketch:type="MSShapeGroup" x="78" y="264" width="18" height="18"></rect>
        </g>
        <g id="icon_4625-copy-2" sketch:type="MSLayerGroup" transform="translate(947.000000, -113.000000)" fill="#FFFFFF">
            <path d="M279.293083,251.831723 C281.968672,251.092276 283.553122,248.376791 282.821516,245.703083 C282.106632,243.029375 279.364154,241.471104 276.72201,242.164597 C274.046421,242.883156 272.45361,245.619529 273.172674,248.284882 C273.879197,250.95859 276.604953,252.537749 279.293083,251.831723 L279.293083,251.831723 Z" id="Shape" sketch:type="MSShapeGroup"></path>
            <rect id="Rectangle" sketch:type="MSShapeGroup" x="114" y="169" width="95" height="18"></rect>
            <rect id="Rectangle" sketch:type="MSShapeGroup" x="78" y="169" width="18" height="18"></rect>
            <rect id="Rectangle" sketch:type="MSShapeGroup" x="78" y="215" width="18" height="18"></rect>
            <rect id="Rectangle" sketch:type="MSShapeGroup" x="78" y="264" width="18" height="18"></rect>
            <path d="M308.303975,242.164648 C305.640203,241.471159 302.884433,243.029421 302.169354,245.690582 C301.462639,248.37681 303.030794,251.09228 305.698748,251.831724 C308.370883,252.537746 311.114109,250.958596 311.820824,248.284901 C312.556811,245.619562 310.955202,242.883203 308.303975,242.164648 L308.303975,242.164648 Z" id="Shape" sketch:type="MSShapeGroup"></path>
            <rect id="Rectangle" sketch:type="MSShapeGroup" x="114" y="169" width="95" height="18"></rect>
            <rect id="Rectangle" sketch:type="MSShapeGroup" x="78" y="169" width="18" height="18"></rect>
            <rect id="Rectangle" sketch:type="MSShapeGroup" x="78" y="215" width="18" height="18"></rect>
            <rect id="Rectangle" sketch:type="MSShapeGroup" x="78" y="264" width="18" height="18"></rect>
            <path d="M330.460274,258.459358 C328.513242,260.430275 328.513242,263.577048 330.460274,265.531227 C332.411494,267.489591 335.581179,267.489591 337.536585,265.531227 C339.487805,263.572863 339.487805,260.426091 337.536585,258.459358 C335.581179,256.513547 332.411494,256.513547 330.460274,258.459358 L330.460274,258.459358 Z" id="Shape" sketch:type="MSShapeGroup"></path>
            <rect id="Rectangle" sketch:type="MSShapeGroup" x="114" y="169" width="95" height="18"></rect>
            <rect id="Rectangle" sketch:type="MSShapeGroup" x="78" y="169" width="18" height="18"></rect>
            <rect id="Rectangle" sketch:type="MSShapeGroup" x="78" y="215" width="18" height="18"></rect>
            <rect id="Rectangle" sketch:type="MSShapeGroup" x="78" y="264" width="18" height="18"></rect>
            <path d="M350.285928,293.834627 C352.969034,293.103716 354.552986,290.35549 353.82161,287.715856 C353.127847,285.05534 350.377873,283.464042 347.715663,284.165716 C345.049274,284.896627 343.469502,287.62397 344.163264,290.297017 C344.894641,292.982594 347.619539,294.527949 350.285928,293.834627 L350.285928,293.834627 Z" id="Shape" sketch:type="MSShapeGroup"></path>
            <rect id="Rectangle" sketch:type="MSShapeGroup" x="114" y="169" width="95" height="18"></rect>
            <rect id="Rectangle" sketch:type="MSShapeGroup" x="78" y="169" width="18" height="18"></rect>
            <rect id="Rectangle" sketch:type="MSShapeGroup" x="78" y="215" width="18" height="18"></rect>
            <rect id="Rectangle" sketch:type="MSShapeGroup" x="78" y="264" width="18" height="18"></rect>
            <path d="M347.714575,323.827326 C350.377206,324.542216 353.127615,322.974475 353.821488,320.286321 C354.552979,317.623251 352.968777,314.89329 350.306146,314.17422 C347.618436,313.455149 344.893106,315.027071 344.161615,317.690141 C343.471922,320.378295 345.051945,323.108255 347.714575,323.827326 L347.714575,323.827326 Z" id="Shape" sketch:type="MSShapeGroup"></path>
            <rect id="Rectangle" sketch:type="MSShapeGroup" x="114" y="169" width="95" height="18"></rect>
            <rect id="Rectangle" sketch:type="MSShapeGroup" x="78" y="169" width="18" height="18"></rect>
            <rect id="Rectangle" sketch:type="MSShapeGroup" x="78" y="215" width="18" height="18"></rect>
            <rect id="Rectangle" sketch:type="MSShapeGroup" x="78" y="264" width="18" height="18"></rect>
            <path d="M330.460274,341.476643 C328.513242,343.42042 328.513242,346.597346 330.460274,348.532762 C332.411494,350.489079 335.581179,350.489079 337.536585,348.532762 C339.487805,346.597346 339.487805,343.42042 337.536585,341.476643 C335.581179,339.507786 332.411494,339.507786 330.460274,341.476643 L330.460274,341.476643 Z" id="Shape" sketch:type="MSShapeGroup"></path>
            <rect id="Rectangle" sketch:type="MSShapeGroup" x="114" y="169" width="95" height="18"></rect>
            <rect id="Rectangle" sketch:type="MSShapeGroup" x="78" y="169" width="18" height="18"></rect>
            <rect id="Rectangle" sketch:type="MSShapeGroup" x="78" y="215" width="18" height="18"></rect>
            <rect id="Rectangle" sketch:type="MSShapeGroup" x="78" y="264" width="18" height="18"></rect>
            <path d="M305.698214,356.167555 C303.030645,356.873931 301.462717,359.615839 302.16933,362.278332 C302.884305,364.965903 305.602048,366.537485 308.303065,365.831109 C310.953909,365.112194 312.559468,362.361927 311.819406,359.699434 C311.112793,357.032761 308.365782,355.465359 305.698214,356.167555 L305.698214,356.167555 Z" id="Shape" sketch:type="MSShapeGroup"></path>
            <rect id="Rectangle" sketch:type="MSShapeGroup" x="114" y="169" width="95" height="18"></rect>
            <rect id="Rectangle" sketch:type="MSShapeGroup" x="78" y="169" width="18" height="18"></rect>
            <rect id="Rectangle" sketch:type="MSShapeGroup" x="78" y="215" width="18" height="18"></rect>
            <rect id="Rectangle" sketch:type="MSShapeGroup" x="78" y="264" width="18" height="18"></rect>
            <path d="M279.293991,356.167569 C276.605473,355.465315 273.879324,357.032846 273.172699,359.699737 C272.453531,362.362449 274.046572,365.112942 276.722547,365.831916 C279.365072,366.53835 282.107946,364.954099 282.822933,362.278847 C283.550464,359.616136 281.969966,356.874003 279.293991,356.167569 L279.293991,356.167569 Z" id="Shape" sketch:type="MSShapeGroup"></path>
            <rect id="Rectangle" sketch:type="MSShapeGroup" x="114" y="169" width="95" height="18"></rect>
            <rect id="Rectangle" sketch:type="MSShapeGroup" x="78" y="169" width="18" height="18"></rect>
            <rect id="Rectangle" sketch:type="MSShapeGroup" x="78" y="215" width="18" height="18"></rect>
            <rect id="Rectangle" sketch:type="MSShapeGroup" x="78" y="264" width="18" height="18"></rect>
            <path d="M247.469695,341.476643 C245.510102,343.42042 245.510102,346.597346 247.469695,348.532762 C249.408353,350.489079 252.578038,350.489079 254.546006,348.532762 C256.484665,346.597346 256.484665,343.42042 254.546006,341.476643 C252.578038,339.507786 249.408353,339.507786 247.469695,341.476643 L247.469695,341.476643 Z" id="Shape" sketch:type="MSShapeGroup"></path>
            <rect id="Rectangle" sketch:type="MSShapeGroup" x="114" y="169" width="95" height="18"></rect>
            <rect id="Rectangle" sketch:type="MSShapeGroup" x="78" y="169" width="18" height="18"></rect>
            <rect id="Rectangle" sketch:type="MSShapeGroup" x="78" y="215" width="18" height="18"></rect>
            <rect id="Rectangle" sketch:type="MSShapeGroup" x="78" y="264" width="18" height="18"></rect>
            <path d="M234.704222,314.172882 C232.041464,314.892365 230.448826,317.623891 231.176173,320.288487 C231.882619,322.978182 234.63316,324.534273 237.295918,323.831522 C239.962856,323.112039 241.542954,320.380514 240.828147,317.690819 C240.121701,315.026223 237.379521,313.457583 234.704222,314.172882 L234.704222,314.172882 Z" id="Shape" sketch:type="MSShapeGroup"></path>
            <rect id="Rectangle" sketch:type="MSShapeGroup" x="114" y="169" width="95" height="18"></rect>
            <rect id="Rectangle" sketch:type="MSShapeGroup" x="78" y="169" width="18" height="18"></rect>
            <rect id="Rectangle" sketch:type="MSShapeGroup" x="78" y="215" width="18" height="18"></rect>
            <rect id="Rectangle" sketch:type="MSShapeGroup" x="78" y="264" width="18" height="18"></rect>
            <path d="M237.295918,284.165716 C234.63316,283.464042 231.882619,285.05534 231.176173,287.715856 C230.448826,290.35549 232.041464,293.103716 234.704222,293.834627 C237.379521,294.527949 240.121701,292.982594 240.828147,290.297017 C241.542954,287.628147 239.962856,284.896627 237.295918,284.165716 L237.295918,284.165716 Z" id="Shape" sketch:type="MSShapeGroup"></path>
            <rect id="Rectangle" sketch:type="MSShapeGroup" x="114" y="169" width="95" height="18"></rect>
            <rect id="Rectangle" sketch:type="MSShapeGroup" x="78" y="169" width="18" height="18"></rect>
            <rect id="Rectangle" sketch:type="MSShapeGroup" x="78" y="215" width="18" height="18"></rect>
            <rect id="Rectangle" sketch:type="MSShapeGroup" x="78" y="264" width="18" height="18"></rect>
            <path d="M301.263214,294.171882 C300.712405,293.597432 300.098193,293.137871 299.476056,292.706043 L299.507757,292.622847 L254.087783,258.381652 C252.221371,256.539449 249.22164,256.539449 247.390893,258.381652 C245.536369,260.247625 245.536369,263.226842 247.390893,265.076968 L281.636174,310.517962 L281.691651,310.454574 C282.147357,311.100336 282.607025,311.686671 283.193498,312.253198 C288.166633,317.248934 296.290079,317.248934 301.271139,312.253198 C306.244274,307.265385 306.244274,299.175541 301.263214,294.171882 L301.263214,294.171882 Z" id="Shape" sketch:type="MSShapeGroup"></path>
            <rect id="Rectangle" sketch:type="MSShapeGroup" x="114" y="169" width="95" height="18"></rect>
            <rect id="Rectangle" sketch:type="MSShapeGroup" x="78" y="169" width="18" height="18"></rect>
            <rect id="Rectangle" sketch:type="MSShapeGroup" x="78" y="215" width="18" height="18"></rect>
            <rect id="Rectangle" sketch:type="MSShapeGroup" x="78" y="264" width="18" height="18"></rect>
            <rect id="Rectangle" sketch:type="MSShapeGroup" x="114" y="169" width="95" height="18"></rect>
            <rect id="Rectangle" sketch:type="MSShapeGroup" x="78" y="169" width="18" height="18"></rect>
            <rect id="Rectangle" sketch:type="MSShapeGroup" x="78" y="215" width="18" height="18"></rect>
            <rect id="Rectangle" sketch:type="MSShapeGroup" x="78" y="264" width="18" height="18"></rect>
            <path d="M368.160356,240.707806 L372.980904,235.892452 L374.643713,237.545484 C376.050705,238.958947 378.309088,238.958947 379.704089,237.545484 L386.027561,231.264762 C387.386588,229.851299 387.386588,227.591357 386.027561,226.221816 L385.983592,226.177895 L370.946361,211.156865 C369.55136,209.763368 367.276988,209.763368 365.873993,211.156865 L359.574504,217.449567 C358.167512,218.863029 358.167512,221.099014 359.574504,222.504491 L361.193345,224.133566 L356.420763,228.912984 C345.116857,219.35814 331.626518,212.330758 316.797138,208.677318 C325.175138,201.869541 330.539297,191.492174 330.539297,179.845086 C330.539297,159.301972 313.895216,142.663845 293.329943,142.663845 C293.08212,142.663845 292.826303,142.727731 292.578481,142.739709 L292.578481,69.2237081 C292.578481,42.6074978 270.997935,21.0142686 244.36101,21.0142686 L192.717992,21.0142686 C187.461756,10.5770089 177.724729,2.77501743 166.009119,0.195648711 C165.901196,0.151727571 165.82525,0.151727571 165.777285,0.0838494474 C165.529462,0.0638852932 165.277643,0 165.037814,0 C163.478931,0 162.207841,1.26572737 162.207841,2.8109529 C162.207841,4.00480932 162.979288,5.04294534 164.058516,5.42625709 C176.405674,12.1222344 184.85962,25.1508414 184.85962,40.2038136 L217.660131,40.2038136 C239.496494,40.2038136 257.199816,57.9160112 257.199816,79.7088818 L257.199816,92.1625212 C257.199816,98.7427064 251.823666,104.137021 245.220395,104.137021 L45.4114803,104.137021 C38.7842261,104.137021 33.4440503,98.7427064 33.4440503,92.1625212 L33.4440503,79.7088818 C33.4440503,57.9160112 51.1353813,40.2038136 72.971744,40.2038136 L105.776252,40.2038136 C105.776252,33.2363238 107.602944,26.7240167 110.768677,21.0142686 L48.2094766,21.0142686 C21.5645574,21.0142686 0,42.6074978 0,69.2237081 L0,316.675406 L0,316.687384 C0,343.31158 21.5645574,364.852903 48.2094766,364.852903 L217.476263,364.852903 C235.375445,386.893329 262.691883,401 293.33394,401 C347.275312,401 391,357.310445 391,303.419207 C390.996003,279.526108 382.434134,257.661366 368.160356,240.707806 L368.160356,240.707806 Z M293.001997,154 C306.794825,154 318,165.054187 318,178.673892 C318,189.349754 311.107579,198.433498 301.5117,201.877833 L301.5117,186.118227 L303.871735,186.118227 C305.836435,186.118227 307.449724,184.537931 307.449724,182.587192 L307.449724,173.791133 C307.449724,171.840394 305.840428,170.26798 303.871735,170.26798 L303.815829,170.26798 L282.599473,170.26798 L282.567527,170.26798 C280.610814,170.26798 279.009504,171.840394 279.009504,173.791133 L279.009504,182.587192 C279.009504,184.53399 280.606821,186.118227 282.567527,186.118227 L284.883635,186.118227 L284.883635,202 C275.068126,198.677833 268,189.491626 268,178.673892 C268.003993,165.054187 279.197189,154 293.001997,154 L293.001997,154 Z M202.458975,263.821973 L113.811432,263.821973 L113.811432,280.792378 L196.77782,280.792378 C195.052756,288.097466 194.056761,295.671036 194.056761,303.513086 C194.056761,310.197061 194.72607,316.696707 195.99696,323 L62.9399887,323 C56.3465014,323 51,317.634387 51,310.99449 L51,143.009517 C51,136.385649 56.3465014,131 62.9399887,131 L229.036107,131 C235.649515,131 241,136.381642 241,143.009517 L241,219.891264 C236.62559,222.552031 232.398587,225.433193 228.514206,228.74713 L223.745382,223.950536 L225.362878,222.315607 C226.749303,220.90508 226.749303,218.661059 225.362878,217.242518 L219.060221,210.927203 C217.669812,209.528697 215.426831,209.528697 214.048374,210.927203 L208.47877,216.533247 L113.811432,216.533247 L113.811432,233.499645 L201.419157,233.499645 L205.291585,237.406645 C206.701914,238.825187 208.968799,238.825187 210.347256,237.406645 L212.028496,235.747673 L216.821224,240.580331 C210.984693,247.548817 206.191965,255.402889 202.458975,263.821973 L202.458975,263.821973 Z M292.996035,378 C252.677927,378 220,345.096464 220,304.476047 C220,263.903536 252.677927,231 292.996035,231 C333.290354,231 366,263.903536 366,304.476047 C366,345.096464 333.290354,378 292.996035,378 L292.996035,378 Z" id="Shape" sketch:type="MSShapeGroup"></path>
            <rect id="Rectangle" sketch:type="MSShapeGroup" x="114" y="169" width="95" height="18"></rect>
            <rect id="Rectangle" sketch:type="MSShapeGroup" x="78" y="169" width="18" height="18"></rect>
            <rect id="Rectangle" sketch:type="MSShapeGroup" x="78" y="215" width="18" height="18"></rect>
            <rect id="Rectangle" sketch:type="MSShapeGroup" x="78" y="264" width="18" height="18"></rect>
        </g>
    </g>
</svg>