<?xml version="1.0" encoding="UTF-8" standalone="no"?>
<svg width="236px" height="39px" viewBox="0 0 236 39" version="1.1" xmlns="http://www.w3.org/2000/svg" xmlns:xlink="http://www.w3.org/1999/xlink">
    <!-- Generator: Sketch 3.7.2 (28276) - http://www.bohemiancoding.com/sketch -->
    <title>fc-logo</title>
    <desc>Created with Sketch.</desc>
    <defs></defs>
    <g id="Homepage" stroke="none" stroke-width="1" fill="none" fill-rule="evenodd">
        <g id="Foundation-Casts" transform="translate(-60.000000, -16.000000)">
            <g id="fc-logo" transform="translate(60.000000, 16.000000)">
                <path d="M79.1890244,13.1158537 L79.1890244,24 L80.6371951,24 L80.6371951,19.0152439 L85.6371951,19.0152439 L85.6371951,17.7957317 L80.6371951,17.7957317 L80.6371951,14.3353659 L86.3384146,14.3353659 L86.3384146,13.1158537 L79.1890244,13.1158537 Z M91.6707317,20.0670732 C91.6707317,19.5894285 91.7342473,19.1651441 91.8612805,18.7942073 C91.9883136,18.4232705 92.1636168,18.1107736 92.3871951,17.8567073 C92.6107735,17.602641 92.8724579,17.4095535 93.1722561,17.277439 C93.4720543,17.1453245 93.7896325,17.0792683 94.125,17.0792683 C94.4603675,17.0792683 94.7779457,17.1453245 95.0777439,17.277439 C95.3775421,17.4095535 95.6392265,17.602641 95.8628049,17.8567073 C96.0863832,18.1107736 96.2616864,18.4232705 96.3887195,18.7942073 C96.5157527,19.1651441 96.5792683,19.5894285 96.5792683,20.0670732 C96.5792683,20.5447178 96.5157527,20.9690022 96.3887195,21.339939 C96.2616864,21.7108758 96.0863832,22.0208321 95.8628049,22.2698171 C95.6392265,22.5188021 95.3775421,22.7093489 95.0777439,22.8414634 C94.7779457,22.9735779 94.4603675,23.0396341 94.125,23.0396341 C93.7896325,23.0396341 93.4720543,22.9735779 93.1722561,22.8414634 C92.8724579,22.7093489 92.6107735,22.5188021 92.3871951,22.2698171 C92.1636168,22.0208321 91.9883136,21.7108758 91.8612805,21.339939 C91.7342473,20.9690022 91.6707317,20.5447178 91.6707317,20.0670732 L91.6707317,20.0670732 Z M90.2987805,20.0670732 C90.2987805,20.6463444 90.3800805,21.1849569 90.5426829,21.6829268 C90.7052854,22.1808968 90.9491854,22.6153437 91.2743902,22.9862805 C91.5995951,23.3572173 92.0010139,23.6468486 92.4786585,23.8551829 C92.9563032,24.0635173 93.5050782,24.1676829 94.125,24.1676829 C94.7550845,24.1676829 95.3064001,24.0635173 95.7789634,23.8551829 C96.2515268,23.6468486 96.6504049,23.3572173 96.9756098,22.9862805 C97.3008146,22.6153437 97.5447146,22.1808968 97.7073171,21.6829268 C97.8699195,21.1849569 97.9512195,20.6463444 97.9512195,20.0670732 C97.9512195,19.487802 97.8699195,18.9466489 97.7073171,18.4435976 C97.5447146,17.9405463 97.3008146,17.5035588 96.9756098,17.132622 C96.6504049,16.7616851 96.2515268,16.4695133 95.7789634,16.2560976 C95.3064001,16.0426819 94.7550845,15.9359756 94.125,15.9359756 C93.5050782,15.9359756 92.9563032,16.0426819 92.4786585,16.2560976 C92.0010139,16.4695133 91.5995951,16.7616851 91.2743902,17.132622 C90.9491854,17.5035588 90.7052854,17.9405463 90.5426829,18.4435976 C90.3800805,18.9466489 90.2987805,19.487802 90.2987805,20.0670732 L90.2987805,20.0670732 Z M109,24 L109,16.1189024 L107.704268,16.1189024 L107.704268,20.570122 C107.704268,20.9258148 107.655996,21.2535554 107.559451,21.5533537 C107.462906,21.8531519 107.31809,22.1148363 107.125,22.3384146 C106.93191,22.561993 106.69055,22.7347555 106.400915,22.8567073 C106.111279,22.9786591 105.768295,23.0396341 105.371951,23.0396341 C104.873981,23.0396341 104.482725,22.8973591 104.198171,22.6128049 C103.913616,22.3282506 103.771341,21.9420756 103.771341,21.4542683 L103.771341,16.1189024 L102.47561,16.1189024 L102.47561,21.3018293 C102.47561,21.7286607 102.5188,22.1173763 102.605183,22.4679878 C102.691565,22.8185993 102.841462,23.1209337 103.054878,23.375 C103.268294,23.6290663 103.547763,23.8246944 103.893293,23.9618902 C104.238823,24.0990861 104.670729,24.1676829 105.189024,24.1676829 C105.768296,24.1676829 106.271339,24.0533548 106.698171,23.8246951 C107.125002,23.5960354 107.475608,23.2378073 107.75,22.75 L107.780488,22.75 L107.780488,24 L109,24 Z M113.95122,16.1189024 L113.95122,24 L115.246951,24 L115.246951,19.5487805 C115.246951,19.1930877 115.295223,18.865347 115.391768,18.5655488 C115.488313,18.2657505 115.633129,18.0040662 115.82622,17.7804878 C116.01931,17.5569095 116.260669,17.384147 116.550305,17.2621951 C116.83994,17.1402433 117.182925,17.0792683 117.579268,17.0792683 C118.077238,17.0792683 118.468495,17.2215433 118.753049,17.5060976 C119.037603,17.7906518 119.179878,18.1768268 119.179878,18.6646341 L119.179878,24 L120.47561,24 L120.47561,18.8170732 C120.47561,18.3902418 120.432419,18.0015261 120.346037,17.6509146 C120.259654,17.3003031 120.109757,16.9979687 119.896341,16.7439024 C119.682926,16.4898361 119.403457,16.2916674 119.057927,16.1493902 C118.712397,16.0071131 118.28049,15.9359756 117.762195,15.9359756 C116.59349,15.9359756 115.73984,16.4136131 115.20122,17.3689024 L115.170732,17.3689024 L115.170732,16.1189024 L113.95122,16.1189024 Z M126.371951,20.1280488 C126.371951,19.741868 126.412601,19.3658555 126.493902,19 C126.575204,18.6341445 126.707316,18.3089445 126.890244,18.0243902 C127.073172,17.739836 127.317072,17.5111797 127.621951,17.3384146 C127.926831,17.1656495 128.297762,17.0792683 128.734756,17.0792683 C129.181913,17.0792683 129.563007,17.1631089 129.878049,17.3307927 C130.193091,17.4984764 130.449694,17.7195108 130.647866,17.9939024 C130.846038,18.2682941 130.990853,18.5858722 131.082317,18.9466463 C131.173781,19.3074205 131.219512,19.6808924 131.219512,20.0670732 C131.219512,20.4329287 131.176322,20.7936974 131.089939,21.1493902 C131.003556,21.5050831 130.863822,21.8226612 130.670732,22.1021341 C130.477641,22.3816071 130.22866,22.6077227 129.92378,22.7804878 C129.618901,22.9532529 129.24797,23.0396341 128.810976,23.0396341 C128.394307,23.0396341 128.030997,22.9583341 127.721037,22.7957317 C127.411076,22.6331293 127.157013,22.4146355 126.958841,22.1402439 C126.76067,21.8658523 126.613313,21.5533554 126.516768,21.2027439 C126.420223,20.8521324 126.371951,20.4939043 126.371951,20.1280488 L126.371951,20.1280488 Z M132.469512,24 L132.469512,13.1158537 L131.17378,13.1158537 L131.17378,17.1707317 L131.143293,17.1707317 C131.001016,16.9369907 130.825712,16.7413626 130.617378,16.5838415 C130.409044,16.4263204 130.188009,16.2992891 129.954268,16.2027439 C129.720527,16.1061987 129.48679,16.0376018 129.253049,15.9969512 C129.019308,15.9563006 128.800814,15.9359756 128.597561,15.9359756 C127.997964,15.9359756 127.472055,16.0452225 127.019817,16.2637195 C126.567579,16.4822165 126.191567,16.776929 125.891768,17.1478659 C125.59197,17.5188027 125.368395,17.9532495 125.221037,18.4512195 C125.073678,18.9491895 125,19.4776395 125,20.0365854 C125,20.5955313 125.076219,21.1239813 125.228659,21.6219512 C125.381098,22.1199212 125.607214,22.5569087 125.907012,22.9329268 C126.20681,23.308945 126.582823,23.6087387 127.035061,23.8323171 C127.487299,24.0558954 128.01829,24.1676829 128.628049,24.1676829 C129.176832,24.1676829 129.679876,24.0711392 130.137195,23.8780488 C130.594514,23.6849584 130.929877,23.3699209 131.143293,22.9329268 L131.17378,22.9329268 L131.17378,24 L132.469512,24 Z M144.448171,23.9695122 C144.224592,24.1016267 143.914636,24.1676829 143.518293,24.1676829 C143.182925,24.1676829 142.91616,24.0736798 142.717988,23.8856707 C142.519816,23.6976617 142.420732,23.390246 142.420732,22.9634146 C142.065039,23.390246 141.650917,23.6976617 141.178354,23.8856707 C140.70579,24.0736798 140.195125,24.1676829 139.646341,24.1676829 C139.290649,24.1676829 138.952746,24.1270329 138.632622,24.0457317 C138.312498,23.9644305 138.03557,23.8373992 137.801829,23.6646341 C137.568088,23.4918691 137.382623,23.2657534 137.245427,22.9862805 C137.108231,22.7068075 137.039634,22.3689044 137.039634,21.972561 C137.039634,21.5254043 137.115853,21.1595543 137.268293,20.875 C137.420732,20.5904457 137.621442,20.3592489 137.870427,20.1814024 C138.119412,20.003556 138.403962,19.8689029 138.724085,19.777439 C139.044209,19.6859752 139.37195,19.6097564 139.707317,19.5487805 C140.06301,19.4776419 140.400913,19.4242888 140.721037,19.3887195 C141.04116,19.3531502 141.32317,19.3023377 141.567073,19.2362805 C141.810977,19.1702232 142.004064,19.0736795 142.146341,18.9466463 C142.288619,18.8196132 142.359756,18.6341476 142.359756,18.3902439 C142.359756,18.1056896 142.306403,17.8770334 142.199695,17.7042683 C142.092987,17.5315032 141.955794,17.3993907 141.78811,17.3079268 C141.620426,17.216463 141.43242,17.155488 141.224085,17.125 C141.015751,17.094512 140.80996,17.0792683 140.606707,17.0792683 C140.057924,17.0792683 139.600612,17.1834339 139.234756,17.3917683 C138.868901,17.6001027 138.670732,17.9938995 138.640244,18.5731707 L137.344512,18.5731707 C137.364838,18.0853634 137.466463,17.6737822 137.64939,17.3384146 C137.832318,17.0030471 138.076218,16.7312002 138.381098,16.5228659 C138.685977,16.3145315 139.034043,16.1646346 139.425305,16.0731707 C139.816567,15.9817069 140.23577,15.9359756 140.682927,15.9359756 C141.03862,15.9359756 141.391767,15.9613819 141.742378,16.0121951 C142.09299,16.0630084 142.410568,16.167174 142.695122,16.3246951 C142.979676,16.4822162 143.208332,16.7032506 143.381098,16.9878049 C143.553863,17.2723591 143.640244,17.6432904 143.640244,18.1006098 L143.640244,22.1554878 C143.640244,22.4603674 143.658028,22.6839424 143.693598,22.8262195 C143.729167,22.9684966 143.848576,23.0396341 144.051829,23.0396341 C144.163618,23.0396341 144.295731,23.0142279 144.448171,22.9634146 L144.448171,23.9695122 Z M142.344512,19.929878 C142.18191,20.0518299 141.968497,20.1407518 141.704268,20.1966463 C141.440039,20.2525409 141.163111,20.2982722 140.873476,20.3338415 C140.58384,20.3694107 140.291668,20.4100607 139.996951,20.4557927 C139.702234,20.5015246 139.438009,20.5752027 139.204268,20.6768293 C138.970527,20.7784558 138.77998,20.9232714 138.632622,21.1112805 C138.485263,21.2992896 138.411585,21.5558927 138.411585,21.8810976 C138.411585,22.0945133 138.454776,22.2748976 138.541159,22.4222561 C138.627541,22.5696146 138.739329,22.6890239 138.876524,22.7804878 C139.01372,22.8719517 139.17378,22.9380079 139.356707,22.9786585 C139.539635,23.0193091 139.732723,23.0396341 139.935976,23.0396341 C140.362807,23.0396341 140.728657,22.9811998 141.033537,22.8643293 C141.338416,22.7474588 141.587397,22.6001025 141.780488,22.4222561 C141.973578,22.2444097 142.115853,22.0513222 142.207317,21.8429878 C142.298781,21.6346534 142.344512,21.4390253 142.344512,21.2560976 L142.344512,19.929878 Z M150.45122,16.1189024 L150.45122,13.7560976 L149.155488,13.7560976 L149.155488,16.1189024 L147.814024,16.1189024 L147.814024,17.2621951 L149.155488,17.2621951 L149.155488,22.277439 C149.155488,22.6432945 149.191057,22.938007 149.262195,23.1615854 C149.333334,23.3851637 149.442581,23.5579262 149.589939,23.679878 C149.737297,23.8018299 149.930385,23.8856705 150.169207,23.9314024 C150.40803,23.9771344 150.69512,24 151.030488,24 L152.021341,24 L152.021341,22.8567073 L151.426829,22.8567073 C151.223576,22.8567073 151.058436,22.8490854 150.931402,22.8338415 C150.804369,22.8185975 150.705285,22.7855694 150.634146,22.7347561 C150.563008,22.6839428 150.514736,22.6128053 150.489329,22.5213415 C150.463923,22.4298776 150.45122,22.3079276 150.45122,22.1554878 L150.45122,17.2621951 L152.021341,17.2621951 L152.021341,16.1189024 L150.45122,16.1189024 Z M157.82622,14.7012195 L157.82622,13.1158537 L156.530488,13.1158537 L156.530488,14.7012195 L157.82622,14.7012195 Z M156.530488,16.1189024 L156.530488,24 L157.82622,24 L157.82622,16.1189024 L156.530488,16.1189024 Z M163.783537,20.0670732 C163.783537,19.5894285 163.847052,19.1651441 163.974085,18.7942073 C164.101119,18.4232705 164.276422,18.1107736 164.5,17.8567073 C164.723578,17.602641 164.985263,17.4095535 165.285061,17.277439 C165.584859,17.1453245 165.902437,17.0792683 166.237805,17.0792683 C166.573172,17.0792683 166.890751,17.1453245 167.190549,17.277439 C167.490347,17.4095535 167.752031,17.602641 167.97561,17.8567073 C168.199188,18.1107736 168.374491,18.4232705 168.501524,18.7942073 C168.628558,19.1651441 168.692073,19.5894285 168.692073,20.0670732 C168.692073,20.5447178 168.628558,20.9690022 168.501524,21.339939 C168.374491,21.7108758 168.199188,22.0208321 167.97561,22.2698171 C167.752031,22.5188021 167.490347,22.7093489 167.190549,22.8414634 C166.890751,22.9735779 166.573172,23.0396341 166.237805,23.0396341 C165.902437,23.0396341 165.584859,22.9735779 165.285061,22.8414634 C164.985263,22.7093489 164.723578,22.5188021 164.5,22.2698171 C164.276422,22.0208321 164.101119,21.7108758 163.974085,21.339939 C163.847052,20.9690022 163.783537,20.5447178 163.783537,20.0670732 L163.783537,20.0670732 Z M162.411585,20.0670732 C162.411585,20.6463444 162.492885,21.1849569 162.655488,21.6829268 C162.81809,22.1808968 163.06199,22.6153437 163.387195,22.9862805 C163.7124,23.3572173 164.113819,23.6468486 164.591463,23.8551829 C165.069108,24.0635173 165.617883,24.1676829 166.237805,24.1676829 C166.867889,24.1676829 167.419205,24.0635173 167.891768,23.8551829 C168.364332,23.6468486 168.76321,23.3572173 169.088415,22.9862805 C169.41362,22.6153437 169.65752,22.1808968 169.820122,21.6829268 C169.982724,21.1849569 170.064024,20.6463444 170.064024,20.0670732 C170.064024,19.487802 169.982724,18.9466489 169.820122,18.4435976 C169.65752,17.9405463 169.41362,17.5035588 169.088415,17.132622 C168.76321,16.7616851 168.364332,16.4695133 167.891768,16.2560976 C167.419205,16.0426819 166.867889,15.9359756 166.237805,15.9359756 C165.617883,15.9359756 165.069108,16.0426819 164.591463,16.2560976 C164.113819,16.4695133 163.7124,16.7616851 163.387195,17.132622 C163.06199,17.5035588 162.81809,17.9405463 162.655488,18.4435976 C162.492885,18.9466489 162.411585,19.487802 162.411585,20.0670732 L162.411585,20.0670732 Z M174.588415,16.1189024 L174.588415,24 L175.884146,24 L175.884146,19.5487805 C175.884146,19.1930877 175.932418,18.865347 176.028963,18.5655488 C176.125509,18.2657505 176.270324,18.0040662 176.463415,17.7804878 C176.656505,17.5569095 176.897864,17.384147 177.1875,17.2621951 C177.477136,17.1402433 177.82012,17.0792683 178.216463,17.0792683 C178.714433,17.0792683 179.10569,17.2215433 179.390244,17.5060976 C179.674798,17.7906518 179.817073,18.1768268 179.817073,18.6646341 L179.817073,24 L181.112805,24 L181.112805,18.8170732 C181.112805,18.3902418 181.069614,18.0015261 180.983232,17.6509146 C180.896849,17.3003031 180.746952,16.9979687 180.533537,16.7439024 C180.320121,16.4898361 180.040652,16.2916674 179.695122,16.1493902 C179.349592,16.0071131 178.917686,15.9359756 178.39939,15.9359756 C177.230685,15.9359756 176.377035,16.4136131 175.838415,17.3689024 L175.807927,17.3689024 L175.807927,16.1189024 L174.588415,16.1189024 Z M193.929878,16.3932927 L195.378049,16.3932927 C195.296748,15.8140215 195.123985,15.3033559 194.859756,14.8612805 C194.595527,14.4192051 194.265246,14.0508145 193.868902,13.7560976 C193.472559,13.4613806 193.020328,13.2378056 192.512195,13.0853659 C192.004063,12.9329261 191.46545,12.8567073 190.896341,12.8567073 C190.063004,12.8567073 189.323682,13.0066042 188.678354,13.3064024 C188.033025,13.6062007 187.494413,14.0152413 187.0625,14.5335366 C186.630587,15.0518319 186.302847,15.6590412 186.079268,16.3551829 C185.85569,17.0513246 185.743902,17.7957277 185.743902,18.5884146 C185.743902,19.3811015 185.848068,20.122964 186.056402,20.8140244 C186.264737,21.5050848 186.577234,22.1046723 186.993902,22.6128049 C187.410571,23.1209375 187.93394,23.5198156 188.564024,23.8094512 C189.194109,24.0990868 189.93089,24.2439024 190.77439,24.2439024 C192.166674,24.2439024 193.264224,23.8628087 194.067073,23.1006098 C194.869923,22.3384108 195.342479,21.2713483 195.484756,19.8993902 L194.036585,19.8993902 C194.006097,20.346547 193.914635,20.7632095 193.762195,21.1493902 C193.609755,21.535571 193.398883,21.8683929 193.129573,22.1478659 C192.860263,22.4273388 192.540144,22.6458325 192.169207,22.8033537 C191.798271,22.9608748 191.373986,23.0396341 190.896341,23.0396341 C190.245932,23.0396341 189.686994,22.9176841 189.219512,22.6737805 C188.75203,22.4298768 188.368396,22.1021362 188.068598,21.6905488 C187.768799,21.2789614 187.547765,20.7962426 187.405488,20.242378 C187.263211,19.6885135 187.192073,19.1016291 187.192073,18.4817073 C187.192073,17.9125988 187.263211,17.3638238 187.405488,16.8353659 C187.547765,16.3069079 187.768799,15.8368923 188.068598,15.4253049 C188.368396,15.0137175 188.74949,14.6859768 189.21189,14.4420732 C189.674291,14.1981695 190.230688,14.0762195 190.881098,14.0762195 C191.643296,14.0762195 192.301318,14.269307 192.855183,14.6554878 C193.409047,15.0416686 193.767276,15.6209311 193.929878,16.3932927 L193.929878,16.3932927 Z M207.051829,23.9695122 C206.828251,24.1016267 206.518295,24.1676829 206.121951,24.1676829 C205.786584,24.1676829 205.519818,24.0736798 205.321646,23.8856707 C205.123475,23.6976617 205.02439,23.390246 205.02439,22.9634146 C204.668697,23.390246 204.254576,23.6976617 203.782012,23.8856707 C203.309449,24.0736798 202.798783,24.1676829 202.25,24.1676829 C201.894307,24.1676829 201.556404,24.1270329 201.23628,24.0457317 C200.916157,23.9644305 200.639229,23.8373992 200.405488,23.6646341 C200.171747,23.4918691 199.986281,23.2657534 199.849085,22.9862805 C199.71189,22.7068075 199.643293,22.3689044 199.643293,21.972561 C199.643293,21.5254043 199.719511,21.1595543 199.871951,20.875 C200.024391,20.5904457 200.2251,20.3592489 200.474085,20.1814024 C200.72307,20.003556 201.00762,19.8689029 201.327744,19.777439 C201.647867,19.6859752 201.975608,19.6097564 202.310976,19.5487805 C202.666668,19.4776419 203.004572,19.4242888 203.324695,19.3887195 C203.644819,19.3531502 203.926828,19.3023377 204.170732,19.2362805 C204.414635,19.1702232 204.607723,19.0736795 204.75,18.9466463 C204.892277,18.8196132 204.963415,18.6341476 204.963415,18.3902439 C204.963415,18.1056896 204.910062,17.8770334 204.803354,17.7042683 C204.696646,17.5315032 204.559452,17.3993907 204.391768,17.3079268 C204.224085,17.216463 204.036078,17.155488 203.827744,17.125 C203.61941,17.094512 203.413619,17.0792683 203.210366,17.0792683 C202.661583,17.0792683 202.20427,17.1834339 201.838415,17.3917683 C201.472559,17.6001027 201.27439,17.9938995 201.243902,18.5731707 L199.948171,18.5731707 C199.968496,18.0853634 200.070121,17.6737822 200.253049,17.3384146 C200.435977,17.0030471 200.679877,16.7312002 200.984756,16.5228659 C201.289636,16.3145315 201.637701,16.1646346 202.028963,16.0731707 C202.420226,15.9817069 202.839429,15.9359756 203.286585,15.9359756 C203.642278,15.9359756 203.995425,15.9613819 204.346037,16.0121951 C204.696648,16.0630084 205.014226,16.167174 205.29878,16.3246951 C205.583335,16.4822162 205.811991,16.7032506 205.984756,16.9878049 C206.157521,17.2723591 206.243902,17.6432904 206.243902,18.1006098 L206.243902,22.1554878 C206.243902,22.4603674 206.261687,22.6839424 206.297256,22.8262195 C206.332825,22.9684966 206.452235,23.0396341 206.655488,23.0396341 C206.767277,23.0396341 206.899389,23.0142279 207.051829,22.9634146 L207.051829,23.9695122 Z M204.948171,19.929878 C204.785568,20.0518299 204.572156,20.1407518 204.307927,20.1966463 C204.043698,20.2525409 203.76677,20.2982722 203.477134,20.3338415 C203.187499,20.3694107 202.895327,20.4100607 202.60061,20.4557927 C202.305893,20.5015246 202.041668,20.5752027 201.807927,20.6768293 C201.574186,20.7784558 201.383639,20.9232714 201.23628,21.1112805 C201.088922,21.2992896 201.015244,21.5558927 201.015244,21.8810976 C201.015244,22.0945133 201.058435,22.2748976 201.144817,22.4222561 C201.2312,22.5696146 201.342987,22.6890239 201.480183,22.7804878 C201.617379,22.8719517 201.777438,22.9380079 201.960366,22.9786585 C202.143294,23.0193091 202.336381,23.0396341 202.539634,23.0396341 C202.966466,23.0396341 203.332316,22.9811998 203.637195,22.8643293 C203.942075,22.7474588 204.191056,22.6001025 204.384146,22.4222561 C204.577237,22.2444097 204.719512,22.0513222 204.810976,21.8429878 C204.902439,21.6346534 204.948171,21.4390253 204.948171,21.2560976 L204.948171,19.929878 Z M212.04878,21.5152439 L210.753049,21.5152439 C210.773374,22.0030512 210.874999,22.4171731 211.057927,22.757622 C211.240855,23.0980708 211.484755,23.3724583 211.789634,23.5807927 C212.094514,23.7891271 212.44512,23.9390239 212.841463,24.0304878 C213.237807,24.1219517 213.654469,24.1676829 214.091463,24.1676829 C214.487807,24.1676829 214.886685,24.1295736 215.28811,24.0533537 C215.689535,23.9771338 216.050303,23.8424806 216.370427,23.6493902 C216.69055,23.4562998 216.949694,23.2022373 217.147866,22.8871951 C217.346038,22.5721529 217.445122,22.1758154 217.445122,21.6981707 C217.445122,21.3221526 217.371444,21.0071151 217.224085,20.7530488 C217.076727,20.4989825 216.883639,20.2881106 216.644817,20.1204268 C216.405995,19.9527431 216.131607,19.8180899 215.821646,19.7164634 C215.511685,19.6148369 215.194107,19.5284556 214.868902,19.4573171 C214.564023,19.3861785 214.259148,19.3175816 213.954268,19.2515244 C213.649389,19.1854671 213.375001,19.1041671 213.131098,19.007622 C212.887194,18.9110768 212.686485,18.7891268 212.528963,18.6417683 C212.371442,18.4944098 212.292683,18.3089442 212.292683,18.0853659 C212.292683,17.8821128 212.343495,17.7169722 212.445122,17.589939 C212.546748,17.4629059 212.678861,17.3612809 212.841463,17.285061 C213.004066,17.2088411 213.18445,17.155488 213.382622,17.125 C213.580794,17.094512 213.776422,17.0792683 213.969512,17.0792683 C214.182928,17.0792683 214.3938,17.1021339 214.602134,17.1478659 C214.810469,17.1935978 215.001015,17.2672759 215.17378,17.3689024 C215.346546,17.470529 215.488821,17.6051821 215.60061,17.7728659 C215.712399,17.9405496 215.778455,18.1514215 215.79878,18.4054878 L217.094512,18.4054878 C217.064024,17.9278431 216.962399,17.528965 216.789634,17.2088415 C216.616869,16.8887179 216.385672,16.6346554 216.096037,16.4466463 C215.806401,16.2586373 215.473579,16.1265248 215.097561,16.0503049 C214.721543,15.974085 214.309962,15.9359756 213.862805,15.9359756 C213.517275,15.9359756 213.169209,15.9791662 212.818598,16.0655488 C212.467986,16.1519313 212.152949,16.2840438 211.873476,16.4618902 C211.594003,16.6397367 211.365346,16.8709335 211.1875,17.1554878 C211.009654,17.4400421 210.920732,17.7804858 210.920732,18.1768293 C210.920732,18.6849619 211.047763,19.0812994 211.301829,19.3658537 C211.555896,19.6504079 211.873474,19.8714423 212.254573,20.0289634 C212.635673,20.1864845 213.049795,20.3084345 213.496951,20.3948171 C213.944108,20.4811996 214.35823,20.5777434 214.739329,20.6844512 C215.120429,20.7911591 215.438007,20.9308934 215.692073,21.1036585 C215.946139,21.2764236 216.073171,21.5304861 216.073171,21.8658537 C216.073171,22.1097573 216.012196,22.3104667 215.890244,22.4679878 C215.768292,22.6255089 215.613314,22.7449183 215.425305,22.8262195 C215.237296,22.9075207 215.031505,22.9634145 214.807927,22.9939024 C214.584348,23.0243904 214.370936,23.0396341 214.167683,23.0396341 C213.903454,23.0396341 213.646851,23.0142279 213.397866,22.9634146 C213.148881,22.9126014 212.925306,22.8287607 212.727134,22.7118902 C212.528962,22.5950197 212.368903,22.437501 212.246951,22.2393293 C212.124999,22.0411575 212.058943,21.7997982 212.04878,21.5152439 L212.04878,21.5152439 Z M223.676829,16.1189024 L223.676829,13.7560976 L222.381098,13.7560976 L222.381098,16.1189024 L221.039634,16.1189024 L221.039634,17.2621951 L222.381098,17.2621951 L222.381098,22.277439 C222.381098,22.6432945 222.416666,22.938007 222.487805,23.1615854 C222.558943,23.3851637 222.66819,23.5579262 222.815549,23.679878 C222.962907,23.8018299 223.155995,23.8856705 223.394817,23.9314024 C223.633639,23.9771344 223.92073,24 224.256098,24 L225.246951,24 L225.246951,22.8567073 L224.652439,22.8567073 C224.449186,22.8567073 224.284045,22.8490854 224.157012,22.8338415 C224.029979,22.8185975 223.930895,22.7855694 223.859756,22.7347561 C223.788618,22.6839428 223.740346,22.6128053 223.714939,22.5213415 C223.689532,22.4298776 223.676829,22.3079276 223.676829,22.1554878 L223.676829,17.2621951 L225.246951,17.2621951 L225.246951,16.1189024 L223.676829,16.1189024 Z M230.472561,21.5152439 L229.176829,21.5152439 C229.197155,22.0030512 229.29878,22.4171731 229.481707,22.757622 C229.664635,23.0980708 229.908535,23.3724583 230.213415,23.5807927 C230.518294,23.7891271 230.8689,23.9390239 231.265244,24.0304878 C231.661587,24.1219517 232.07825,24.1676829 232.515244,24.1676829 C232.911587,24.1676829 233.310465,24.1295736 233.71189,24.0533537 C234.113315,23.9771338 234.474084,23.8424806 234.794207,23.6493902 C235.114331,23.4562998 235.373475,23.2022373 235.571646,22.8871951 C235.769818,22.5721529 235.868902,22.1758154 235.868902,21.6981707 C235.868902,21.3221526 235.795224,21.0071151 235.647866,20.7530488 C235.500507,20.4989825 235.30742,20.2881106 235.068598,20.1204268 C234.829775,19.9527431 234.555388,19.8180899 234.245427,19.7164634 C233.935466,19.6148369 233.617888,19.5284556 233.292683,19.4573171 C232.987803,19.3861785 232.682928,19.3175816 232.378049,19.2515244 C232.073169,19.1854671 231.798782,19.1041671 231.554878,19.007622 C231.310974,18.9110768 231.110265,18.7891268 230.952744,18.6417683 C230.795223,18.4944098 230.716463,18.3089442 230.716463,18.0853659 C230.716463,17.8821128 230.767276,17.7169722 230.868902,17.589939 C230.970529,17.4629059 231.102641,17.3612809 231.265244,17.285061 C231.427846,17.2088411 231.608231,17.155488 231.806402,17.125 C232.004574,17.094512 232.200202,17.0792683 232.393293,17.0792683 C232.606708,17.0792683 232.81758,17.1021339 233.025915,17.1478659 C233.234249,17.1935978 233.424796,17.2672759 233.597561,17.3689024 C233.770326,17.470529 233.912601,17.6051821 234.02439,17.7728659 C234.136179,17.9405496 234.202236,18.1514215 234.222561,18.4054878 L235.518293,18.4054878 C235.487805,17.9278431 235.38618,17.528965 235.213415,17.2088415 C235.04065,16.8887179 234.809453,16.6346554 234.519817,16.4466463 C234.230181,16.2586373 233.89736,16.1265248 233.521341,16.0503049 C233.145323,15.974085 232.733742,15.9359756 232.286585,15.9359756 C231.941055,15.9359756 231.59299,15.9791662 231.242378,16.0655488 C230.891767,16.1519313 230.576729,16.2840438 230.297256,16.4618902 C230.017783,16.6397367 229.789127,16.8709335 229.61128,17.1554878 C229.433434,17.4400421 229.344512,17.7804858 229.344512,18.1768293 C229.344512,18.6849619 229.471543,19.0812994 229.72561,19.3658537 C229.979676,19.6504079 230.297254,19.8714423 230.678354,20.0289634 C231.059453,20.1864845 231.473575,20.3084345 231.920732,20.3948171 C232.367888,20.4811996 232.78201,20.5777434 233.16311,20.6844512 C233.544209,20.7911591 233.861787,20.9308934 234.115854,21.1036585 C234.36992,21.2764236 234.496951,21.5304861 234.496951,21.8658537 C234.496951,22.1097573 234.435976,22.3104667 234.314024,22.4679878 C234.192073,22.6255089 234.037094,22.7449183 233.849085,22.8262195 C233.661076,22.9075207 233.455286,22.9634145 233.231707,22.9939024 C233.008129,23.0243904 232.794716,23.0396341 232.591463,23.0396341 C232.327234,23.0396341 232.070631,23.0142279 231.821646,22.9634146 C231.572661,22.9126014 231.349086,22.8287607 231.150915,22.7118902 C230.952743,22.5950197 230.792684,22.437501 230.670732,22.2393293 C230.54878,22.0411575 230.482724,21.7997982 230.472561,21.5152439 L230.472561,21.5152439 Z" id="FoundationCasts" fill="#66655D"></path>
                <g id="Group-3">
                    <rect id="Rectangle-1-Copy-10" fill="#54CDDF" x="0" y="0" width="69.1363636" height="39" rx="9"></rect>
                    <text id="FC-Copy-4" font-family="ProximaNova-Semibold, Proxima Nova" font-size="31.167019" font-weight="500" letter-spacing="0.200000003" fill="#FFFFFF">
                        <tspan x="15.0681818" y="31">FC</tspan>
                    </text>
                    <polygon id="Triangle-1-Copy-4" fill="#FFFFFF" points="42.5454545 23.9318182 42.5454545 17.7272727 47.8636364 20.8295455"></polygon>
                </g>
            </g>
        </g>
    </g>
</svg>