<?xml version="1.0" encoding="UTF-8" standalone="no"?>
<svg width="44px" height="44px" viewBox="0 0 44 44" version="1.1" xmlns="http://www.w3.org/2000/svg" xmlns:xlink="http://www.w3.org/1999/xlink" xmlns:sketch="http://www.bohemiancoding.com/sketch/ns">
    <!-- Generator: Sketch 3.4.4 (17249) - http://www.bohemiancoding.com/sketch -->
    <title>icon-large-scale</title>
    <desc>Created with Sketch.</desc>
    <defs></defs>
    <g id="Page-1" stroke="none" stroke-width="1" fill="none" fill-rule="evenodd" sketch:type="MSPage">
        <g id="JS---Home" sketch:type="MSArtboardGroup" transform="translate(-752.000000, -1271.000000)" stroke-linecap="round" stroke-linejoin="round">
            <g id="Group" sketch:type="MSLayerGroup" transform="translate(0.000000, 1092.000000)">
                <g id="Group-+-Group-+-&amp;" transform="translate(644.000000, 178.000000)" sketch:type="MSShapeGroup">
                    <g id="icon-large-scale" transform="translate(108.000000, 1.000000)">
                        <path d="M32.0833333,11.9166667 L11.9166667,11.9166667 L11.9166667,32.0833333 L32.0833333,32.0833333 L32.0833333,11.9166667 Z" id="Stroke-217" stroke="#7BB7CB"></path>
                        <path d="M35.75,8.25 L43.0833333,0.916666667" id="Stroke-218" stroke="#9B9B9B"></path>
                        <path d="M0.916666667,43.0833333 L8.25,35.75" id="Stroke-219" stroke="#9B9B9B"></path>
                        <path d="M10.0833333,43.0833333 L0.916666667,43.0833333 L0.916666667,33.9166667" id="Stroke-220" stroke="#9B9B9B"></path>
                        <path d="M43.0833333,10.0833333 L43.0833333,0.916666667 L33.9166667,0.916666667" id="Stroke-221" stroke="#9B9B9B"></path>
                        <path d="M35.75,35.7463333 L43.0833333,43.0833333" id="Stroke-222" stroke="#9B9B9B"></path>
                        <path d="M0.916666667,0.916666667 L8.25,8.25" id="Stroke-223" stroke="#9B9B9B"></path>
                        <path d="M0.916666667,10.0833333 L0.916666667,0.916666667 L10.0833333,0.916666667" id="Stroke-224" stroke="#9B9B9B"></path>
                        <path d="M33.9166667,43.0833333 L43.0833333,43.0833333 L43.0833333,33.9166667" id="Stroke-225" stroke="#9B9B9B"></path>
                    </g>
                </g>
            </g>
        </g>
    </g>
</svg>