<?xml version="1.0" encoding="UTF-8" standalone="no"?>
<svg width="47px" height="47px" viewBox="0 0 47 47" version="1.1" xmlns="http://www.w3.org/2000/svg" xmlns:xlink="http://www.w3.org/1999/xlink" xmlns:sketch="http://www.bohemiancoding.com/sketch/ns">
    <!-- Generator: Sketch 3.4.4 (17249) - http://www.bohemiancoding.com/sketch -->
    <title>icon-large-iterate</title>
    <desc>Created with Sketch.</desc>
    <defs></defs>
    <g id="Page-1" stroke="none" stroke-width="1" fill="none" fill-rule="evenodd" sketch:type="MSPage">
        <g id="JS---Home" sketch:type="MSArtboardGroup" transform="translate(-643.000000, -1269.000000)" stroke-linecap="round" stroke-linejoin="round">
            <g id="Group" sketch:type="MSLayerGroup" transform="translate(0.000000, 1092.000000)">
                <g id="Group-+-Group-+-&amp;" transform="translate(644.000000, 178.000000)" sketch:type="MSShapeGroup">
                    <g id="icon-large-iterate">
                        <path d="M44.0625,40.3125 C44.0625,42.3825 42.384375,44.0625 40.3125,44.0625 L4.6875,44.0625 C2.6175,44.0625 0.9375,42.3825 0.9375,40.3125 L0.9375,4.6875 C0.9375,2.6175 2.6175,0.9375 4.6875,0.9375 L40.3125,0.9375 C42.384375,0.9375 44.0625,2.6175 44.0625,4.6875 L44.0625,40.3125 L44.0625,40.3125 Z" id="Stroke-602" stroke="#9B9B9B"></path>
                        <path d="M0.9375,10 L44.0625,10" id="Stroke-603" stroke="#9B9B9B"></path>
                        <path d="M8.4375,5.625 C8.4375,6.1425 8.0175,6.5625 7.5,6.5625 C6.9825,6.5625 6.5625,6.1425 6.5625,5.625 C6.5625,5.1075 6.9825,4.6875 7.5,4.6875 C8.0175,4.6875 8.4375,5.1075 8.4375,5.625 L8.4375,5.625 Z" id="Stroke-604" stroke="#9B9B9B"></path>
                        <path d="M14.0625,5.625 C14.0625,6.1425 13.6425,6.5625 13.125,6.5625 C12.6075,6.5625 12.1875,6.1425 12.1875,5.625 C12.1875,5.1075 12.6075,4.6875 13.125,4.6875 C13.6425,4.6875 14.0625,5.1075 14.0625,5.625 L14.0625,5.625 Z" id="Stroke-605" stroke="#9B9B9B"></path>
                        <path d="M19.6875,5.625 C19.6875,6.1425 19.2675,6.5625 18.75,6.5625 C18.2325,6.5625 17.8125,6.1425 17.8125,5.625 C17.8125,5.1075 18.2325,4.6875 18.75,4.6875 C19.2675,4.6875 19.6875,5.1075 19.6875,5.625 L19.6875,5.625 Z" id="Stroke-606" stroke="#9B9B9B"></path>
                        <path d="M38.4375,19.6875 L6.5625,19.6875 L6.5625,14.0625 L38.4375,14.0625 L38.4375,19.6875 Z" id="Stroke-607" stroke="#7BB7CB"></path>
                        <path d="M12.1875,23.4375 L6.5625,23.4375 L6.5625,38.4375 L12.1875,38.4375 L12.1875,23.4375 Z" id="Stroke-608" stroke="#7BB7CB"></path>
                        <path d="M38.4375,29.0625 L17.8125,29.0625 L17.8125,23.4375 L38.4375,23.4375 L38.4375,29.0625 Z" id="Stroke-609" stroke="#7BB7CB"></path>
                        <path d="M38.4375,38.4375 L17.8125,38.4375 L17.8125,32.8125 L38.4375,32.8125 L38.4375,38.4375 Z" id="Stroke-610" stroke="#7BB7CB"></path>
                    </g>
                </g>
            </g>
        </g>
    </g>
</svg>