<?xml version="1.0" encoding="UTF-8" standalone="no"?>
<svg width="36px" height="31px" viewBox="0 0 36 31" version="1.1" xmlns="http://www.w3.org/2000/svg" xmlns:xlink="http://www.w3.org/1999/xlink" xmlns:sketch="http://www.bohemiancoding.com/sketch/ns">
    <!-- Generator: sketchtool 3.5.2 (25235) - http://www.bohemiancoding.com/sketch -->
    <title>icon-thumbs-up</title>
    <desc>Created with sketchtool.</desc>
    <defs></defs>
    <g id="Page-1" stroke="none" stroke-width="1" fill="none" fill-rule="evenodd" sketch:type="MSPage">
        <g id="JS---Home-(new-colour)" sketch:type="MSArtboardGroup" transform="translate(-701.000000, -2720.000000)" stroke="#54CDDF" stroke-width="1.42857143" stroke-linecap="round" stroke-linejoin="round">
            <g id="Group-Copy-5-+-Rectangle-41-+-Group-Copy" sketch:type="MSLayerGroup" transform="translate(0.000000, 2247.000000)">
                <g id="Group-Copy-5" sketch:type="MSShapeGroup">
                    <g id="You-+-ZURB-Foundatio-+-Fill-435-+-Line-+-Line-Copy-2-+-Stroke-170-+-Stroke-171-+-Fill-172" transform="translate(470.000000, 474.000000)">
                        <g id="icon-thumbs-up" transform="translate(232.000000, 0.000000)">
                            <path d="M29.1458333,19.738722 L29.1458333,19.738722 C30.3533333,19.738722 31.3333333,20.698722 31.3333333,21.8815792 C31.3333333,23.0658649 30.3533333,24.0244363 29.1458333,24.0244363 L27.6875,24.0244363 C28.895,24.0244363 29.875,24.9844363 29.875,26.1672934 C29.875,27.3515792 28.895,27.5958649 27.6875,27.5958649 L18.2083333,27.5958649 C14.050625,27.5958649 13.1041667,26.8815792 8,26.1672934 L8,14.0244363 C11.5729167,14.0244363 17.4791667,7.59586487 17.4791667,1.88157915 C17.4791667,-0.376992275 20.67,-1.21842085 21.8541667,2.90872201 C22.5833333,5.45300773 20.3958333,10.4530077 20.3958333,10.4530077 L32.0625,10.4530077 C33.27,10.4530077 34.25,11.4130077 34.25,12.5958649 C34.25,13.7801506 33.27,15.4530077 32.0625,15.4530077 L30.6041667,15.4530077 C31.8116667,15.4530077 32.7916667,16.4130077 32.7916667,17.5958649 C32.7916667,18.7801506 31.8116667,19.738722 30.6041667,19.738722 L29.1458333,19.738722" id="Stroke-170"></path>
                            <path d="M8,29 L0,29 L0,12 L8,12 L8,29 Z" id="Stroke-171"></path>
                        </g>
                    </g>
                </g>
            </g>
        </g>
    </g>
</svg>