<?xml version="1.0" encoding="UTF-8" standalone="no"?>
<svg width="137px" height="150px" viewBox="0 0 137 150" version="1.1" xmlns="http://www.w3.org/2000/svg" xmlns:xlink="http://www.w3.org/1999/xlink" xmlns:sketch="http://www.bohemiancoding.com/sketch/ns">
    <!-- Generator: sketchtool 3.5.2 (25235) - http://www.bohemiancoding.com/sketch -->
    <title>illustration-laptop-growing</title>
    <desc>Created with sketchtool.</desc>
    <defs>
        <path d="M1.31305422,142.954945 L135.686946,142.954945 L135.686946,81.0370879 L1.31305422,81.0370879 L1.31305422,142.954945 Z M1.31305422,0.412087912 L135.686946,0.412087912 L135.686946,76.7917582 L1.31305422,76.7917582 L1.31305422,0.412087912 Z" id="path-1"></path>
    </defs>
    <g id="Page-1" stroke="none" stroke-width="1" fill="none" fill-rule="evenodd" sketch:type="MSPage">
        <g id="JS---Home-(new-colour)" sketch:type="MSArtboardGroup" transform="translate(-652.000000, -1194.000000)">
            <g id="Group-Copy" sketch:type="MSLayerGroup" transform="translate(0.000000, 1054.000000)">
                <g id="illustration-laptop-growing" transform="translate(652.000000, 140.000000)">
                    <path d="M122.284054,77.1815934 C121.57347,76.4802198 120.643355,76.1241758 119.712416,76.1241758 L17.2884096,76.1241758 C16.3615964,76.1241758 15.4314819,76.4802198 14.7159458,77.1815934 C14.0127892,77.8903846 13.6579096,78.8192308 13.6579096,79.7464286 L13.6579096,142.954945 L123.34209,142.954945 L123.34209,79.7464286 C123.34209,78.8192308 122.986386,77.8903846 122.284054,77.1815934" id="Fill-9" stroke="#777777" stroke-width="0.824175824" sketch:type="MSShapeGroup"></path>
                    <path d="M135.776904,143.568132 C135.776904,143.40989 135.717482,143.252473 135.601114,143.132967 C135.476494,143.015934 135.323813,142.954945 135.166181,142.954945 L1.83216867,142.954945 C1.67783735,142.954945 1.52103012,143.015934 1.40383735,143.132967 C1.28251807,143.252473 1.22062048,143.40989 1.22062048,143.568132 L1.22062048,145.08544 C3.17575904,147.333791 6.07174096,148.763736 9.28381325,148.763736 L127.71041,148.763736 C130.928259,148.763736 133.827542,147.328022 135.77938,145.07967 L135.776904,143.568132" id="Fill-10" stroke="#777777" stroke-width="0.824175824" sketch:type="MSShapeGroup"></path>
                    <path d="M19.3673434,81.7046703 L117.631831,81.7046703 L117.631831,142.954945 L19.3673434,142.954945 L19.3673434,81.7046703 Z" id="Fill-11" fill="#FFFFFF" sketch:type="MSShapeGroup"></path>
                    <path d="M14.3585904,142.25522 L122.64141,142.25522 L122.64141,79.7464286 C122.64141,78.9667582 122.336873,78.2315934 121.784747,77.6744505 C121.23262,77.1288462 120.493976,76.8247253 119.712416,76.8247253 L17.2884096,76.8247253 C16.5101506,76.8247253 15.7706807,77.1288462 15.2078253,77.6818681 C14.6631265,78.2307692 14.3585904,78.9667582 14.3585904,79.7464286 L14.3585904,142.25522 L14.3585904,142.25522 Z M123.34209,143.655495 L13.6579096,143.655495 C13.2700181,143.655495 12.9564036,143.342308 12.9564036,142.954945 L12.9564036,79.7464286 C12.9564036,78.5942308 13.4037169,77.5087912 14.2182892,76.6887363 C15.0518434,75.8711538 16.1404157,75.4244505 17.2884096,75.4244505 L119.712416,75.4244505 C120.865361,75.4244505 121.954759,75.871978 122.777584,76.6837912 C123.596283,77.5096154 124.043596,78.5950549 124.043596,79.7464286 L124.043596,142.954945 C124.043596,143.342308 123.729982,143.655495 123.34209,143.655495 L123.34209,143.655495 Z" id="Fill-12" fill="#777777" sketch:type="MSShapeGroup"></path>
                    <path d="M68.4975241,78.2381868 C68.0914759,78.2381868 67.7605301,78.5662088 67.7605301,78.9684066 C67.7605301,79.378022 68.0914759,79.710989 68.4975241,79.710989 C68.9043976,79.710989 69.2361687,79.378022 69.2361687,78.9684066 C69.2361687,78.5587912 68.911,78.2381868 68.4975241,78.2381868 L68.4975241,78.2381868 Z M68.4975241,80.6991758 C67.5451265,80.6991758 66.7701687,79.9236264 66.7701687,78.9684066 C66.7701687,78.0206044 67.5451265,77.2491758 68.4975241,77.2491758 C69.4499217,77.2491758 70.2257048,78.0206044 70.2257048,78.9684066 C70.2257048,79.9236264 69.4499217,80.6991758 68.4975241,80.6991758 L68.4975241,80.6991758 Z" id="Fill-13" fill="#777777" sketch:type="MSShapeGroup"></path>
                    <path d="M1.92212651,144.819231 C3.81289157,146.883791 6.48109036,148.063187 9.28381325,148.063187 L127.71041,148.063187 C130.516434,148.063187 133.185458,146.883791 135.075398,144.817582 L135.075398,143.643132 L1.92212651,143.655495 L1.92212651,144.819231 L1.92212651,144.819231 Z M127.71041,149.464286 L9.28381325,149.464286 C5.98921084,149.464286 2.85719277,148.035165 0.69160241,145.54533 C0.580186747,145.416758 0.519939759,145.254396 0.519939759,145.08544 L0.519939759,143.568132 C0.519939759,143.215385 0.658590361,142.883242 0.91113253,142.634341 C1.15212048,142.393681 1.48884337,142.25522 1.83216867,142.25522 L135.166181,142.25522 C135.504554,142.25522 135.828898,142.38544 136.082265,142.622802 C136.344711,142.892308 136.477584,143.22033 136.477584,143.568132 L136.477584,145.083791 C136.477584,145.251923 136.417337,145.415934 136.306747,145.542857 C134.142807,148.035165 131.009139,149.464286 127.71041,149.464286 L127.71041,149.464286 Z" id="Fill-14" fill="#777777" sketch:type="MSShapeGroup"></path>
                    <path d="M80.2770482,144.731868 L56.7221265,144.731868 C56.3457892,144.731868 55.9925602,144.588462 55.7251627,144.326374 C55.4536386,144.054396 55.3026084,143.688462 55.3026084,143.317582 L55.3026084,142.954945 C55.3026084,142.567582 55.6162229,142.25522 56.0032892,142.25522 L80.9991867,142.25522 C81.386253,142.25522 81.6998675,142.567582 81.6998675,142.954945 L81.6998675,143.317582 C81.6998675,143.689286 81.5488373,144.054396 81.2830904,144.320604 C80.9901084,144.592582 80.6393554,144.731868 80.2770482,144.731868" id="Fill-15" fill="#777777" sketch:type="MSShapeGroup"></path>
                    <path d="M20.0680241,142.25522 L116.931151,142.25522 L116.931151,82.4043956 L20.0680241,82.4043956 L20.0680241,142.25522 Z M117.631831,143.655495 L19.3673434,143.655495 C18.9794518,143.655495 18.6658373,143.342308 18.6658373,142.954945 L18.6658373,81.7046703 C18.6658373,81.3173077 18.9794518,81.0041209 19.3673434,81.0041209 L117.631831,81.0041209 C118.019723,81.0041209 118.333337,81.3173077 118.333337,81.7046703 L118.333337,142.954945 C118.333337,143.342308 118.019723,143.655495 117.631831,143.655495 L117.631831,143.655495 Z" id="Fill-16" fill="#777777" sketch:type="MSShapeGroup"></path>
                    <path d="M29.5655904,57.5967033 L24.5791205,62.5771978 C23.3032048,63.8505495 21.5411867,64.6384615 19.5926506,64.6384615 C17.6465904,64.6384615 15.883747,63.8505495 14.607006,62.5755495 L9.62136145,57.5967033 L14.607006,52.6178571 C15.883747,51.3445055 17.6465904,50.5557692 19.5934759,50.5549451 C21.5411867,50.5549451 23.3032048,51.3445055 24.5791205,52.6178571 L29.5655904,57.5967033" id="Fill-17" fill="#FFFFFF" sketch:type="MSShapeGroup"></path>
                    <path d="M39.4848855,44.882967 L34.4984157,39.9032967 C33.2233253,38.6291209 32.433512,36.8686813 32.433512,34.9244505 C32.433512,32.981044 33.2241506,31.2197802 34.499241,29.9447802 L39.4857108,24.9651099 L44.4713554,29.9456044 C45.7472711,31.2197802 46.5370843,32.981044 46.5370843,34.9252747 C46.5370843,36.8686813 45.7472711,38.6291209 44.4713554,39.9032967 L39.4848855,44.882967" id="Fill-18" fill="#FFFFFF" sketch:type="MSShapeGroup"></path>
                    <path d="M36.5913795,15.164011 L29.540006,15.164011 C27.7350723,15.164011 25.9301386,14.4758242 24.5535361,13.1002747 C23.1769337,11.7255495 22.4894578,9.9239011 22.4886325,8.12142857 L22.4894578,1.07967033 L29.540006,1.08049451 C31.3441145,1.07967033 33.1482229,1.76785714 34.5264759,3.14093407 C35.9030783,4.51565934 36.5913795,6.3206044 36.5905542,8.12142857 L36.5913795,15.164011" id="Fill-19" fill="#FFFFFF" sketch:type="MSShapeGroup"></path>
                    <path d="M59.9507048,24.7928571 L52.8993313,24.7928571 C51.0943976,24.7928571 49.2902892,24.1046703 47.9136867,22.7299451 C46.5370843,21.3552198 45.8479578,19.5527473 45.8479578,17.7510989 L45.8479578,10.7085165 L52.9001566,10.7085165 C54.7034398,10.7085165 56.5083735,11.3958791 57.8858012,12.7706044 C59.2624036,14.1453297 59.9507048,15.9486264 59.9507048,17.7510989 L59.9507048,24.7928571" id="Fill-20" fill="#FFFFFF" sketch:type="MSShapeGroup"></path>
                    <path d="M107.43441,57.5967033 L112.42088,62.5771978 C113.69597,63.8505495 115.459639,64.6384615 117.406524,64.6384615 C119.352584,64.6384615 121.115428,63.8505495 122.393819,62.5755495 L127.378639,57.5967033 L122.390518,52.6178571 C121.115428,51.3445055 119.352584,50.5557692 117.404873,50.5549451 C115.459639,50.5549451 113.69597,51.3445055 112.42088,52.6178571 L107.43441,57.5967033" id="Fill-21" fill="#FFFFFF" sketch:type="MSShapeGroup"></path>
                    <path d="M97.5151145,44.882967 L102.501584,39.9032967 C103.775024,38.6291209 104.564837,36.8686813 104.564837,34.9244505 C104.564837,32.981044 103.775024,31.2197802 102.501584,29.9447802 L97.5151145,24.9651099 L92.526994,29.9456044 C91.2510783,31.2197802 90.4620904,32.981044 90.4620904,34.9252747 C90.4620904,36.8686813 91.2510783,38.6291209 92.526994,39.9032967 L97.5151145,44.882967" id="Fill-22" fill="#FFFFFF" sketch:type="MSShapeGroup"></path>
                    <path d="M100.409446,15.164011 L107.459994,15.164011 C109.264102,15.164011 111.069036,14.4758242 112.446464,13.1002747 C113.822241,11.7255495 114.510542,9.9239011 114.510542,8.12142857 L114.510542,1.07967033 L107.459994,1.08049451 C105.655886,1.07967033 103.850952,1.76785714 102.472699,3.14093407 C101.096922,4.51565934 100.409446,6.3206044 100.409446,8.12142857 L100.409446,15.164011" id="Fill-23" fill="#FFFFFF" sketch:type="MSShapeGroup"></path>
                    <path d="M77.0492952,24.7928571 L84.1006687,24.7928571 C85.9039518,24.7928571 87.7097108,24.1046703 89.0846627,22.7299451 C90.4620904,21.3552198 91.1520422,19.5527473 91.1520422,17.7510989 L91.1520422,10.7085165 L84.0990181,10.7085165 C82.2949096,10.7085165 80.4908012,11.3958791 79.1141988,12.7706044 C77.7375964,14.1453297 77.0492952,15.9486264 77.0492952,17.7510989 L77.0492952,24.7928571" id="Fill-24" fill="#FFFFFF" sketch:type="MSShapeGroup"></path>
                    <mask id="mask-2" sketch:name="Clip 26" fill="white">
                        <use xlink:href="#path-1"></use>
                    </mask>
                    <g id="Clip-26"></g>
                    <path d="M10.6133735,57.5967033 L15.103012,62.0802198 C16.303,63.2777473 17.8966566,63.9379121 19.5926506,63.9379121 C21.2894699,63.9379121 22.8847771,63.2785714 24.0839398,62.081044 L28.5735783,57.5967033 L24.0839398,53.1131868 C22.8831265,51.9148352 21.2886446,51.2546703 19.5934759,51.2546703 C17.8983072,51.2554945 16.3038253,51.9156593 15.103012,53.1131868 L10.6133735,57.5967033 L10.6133735,57.5967033 Z M19.5926506,65.3381868 C17.5219699,65.3381868 15.5759096,64.5337912 14.1118253,63.0700549 L9.12618072,58.0912088 C8.85218072,57.8184066 8.85218072,57.3741758 9.12618072,57.1013736 L14.1118253,52.1225275 C15.5767349,50.6604396 17.5236205,49.8552198 19.5934759,49.8543956 C21.6633313,49.8543956 23.6093916,50.6596154 25.0751265,52.1217033 L30.0615964,57.1005495 C30.3355964,57.3741758 30.3355964,57.8175824 30.0624217,58.0912088 L25.0759518,63.0717033 C23.6102169,64.5337912 21.6641566,65.3381868 19.5926506,65.3381868 L19.5926506,65.3381868 Z" id="Fill-25" fill="#54CDDF" sketch:type="MSShapeGroup" mask="url(#mask-2)"></path>
                    <path d="M29.5655904,58.2964286 L19.5934759,58.2964286 C19.2055843,58.2964286 18.8927952,57.9840659 18.8927952,57.5967033 C18.8927952,57.2093407 19.2055843,56.8961538 19.5934759,56.8961538 L29.5655904,56.8961538 C29.9534819,56.8961538 30.2670964,57.2093407 30.2670964,57.5967033 C30.2670964,57.9840659 29.9534819,58.2964286 29.5655904,58.2964286" id="Fill-27" fill="#777777" sketch:type="MSShapeGroup" mask="url(#mask-2)"></path>
                    <path d="M39.4857108,25.9557692 L34.9944217,30.4401099 C33.795259,31.6401099 33.1341928,33.2315934 33.1341928,34.9244505 C33.1341928,36.6181319 33.795259,38.2096154 34.9944217,39.407967 L39.4848855,43.8923077 L43.9753494,39.407967 C45.174512,38.2096154 45.8355783,36.6181319 45.8355783,34.9252747 C45.8355783,33.2315934 45.174512,31.6392857 43.9753494,30.4409341 L39.4857108,25.9557692 L39.4857108,25.9557692 Z M39.4848855,45.5835165 C39.3049699,45.5835165 39.1250542,45.5151099 38.9888795,45.3782967 L34.0024096,40.3986264 C32.5383253,38.9357143 31.732006,36.9914835 31.732006,34.9244505 C31.732006,32.8582418 32.5383253,30.914011 34.0024096,29.4494505 L38.9897048,24.4697802 C39.1209277,24.3379121 39.2991928,24.2645604 39.4857108,24.2645604 C39.6714036,24.2645604 39.8496687,24.3379121 39.9817169,24.4697802 L44.9673614,29.4502747 C46.4322711,30.9131868 47.2377651,32.8574176 47.2377651,34.9252747 C47.2377651,36.9923077 46.4322711,38.9357143 44.9665361,40.3986264 L39.9800663,45.3782967 C39.8438916,45.5151099 39.6648012,45.5835165 39.4848855,45.5835165 L39.4848855,45.5835165 Z" id="Fill-28" fill="#54CDDF" sketch:type="MSShapeGroup" mask="url(#mask-2)"></path>
                    <path d="M39.4848855,45.5835165 L39.4848855,45.5835165 C39.096994,45.5835165 38.7833795,45.2703297 38.7833795,44.882967 L38.7842048,34.9252747 C38.7842048,34.5379121 39.0978193,34.2247253 39.4857108,34.2247253 C39.8727771,34.2247253 40.1863916,34.5379121 40.1863916,34.9252747 L40.1855663,44.882967 C40.1855663,45.2703297 39.8719518,45.5835165 39.4848855,45.5835165" id="Fill-29" fill="#777777" sketch:type="MSShapeGroup" mask="url(#mask-2)"></path>
                    <path d="M23.1909639,1.78021978 L23.1901386,8.12142857 C23.1909639,9.81593407 23.8512048,11.4090659 25.0495422,12.6057692 C26.2495301,13.8041209 27.8431867,14.4642857 29.540006,14.4642857 L35.8898735,14.4642857 L35.8890482,8.12142857 C35.8898735,6.42692308 35.2296325,4.83379121 34.0304699,3.63626374 C32.8296566,2.44038462 31.2368253,1.78021978 29.5433072,1.78021978 L23.1909639,1.78021978 L23.1909639,1.78021978 Z M36.6070602,15.8645604 C36.603759,15.8653846 36.5979819,15.8645604 36.5913795,15.8645604 L29.540006,15.8645604 C27.4685,15.8645604 25.5216145,15.0585165 24.0567048,13.5956044 C22.5942711,12.1351648 21.7879518,10.1909341 21.7871265,8.12142857 L21.7879518,1.07967033 C21.7879518,0.692307692 22.1015663,0.379120879 22.4894578,0.379120879 L29.540006,0.379945055 C31.6106867,0.379945055 33.5559217,1.18351648 35.0224819,2.6456044 C36.4865663,4.10851648 37.2928855,6.05357143 37.2920602,8.12142857 L37.2920602,15.0123626 C37.3036145,15.060989 37.3093916,15.1120879 37.3093916,15.164011 C37.3093916,15.5513736 36.9949518,15.8645604 36.6070602,15.8645604 L36.6070602,15.8645604 Z" id="Fill-30" fill="#54CDDF" sketch:type="MSShapeGroup" mask="url(#mask-2)"></path>
                    <path d="M36.5913795,15.8645604 C36.4114639,15.8645604 36.2315482,15.7961538 36.0953735,15.6593407 L29.0431747,8.61675824 C28.77,8.34313187 28.77,7.89972527 29.044,7.6260989 C29.318,7.35412088 29.7628373,7.3532967 30.0368373,7.62692308 L37.0873855,14.6695055 C37.3613855,14.9431319 37.3613855,15.3865385 37.0865602,15.6601648 C36.9495602,15.7961538 36.7712952,15.8645604 36.5913795,15.8645604" id="Fill-31" fill="#777777" sketch:type="MSShapeGroup" mask="url(#mask-2)"></path>
                    <path d="M46.5486386,11.4090659 L46.5486386,17.7510989 C46.5486386,19.4447802 47.2097048,21.0362637 48.4088675,22.2346154 C49.6088554,23.432967 51.2033373,24.0923077 52.8993313,24.0923077 L59.2491988,24.0923077 L59.2491988,17.7510989 C59.2491988,16.0557692 58.5881325,14.4634615 57.3897952,13.2659341 C56.1898072,12.0692308 54.5953253,11.4090659 52.9001566,11.4090659 L46.5486386,11.4090659 L46.5486386,11.4090659 Z M59.9507048,25.4934066 L52.8993313,25.4934066 C50.8286506,25.4934066 48.8817651,24.6881868 47.4176807,23.2252747 C45.9527711,21.7623626 45.1464518,19.818956 45.1464518,17.7510989 L45.1464518,10.7085165 C45.1464518,10.3211538 45.4600663,10.0087912 45.8479578,10.0087912 L52.9001566,10.0087912 C54.9691867,10.0087912 56.9168976,10.8131868 58.3809819,12.2752747 C59.8458916,13.7373626 60.6513855,15.6815934 60.6513855,17.7510989 L60.6513855,24.7928571 C60.6513855,25.1802198 60.3377711,25.4934066 59.9507048,25.4934066 L59.9507048,25.4934066 Z" id="Fill-32" fill="#54CDDF" sketch:type="MSShapeGroup" mask="url(#mask-2)"></path>
                    <path d="M59.9507048,25.4934066 C59.7707892,25.4934066 59.5908735,25.425 59.4538735,25.2881868 L52.4033253,18.2464286 C52.1301506,17.9728022 52.1301506,17.5293956 52.4041506,17.2549451 C52.6781506,16.982967 53.1221627,16.9821429 53.3961627,17.2565934 L60.4467108,24.2975275 C60.7198855,24.5711538 60.7198855,25.0153846 60.4458855,25.289011 C60.3088855,25.425 60.1297952,25.4934066 59.9507048,25.4934066" id="Fill-33" fill="#777777" sketch:type="MSShapeGroup" mask="url(#mask-2)"></path>
                    <path d="M37.4761024,108.135165 C37.2961867,108.135165 37.1170964,108.066758 36.9800964,107.929945 C36.7069217,107.657143 36.7069217,107.212912 36.9809217,106.94011 L44.5299518,99.4005495 L44.5299518,67.5082418 L35.3055602,58.2972527 L29.5655904,58.2964286 C29.1776988,58.2964286 28.8649096,57.9840659 28.8649096,57.5967033 C28.8649096,57.2093407 29.1776988,56.8961538 29.5655904,56.8961538 L35.5968916,56.896978 C35.7825843,56.896978 35.9608494,56.9703297 36.0920723,57.1021978 L45.7266386,66.7228022 C45.8586867,66.8538462 45.9321386,67.0318681 45.9321386,67.2181319 L45.9321386,99.6914835 C45.9321386,99.8777473 45.8586867,100.054945 45.7266386,100.187637 L37.9721084,107.929945 C37.8351084,108.066758 37.6560181,108.135165 37.4761024,108.135165" id="Fill-34" fill="#777777" sketch:type="MSShapeGroup" mask="url(#mask-2)"></path>
                    <path d="M50.8509337,130.326923 C50.4638675,130.326923 50.150253,130.013736 50.150253,129.626374 L50.150253,107.356319 C50.150253,107.170055 50.2228795,106.992033 50.355753,106.860989 L57.8247289,99.4005495 L57.8247289,62.9917582 L50.4424096,55.6178571 C50.3111867,55.4868132 50.2377349,55.3087912 50.2377349,55.1233516 L50.2377349,29.7824176 L36.0953735,15.6593407 C35.8213735,15.3865385 35.8213735,14.9423077 36.0953735,14.6695055 C36.3677229,14.3958791 36.8125602,14.3958791 37.0865602,14.6695055 L51.4344217,28.996978 C51.5664699,29.128022 51.6399217,29.306044 51.6399217,29.4914835 L51.6399217,54.8332418 L59.0230663,62.2063187 C59.1542892,62.3381868 59.227741,62.5153846 59.227741,62.7016484 L59.227741,99.6914835 C59.227741,99.8777473 59.1542892,100.054945 59.022241,100.186813 L51.5524398,107.646429 L51.5524398,129.626374 C51.5524398,130.013736 51.2388253,130.326923 50.8509337,130.326923" id="Fill-35" fill="#777777" sketch:type="MSShapeGroup" mask="url(#mask-2)"></path>
                    <path d="M58.3512711,113.033242 C58.1713554,113.033242 57.9930904,112.964835 57.8560904,112.828846 C57.5820904,112.55522 57.5820904,112.111813 57.8552651,111.838187 L61.2018614,108.49533 L61.2018614,102.959341 C61.2018614,102.773077 61.2753133,102.595055 61.4073614,102.464011 L64.4741807,99.4005495 L64.4741807,30.3008242 L59.4546988,25.289011 C59.1806988,25.0153846 59.1806988,24.571978 59.4538735,24.2975275 C59.7278735,24.0239011 60.1718855,24.0247253 60.4458855,24.2967033 L65.6708675,29.5145604 C65.8029157,29.6464286 65.8763675,29.8236264 65.8763675,30.0098901 L65.8763675,99.6914835 C65.8763675,99.8777473 65.8029157,100.054945 65.6708675,100.186813 L62.6040482,103.249451 L62.6040482,108.784615 C62.6040482,108.970879 62.5314217,109.148901 62.3993735,109.279945 L58.8481024,112.828022 C58.7111024,112.964835 58.5311867,113.033242 58.3512711,113.033242" id="Fill-36" fill="#777777" sketch:type="MSShapeGroup" mask="url(#mask-2)"></path>
                    <path d="M40.9530964,120.55467 C40.7731807,120.55467 40.5932651,120.486264 40.4570904,120.349451 C40.1830904,120.075824 40.1830904,119.632418 40.4570904,119.358791 L46.2333735,113.592857 L46.2333735,104.628297 C46.2333735,104.442857 46.306,104.264835 46.4388735,104.132967 L51.1785783,99.4005495 L51.1785783,63.7153846 L38.9897048,51.5423077 C38.8576566,51.4112637 38.7842048,51.2332418 38.7842048,51.046978 L38.7833795,44.882967 C38.7833795,44.4956044 39.096994,44.1824176 39.4848855,44.1824176 C39.8719518,44.1824176 40.1855663,44.4956044 40.1855663,44.882967 L40.1863916,50.7568681 L52.3752651,62.9291209 C52.5073133,63.060989 52.5807651,63.2381868 52.5807651,63.4244505 L52.5807651,99.6914835 C52.5807651,99.8777473 52.5073133,100.054945 52.3752651,100.187637 L47.6355602,104.919231 L47.6355602,113.883791 C47.6355602,114.069231 47.5621084,114.247253 47.4300602,114.379121 L41.4491024,120.350275 C41.3121024,120.486264 41.133012,120.55467 40.9530964,120.55467" id="Fill-37" fill="#777777" sketch:type="MSShapeGroup" mask="url(#mask-2)"></path>
                    <path d="M35.6629157,107.385165 C34.6354157,107.385165 33.7993855,108.220055 33.7993855,109.246154 C33.7993855,110.271429 34.6354157,111.106319 35.6629157,111.106319 C36.6904157,111.106319 37.5264458,110.271429 37.5264458,109.246154 C37.5264458,108.220055 36.6904157,107.385165 35.6629157,107.385165 L35.6629157,107.385165 Z M35.6629157,112.506593 C33.8612831,112.506593 32.3971988,111.043681 32.3971988,109.246154 C32.3971988,107.447802 33.8612831,105.98489 35.6629157,105.98489 C37.4645482,105.98489 38.9286325,107.447802 38.9286325,109.246154 C38.9286325,111.043681 37.4645482,112.506593 35.6629157,112.506593 L35.6629157,112.506593 Z" id="Fill-38" fill="#FF6909" sketch:type="MSShapeGroup" mask="url(#mask-2)"></path>
                    <path d="M39.1399096,119.80467 C38.1124096,119.80467 37.2763795,120.63956 37.2763795,121.664835 C37.2763795,122.690934 38.1124096,123.526648 39.1399096,123.526648 C40.1665843,123.526648 41.0026145,122.690934 41.0026145,121.664835 C41.0026145,120.63956 40.1665843,119.80467 39.1399096,119.80467 L39.1399096,119.80467 Z M39.1399096,124.926923 C37.3391024,124.926923 35.8741928,123.464011 35.8741928,121.664835 C35.8741928,119.866484 37.3391024,118.404396 39.1399096,118.404396 C40.9398916,118.404396 42.4048012,119.866484 42.4048012,121.664835 C42.4048012,123.464011 40.9398916,124.926923 39.1399096,124.926923 L39.1399096,124.926923 Z" id="Fill-39" fill="#FF6909" sketch:type="MSShapeGroup" mask="url(#mask-2)"></path>
                    <path d="M50.8509337,130.326923 C49.8234337,130.326923 48.9874036,131.162637 48.9874036,132.188736 C48.9874036,133.214011 49.8234337,134.048901 50.8509337,134.048901 C51.8776084,134.048901 52.7136386,133.214011 52.7136386,132.188736 C52.7136386,131.162637 51.8776084,130.326923 50.8509337,130.326923 L50.8509337,130.326923 Z M50.8509337,135.449176 C49.0501265,135.449176 47.5852169,133.986264 47.5852169,132.188736 C47.5852169,130.38956 49.0501265,128.926648 50.8509337,128.926648 C52.651741,128.926648 54.1158253,130.38956 54.1158253,132.188736 C54.1158253,133.986264 52.651741,135.449176 50.8509337,135.449176 L50.8509337,135.449176 Z" id="Fill-40" fill="#FF6909" sketch:type="MSShapeGroup" mask="url(#mask-2)"></path>
                    <path d="M56.5380843,112.281593 C55.5105843,112.281593 54.6737289,113.117308 54.6737289,114.144231 C54.6737289,115.169505 55.5105843,116.003571 56.5380843,116.003571 C57.564759,116.003571 58.4007892,115.169505 58.4007892,114.144231 C58.4007892,113.117308 57.564759,112.281593 56.5380843,112.281593 L56.5380843,112.281593 Z M56.5380843,117.403846 C54.7364518,117.403846 53.2715422,115.941758 53.2715422,114.144231 C53.2715422,112.345055 54.7364518,110.881319 56.5380843,110.881319 C58.3388916,110.881319 59.8029759,112.345055 59.8029759,114.144231 C59.8029759,115.941758 58.3388916,117.403846 56.5380843,117.403846 L56.5380843,117.403846 Z" id="Fill-41" fill="#FF6909" sketch:type="MSShapeGroup" mask="url(#mask-2)"></path>
                    <path d="M108.426422,57.5967033 L112.916886,62.0818681 C114.115223,63.2785714 115.709705,63.9379121 117.406524,63.9379121 C119.101693,63.9379121 120.696175,63.2777473 121.897813,62.0793956 L126.386627,57.5967033 L121.894512,53.1131868 C120.695349,51.9156593 119.101693,51.2554945 117.404873,51.2546703 C115.709705,51.2546703 114.116048,51.9148352 112.91606,53.1123626 L108.426422,57.5967033 L108.426422,57.5967033 Z M117.406524,65.3381868 C115.335018,65.3381868 113.388133,64.5337912 111.924873,63.0717033 L106.937578,58.0912088 C106.664404,57.8175824 106.664404,57.3741758 106.938404,57.1005495 L111.924873,52.1217033 C113.389783,50.6596154 115.335018,49.8543956 117.404873,49.8543956 C119.47638,49.8552198 121.42244,50.6604396 122.885699,52.1225275 L127.873819,57.1005495 C128.006693,57.2324176 128.079319,57.4104396 128.079319,57.5967033 C128.079319,57.7821429 128.006693,57.9601648 127.874645,58.0912088 L122.889825,63.0700549 C121.423265,64.5337912 119.47638,65.3381868 117.406524,65.3381868 L117.406524,65.3381868 Z" id="Fill-42" fill="#2CADBE" sketch:type="MSShapeGroup" mask="url(#mask-2)"></path>
                    <path d="M117.404873,58.2964286 L107.43441,58.2964286 C107.046518,58.2964286 106.732904,57.9840659 106.732904,57.5967033 C106.732904,57.2093407 107.046518,56.8961538 107.43441,56.8961538 L117.404873,56.8961538 C117.792765,56.8961538 118.105554,57.2093407 118.105554,57.5967033 C118.105554,57.9840659 117.792765,58.2964286 117.404873,58.2964286" id="Fill-43" fill="#777777" sketch:type="MSShapeGroup" mask="url(#mask-2)"></path>
                    <path d="M97.5151145,25.9557692 L93.023,30.4417582 C91.8246627,31.6384615 91.1635964,33.2307692 91.1635964,34.9252747 C91.1635964,36.618956 91.8246627,38.2104396 93.023,39.407967 L97.5151145,43.8923077 L102.006404,39.407967 C103.203916,38.2087912 103.864157,36.6173077 103.864157,34.9244505 C103.864157,33.2315934 103.203916,31.6392857 102.005578,30.4401099 L97.5151145,25.9557692 L97.5151145,25.9557692 Z M97.5151145,45.5835165 C97.3351988,45.5835165 97.1569337,45.5151099 97.0199337,45.3791209 L92.0318133,40.3994505 C90.5669036,38.9365385 89.7614096,36.9931319 89.7614096,34.9252747 C89.7614096,32.8565934 90.5669036,30.9123626 92.0318133,29.4502747 L97.0199337,24.468956 C97.2939337,24.196978 97.7371205,24.1961538 98.0111205,24.4697802 L102.99759,29.4494505 C104.460849,30.9148352 105.266343,32.8582418 105.266343,34.9244505 C105.266343,36.9906593 104.460849,38.9348901 102.998416,40.3986264 L98.0111205,45.3782967 C97.8749458,45.5151099 97.6950301,45.5835165 97.5151145,45.5835165 L97.5151145,45.5835165 Z" id="Fill-44" fill="#54CDDF" sketch:type="MSShapeGroup" mask="url(#mask-2)"></path>
                    <path d="M97.5151145,45.5835165 C97.1280482,45.5835165 96.8144337,45.2703297 96.8144337,44.882967 L96.8144337,34.9252747 C96.8144337,34.5379121 97.1280482,34.2247253 97.5151145,34.2247253 C97.903006,34.2247253 98.2166205,34.5379121 98.2166205,34.9252747 L98.2166205,44.882967 C98.2166205,45.2703297 97.903006,45.5835165 97.5151145,45.5835165" id="Fill-45" fill="#777777" sketch:type="MSShapeGroup" mask="url(#mask-2)"></path>
                    <path d="M101.110952,14.4642857 L107.459994,14.4642857 C109.155988,14.4642857 110.75047,13.8041209 111.950458,12.6057692 C113.14962,11.4082418 113.809036,9.81510989 113.809036,8.12142857 L113.809036,1.78021978 L107.459994,1.78021978 C105.763175,1.78021978 104.169518,2.44038462 102.968705,3.63708791 C101.770367,4.83379121 101.110952,6.42692308 101.110952,8.12142857 L101.110952,14.4642857 L101.110952,14.4642857 Z M107.459994,15.8645604 L100.409446,15.8645604 C100.021554,15.8645604 99.7079398,15.5513736 99.7079398,15.164011 L99.7079398,8.12142857 C99.7079398,6.05274725 100.513434,4.10769231 101.976693,2.64642857 C103.443253,1.18351648 105.388488,0.379945055 107.456693,0.379945055 L114.510542,0.379120879 C114.69706,0.379120879 114.8745,0.452472527 115.006548,0.584340659 C115.138596,0.715384615 115.212048,0.893406593 115.212048,1.07967033 L115.212048,8.12142857 C115.212048,10.1892857 114.405729,12.1335165 112.943295,13.5956044 C111.47756,15.0585165 109.530675,15.8645604 107.459994,15.8645604 L107.459994,15.8645604 Z" id="Fill-46" fill="#54CDDF" sketch:type="MSShapeGroup" mask="url(#mask-2)"></path>
                    <path d="M100.409446,15.8645604 C100.22953,15.8645604 100.05044,15.7961538 99.9134398,15.6601648 C99.6394398,15.3865385 99.6394398,14.9431319 99.9134398,14.6695055 L106.963163,7.62692308 C107.237988,7.3532967 107.682,7.35412088 107.956,7.6260989 C108.23,7.89972527 108.23,8.34313187 107.956825,8.61675824 L100.906277,15.6593407 C100.769277,15.7961538 100.589361,15.8645604 100.409446,15.8645604" id="Fill-47" fill="#777777" sketch:type="MSShapeGroup" mask="url(#mask-2)"></path>
                    <path d="M77.7508012,24.0923077 L84.1006687,24.0923077 C85.7966627,24.0923077 87.3911446,23.432967 88.5886566,22.2346154 C89.7894699,21.0362637 90.4513614,19.443956 90.4513614,17.7510989 L90.4513614,11.4090659 L84.0990181,11.4090659 C82.4038494,11.4090659 80.8093675,12.0692308 79.6102048,13.2659341 C78.4118675,14.4634615 77.7508012,16.0557692 77.7508012,17.7510989 L77.7508012,24.0923077 L77.7508012,24.0923077 Z M84.1006687,25.4934066 L77.0492952,25.4934066 C76.6622289,25.4934066 76.3486145,25.1802198 76.3486145,24.7928571 L76.3486145,17.7510989 C76.3486145,15.6815934 77.1541084,13.7373626 78.6190181,12.2760989 C80.0822771,10.8131868 82.0291627,10.0087912 84.0990181,10.0087912 L91.1520422,10.0087912 C91.5399337,10.0087912 91.8535482,10.3211538 91.8535482,10.7085165 L91.8535482,17.7510989 C91.8535482,19.818956 91.0464036,21.7623626 89.5806687,23.2260989 C88.1182349,24.6881868 86.1721747,25.4934066 84.1006687,25.4934066 L84.1006687,25.4934066 Z" id="Fill-48" fill="#54CDDF" sketch:type="MSShapeGroup" mask="url(#mask-2)"></path>
                    <path d="M77.0492952,25.4934066 C76.8702048,25.4934066 76.6911145,25.425 76.5541145,25.289011 C76.2801145,25.0153846 76.2801145,24.571978 76.5532892,24.2975275 L83.603012,17.2565934 C83.877012,16.9821429 84.3210241,16.982967 84.5950241,17.2549451 C84.8690241,17.5293956 84.8690241,17.9728022 84.5958494,18.2464286 L77.5461265,25.2881868 C77.4091265,25.425 77.2292108,25.4934066 77.0492952,25.4934066" id="Fill-49" fill="#777777" sketch:type="MSShapeGroup" mask="url(#mask-2)"></path>
                    <path d="M99.5247229,108.135165 C99.3448072,108.135165 99.1657169,108.066758 99.0287169,107.930769 L91.2733614,100.187637 C91.1413133,100.054945 91.0678614,99.8777473 91.0678614,99.6914835 L91.0678614,67.2181319 C91.0678614,67.0318681 91.1413133,66.8538462 91.2733614,66.7228022 L100.907928,57.1021978 C101.039151,56.9703297 101.217416,56.896978 101.403108,56.896978 L107.43441,56.8961538 C107.822301,56.8961538 108.13509,57.2093407 108.13509,57.5967033 C108.13509,57.9840659 107.822301,58.2964286 107.43441,58.2964286 L101.69444,58.2972527 L92.4700482,67.5082418 L92.4700482,99.4005495 L100.019904,106.939286 C100.293904,107.212912 100.293904,107.656319 100.020729,107.929945 C99.8837289,108.066758 99.7046386,108.135165 99.5247229,108.135165" id="Fill-50" fill="#777777" sketch:type="MSShapeGroup" mask="url(#mask-2)"></path>
                    <path d="M86.148241,130.326923 C85.7603494,130.326923 85.4467349,130.013736 85.4467349,129.626374 L85.4467349,107.646429 L77.9752831,100.187637 C77.8432349,100.054945 77.7697831,99.8777473 77.7697831,99.6914835 L77.7697831,62.7016484 C77.7697831,62.5153846 77.8432349,62.3381868 77.9752831,62.2063187 L85.3609036,54.8324176 L85.3609036,29.4914835 C85.3609036,29.306044 85.4343554,29.128022 85.5664036,28.996978 L99.9134398,14.6695055 C100.186614,14.3958791 100.633102,14.3958791 100.905452,14.6695055 C101.179452,14.9423077 101.179452,15.3865385 100.905452,15.6593407 L86.7630904,29.7824176 L86.7630904,55.1233516 C86.7630904,55.3087912 86.6896386,55.4868132 86.5575904,55.6186813 L79.1727952,62.9925824 L79.1727952,99.4005495 L86.6434217,106.860165 C86.7762952,106.992033 86.8489217,107.170055 86.8489217,107.356319 L86.8489217,129.626374 C86.8489217,130.013736 86.5361325,130.326923 86.148241,130.326923" id="Fill-51" fill="#777777" sketch:type="MSShapeGroup" mask="url(#mask-2)"></path>
                    <path d="M78.6487289,113.033242 C78.4688133,113.033242 78.2888976,112.964835 78.1518976,112.828022 L74.6006265,109.279945 C74.4685783,109.148901 74.3959518,108.970879 74.3959518,108.784615 L74.3959518,103.248626 L71.3291325,100.186813 C71.1979096,100.054945 71.1244578,99.8777473 71.1244578,99.6914835 L71.1244578,30.0098901 C71.1244578,29.8236264 71.1979096,29.6464286 71.3299578,29.5145604 L76.5541145,24.2975275 C76.8264639,24.0239011 77.2729518,24.0239011 77.5453012,24.2975275 C77.8193012,24.5711538 77.8193012,25.0153846 77.5453012,25.2881868 L72.5266446,30.3008242 L72.5266446,99.4013736 L75.5934639,102.464011 C75.7246867,102.595055 75.7981386,102.773077 75.7981386,102.959341 L75.7981386,108.49533 L79.1447349,111.838187 C79.4179096,112.111813 79.4179096,112.55522 79.1439096,112.828846 C79.0069096,112.964835 78.8286446,113.033242 78.6487289,113.033242" id="Fill-52" fill="#777777" sketch:type="MSShapeGroup" mask="url(#mask-2)"></path>
                    <path d="M96.0460783,120.55467 C95.8661627,120.55467 95.6870723,120.486264 95.5500723,120.350275 L89.5699398,114.379121 C89.4378916,114.247253 89.3644398,114.069231 89.3644398,113.883791 L89.3644398,104.919231 L84.6247349,100.187637 C84.4926867,100.054945 84.4192349,99.8777473 84.4192349,99.6914835 L84.4192349,63.4244505 C84.4192349,63.2381868 84.4926867,63.060989 84.6247349,62.9291209 L96.8144337,50.7568681 L96.8144337,44.882967 C96.8144337,44.4956044 97.1280482,44.1824176 97.5151145,44.1824176 C97.903006,44.1824176 98.2166205,44.4956044 98.2166205,44.882967 L98.2166205,51.046978 C98.2166205,51.2332418 98.1431687,51.4112637 98.0111205,51.5423077 L85.8214217,63.7153846 L85.8214217,99.4005495 L90.5611265,104.132967 C90.694,104.264835 90.7666265,104.442857 90.7666265,104.628297 L90.7666265,113.592857 L96.5420843,119.358791 C96.8160843,119.632418 96.8160843,120.075824 96.5429096,120.349451 C96.4059096,120.486264 96.225994,120.55467 96.0460783,120.55467" id="Fill-53" fill="#777777" sketch:type="MSShapeGroup" mask="url(#mask-2)"></path>
                    <path d="M101.336259,107.385165 C100.308759,107.385165 99.4727289,108.220055 99.4727289,109.246154 C99.4727289,110.271429 100.308759,111.106319 101.336259,111.106319 C102.363759,111.106319 103.199789,110.271429 103.199789,109.246154 C103.199789,108.220055 102.363759,107.385165 101.336259,107.385165 L101.336259,107.385165 Z M101.336259,112.506593 C99.5346265,112.506593 98.0705422,111.043681 98.0705422,109.246154 C98.0705422,107.447802 99.5346265,105.98489 101.336259,105.98489 C103.137892,105.98489 104.601976,107.447802 104.601976,109.246154 C104.601976,111.043681 103.137892,112.506593 101.336259,112.506593 L101.336259,112.506593 Z" id="Fill-54" fill="#FF6909" sketch:type="MSShapeGroup" mask="url(#mask-2)"></path>
                    <path d="M97.8600904,119.80467 C96.8325904,119.80467 95.9957349,120.63956 95.9957349,121.664835 C95.9957349,122.690934 96.8325904,123.526648 97.8600904,123.526648 C98.8867651,123.526648 99.7227952,122.690934 99.7227952,121.664835 C99.7227952,120.63956 98.8867651,119.80467 97.8600904,119.80467 L97.8600904,119.80467 Z M97.8600904,124.926923 C96.0592831,124.926923 94.5935482,123.464011 94.5935482,121.664835 C94.5935482,119.866484 96.0592831,118.404396 97.8600904,118.404396 C99.6608976,118.404396 101.124982,119.866484 101.124982,121.664835 C101.124982,123.464011 99.6608976,124.926923 97.8600904,124.926923 L97.8600904,124.926923 Z" id="Fill-55" fill="#FF6909" sketch:type="MSShapeGroup" mask="url(#mask-2)"></path>
                    <path d="M86.148241,130.326923 C85.1215663,130.326923 84.2855361,131.162637 84.2855361,132.188736 C84.2855361,133.214011 85.1215663,134.048901 86.148241,134.048901 C87.175741,134.048901 88.0125964,133.214011 88.0125964,132.188736 C88.0125964,131.162637 87.175741,130.326923 86.148241,130.326923 L86.148241,130.326923 Z M86.148241,135.449176 C84.3474337,135.449176 82.8833494,133.986264 82.8833494,132.188736 C82.8833494,130.38956 84.3474337,128.926648 86.148241,128.926648 C87.9490482,128.926648 89.4147831,130.38956 89.4147831,132.188736 C89.4147831,133.986264 87.9490482,135.449176 86.148241,135.449176 L86.148241,135.449176 Z" id="Fill-56" fill="#FF6909" sketch:type="MSShapeGroup" mask="url(#mask-2)"></path>
                    <path d="M80.4610904,112.281593 C79.4335904,112.281593 78.5975602,113.117308 78.5975602,114.144231 C78.5975602,115.169505 79.4335904,116.003571 80.4610904,116.003571 C81.4885904,116.003571 82.3254458,115.169505 82.3254458,114.144231 C82.3254458,113.117308 81.4885904,112.281593 80.4610904,112.281593 L80.4610904,112.281593 Z M80.4610904,117.403846 C78.6602831,117.403846 77.1953735,115.941758 77.1953735,114.144231 C77.1953735,112.345055 78.6602831,110.881319 80.4610904,110.881319 C82.2627229,110.881319 83.7276325,112.345055 83.7276325,114.144231 C83.7276325,115.941758 82.2627229,117.403846 80.4610904,117.403846 L80.4610904,117.403846 Z" id="Fill-57" fill="#FF6909" sketch:type="MSShapeGroup" mask="url(#mask-2)"></path>
                </g>
            </g>
        </g>
    </g>
</svg>