<svg xmlns="http://www.w3.org/2000/svg" xmlns:xlink="http://www.w3.org/1999/xlink" version="1.1" x="0px" y="0px" viewBox="0 0 100 100" enable-background="new 0 0 100 100" xml:space="preserve"><g><g><path d="M90.7,70.4h-3V11.2h3c0.8,0,1.4-0.6,1.4-1.4c0-0.8-0.6-1.4-1.4-1.4H51.4V6.4C51.4,5.6,50.8,5,50,5c-0.8,0-1.4,0.6-1.4,1.4    v1.8H9.3c-0.8,0-1.4,0.6-1.4,1.4c0,0.8,0.6,1.4,1.4,1.4h3v59.2h-3c-0.8,0-1.4,0.6-1.4,1.4c0,0.8,0.6,1.4,1.4,1.4h28.9L18.9,92.5    c-0.6,0.6-0.6,1.5,0,2c0.3,0.3,0.7,0.4,1,0.4c0.4,0,0.7-0.1,1-0.4l21.3-21.3h6.3v16.2c0,0.8,0.6,1.4,1.4,1.4    c0.8,0,1.4-0.6,1.4-1.4V73.3h6.3l21.3,21.3c0.3,0.3,0.7,0.4,1,0.4c0.4,0,0.7-0.1,1-0.4c0.6-0.6,0.6-1.5,0-2L61.9,73.3h28.9    c0.8,0,1.4-0.6,1.4-1.4C92.2,71,91.5,70.4,90.7,70.4z M84.9,70.4H15.1V11.2h69.8V70.4z"></path></g></g><g><g><path d="M36.6,64.7H22.6c-0.8,0-1.4-0.6-1.4-1.4V49.2c0-0.8,0.6-1.4,1.4-1.4h14.1c0.8,0,1.4,0.6,1.4,1.4v14.1    C38.1,64,37.4,64.7,36.6,64.7z M24,61.8h11.2V50.6H24V61.8z"></path></g><g><path d="M57,64.7H43c-0.8,0-1.4-0.6-1.4-1.4V49.2c0-0.8,0.6-1.4,1.4-1.4H57c0.8,0,1.4,0.6,1.4,1.4v14.1C58.5,64,57.8,64.7,57,64.7    z M44.4,61.8h11.2V50.6H44.4V61.8z"></path></g><g><path d="M77.4,64.7H63.4c-0.8,0-1.4-0.6-1.4-1.4V49.2c0-0.8,0.6-1.4,1.4-1.4h14.1c0.8,0,1.4,0.6,1.4,1.4v14.1    C78.9,64,78.2,64.7,77.4,64.7z M64.8,61.8H76V50.6H64.8V61.8z"></path></g></g><g><path d="M63.5,37.2H36.5c-0.8,0-1.4-0.6-1.4-1.4c0-0.8,0.6-1.4,1.4-1.4h26.9c0.8,0,1.4,0.6,1.4,1.4C64.9,36.5,64.3,37.2,63.5,37.2z   "></path></g><g><path d="M54.9,42.8h-9.7c-0.8,0-1.4-0.6-1.4-1.4c0-0.8,0.6-1.4,1.4-1.4h9.7c0.8,0,1.4,0.6,1.4,1.4C56.3,42.1,55.7,42.8,54.9,42.8z"></path></g><g><path d="M50,30.5c-3.9,0-7-3.2-7-7c0-3.9,3.2-7,7-7s7,3.2,7,7C57,27.4,53.9,30.5,50,30.5z M50,19.4c-2.3,0-4.1,1.9-4.1,4.1   s1.9,4.1,4.1,4.1s4.1-1.9,4.1-4.1S52.3,19.4,50,19.4z"></path></g></svg>