<?xml version="1.0" encoding="UTF-8" standalone="no"?>
<svg width="601px" height="520px" viewBox="0 0 601 481" version="1.1" xmlns="http://www.w3.org/2000/svg" xmlns:xlink="http://www.w3.org/1999/xlink" xmlns:sketch="http://www.bohemiancoding.com/sketch/ns">
    <!-- Generator: Sketch 3.4.4 (17249) - http://www.bohemiancoding.com/sketch -->
    <title>Untitled 17</title>
    <desc>Created with Sketch.</desc>
    <defs></defs>
    <g id="Page-1" stroke="none" stroke-width="1" fill="none" fill-rule="evenodd" sketch:type="MSPage">
        <path d="M155.508079,345.999498 C172.745627,345.999498 187.612423,356.126525 194.50084,370.751236 C208.002577,370.97334 219.930763,377.639363 227.347654,387.81388 C230.757114,383.732027 235.882017,381.131062 241.616766,381.131062 C244.64862,381.131062 247.501805,381.872375 250.030087,383.159537 L250.030087,360.566873 L273.327867,360.566873 L273.327867,386.514556 C277.010396,380.98222 283.050068,377.154324 290.014353,376.46832 L290.014353,344.195444 L318.664932,344.195444 L318.664932,370.172085 C328.297365,370.62527 335.974585,378.555869 335.974585,388.300946 C335.974585,388.585888 335.945627,388.863591 335.932307,389.145347 C336.699681,389.23251 337.448523,389.379035 338.184044,389.559151 L338.184044,358.992452 L358.333851,358.992452 L358.333851,380.636757 C361.144469,378.856158 364.466766,377.810212 368.039546,377.810212 C377.192442,377.810212 384.743118,384.582799 386.005956,393.387046 C390.614257,389.131158 396.770917,386.528745 403.538292,386.528745 C410.456245,386.528745 416.734817,389.251332 421.375261,393.67749 C421.317635,392.7911 421.278542,391.899788 421.278542,391.000077 C421.278542,368.237722 439.730859,349.785116 462.493504,349.785116 C465.201033,349.785116 467.844855,350.053263 470.407307,350.551622 C500.301902,313.732992 518.22806,266.803263 518.22806,215.679903 C518.22806,97.4173552 422.35721,1.54650579 304.095241,1.54650579 C185.832403,1.54650579 89.9618436,97.4173552 89.9618436,215.679903 C89.9618436,266.554517 107.715415,313.275174 137.349392,350.013012 C142.868697,347.44332 149.018407,345.999498 155.508079,345.999498" id="Fill-1" fill="#F2ECE8" sketch:type="MSShapeGroup"></path>
        <g id="Group" sketch:type="MSLayerGroup" transform="translate(133.000000, 1.000000)" fill="#D4DBE4">
            <path d="M304.990627,287.456023 C304.990627,294.827452 299.015241,300.803996 291.643813,300.803996 C284.272384,300.803996 278.296708,294.827452 278.296708,287.456023 C278.296708,280.084595 284.272384,274.109208 291.643813,274.109208 C299.015241,274.109208 304.990627,280.084595 304.990627,287.456023" id="Fill-3" sketch:type="MSShapeGroup"></path>
            <path d="M42.5389865,280.660618 C42.5389865,292.142278 33.2317471,301.449228 21.7495077,301.449228 C10.2678475,301.449228 0.960028958,292.142278 0.960028958,280.660618 C0.960028958,269.179247 10.2678475,259.871139 21.7495077,259.871139 C33.2317471,259.871139 42.5389865,269.179247 42.5389865,280.660618" id="Fill-5" sketch:type="MSShapeGroup"></path>
            <path d="M74.9055116,311.352761 C74.9055116,326.706332 62.4589865,339.152568 47.1042568,339.152568 C31.7498166,339.152568 19.3032915,326.706332 19.3032915,311.352761 C19.3032915,295.999189 31.7498166,283.551216 47.1042568,283.551216 C62.4589865,283.551216 74.9055116,295.999189 74.9055116,311.352761" id="Fill-7" sketch:type="MSShapeGroup"></path>
            <path d="M109.502548,95.0485039 C109.502548,100.514237 105.071467,104.945608 99.6060232,104.945608 C94.14,104.945608 89.7086293,100.514237 89.7086293,95.0485039 C89.7086293,89.5827703 94.14,85.1513996 99.6060232,85.1513996 C105.071467,85.1513996 109.502548,89.5827703 109.502548,95.0485039" id="Fill-9" sketch:type="MSShapeGroup"></path>
            <path d="M80.219971,94.8795367 C80.219971,98.2953668 77.4501834,101.065154 74.0343533,101.065154 C70.6182336,101.065154 67.8487355,98.2953668 67.8487355,94.8795367 C67.8487355,91.4637066 70.6182336,88.6944981 74.0343533,88.6944981 C77.4501834,88.6944981 80.219971,91.4637066 80.219971,94.8795367" id="Fill-11" sketch:type="MSShapeGroup"></path>
            <path d="M70.5630116,245.965039 C70.5630116,252.288494 65.4372394,257.412819 59.1140734,257.412819 C52.7917761,257.412819 47.6657143,252.288494 47.6657143,245.965039 C47.6657143,239.642741 52.7917761,234.517259 59.1140734,234.517259 C65.4372394,234.517259 70.5630116,239.642741 70.5630116,245.965039" id="Fill-13" sketch:type="MSShapeGroup"></path>
            <path d="M298.40166,144.686631 C298.40166,155.307963 289.790849,163.919643 279.168649,163.919643 C268.546158,163.919643 259.934479,155.307963 259.934479,144.686631 C259.934479,134.065299 268.546158,125.45362 279.168649,125.45362 C289.790849,125.45362 298.40166,134.065299 298.40166,144.686631" id="Fill-15" sketch:type="MSShapeGroup"></path>
            <path d="M320.328243,246.973745 C320.328243,251.739575 316.46473,255.603378 311.699768,255.603378 C306.933649,255.603378 303.070135,251.739575 303.070135,246.973745 C303.070135,242.208494 306.933649,238.34527 311.699768,238.34527 C316.46473,238.34527 320.328243,242.208494 320.328243,246.973745" id="Fill-17" sketch:type="MSShapeGroup"></path>
            <path d="M258.89499,165.746458 C258.89499,169.025319 256.23611,171.684199 252.957249,171.684199 C249.67723,171.684199 247.018349,169.025319 247.018349,165.746458 C247.018349,162.467017 249.67723,159.808137 252.957249,159.808137 C256.23611,159.808137 258.89499,162.467017 258.89499,165.746458" id="Fill-19" sketch:type="MSShapeGroup"></path>
            <path d="M171.095125,0.546563707 C150.909701,0.546563707 131.379006,3.343861 112.864141,8.56432432 C116.440396,8.38478764 120.040396,8.29241313 123.661245,8.29241313 C240.606805,8.29241313 335.408832,103.095309 335.408832,220.04029 C335.408832,288.744054 302.679585,349.793475 251.972925,388.480154 C252.449566,389.725328 252.810666,391.027548 253.00584,392.386815 C257.614141,388.131216 263.770801,385.528803 270.538176,385.528803 C277.456419,385.528803 283.734701,388.25139 288.375145,392.677548 C288.317809,391.791158 288.278427,390.899846 288.278427,390.000135 C288.278427,367.23778 306.731033,348.785174 329.493388,348.785174 C332.201207,348.785174 334.844739,349.05332 337.407191,349.55139 C367.301786,312.73305 385.228234,265.80332 385.228234,214.679961 C385.228234,96.4174131 289.357384,0.546563707 171.095125,0.546563707" id="Fill-21" sketch:type="MSShapeGroup"></path>
        </g>
        <path d="M253.152896,382.6361 L249.258398,382.6361 L249.258398,356.83639 L253.152896,356.83639 L253.152896,382.6361 Z" id="Fill-23" fill="#454164" sketch:type="MSShapeGroup"></path>
        <path d="M274.527317,388.018436 L270.632819,388.018436 L270.632819,356.83639 L274.527317,356.83639 L274.527317,388.018436 Z" id="Fill-25" fill="#454164" sketch:type="MSShapeGroup"></path>
        <path d="M339.279247,387.987741 L335.385618,387.987741 L335.385618,356.83668 L339.279247,356.83668 L339.279247,387.987741 Z" id="Fill-26" fill="#454164" sketch:type="MSShapeGroup"></path>
        <path d="M360.653089,381.02722 L356.759749,381.02722 L356.759749,356.83668 L360.653089,356.83668 L360.653089,381.02722 Z" id="Fill-27" fill="#454164" sketch:type="MSShapeGroup"></path>
        <path d="M291.815541,374.968147 L287.921042,374.968147 L287.921042,339.862934 L291.815541,339.862934 L291.815541,374.968147 Z" id="Fill-28" fill="#454164" sketch:type="MSShapeGroup"></path>
        <path d="M320.732819,380.725772 L316.839479,380.725772 L316.839479,339.862645 L320.732819,339.862645 L320.732819,380.725772 Z" id="Fill-29" fill="#454164" sketch:type="MSShapeGroup"></path>
        <path d="M346.99666,478.505936 L343.103031,478.505936 C343.103031,466.424566 352.930637,456.597249 365.012008,456.597249 C366.604961,456.597249 368.194151,456.773311 369.759305,457.124276 C372.286718,445.684894 382.532761,437.311535 394.448784,437.311535 C400.634402,437.311535 406.598494,439.594257 411.195502,443.651786 C417.789421,431.28721 430.71751,423.439141 444.863842,423.439141 C455.961525,423.439141 466.405637,428.21279 473.666737,436.571959 L513.65332,436.571959 L513.65332,440.465878 L471.849073,440.465878 L471.26471,439.760183 C464.728127,431.862307 455.105251,427.33277 444.863842,427.33277 C431.325618,427.33277 419.029672,435.338369 413.538166,447.728427 L412.325135,450.466071 L410.314614,448.246187 C406.264614,443.771959 400.481216,441.205164 394.448784,441.205164 C383.732471,441.205164 374.613456,449.208736 373.237104,459.822539 L372.93305,462.165203 L370.691737,461.420415 C368.837876,460.803909 366.92668,460.490589 365.012008,460.490589 C355.078127,460.490589 346.99666,468.572056 346.99666,478.505936" id="Fill-30" fill="#454164" sketch:type="MSShapeGroup"></path>
        <path d="M54.068639,417.026612 L0.999913127,417.026612 L0.999913127,413.133272 L50.243639,413.133272 C51.2447008,399.098716 62.9829247,387.986554 77.2679633,387.986554 C79.201168,387.986554 81.1332143,388.195048 83.0313803,388.607693 C88.8703764,378.492249 99.5722104,372.272751 111.321149,372.272751 C112.231284,372.272751 113.163427,372.31416 114.106863,372.396689 C121.0364,355.585975 137.649044,344.397075 155.922403,344.397075 C173.7336,344.397075 189.744797,354.749102 197.085531,370.885106 C197.301554,370.881631 197.517577,370.880473 197.73389,370.880473 C215.539875,370.880473 230.84306,382.963581 234.94721,400.264836 L231.157828,401.163678 C227.472114,385.625936 213.727423,374.774102 197.73389,374.774102 C197.129836,374.774102 196.528678,374.790029 195.932442,374.821014 L194.565647,374.892249 L194.036014,373.629411 C187.572983,358.237326 172.612365,348.290705 155.922403,348.290705 C138.757539,348.290705 123.195473,359.094759 117.198948,375.175743 L116.656863,376.629701 L115.11806,376.425261 C113.825396,376.253542 112.548079,376.16638 111.321149,376.16638 C100.518253,376.16638 90.7198938,382.138871 85.749334,391.751612 L85.0227896,393.156921 L83.4984653,392.733851 C81.4601448,392.167153 79.3639093,391.880183 77.2679633,391.880183 C64.4756853,391.880183 54.068639,402.287809 54.068639,415.079797 L54.068639,417.026612 Z" id="Fill-31" fill="#454164" sketch:type="MSShapeGroup"></path>
        <path d="M269.209151,480.984556 C269.209151,473.376834 263.020058,467.187452 255.412625,467.187452 C253.074015,467.187452 250.756255,467.790637 248.710405,468.930695 L246.803552,469.992568 L245.964942,467.978282 C241.876139,458.157336 232.363012,451.811293 221.728069,451.811293 C220.622471,451.811293 219.508185,451.886583 218.321795,452.039189 L216.913591,452.221332 L216.309826,450.935907 C210.918514,439.457143 199.248629,432.039961 186.578842,432.039961 C175.653456,432.039961 165.474595,437.452992 159.349788,446.519015 L156.122471,444.338514 C162.972954,434.199614 174.358185,428.146042 186.578842,428.146042 C200.285019,428.146042 212.944093,435.904054 219.216583,448.027413 C220.07112,447.95444 220.911757,447.917954 221.728069,447.917954 C233.253166,447.917954 243.632124,454.408205 248.709537,464.616892 C250.831255,463.747297 253.113977,463.293822 255.412625,463.293822 C265.167548,463.293822 273.103649,471.229923 273.103649,480.984556 L269.209151,480.984556 Z" id="Fill-32" fill="#454164" sketch:type="MSShapeGroup"></path>
        <path d="M158.025676,447.126834 L133.860328,447.126834 L133.860328,443.233494 L158.025676,443.233494 L158.025676,447.126834 Z" id="Fill-33" fill="#454164" sketch:type="MSShapeGroup"></path>
        <path d="M502.609846,276.04083 L429.351931,276.04083 L429.351931,272.14749 L502.609846,272.14749 L502.609846,276.04083 Z" id="Fill-34" fill="#454164" sketch:type="MSShapeGroup"></path>
        <path d="M538.104826,276.04083 L511.317375,276.04083 L511.317375,272.14749 L538.104826,272.14749 L538.104826,276.04083 Z" id="Fill-35" fill="#454164" sketch:type="MSShapeGroup"></path>
        <path d="M120.13417,298.276158 L27.5667954,298.276158 L27.5667954,294.382819 L120.13417,294.382819 L120.13417,298.276158 Z" id="Fill-36" fill="#454164" sketch:type="MSShapeGroup"></path>
        <path d="M142.137259,298.276158 L127.049228,298.276158 L127.049228,294.382819 L142.137259,294.382819 L142.137259,298.276158 Z" id="Fill-37" fill="#454164" sketch:type="MSShapeGroup"></path>
        <path d="M495.974228,64.6882239 L454.453185,64.6882239 L454.453185,60.7937259 L495.974228,60.7937259 L495.974228,64.6882239 Z" id="Fill-38" fill="#454164" sketch:type="MSShapeGroup"></path>
        <path d="M445.280309,64.6882239 L431.305695,64.6882239 L431.305695,60.7937259 L445.280309,60.7937259 L445.280309,64.6882239 Z" id="Fill-39" fill="#454164" sketch:type="MSShapeGroup"></path>
        <path d="M144.807432,132.714672 L109.602896,132.714672 L109.602896,128.820174 L144.807432,128.820174 L144.807432,132.714672 Z" id="Fill-40" fill="#454164" sketch:type="MSShapeGroup"></path>
        <path d="M90.8230695,132.714672 L73.8504826,132.714672 L73.8504826,128.820174 L90.8230695,128.820174 L90.8230695,132.714672 Z" id="Fill-41" fill="#454164" sketch:type="MSShapeGroup"></path>
        <path d="M329.630627,337.78083 C329.630627,341.209112 326.851573,343.988745 323.422712,343.988745 L287.039315,343.988745 C283.610454,343.988745 280.83111,341.209112 280.83111,337.78083 C280.83111,334.35168 283.610454,331.572915 287.039315,331.572915 L323.422712,331.572915 C326.851573,331.572915 329.630627,334.35168 329.630627,337.78083" id="Fill-42" fill="#FF7071" sketch:type="MSShapeGroup"></path>
        <path d="M287.03917,333.518629 C284.689846,333.518629 282.778359,335.430405 282.778359,337.780888 C282.778359,340.130212 284.689846,342.042278 287.03917,342.042278 L323.422568,342.042278 C325.771602,342.042278 327.683958,340.130212 327.683958,337.780888 C327.683958,335.430405 325.771602,333.518629 323.422568,333.518629 L287.03917,333.518629 Z M323.422568,345.935618 L287.03917,345.935618 C282.542355,345.935618 278.883861,342.277703 278.883861,337.780888 C278.883861,333.282915 282.542355,329.625 287.03917,329.625 L323.422568,329.625 C327.919093,329.625 331.577297,333.282915 331.577297,337.780888 C331.577297,342.277703 327.919093,345.935618 323.422568,345.935618 L323.422568,345.935618 Z" id="Fill-43" fill="#454164" sketch:type="MSShapeGroup"></path>
        <path d="M281.538514,354.753764 C281.538514,357.553378 279.269112,359.823069 276.470077,359.823069 L246.766023,359.823069 C243.966409,359.823069 241.697008,357.553378 241.697008,354.753764 C241.697008,351.955019 243.966409,349.685618 246.766023,349.685618 L276.470077,349.685618 C279.269112,349.685618 281.538514,351.955019 281.538514,354.753764" id="Fill-44" fill="#FF7071" sketch:type="MSShapeGroup"></path>
        <path d="M246.765734,351.632346 C245.045077,351.632346 243.644691,353.033311 243.644691,354.754546 C243.644691,356.475492 245.045077,357.876168 246.765734,357.876168 L276.470077,357.876168 C278.191023,357.876168 279.59112,356.475492 279.59112,354.754546 C279.59112,353.033311 278.191023,351.632346 276.470077,351.632346 L246.765734,351.632346 Z M276.470077,361.769508 L246.765734,361.769508 C242.897587,361.769508 239.750193,358.622983 239.750193,354.754546 C239.750193,350.885531 242.897587,347.739006 246.765734,347.739006 L276.470077,347.739006 C280.338803,347.739006 283.485907,350.885531 283.485907,354.754546 C283.485907,358.622983 280.338803,361.769508 276.470077,361.769508 L276.470077,361.769508 Z" id="Fill-45" fill="#454164" sketch:type="MSShapeGroup"></path>
        <path d="M368.057326,354.753764 C368.057326,357.553378 365.787635,359.823069 362.98918,359.823069 L333.284836,359.823069 C330.485222,359.823069 328.21582,357.553378 328.21582,354.753764 C328.21582,351.955019 330.485222,349.685618 333.284836,349.685618 L362.98918,349.685618 C365.787635,349.685618 368.057326,351.955019 368.057326,354.753764" id="Fill-46" fill="#FF7071" sketch:type="MSShapeGroup"></path>
        <path d="M333.284865,351.632346 C331.564498,351.632346 330.163533,353.033311 330.163533,354.754546 C330.163533,356.475492 331.564498,357.876168 333.284865,357.876168 L362.989208,357.876168 C364.709865,357.876168 366.110541,356.475492 366.110541,354.754546 C366.110541,353.033311 364.709865,351.632346 362.989208,351.632346 L333.284865,351.632346 Z M362.989208,361.769508 L333.284865,361.769508 C329.416718,361.769508 326.269903,358.622983 326.269903,354.754546 C326.269903,350.885531 329.416718,347.739006 333.284865,347.739006 L362.989208,347.739006 C366.857066,347.739006 370.00417,350.885531 370.00417,354.754546 C370.00417,358.622983 366.857066,361.769508 362.989208,361.769508 L362.989208,361.769508 Z" id="Fill-47" fill="#454164" sketch:type="MSShapeGroup"></path>
        <path d="M270.002442,341.803755 L270.002442,331.595357 L253.185357,331.595357 L253.185357,341.803755 C251.439797,343.232809 250.229083,345.100569 249.832654,347.190145 C249.778793,347.475087 249.810068,349.836573 249.810068,349.836573 L273.469237,349.836573 C273.469237,349.836573 273.495878,347.508098 273.472423,347.343909 C273.156786,345.105203 271.850222,343.316207 270.002442,341.803755" id="Fill-48" fill="#FFE3B5" sketch:type="MSShapeGroup"></path>
        <path d="M251.751149,347.889932 L271.534932,347.889932 C271.534643,347.734141 271.534064,347.61223 271.532037,347.536071 C271.293427,346.018118 270.389083,344.636264 268.769199,343.310589 L268.055106,342.726226 L268.055106,333.542056 L255.132519,333.542056 L255.132519,342.726226 L254.418427,343.310589 C252.995164,344.47584 252.07779,345.91416 251.761284,347.474971 C251.756361,347.562423 251.753176,347.706921 251.751149,347.889932 L251.751149,347.889932 Z M275.394392,351.783272 L247.888793,351.783272 L247.862732,349.862809 C247.829141,347.30528 247.885319,347.007017 247.919199,346.82777 C248.339373,344.612809 249.480878,342.588967 251.238021,340.925647 L251.238021,329.648716 L271.949604,329.648716 L271.949604,340.915222 C273.944778,342.751419 275.076149,344.772075 275.400183,347.071882 C275.42306,347.229411 275.444488,347.38028 275.4164,349.859334 L275.394392,351.783272 Z" id="Fill-49" fill="#454164" sketch:type="MSShapeGroup"></path>
        <path d="M356.326979,341.803755 L356.326979,331.595357 L339.509894,331.595357 L339.509894,341.803755 C337.764044,343.232809 336.55362,345.100569 336.156612,347.190145 C336.103041,347.475087 336.134315,349.836573 336.134315,349.836573 L359.793774,349.836573 C359.793774,349.836573 359.820125,347.508098 359.79667,347.343909 C359.481322,345.105203 358.175338,343.316207 356.326979,341.803755" id="Fill-50" fill="#FFE3B5" sketch:type="MSShapeGroup"></path>
        <path d="M338.075251,347.889932 L357.859035,347.889932 C357.859035,347.734141 357.858166,347.61223 357.856429,347.536071 C357.617819,346.018118 356.713475,344.636264 355.093301,343.310589 L354.380367,342.726226 L354.380367,333.542056 L341.456622,333.542056 L341.456622,342.726226 L340.742529,343.310589 C339.320425,344.474971 338.402761,345.913292 338.085676,347.474102 C338.081042,347.562423 338.077278,347.706921 338.075251,347.889932 L338.075251,347.889932 Z M361.719073,351.783272 L334.212606,351.783272 L334.187124,349.86223 C334.153533,347.307307 334.20971,347.009044 334.243012,346.831824 C334.664054,344.612809 335.805849,342.588098 337.562992,340.924778 L337.562992,329.648716 L358.273707,329.648716 L358.273707,340.91638 C360.269459,342.751419 361.40083,344.773234 361.724575,347.072751 C361.746873,347.229411 361.768301,347.38028 361.740502,349.858176 L361.719073,351.783272 Z" id="Fill-51" fill="#454164" sketch:type="MSShapeGroup"></path>
        <path d="M259.108591,151.125782 C251.369402,151.125782 243.46168,171.188716 243.46168,187.603581 L243.46168,326.424817 L250.588417,334.024141 L274.755212,334.024141 L274.755212,187.770087 C274.755212,169.840454 266.147587,151.125782 259.108591,151.125782" id="Fill-52" fill="#C5D6E4" sketch:type="MSShapeGroup"></path>
        <path d="M274.297017,232.529537 L274.297017,183.457529 C274.297017,180.462162 273.380801,176.542761 271.820569,172.86139 C265.514199,166.082143 257.887654,169.857046 257.887654,184.688803 L257.887654,235.713996 L257.887654,239.479344 L257.887654,333.551351 L265.045376,333.551351 L274.297017,327.693243 L274.297017,236.753861 L274.297017,232.529537 Z" id="Fill-53" fill="#ADBCD2" sketch:type="MSShapeGroup"></path>
        <path d="M265.592355,156.517703 C262.273243,154.17417 248.01861,168.038166 248.408958,187.955444 C242.746602,191.079961 243.527587,183.073784 244.113398,177.801486 C244.698919,172.529479 254.657703,141.091448 265.592355,156.517703" id="Fill-54" fill="#E3ECF2" sketch:type="MSShapeGroup"></path>
        <path d="M251.431747,332.077529 L272.808195,332.077529 L272.808195,187.77 C272.808195,169.878591 264.26167,153.073089 259.108678,153.073089 C253.449508,153.073089 245.408871,170.931197 245.408871,187.603494 L245.408871,325.654459 L251.431747,332.077529 Z M276.702693,335.970869 L249.744971,335.970869 L241.514373,327.19529 L241.514373,187.603494 C241.514373,170.306873 249.633195,149.178591 259.108678,149.178591 C267.658967,149.178591 276.702693,169.015367 276.702693,187.77 L276.702693,335.970869 Z" id="Fill-55" fill="#454164" sketch:type="MSShapeGroup"></path>
        <path d="M350.512857,151.125782 C358.252336,151.125782 366.160058,171.188716 366.160058,187.603581 L366.160058,326.424817 L358.627625,334.024141 L334.866815,334.024141 L334.866815,187.770087 C334.866815,169.840454 343.473571,151.125782 350.512857,151.125782" id="Fill-56" fill="#C5D6E4" sketch:type="MSShapeGroup"></path>
        <path d="M344.232693,156.517703 C347.552095,154.17417 361.806149,168.038166 361.415801,187.955444 C367.079025,191.079961 366.297172,183.073784 365.71194,177.801486 C365.126129,172.529479 355.167346,141.091448 344.232693,156.517703" id="Fill-57" fill="#E3ECF2" sketch:type="MSShapeGroup"></path>
        <path d="M336.21111,232.529537 L336.21111,183.457529 C336.21111,180.462162 337.127616,176.542761 338.688137,172.86139 C344.994508,166.082143 352.621052,169.857046 352.621052,184.688803 L352.621052,235.713996 L352.621052,239.479344 L352.621052,333.551351 L345.46362,333.551351 L336.21111,327.693243 L336.21111,236.753861 L336.21111,232.529537 Z" id="Fill-58" fill="#ADBCD2" sketch:type="MSShapeGroup"></path>
        <path d="M336.812616,332.077529 L357.815801,332.077529 L364.213388,325.623764 L364.213388,187.603494 C364.213388,170.931197 356.172461,153.073089 350.513002,153.073089 C345.359431,153.073089 336.812616,169.878591 336.812616,187.77 L336.812616,332.077529 Z M359.43916,335.970869 L332.918986,335.970869 L332.918986,187.77 C332.918986,169.015367 341.962133,149.178591 350.513002,149.178591 C359.988774,149.178591 368.107017,170.306873 368.107017,187.603494 L368.107017,327.225985 L359.43916,335.970869 Z" id="Fill-59" fill="#454164" sketch:type="MSShapeGroup"></path>
        <path d="M233.40001,194.927027 C233.40001,194.927027 233.805705,186.390637 239.903581,182.325579 C243.49779,179.928764 250.4725,180.29305 250.4725,180.29305 L250.4725,231.105405 L233.40001,231.105405 L233.40001,194.927027 Z" id="Fill-60" fill="#89DAF7" sketch:type="MSShapeGroup"></path>
        <path d="M235.347288,229.158127 L248.52528,229.158127 L248.52528,182.234768 C245.240627,182.334672 242.464469,182.958417 240.983871,183.94529 C235.989566,187.275405 235.388118,194.405328 235.347288,194.986506 L235.347288,229.158127 Z M252.419778,233.052625 L231.45279,233.052625 L231.45279,194.927143 C231.473639,194.445869 231.986187,185.263726 238.823349,180.705521 C241.927886,178.635347 246.823736,178.326081 249.46582,178.326081 C250.156747,178.326081 250.574315,178.348668 250.574315,178.348668 L252.416303,178.447703 L252.419778,180.292876 L252.419778,233.052625 Z" id="Fill-61" fill="#454164" sketch:type="MSShapeGroup"></path>
        <path d="M250.539479,196.330019 L233.399807,196.330019 L233.399807,192.435521 L250.539479,192.435521 L250.539479,196.330019 Z" id="Fill-62" fill="#454164" sketch:type="MSShapeGroup"></path>
        <path d="M274.62056,209.068147 L250.539479,209.068147 L250.539479,205.173649 L274.62056,205.173649 L274.62056,209.068147 Z" id="Fill-63" fill="#454164" sketch:type="MSShapeGroup"></path>
        <path d="M274.889865,186.845849 L250.809942,186.845849 L250.809942,182.951351 L274.889865,182.951351 L274.889865,186.845849 Z" id="Fill-64" fill="#454164" sketch:type="MSShapeGroup"></path>
        <path d="M376.258185,194.927027 C376.258185,194.927027 375.85278,186.390637 369.754324,182.325579 C366.160116,179.928764 359.185695,180.29305 359.185695,180.29305 L359.185695,231.105405 L376.258185,231.105405 L376.258185,194.927027 Z" id="Fill-65" fill="#89DAF7" sketch:type="MSShapeGroup"></path>
        <path d="M361.132423,229.158127 L374.311573,229.158127 L374.311573,194.986506 C374.269875,194.405328 373.669585,187.275405 368.674701,183.945869 C367.194392,182.958417 364.417944,182.334672 361.132423,182.234768 L361.132423,229.158127 Z M378.204913,233.052625 L357.239083,233.052625 L357.239083,178.447992 L359.084546,178.348668 C359.084546,178.348668 359.501824,178.326081 360.192461,178.326081 C362.834257,178.326081 367.730685,178.635347 370.835222,180.705811 C377.672674,185.263726 378.184353,194.446158 378.202886,194.834768 L378.204913,233.052625 Z" id="Fill-66" fill="#454164" sketch:type="MSShapeGroup"></path>
        <path d="M376.258301,196.330019 L359.11834,196.330019 L359.11834,192.435521 L376.258301,192.435521 L376.258301,196.330019 Z" id="Fill-67" fill="#454164" sketch:type="MSShapeGroup"></path>
        <path d="M359.11805,209.068147 L335.037259,209.068147 L335.037259,205.173649 L359.11805,205.173649 L359.11805,209.068147 Z" id="Fill-68" fill="#454164" sketch:type="MSShapeGroup"></path>
        <path d="M358.848166,186.845849 L334.768243,186.845849 L334.768243,182.951351 L358.848166,182.951351 L358.848166,186.845849 Z" id="Fill-69" fill="#454164" sketch:type="MSShapeGroup"></path>
        <path d="M304.811448,47.6942375 C288.210965,47.6942375 274.75527,83.9991602 274.75527,106.753697 L274.75527,240.492597 L274.75527,252.004373 L274.75527,320.438253 L334.866757,320.438253 L334.866757,252.004373 L334.866757,240.492597 L334.866757,106.753697 C334.866757,85.6494498 321.409035,47.6942375 304.811448,47.6942375" id="Fill-70" fill="#F46B85" sketch:type="MSShapeGroup"></path>
        <path d="M321.634266,62.3985232 C314.604537,52.8303764 306.598649,53.0255502 299.178571,63.7656081 C293.236486,72.3659942 285.900386,92.0756467 285.900386,114.534527 L285.900386,143.434431 C281.994884,144.996689 276.722876,152.61194 275.550965,160.032307 C275.160618,146.168311 275.160618,124.298137 275.160618,110.238967 C275.160618,96.1797973 283.302317,47.6941795 304.81139,47.6941795 C314.799421,47.6941795 317.728764,55.1733301 321.634266,62.3985232" id="Fill-71" fill="#FF9DAF" sketch:type="MSShapeGroup"></path>
        <path d="M334.866757,205.931149 L334.866757,110.973909 C334.866757,105.17806 333.435965,97.5926351 331.001216,90.469083 C321.156815,77.3507432 309.252085,84.6558591 309.252085,113.356824 L309.252085,212.092153 L309.252085,219.378736 L309.252085,319.713967 L334.866757,319.713967 L334.866757,214.104701 L334.866757,205.931149 Z" id="Fill-72" fill="#D65F7C" sketch:type="MSShapeGroup"></path>
        <path d="M276.702548,318.491525 L332.918958,318.491525 L332.918958,106.754363 C332.918958,85.2710618 319.304575,49.6414286 304.811332,49.6414286 C289.84029,49.6414286 276.702548,85.2377606 276.702548,106.754363 L276.702548,318.491525 Z M336.812587,322.384865 L272.80805,322.384865 L272.80805,106.754363 C272.80805,94.9153668 276.248494,80.0207722 281.786622,67.8826448 C288.299749,53.6080309 296.476486,45.7469305 304.811332,45.7469305 C323.298687,45.7469305 336.812587,85.8704826 336.812587,106.754363 L336.812587,322.384865 Z" id="Fill-73" fill="#454164" sketch:type="MSShapeGroup"></path>
        <path d="M318.093427,319.327471 L318.093427,302.90334 L291.036091,302.90334 L291.036091,319.327471 C288.2275,321.62583 286.279817,324.63278 285.642461,327.994749 C285.55501,328.452278 285.606264,332.252085 285.606264,332.252085 L323.671226,332.252085 C323.671226,332.252085 323.714373,328.505849 323.676728,328.242046 C323.168234,324.640598 321.066786,321.761062 318.093427,319.327471" id="Fill-74" fill="#FFE3B5" sketch:type="MSShapeGroup"></path>
        <path d="M287.537876,330.306168 L321.741351,330.306168 C321.746853,329.41862 321.746853,328.684836 321.738456,328.445647 C321.32668,325.673542 319.73083,323.183195 316.860849,320.835029 L316.146757,320.250376 L316.146757,304.850183 L292.98305,304.850183 L292.98305,320.251535 L292.268668,320.835029 C289.723301,322.917944 288.093571,325.51862 287.555251,328.357616 C287.540772,328.53194 287.534981,329.336959 287.537876,330.306168 L287.537876,330.306168 Z M325.596467,334.199797 L283.685077,334.199797 L283.658726,332.279044 C283.605444,328.281747 283.695502,327.807712 283.729382,327.629624 C284.387008,324.163986 286.23334,321.001245 289.088842,318.433292 L289.088842,300.956554 L320.040386,300.956554 L320.040386,318.4275 C323.279865,321.281844 325.103031,324.410705 325.604575,327.970164 C325.62832,328.131458 325.66278,328.379334 325.617896,332.275569 L325.596467,334.199797 Z" id="Fill-75" fill="#454164" sketch:type="MSShapeGroup"></path>
        <path d="M241.933996,284.950859 L241.933996,307.372963 L284.178687,314.088504 L325.44056,314.088504 L367.542201,307.471708 L367.542201,284.950859 L241.933996,284.950859 Z" id="Fill-76" fill="#232323" sketch:type="MSShapeGroup"></path>
        <path d="M370.938398,270.572201 C365.422857,264.343436 324.375849,213.901737 324.375849,213.901737 L324.30722,213.907239 L320.696216,305.129826 C320.696216,305.129826 363.011853,300.187355 368.751525,299.283591 C373.160019,298.590347 375.235405,296.712452 375.235405,292.749324 L375.235405,282.175483 C375.235405,277.119788 374.460502,274.549807 370.938398,270.572201 L370.938398,270.572201 Z M285.508475,213.901737 C285.508475,213.901737 244.460888,264.343436 238.945058,270.572201 C235.423243,274.549807 234.64834,277.119788 234.64834,282.175483 L234.64834,292.749324 C234.64834,296.712452 236.723726,298.590347 241.13222,299.283591 C246.872181,300.187355 289.188108,305.129826 289.188108,305.129826 L285.577683,213.907239 L285.508475,213.901737 Z" id="Fill-77" fill="#FFE3B5" sketch:type="MSShapeGroup"></path>
        <path d="M283.831921,219.044334 C274.02082,231.088349 245.040705,266.625898 240.403156,271.863156 C237.145724,275.541631 236.595531,277.664797 236.595531,282.175512 L236.595531,292.749353 C236.595531,295.245782 237.366959,296.720589 241.434624,297.36055 C246.307886,298.126766 278.302191,301.892693 287.152191,302.930531 L283.831921,219.044334 Z M291.223909,307.328021 L288.962037,307.06306 C287.232983,306.861515 246.541863,302.106689 240.829701,301.207268 C235.359913,300.346651 232.701033,297.579759 232.701033,292.749353 L232.701033,282.175512 C232.701033,276.436708 233.819373,273.424257 237.487423,269.281014 C242.913485,263.15389 283.588098,213.176959 283.997847,212.672519 L284.645338,211.877346 L287.385878,212.101187 L287.523427,213.830241 L291.223909,307.328021 Z M326.052288,219.044624 L322.732017,302.930531 C331.581728,301.892693 363.575454,298.126766 368.448716,297.36055 C372.517539,296.720589 373.288678,295.245782 373.288678,292.749353 L373.288678,282.175512 C373.288678,277.664797 372.737905,275.541631 369.480763,271.863156 C364.842925,266.625898 335.864257,231.089508 326.052288,219.044624 L326.052288,219.044624 Z M318.660299,307.328021 L322.42999,212.107847 L325.170241,211.882558 L325.886361,212.672519 C326.2964,213.176959 366.970145,263.15389 372.396496,269.281014 C376.064836,273.424257 377.182307,276.436708 377.182307,282.175512 L377.182307,292.749353 C377.182307,297.579759 374.523137,300.346651 369.053639,301.207268 C363.341766,302.106689 322.651226,306.861515 320.922172,307.06306 L318.660299,307.328021 Z" id="Fill-78" fill="#454164" sketch:type="MSShapeGroup"></path>
        <path d="M283.538668,217.182886 L284.037896,235.929122 L246.464054,281.206535 L246.335483,299.773523 C246.335483,299.773523 233.994942,300.905763 233.66222,290.897172 C233.329498,280.888581 234.992239,274.215898 239.480946,269.29138 C243.970232,264.365994 283.538668,217.182886 283.538668,217.182886" id="Fill-79" fill="#B7EDAD" sketch:type="MSShapeGroup"></path>
        <path d="M325.904054,217.182886 L325.404826,235.929122 L362.978668,281.206535 L363.107529,299.773523 C363.107529,299.773523 375.448359,300.905763 375.780502,290.897172 C376.112645,280.888581 374.450193,274.215898 369.961776,269.29138 C365.47278,264.365994 325.904054,217.182886 325.904054,217.182886" id="Fill-80" fill="#B7EDAD" sketch:type="MSShapeGroup"></path>
        <path d="M365.192124,299.537085 L361.298784,299.537085 L361.298784,284.495965 C361.298784,281.878205 360.999363,280.726274 359.13305,278.619035 C357.845888,277.165656 352.568378,270.775888 346.456313,263.37695 C337.715772,252.795 326.838456,239.626564 324.801873,237.483127 L327.623784,234.799923 C329.754479,237.041236 340.222915,249.714788 349.459498,260.896158 C355.548108,268.267876 360.806216,274.63361 362.049073,276.037181 C364.45834,278.757741 365.192124,280.734672 365.192124,284.495965 L365.192124,299.537085 Z" id="Fill-81" fill="#454164" sketch:type="MSShapeGroup"></path>
        <path d="M248.281342,299.503147 L244.386844,299.503147 L244.386844,283.535965 C244.386844,279.645521 245.114836,277.597934 247.502095,274.776023 C248.74611,273.307008 254.006824,266.642143 260.098041,258.924093 C269.331728,247.22612 279.797268,233.967336 281.925647,231.623224 L284.808658,234.241853 C282.770917,236.485483 271.89418,250.265792 263.155087,261.337413 C257.041573,269.082104 251.762037,275.771583 250.475454,277.292432 C248.583658,279.527375 248.281342,280.752568 248.281342,283.535965 L248.281342,299.503147 Z" id="Fill-82" fill="#454164" sketch:type="MSShapeGroup"></path>
        <path d="M333.874035,109.354344 L275.747587,109.354344 L275.747587,105.459846 L333.874035,105.459846 L333.874035,109.354344 Z" id="Fill-83" fill="#454164" sketch:type="MSShapeGroup"></path>
        <path d="M333.874035,123.757529 L275.747587,123.757529 L275.747587,119.863031 L333.874035,119.863031 L333.874035,123.757529 Z" id="Fill-84" fill="#454164" sketch:type="MSShapeGroup"></path>
        <path d="M336.21111,228.422606 C329.898948,220.687761 325.100106,214.791429 324.45638,214.000598 L324.303485,214.000598 L320.696245,305.129942 C320.696245,305.129942 327.602326,304.322606 336.21111,303.302143 L336.21111,228.422606 Z" id="Fill-85" fill="#232323" sketch:type="MSShapeGroup"></path>
        <path d="M283.831921,219.044334 C274.02082,231.088349 245.040705,266.625898 240.403156,271.863156 C237.145724,275.541631 236.595531,277.664797 236.595531,282.175512 L236.595531,292.749353 C236.595531,295.245782 237.366959,296.720589 241.434624,297.36055 C246.307886,298.126766 278.302191,301.892693 287.152191,302.930531 L283.831921,219.044334 Z M291.223909,307.328021 L288.962037,307.06306 C287.232983,306.861515 246.541863,302.106689 240.829701,301.207268 C235.359913,300.346651 232.701033,297.579759 232.701033,292.749353 L232.701033,282.175512 C232.701033,276.436708 233.819373,273.424257 237.487423,269.281014 C242.913485,263.15389 283.588098,213.176959 283.997847,212.672519 L284.645338,211.877346 L287.385878,212.101187 L287.523427,213.830241 L291.223909,307.328021 Z M326.052288,219.044624 L322.732017,302.930531 C331.581728,301.892693 363.575454,298.126766 368.448716,297.36055 C372.517539,296.720589 373.288678,295.245782 373.288678,292.749353 L373.288678,282.175512 C373.288678,277.664797 372.737905,275.541631 369.480763,271.863156 C364.842925,266.625898 335.864257,231.089508 326.052288,219.044624 L326.052288,219.044624 Z M318.660299,307.328021 L322.42999,212.107847 L325.170241,211.882558 L325.886361,212.672519 C326.2964,213.176959 366.970145,263.15389 372.396496,269.281014 C376.064836,273.424257 377.182307,276.436708 377.182307,282.175512 L377.182307,292.749353 C377.182307,297.579759 374.523137,300.346651 369.053639,301.207268 C363.341766,302.106689 322.651226,306.861515 320.922172,307.06306 L318.660299,307.328021 Z" id="Fill-86" fill="#454164" sketch:type="MSShapeGroup"></path>
        <path d="M312.656564,143.171786 C318.888224,153.500357 325.871332,174.489353 325.871332,193.695724 L325.871332,307.716573 L283.750869,307.716573 L283.750869,194.993311 C283.750869,175.188098 289.937355,154.021014 296.626255,143.643214 C300.907046,137.001515 308.566023,136.389932 312.656564,143.171786" id="Fill-87" fill="#89DAF7" sketch:type="MSShapeGroup"></path>
        <path d="M311.083388,142.829334 C309.774508,141.905589 304.923832,141.945261 299.644006,151.065724 C294.610319,159.759643 287.060801,175.774604 285.230396,200.941014 C282.027403,177.147191 290.14362,158.058098 292.09362,153.124604 C295.983195,143.287153 303.952886,130.513986 311.083388,142.829334" id="Fill-88" fill="#B3E6F9" sketch:type="MSShapeGroup"></path>
        <path d="M317.065232,156.832037 C314.11388,152.80723 307.94332,160.223832 307.94332,181.127114 L307.94332,308.027693 L325.921892,307.766786 C325.921892,307.766786 326.188301,208.884064 326.188301,194.395164 C326.188301,179.906554 322.163494,165.68638 317.065232,156.832037" id="Fill-89" fill="#75C7E4" sketch:type="MSShapeGroup"></path>
        <path d="M285.69806,305.769469 L323.924604,305.769469 L323.924604,193.695724 C323.924604,175.457693 317.25945,154.570917 310.989566,144.177481 C309.485801,141.685106 307.384064,140.312519 305.070357,140.312519 C302.540627,140.312519 300.058967,141.910975 298.263021,144.698427 C292.019199,154.385589 285.69806,174.772268 285.69806,194.993311 L285.69806,305.769469 Z M327.817944,309.663098 L281.803562,309.663098 L281.803562,194.993311 C281.803562,174.019662 288.437153,152.754411 294.989373,142.588292 C297.516786,138.666863 301.190917,136.418021 305.070357,136.418021 C308.748253,136.418021 312.120936,138.513098 314.324025,142.166091 C321.030299,153.280859 327.817944,174.549875 327.817944,193.695724 L327.817944,309.663098 Z" id="Fill-90" fill="#454164" sketch:type="MSShapeGroup"></path>
        <path d="M314.995811,181.518764 C314.350927,181.519054 313.720811,181.199363 313.349865,180.61471 C311.057008,177.002838 308.044556,175.004768 304.865019,174.98971 C301.717625,174.972046 298.629595,176.978514 296.261737,180.630637 C295.677375,181.533243 294.471583,181.790676 293.568687,181.205444 C292.66666,180.620502 292.408938,179.41471 292.99388,178.512394 C296.107683,173.707761 300.301892,171.086815 304.883842,171.095212 C309.369073,171.116931 313.653919,173.825907 316.637413,178.52832 C317.214537,179.435849 316.945232,180.639324 316.037124,181.215579 C315.713089,181.420598 315.351988,181.518764 314.995811,181.518764" id="Fill-91" fill="#454164" sketch:type="MSShapeGroup"></path>
        <path d="M387.415058,399.382876 L383.626834,398.482297 C383.903378,397.317915 384.044112,396.113282 384.044112,394.900251 C384.044112,386.392819 377.122104,379.470521 368.614382,379.470521 C365.508977,379.470521 362.516506,380.389054 359.957819,382.126506 C357.286776,383.940405 355.27973,386.490116 354.155019,389.501699 L350.507239,388.139537 C351.915734,384.36695 354.42722,381.174382 357.770077,378.904981 C360.975676,376.727375 364.725676,375.577181 368.614382,375.577181 C379.269595,375.577181 387.937741,384.245328 387.937741,394.900251 C387.937741,396.416467 387.762259,397.923996 387.415058,399.382876" id="Fill-92" fill="#454164" sketch:type="MSShapeGroup"></path>
        <path d="M261.394498,402.211593 L257.605985,401.311014 C257.883398,400.145473 258.023552,398.939971 258.023552,397.728967 C258.023552,389.221245 251.102124,382.299237 242.594112,382.299237 C239.488996,382.299237 236.495656,383.21777 233.937548,384.954353 C232.117568,386.191129 230.551255,387.836496 229.407722,389.713813 L226.08166,387.687365 C227.512452,385.338909 229.472297,383.279739 231.749228,381.732539 C234.955985,379.556091 238.705695,378.405608 242.594112,378.405608 C253.249035,378.405608 261.91805,387.073755 261.91805,397.728967 C261.91805,399.243156 261.741988,400.751844 261.394498,402.211593" id="Fill-93" fill="#454164" sketch:type="MSShapeGroup"></path>
        <path d="M319.582307,399.551699 L315.936554,398.182297 C318.731535,390.738185 325.767925,385.929208 333.862133,385.929208 C337.355569,385.929208 340.780087,386.872066 343.764739,388.656429 L341.766091,391.998417 C339.385203,390.575154 336.651902,389.822548 333.862133,389.822548 C327.406052,389.822548 321.801322,393.642046 319.582307,399.551699" id="Fill-94" fill="#454164" sketch:type="MSShapeGroup"></path>
        <path d="M338.76667,388.245521 L334.87333,388.245521 C334.87333,379.738089 327.951033,372.816081 319.442732,372.816081 L319.442732,368.922162 C330.097654,368.922162 338.76667,377.590309 338.76667,388.245521" id="Fill-95" fill="#454164" sketch:type="MSShapeGroup"></path>
        <path d="M270.6475,408.085685 C264.977905,396.501805 269.790647,382.464064 281.374237,376.794759 C286.243156,374.410106 291.823562,373.7936 297.087751,375.051805 L296.18138,378.840029 C291.796342,377.790319 287.145183,378.306342 283.086496,380.292249 C273.431187,385.018118 269.419701,396.718407 274.14499,406.374295 L270.6475,408.085685 Z" id="Fill-96" fill="#454164" sketch:type="MSShapeGroup"></path>
        <path d="M431.044237,416.536824 L427.184488,416.013272 C427.331014,414.940106 427.404855,413.841458 427.404855,412.747442 C427.404855,399.457095 416.592403,388.644353 403.301477,388.644353 C397.446554,388.644353 391.800994,390.770125 387.40582,394.629295 L384.836998,391.701689 C389.941921,387.219353 396.499643,384.750724 403.301477,384.750724 C418.739894,384.750724 431.298485,397.309315 431.298485,412.747442 C431.298485,414.01694 431.21306,415.29194 431.044237,416.536824" id="Fill-97" fill="#454164" sketch:type="MSShapeGroup"></path>
        <path d="M345.780676,420.361795 C345.420444,416.242008 346.607124,412.164208 349.124402,408.878398 C354.665714,401.650598 365.048436,400.278012 372.276236,405.817297 L369.906641,408.907355 C367.231544,406.856583 363.919961,405.964402 360.577104,406.413822 C357.236274,406.855425 354.26668,408.571448 352.215907,411.247413 C350.292548,413.758031 349.384151,416.87473 349.660985,420.022413 L345.780676,420.361795 Z" id="Fill-98" fill="#454164" sketch:type="MSShapeGroup"></path>
        <path d="M308.254701,452.202654 L304.394373,451.690106 C305.337809,444.587114 300.326708,438.040685 293.224875,437.09667 C290.475068,436.733542 286.421882,436.663176 282.725454,438.411052 L280.766477,439.337983 L280.053832,437.291844 C279.911361,436.881805 279.386361,435.51472 278.994276,434.721284 C274.038485,424.677654 261.836071,420.537307 251.793021,425.493098 C247.368311,427.677075 243.894855,431.387693 242.012326,435.941844 L238.413195,434.453716 C240.657114,429.026207 244.796303,424.603523 250.069469,422.00111 C262.039932,416.096959 276.581245,421.029006 282.486264,432.997732 C282.651612,433.332481 282.825357,433.721959 282.988967,434.110569 C286.944566,432.762017 290.925357,432.860763 293.737423,433.236921 C298.209044,433.83084 302.182307,436.130068 304.924006,439.713272 C307.666573,443.295319 308.84862,447.731322 308.254701,452.202654" id="Fill-99" fill="#454164" sketch:type="MSShapeGroup"></path>
        <path d="M325.587056,410.789421 L321.792751,409.911429 C322.395068,407.308726 321.946805,404.627548 320.53194,402.361622 C319.117944,400.095985 316.90501,398.516931 314.303176,397.915772 C311.701631,397.314324 309.019295,397.761718 306.753658,399.175714 C304.488021,400.59029 302.908388,402.802645 302.306361,405.406216 L298.512346,404.527934 C299.348349,400.912297 301.542751,397.837587 304.691014,395.872239 C307.839855,393.906602 311.564662,393.283726 315.180299,394.121467 C318.796226,394.957471 321.869778,397.151004 323.835415,400.299556 C325.801631,403.447239 326.423929,407.172915 325.587056,410.789421" id="Fill-100" fill="#454164" sketch:type="MSShapeGroup"></path>
        <path d="M420.337568,395.270849 C420.063629,393.277124 420.011795,391.873552 420.011795,389.982046 C420.011795,366.456081 439.151274,347.315734 462.677529,347.315734 C483.776564,347.315734 501.495965,362.414189 504.811023,383.217857 L500.964305,383.831178 C497.952722,364.928571 481.850309,351.209363 462.677529,351.209363 C441.298764,351.209363 423.905425,368.602413 423.905425,389.982046 C423.905425,391.740347 423.950309,392.95917 424.19529,394.741795 L420.337568,395.270849 Z" id="Fill-101" fill="#454164" sketch:type="MSShapeGroup"></path>
        <path d="M600.738716,395.736023 L531.390936,395.736023 L530.873176,394.593359 C526.473079,384.89056 516.748562,378.620676 506.098272,378.620676 C504.602616,378.620676 503.102326,378.743456 501.637944,378.984672 L501.005512,375.141718 C502.67723,374.866042 504.391515,374.727046 506.098272,374.727046 C517.848948,374.727046 528.615068,381.404363 533.872597,391.842683 L600.738716,391.842683 L600.738716,395.736023 Z" id="Fill-102" fill="#454164" sketch:type="MSShapeGroup"></path>
        <path d="M241.912365,94.0791602 L220.457732,94.0791602 L220.759759,91.8682529 C220.880801,90.9844691 220.902809,90.3789672 220.902809,89.5056081 C220.902809,78.8431564 212.228292,70.168639 201.566129,70.168639 C192.003485,70.168639 183.972983,77.0104344 182.470956,86.4363996 L178.625106,85.8239479 C180.430319,74.4963417 190.078388,66.2741409 201.566129,66.2741409 C214.375782,66.2741409 224.797307,76.695666 224.797307,89.5056081 C224.797307,89.741612 224.79528,89.9651641 224.791226,90.1846622 L241.912365,90.1846622 L241.912365,94.0791602 Z" id="Fill-103" fill="#454164" sketch:type="MSShapeGroup"></path>
        <path d="M166.248108,93.4430212 L129.400811,93.4430212 L129.400811,89.5485232 L163.790483,89.5485232 C166.783243,84.0746815 172.570116,80.6023842 178.870116,80.6023842 C179.814421,80.6023842 180.761042,80.6797008 181.683919,80.8323069 L181.049459,84.6743919 C180.335946,84.5565347 179.603031,84.4968822 178.870116,84.4968822 C173.667317,84.4968822 168.916255,87.5597201 166.766448,92.3000676 L166.248108,93.4430212 Z" id="Fill-104" fill="#454164" sketch:type="MSShapeGroup"></path>
        <path d="M136.174701,351.850946 C105.076052,313.751815 88.6380212,266.872761 88.6380212,216.283668 C88.6380212,158.550753 111.120357,104.27305 151.943813,63.4498842 C192.767268,22.6264286 247.044971,0.143803089 304.777886,0.143803089 C362.510801,0.143803089 416.788214,22.6264286 457.611959,63.4498842 C498.434836,104.27305 520.916882,158.550753 520.916882,216.283668 C520.916882,266.654131 504.583967,313.425174 473.682519,351.542548 L470.657616,349.089846 C500.989759,311.674691 517.023542,265.750656 517.023542,216.283668 C517.023542,99.2515251 421.810319,4.03859073 304.777886,4.03859073 C187.744875,4.03859073 92.5325193,99.2515251 92.5325193,216.283668 C92.5325193,265.965521 108.667075,311.992645 139.191786,349.389266 L136.174701,351.850946 Z" id="Fill-105" fill="#454164" sketch:type="MSShapeGroup"></path>
        <path d="M465.176795,184.898629 L469.303822,189.026236 L473.432008,184.898629 L469.303822,180.771023 L465.176795,184.898629 Z M469.303822,194.533378 L459.669363,184.898629 L469.303822,175.26388 L478.939151,184.898629 L469.303822,194.533378 Z" id="Fill-106" fill="#454164" sketch:type="MSShapeGroup"></path>
        <path d="M153.972693,224.680164 L158.100299,228.80777 L162.227326,224.680164 L158.100299,220.552558 L153.972693,224.680164 Z M158.100299,234.314913 L148.465261,224.680164 L158.100299,215.045415 L167.734759,224.680164 L158.100299,234.314913 Z" id="Fill-107" fill="#454164" sketch:type="MSShapeGroup"></path>
        <path d="M79.5867664,342.485849 L88.0009556,350.899749 L96.4145656,342.485849 L88.0009556,334.072239 L79.5867664,342.485849 Z M88.0009556,356.406892 L74.079334,342.485849 L88.0009556,328.564807 L101.921998,342.485849 L88.0009556,356.406892 Z" id="Fill-108" fill="#454164" sketch:type="MSShapeGroup"></path>
        <path d="M59.9014382,166.26417 L66.0945849,172.457317 L72.2874421,166.26417 L66.0945849,160.071023 L59.9014382,166.26417 Z M66.0945849,177.964459 L54.3942954,166.26417 L66.0945849,154.56388 L77.7945849,166.26417 L66.0945849,177.964459 Z" id="Fill-109" fill="#454164" sketch:type="MSShapeGroup"></path>
        <path d="M540.742915,323.01362 L546.567143,328.839006 L552.39166,323.01362 L546.567143,317.189392 L540.742915,323.01362 Z M546.567143,334.346149 L535.235483,323.01362 L546.567143,311.681959 L557.898803,323.01362 L546.567143,334.346149 Z" id="Fill-110" fill="#454164" sketch:type="MSShapeGroup"></path>
        <path d="M180.613764,296.437153 C178.206815,296.437153 176.248707,298.396419 176.248707,300.80279 C176.248707,303.20945 178.206815,305.167847 180.613764,305.167847 C183.020714,305.167847 184.978822,303.20945 184.978822,300.80279 C184.978822,298.396419 183.020714,296.437153 180.613764,296.437153 M180.613764,309.061766 C176.059324,309.061766 172.354498,305.35694 172.354498,300.80279 C172.354498,296.248639 176.059324,292.543813 180.613764,292.543813 C185.168205,292.543813 188.873031,296.248639 188.873031,300.80279 C188.873031,305.35694 185.168205,309.061766 180.613764,309.061766" id="Fill-111" fill="#454164" sketch:type="MSShapeGroup"></path>
        <path d="M420.622597,213.178755 C418.216226,213.178755 416.257249,215.136863 416.257249,217.543813 C416.257249,219.950763 418.216226,221.908581 420.622597,221.908581 C423.029257,221.908581 424.987944,219.950763 424.987944,217.543813 C424.987944,215.136863 423.029257,213.178755 420.622597,213.178755 M420.622597,225.803079 C416.068736,225.803079 412.36362,222.098253 412.36362,217.543813 C412.36362,212.989373 416.068736,209.284257 420.622597,209.284257 C425.176747,209.284257 428.881573,212.989373 428.881573,217.543813 C428.881573,222.098253 425.176747,225.803079 420.622597,225.803079" id="Fill-112" fill="#454164" sketch:type="MSShapeGroup"></path>
        <path d="M369.346284,86.6107239 C366.939913,86.6107239 364.980936,88.568832 364.980936,90.9754923 C364.980936,93.3824421 366.939913,95.3405502 369.346284,95.3405502 C371.752944,95.3405502 373.711921,93.3824421 373.711921,90.9754923 C373.711921,88.568832 371.752944,86.6107239 369.346284,86.6107239 M369.346284,99.2350483 C364.792133,99.2350483 361.087307,95.530222 361.087307,90.9754923 C361.087307,86.4210521 364.792133,82.7162259 369.346284,82.7162259 C373.900434,82.7162259 377.60555,86.4210521 377.60555,90.9754923 C377.60555,95.530222 373.900434,99.2350483 369.346284,99.2350483" id="Fill-113" fill="#454164" sketch:type="MSShapeGroup"></path>
        <path d="M488.987268,148.365753 L464.605319,148.365753 L464.605319,146.418649 C464.605319,142.732066 461.605898,139.733224 457.919894,139.733224 L454.437172,139.733224 L454.437172,137.78612 C454.437172,129.633707 447.803871,123.001564 439.652037,123.001564 C432.9336,123.001564 427.24721,127.214015 425.502809,133.4839 L425.2086,134.541718 L423.295376,135.075985 L422.705222,134.858514 C419.491226,133.675888 415.859373,134.091139 412.747597,136.000598 C408.838041,138.401467 406.726168,142.887857 407.36584,147.431583 L403.509855,147.975116 C402.653292,141.896931 405.479257,135.893745 410.709855,132.682355 C414.306959,130.473764 418.457442,129.779073 422.332828,130.688629 C425.057442,123.690753 431.801071,119.107066 439.652037,119.107066 C449.296052,119.107066 457.256477,126.452722 458.231187,135.843649 C463.26082,135.989305 467.421728,139.663436 468.319701,144.471255 L488.987268,144.471255 L488.987268,148.365753 Z" id="Fill-114" fill="#454164" sketch:type="MSShapeGroup"></path>
        <path d="M524.852703,148.365637 L498.677124,148.365637 L498.677124,144.471139 L524.852703,144.471139 L524.852703,148.365637 Z" id="Fill-115" fill="#454164" sketch:type="MSShapeGroup"></path>
    </g>
</svg>